<?xml version="1.0" encoding="utf-8"?>
<!-- Generator: Adobe Illustrator 22.1.0, SVG Export Plug-In . SVG Version: 6.00 Build 0)  -->
<svg version="1.1" id="Layer_1" xmlns="http://www.w3.org/2000/svg" xmlns:xlink="http://www.w3.org/1999/xlink" x="0px" y="0px"
	 viewBox="0 0 360.8 374.4" style="enable-background:new 0 0 360.8 374.4;" xml:space="preserve">
<style type="text/css">
	.st0{fill:#F7F8F9;}
	.st1{clip-path:url(#SVGID_2_);}
	.st2{fill:#FFFFFF;}
	.st3{opacity:0.3;enable-background:new    ;}
	.st4{clip-path:url(#SVGID_4_);}
	.st5{opacity:0.6;fill:#FFFFFF;enable-background:new    ;}
	.st6{fill:none;}
	.st7{fill:#263238;}
	.st8{opacity:0.2;enable-background:new    ;}
	.st9{fill:#F7F8F9;stroke:#263238;stroke-width:0.812;stroke-linecap:round;stroke-linejoin:round;}
	.st10{fill:#263238;stroke:#263238;stroke-width:0.812;stroke-linecap:round;stroke-linejoin:round;}
	.st11{fill:#FFFFFF;stroke:#263238;stroke-width:0.812;stroke-linecap:round;stroke-linejoin:round;}
	.st12{fill:none;stroke:#263238;stroke-width:0.812;stroke-linecap:round;stroke-linejoin:round;}
	.st13{fill:#797979;stroke:#263238;stroke-width:0.812;stroke-linecap:round;stroke-linejoin:round;}
	.st14{fill:none;stroke:#263238;stroke-width:1.6241;stroke-linecap:round;stroke-linejoin:round;}
	.st15{fill:none;stroke:#696969;stroke-width:0.812;stroke-linecap:round;stroke-linejoin:round;}
	.st16{fill:#B2B2B2;stroke:#263238;stroke-width:0.812;stroke-linecap:round;stroke-linejoin:round;}
	.st17{fill:#9A9A9A;}
</style>
<g>
	<g id="freepik--Medal--inject-69">
		<polygon class="st0" points="151,137.6 113.9,278.4 155.8,253.3 179.8,288.6 176.8,140.6 		"/>
		<g>
			<defs>
				<polygon id="SVGID_1_" points="151,137.6 113.9,278.4 155.8,253.3 179.8,288.6 176.8,140.6 				"/>
			</defs>
			<clipPath id="SVGID_2_">
				<use xlink:href="#SVGID_1_"  style="overflow:visible;"/>
			</clipPath>
			<g class="st1">
				<polygon class="st2" points="157.5,245.7 122.8,266.5 155.2,143.7 171.3,145.6 173.8,269.7 				"/>
				<path class="st3" d="M177.5,174.4l-0.7-33.9l-25.8-3l-8,30.1c2.8,5.7,4.8,13.3,9.8,14.9c6.7,2.2,15.7-8.4,23.1-8.4
					C176.4,174.3,177,174.3,177.5,174.4z"/>
			</g>
		</g>
		<polygon class="st0" points="202.2,138.6 261.5,271.7 222.4,252 198,292.4 177.3,145.7 		"/>
		<g>
			<defs>
				<polygon id="SVGID_3_" points="202.2,138.6 261.5,271.7 222.4,252 198,292.4 177.3,145.7 				"/>
			</defs>
			<clipPath id="SVGID_4_">
				<use xlink:href="#SVGID_3_"  style="overflow:visible;"/>
			</clipPath>
			<g class="st4">
				<polygon class="st2" points="183.5,149.8 199.1,145.4 249.9,259.6 220.2,244.6 201.4,275.9 				"/>
				<path class="st3" d="M202.3,138.6l-25,7.1l4,28h0.4c7.4,0,16.4,10.5,23.1,8.4c5.1-1.7,7-9.7,10-15.4L202.3,138.6z"/>
			</g>
		</g>
		<path class="st0" d="M256.2,102c0,7.4-12.9,12.7-15,19.4c-2.2,6.9,5,18.7,0.8,24.5c-4.2,5.8-17.7,2.6-23.6,6.8
			c-5.8,4.2-6.8,18.1-13.8,20.3c-6.7,2.2-15.7-8.4-23.1-8.4c-7.4,0-16.4,10.5-23.1,8.4c-6.9-2.2-8-16.1-13.8-20.3
			c-5.8-4.2-19.3-1-23.6-6.8c-4.3-5.8,3-17.6,0.8-24.5c-2.2-6.7-15-12-15-19.4s12.9-12.7,15-19.4c2.3-6.9-5-18.7-0.8-24.5
			s17.7-2.6,23.6-6.8c5.8-4.2,6.8-18.1,13.8-20.3c6.7-2.2,15.7,8.4,23.1,8.4S198,28.8,204.7,31c6.9,2.2,8,16.1,13.8,20.3
			c5.8,4.2,19.3,1,23.6,6.8s-3,17.6-0.8,24.5C243.4,89.2,256.2,94.5,256.2,102z"/>
		<path class="st5" d="M248.1,102c0,6.6-11.5,11.3-13.4,17.3c-2,6.2,4.4,16.7,0.7,21.8c-3.7,5.1-15.8,2.3-21,6.1
			c-5.2,3.8-6.1,16.1-12.2,18.1c-6,1.9-14-7.4-20.6-7.4s-14.6,9.3-20.5,7.4c-6.2-2-7.1-14.4-12.3-18.1c-5.1-3.7-17.2-0.9-21-6.1
			c-3.8-5.2,2.7-15.7,0.7-21.8c-1.9-6-13.4-10.7-13.4-17.3c0-6.6,11.5-11.3,13.4-17.3c2-6.2-4.4-16.7-0.7-21.8s15.8-2.3,21-6.1
			s6.1-16.1,12.3-18.1c5.9-1.9,14,7.4,20.5,7.4s14.6-9.4,20.6-7.4c6.2,2,7.1,14.4,12.2,18.1s17.2,0.8,21,6.1s-2.7,15.7-0.7,21.8
			C236.7,90.6,248.1,95.3,248.1,102z"/>
		<path class="st6" d="M256.2,102c0,7.4-12.9,12.7-15,19.4c-2.2,6.9,5,18.7,0.8,24.5c-4.2,5.8-17.7,2.6-23.6,6.8
			c-5.8,4.2-6.8,18.1-13.8,20.3c-6.7,2.2-15.7-8.4-23.1-8.4c-7.4,0-16.4,10.5-23.1,8.4c-6.9-2.2-8-16.1-13.8-20.3
			c-5.8-4.2-19.3-1-23.6-6.8c-4.3-5.8,3-17.6,0.8-24.5c-2.2-6.7-15-12-15-19.4s12.9-12.7,15-19.4c2.3-6.9-5-18.7-0.8-24.5
			s17.7-2.6,23.6-6.8c5.8-4.2,6.8-18.1,13.8-20.3c6.7-2.2,15.7,8.4,23.1,8.4S198,28.8,204.7,31c6.9,2.2,8,16.1,13.8,20.3
			c5.8,4.2,19.3,1,23.6,6.8s-3,17.6-0.8,24.5C243.4,89.2,256.2,94.5,256.2,102z"/>
		<circle class="st2" cx="181.6" cy="101.9" r="55.4"/>
		<path class="st7" d="M155.2,75.9c6.6-3.3,11.9-5.1,20.3-15.2h20.7v65.8H207v15.5h-46.5v-15.4h11.6V83.4l-11.6,5.5L155.2,75.9z"/>
	</g>
	<g id="freepik--character-2--inject-69">
		<ellipse class="st8" cx="269.6" cy="358.1" rx="78.8" ry="15.4"/>
		<path class="st9" d="M342.4,161.9c-1.2-5.8-1.9-5.5-8.9-7.7c-7.7-2.4-15.7-3.8-23.8-4c-5.2-0.2-10.4,0.4-15.4,1.8
			c0,0-8.8,1.1-15.1,2.5c-5.4,10.8,0.7,25.7,0.7,25.7s7.7,16.9,7.7,25.5c0,8.7-6.6,23.8-6.9,24.2s-20.3,35.3-25.4,47.1
			c-5.1,11.8-5.2,16.6-2.5,21.3s34.1,47.8,34.1,47.8s-8.4,9.6-12.2,12.1c-3.8,2.5-8.6,2.9-7,4.9c1.7,2.1,12.8,2.9,15.8,2.2
			c3-0.7,9.9-6.7,13.9-9.5c4-2.8,7.6-4.7,6-8.1c-1.5-3.4-4.8-6.5-6.2-9.2c-1.4-2.8-6.3-10.7-9.1-20.6c-2.7-9.9-4.8-15.8-8-21.1
			c-3.2-5.4-5.4-7.4-5.4-7.4s11.8-10.9,18.1-16.3s11.9-10,11.9-10s21.4-22,23.3-26.8s7.1-19.9,11-33.1S343.6,167.7,342.4,161.9z"/>
		<path class="st10" d="M279.9,180.2c0,0-6.1-14.8-0.7-25.7c-1.5,0.3-3,0.7-4.4,1.2c-5.2,1.9-30.6,12.6-33.2,13.7
			c-2.6,1.1-7.4,5.1-6.2,9.2c1.2,4.2,3.2,5.4,11.9,5.5C256.2,184.4,279.9,180.2,279.9,180.2z"/>
		<path class="st11" d="M261.2,105.2c0,0,7.8,4,8.2,4.7c0.4,0.7-0.1,2.2-0.7,3.3c-0.6,1.1-3.6,3.7-4.9,4.3c-1.4,0.5-0.3-3.6-0.3-5.9
			s-4-4.3-4.4-5.4C258.8,105.1,260.2,104.8,261.2,105.2z"/>
		<path class="st10" d="M246.3,183.2l-3,0.8c-3,0.8-8.2,1.2-9.1,0.1c-0.8-1.1-3.7-15.7-3.3-23.8s12.5-42.7,13.9-45.3
			c1.4-2.6,13.2-11.1,13.2-11.1s1.5-0.4,3.3,1.2s6.9,5.1,6.6,6.4c-0.3,1.4-3.2,5.5-4.4,6.6c-1.2,1.1-3.2,0-3.2,0s-1.5,2.6-3.4,3.4
			c-1.9,0.8-6.5-0.1-6.5-0.1s-3.7,23.1-2.6,31.9c1.1,8.8,3.3,19.1,1.7,24"/>
		<path class="st11" d="M256.8,121.7c1.9-0.8,3.4-3.4,3.4-3.4s1.9,1.1,3.2,0c1.2-1.1,4.1-5.2,4.4-6.6c0.3-1.4-4.8-4.8-6.6-6.4
			c-1.8-1.6-3.3-1.2-3.3-1.2s-11.8,8.5-13.2,11.1c-0.3,0.6-1.3,3.2-2.6,6.7c2.3,1.6,5,2.6,7.7,2.9c0.3-2,0.5-3.2,0.5-3.2
			S254.9,122.5,256.8,121.7z"/>
		<path class="st11" d="M269.1,112.9c0,0,1.9,0.5,1.4,1.9s-2.6,2.9-3.8,2.7c-1.2-0.1-1.5-1.8-0.7-3.2
			C266.7,113.1,268.4,112.4,269.1,112.9z"/>
		<path class="st12" d="M260.3,118.3c0,0-1.1-1.2-0.4-2.2c0.7-1,2.1-0.3,2.1-0.3l-2.1-2.6"/>
		<circle class="st11" cx="276.6" cy="210.8" r="7.8"/>
		<path class="st11" d="M274.6,203.1c1.6-4.4,5.2-7.9,9.7-9.5c7.7-2.9,20.2-5.9,27.5-15.4c7.2-9.5,4.6-27.7,4.6-27.7l5.6,0.8
			c0,0-0.8,18.2-4.4,27.8c-3.6,9.7-14.6,15.1-23.4,16.6S278.2,197.1,274.6,203.1z"/>
		<path class="st11" d="M274.6,203.1c0,0-0.9-6.2,4.7-12.7s14.6-13.6,16.2-20.2c1.5-6.6-0.2-18.1-0.2-18.1l4.8-1.4
			c1.3,6,1.4,12.2,0.2,18.3c-2.1,9.4-7.2,13.9-13.6,18.7S274.6,203.1,274.6,203.1z"/>
		<path class="st10" d="M336.8,157c-3.3,2.7-5.3,6.6-5.6,10.8c-0.6,7.1,0.7,26,0.7,33.4s-5.5,18.5-4.7,24.3
			c0.8,5.8,8.4,12.6,12.5,8.1c4.1-4.5,7.3-19.1,8.8-37.9s0.3-31.5-2.1-35.3S340.2,154.1,336.8,157z"/>
		<path class="st10" d="M341.3,228c-0.8,4.7-3.4,9.2-6.2,10.2c-2.7,0.9-5.9-2.9-10.3-10c-4.4-7.1-6.7-15-8.4-23.2
			c-1.5-7.5-2.6-15.1-3.3-22.8c-0.1-3.2,0-4,1.8-5.9s8.2-3.4,8.2-3.4l1.1-1.9c0.5-1,3.4-1.5,4.8-0.7c1.4,0.8,2.1,5.4,2.1,5.4
			s3.8,2.2,3.8,4.4c0,2.2-2.5,4.5-5.2,8.2c-2.7,3.7-3.6,2.3-3.8,5.8c-0.3,3.4,1.7,8,5.1,11.1c3.4,3.2,8.4,7,9.8,13.2"/>
		<path class="st11" d="M325.9,194.7c0-0.3,0-0.5,0-0.8c0.3-3.4,1.1-2.1,3.8-5.8c2.7-3.7,5.2-6,5.2-8.2c0-2.2-3.8-4.4-3.8-4.4
			s-0.7-4.5-2.1-5.4c-1.4-0.8-4.3-0.3-4.8,0.7l-1.1,1.9c0,0-6.5,1.5-8.2,3.4s-1.9,2.8-1.8,5.9c0.1,2,0.8,7.6,1.7,13.4
			C318.5,196.3,322.4,196,325.9,194.7z"/>
		<path class="st13" d="M328.4,235.8c-16.5-5.5-37-8.2-46.3-9.1c-0.8,1.9-1.3,3.1-1.4,3.2c-0.3,0.4-20.3,35.3-25.4,47.1
			c-5.1,11.8-5.2,16.6-2.5,21.3c2.7,4.7,34.1,47.8,34.1,47.8c5-0.6,9.5-4,11.5-5.7c-0.4-0.6-0.8-1.2-1.2-1.9
			c-1.4-2.7-6.3-10.7-9.1-20.6c-2.7-9.9-4.8-15.8-8-21.1c-3.2-5.4-5.4-7.4-5.4-7.4s11.8-10.9,18.1-16.3s11.9-10,11.9-10
			s21.4-22,23.3-26.8C328.3,236.1,328.4,236,328.4,235.8z"/>
		<path class="st9" d="M298.4,340.5c-1.6,3-8.2,8.7-8.2,8.7s-1.7-1.8-2.6-3c-0.7-0.9-1-0.7-1.1-0.5l0.4,0.5c0,0-8.4,9.6-12.2,12.1
			c-3.8,2.5-8.6,2.9-7,4.9c1.7,2.1,12.8,2.9,15.8,2.2c3-0.7,9.9-6.7,13.9-9.5c4-2.8,7.6-4.7,6-8.1
			C302.2,345.1,300,342.7,298.4,340.5z"/>
		<path class="st11" d="M281.3,363.7c-2.8,0.7-10.5-0.8-13.9-1.7c-0.1,0.4,0,0.8,0.3,1.1c1.7,2.1,12.8,2.9,15.8,2.2
			c3-0.7,9.9-6.7,13.9-9.5c4-2.8,7.6-4.7,6-8.1c-0.2-0.4-0.4-0.8-0.6-1.2c-0.7,1-1.6,2-2.4,3.1C297.9,352.7,285,362.7,281.3,363.7z"
			/>
		<path class="st13" d="M320,242.7c0,0-12-10.7-23.6-14.6c-11.6-3.8-33.4-2.7-38.9-0.5c-5.5,2.2-3.2,9.2-3,17.3
			c0.1,8.1,5.6,23.1,8,31.6c2.3,8.5,3.2,18,3.4,21.3c0.3,3.3,0.3,4.5,0.3,4.5s-15.2-0.1-19.2-0.5s-6.3,0.8-7,2.2
			c-0.4,0.7-0.6,1.5-0.4,2.3c0,0,10.3,6.7,19.2,10.4c8.9,3.7,17.4,6,18.5,5.5c1.1-0.6,2.2-8.9,2.2-14.7c0-5.8,1.8-33.5,1.8-38.5
			v-12.8c0,0,26.6,14.1,37.2,10.8s9.9-31.3,9.9-31.3l-8.6-2.7"/>
		<path class="st9" d="M266.2,302.3c0,0-15.2-0.1-19.2-0.5s-6.3,0.8-7,2.2c-0.4,0.7-0.6,1.5-0.4,2.3c0,0,10.3,6.7,19.2,10.4
			c8.9,3.7,17.4,6,18.5,5.5c1-0.5,1.9-7,2.1-12.5C273.8,304.9,266.2,302.3,266.2,302.3z"/>
		<path class="st11" d="M277.3,322.2c0.4-0.2,0.8-1.7,1.2-3.6c-4.8-0.4-9.5-1.4-14-3.1c-7.8-2.9-20.4-9.1-24.7-11.2
			c-0.3,0.6-0.4,1.3-0.3,2c0,0,10.3,6.7,19.2,10.4C267.7,320.4,276.2,322.8,277.3,322.2z"/>
		<path class="st12" d="M281.3,256.3c0,0-0.1-11.9-6.2-17.9"/>
		<path class="st11" d="M271.9,137.1c0,0,3.3,10.7,4.7,14.5c1.4,3.8,1.6,5.9,6.1,10.2c4.6,4.3,5.5,7.7,10.2,8.1
			c4.7,0.4,6.5-2.5,6.5-2.5s0.7,4.3,3.1,5.6s8,1.6,11.4-5.1c3.4-6.7,1.3-9.9,0.1-13.1c-1.2-3.1-2.8-7.1-2.8-7.1
			c1.7-2.4,2.6-5.2,2.5-8.1c-0.3-4.6-1.6-5.1-3-5.5s-5.5,2.2-7.2,1.4c-1.7-0.8,1.2-5.2-3.4-5.6s-9.3,5.9-17.5,6.5
			C274.6,137.2,271.6,134.7,271.9,137.1z"/>
		<path class="st11" d="M299.5,167.5l7.5-8.4c3.3-3.7,3.3-9.2,3.3-9.2"/>
		<path class="st12" d="M284.9,150c0,0,0.9,4.2,0,6.3s-0.1,3.1,1.4,3.3c0.8,0.1,1.5,0,2.2-0.3"/>
		<path class="st14" d="M289.7,150.4c0,0,0.9-2.7,5.2-2"/>
		<path class="st14" d="M278.8,151.1c0,0,2.5-1.4,4.3,0.5"/>
		<path class="st12" d="M276.6,147c0,0,3-3,6.5,1.7"/>
		<path class="st12" d="M287.3,147.3c0,0,1.4-4.8,5.9-4.2"/>
		<path class="st12" d="M291.4,160.6c0,0,6.8-1.3,8.1-9.3c0,0,3.4,5.4,1,9.7s-5.5,3.7-5.5,3.7L291.4,160.6z"/>
		<path class="st10" d="M276.3,122c0,0,3.4-4.7-0.4-4.1c-3.8,0.7-10.1,8-9.3,14.9c0.8,6.9,14.8,8.5,21.6,7.5
			c4.1-0.6,7.9-2.5,10.9-5.4c0,0-2.5,5.4,0.1,6c2.7,0.6,3.9,0,3.9,0s2.5,5.6,3.3,3.9c0.8-1.7-0.2-3,0.3-5.2c1-5.1,4.8-5,4.8-5
			s0.7-12.7-4.1-17.6c-4.7-4.9-17-5.5-22.1-2.9S276.3,122,276.3,122z"/>
	</g>
	<g id="freepik--character-1--inject-69">
		<ellipse class="st8" cx="78.8" cy="358.1" rx="78.8" ry="15.4"/>
		<path class="st9" d="M26.5,341.2c0,0-10.3,5.3-14.3,10.1c-4.1,4.8,0.5,8,8.9,5.3c8.4-2.7,11.4-14.5,11.4-14.5
			S29.6,339.6,26.5,341.2z"/>
		<path class="st9" d="M135.3,341.2c0,0,10.3,5.3,14.3,10.1c4.1,4.8-0.5,8-8.9,5.3c-8.4-2.7-11.4-14.5-11.4-14.5
			S132.2,339.6,135.3,341.2z"/>
		<path class="st10" d="M70.7,124.6l-0.1,9.1c-3.8-0.9-7.6-2-11.3-3.3c-6.1-2.1-7.6-0.3-11.1,2.8c-3.6,3-20.5,22.5-22.3,24.2
			s-7.3,10.1-7.3,14.4c0,4.3,3.4,7.3,10.2,3.7s19.4-13.5,19.4-13.5s6.5,19.2,6.6,22.5c0.1,3.3-4.4,10.5-6.8,17.1
			c-2.4,6.6-3.5,24.9-5.2,31.2c-1.6,6.3-5.8,12.9-9.1,29.7c-3.3,16.8-3.5,29.7-4.3,33s-1.8,15.8-2.9,25.7
			c-1.2,9.8-1.9,20.7-0.6,21.9s4.9,1.9,6.7,0c1.8-1.9,15-35.5,17.7-43.2c2.7-7.7,20.6-42.6,22.1-46.6c1.5-3.9,4.3-9.3,4.3-9.3
			S86,261.3,89.2,270c3.2,8.7,20.5,42.4,25.3,51.2s12.6,20.6,14.8,21.8c2.1,1.1,5.6,0.4,6-1.8c0.4-2.3-3.2-37.2-5.9-43.8
			c-2.7-6.6-4.4-10.2-5.2-15c-0.8-4.8-8.1-44.1-11.5-51.4c-3.4-7.2-3.9-8.6-4-9c-0.1-0.4-2.5-8.8-6.1-17.5s-7.5-16.3-7.5-16.3
			l6.4-17.7c0,0,9.5,19.6,13.9,23.8c4.4,4.2,18.8,22.1,18.8,22.1l4.6-4.6l-14.7-25.2c0,0-3.2-16.3-7-26.6
			c-3.8-10.3-6.6-17.8-11.5-20.1s-15.6-2.9-17.5-3.7s-1.3-1.4-1.4-1.8s0.6-8.8,0.6-8.8s-7,2.5-10.4,1.4
			C75,126.4,72.8,125.5,70.7,124.6z"/>
		<line class="st15" x1="98" y1="215.5" x2="83.4" y2="234.4"/>
		<line class="st15" x1="51.4" y1="217.1" x2="67.7" y2="233.9"/>
		<line class="st15" x1="54.1" y1="226.8" x2="70.4" y2="237.1"/>
		<path class="st9" d="M95.2,188.2l6.4-17.7c0,0-3.4-24-9.9-33.5c-1.1-0.1-2.3-0.3-3.4-0.7c-1.9-0.8-1.3-1.4-1.4-1.8
			s0.6-8.8,0.6-8.8s-7.1,2.4-10.4,1.4c-2.2-0.7-4.4-1.5-6.4-2.5l-0.1,9.1c0,0-1.7-0.4-4.3-1.1c-2.8,3.6-14,18.4-18.1,29.3
			c0,0,6.5,19.2,6.6,22.5c0.1,2.4-2.3,6.8-4.5,11.6c4.1,2.8,11.5,6,23.5,6.2c14.4,0.3,22.2-3.1,25.6-5.2
			C97,191.9,95.2,188.2,95.2,188.2z"/>
		<path class="st16" d="M86.6,146.5c2.5-2.5,3.3-6.2,3.2-9.8c-0.5-0.1-1-0.2-1.5-0.4c-1.9-0.8-1.3-1.4-1.4-1.8s0.6-8.8,0.6-8.8
			s-7.1,2.4-10.4,1.4c-2.2-0.7-4.4-1.5-6.4-2.5l-0.1,9.1c0,0-0.5-0.1-1.4-0.3c-0.7,2.7-2,9.9,2.3,13.9
			C75.7,151,82.7,150.2,86.6,146.5z"/>
		<path class="st11" d="M65.9,132.4c0,0-0.4,9.5-2.8,14.7s-4.9,5.9-4.9,5.9c1,0.6,2.1,1.2,3.2,1.7c2,0.8,2.4,0.5,2.4,0.5
			s3.8-2.4,5.6-8.7c1.1-4.2,1.5-8.5,1.3-12.8L65.9,132.4z"/>
		<path class="st10" d="M73.1,83.9c0,0-0.2-4.3,7.6-6.4s14.6,4.1,15.3,8.3c0.6,4.1-0.6,6.4-1.6,6.7c-1,0.4-5.1-3.8-11.3-5.9
			S72.3,85.8,73.1,83.9z"/>
		<path class="st16" d="M65.1,104.8c0,0-0.9-2.9-3.4-1.1c-2.4,1.7-1.3,7.2-0.2,8.7c1.1,1.6,3.4,1.6,3.8,0.5c0.5-1.1,0.5-7.5,0.5-7.5
			"/>
		<path class="st16" d="M64.8,90.9c0,0-2.7,4-1.4,8c1.3,4,0.6,6.8,0.6,11.5s3.4,10.8,5.6,14.6c2.2,3.8,6.7,8.4,11.4,6.9
			c4.8-1.4,11.8-11.4,13.1-16c1.3-4.6,0.8-5.7,1.6-7.6c1.3-3.4,2-7,1.9-10.7c0-5.2-6.2-12.2-13.8-14.5
			C76.1,80.9,67.6,83.1,64.8,90.9z"/>
		<path class="st16" d="M93.7,109.4c0,0,1.3-3.8,3.7-2.7c2.4,1.1,1.4,7-0.5,8.7s-4,1-4-0.2"/>
		<path class="st12" d="M75.8,114.5c1.6,1.6,4.2,1.7,5.9,0.2"/>
		<path class="st12" d="M74.4,118.2c0,0,3.9,3.4,9.2-0.1"/>
		<ellipse class="st7" cx="73.2" cy="108.7" rx="1.2" ry="1.9"/>
		<ellipse class="st7" cx="84.5" cy="108.7" rx="1.2" ry="1.9"/>
		<path class="st12" d="M70,104.1c1.6-1.4,3.8-1.8,5.7-1.1"/>
		<path class="st12" d="M81.7,103.4c0,0,4.3-1.9,6.6,1.9"/>
		<path class="st10" d="M83.7,83.1c-7.6-2.2-16.1,0-18.9,7.8c0,0-2.7,4-1.4,8c0.4,1.3,0.7,2.6,0.7,3.9l0.2,0.2
			c1-1.1,1.6-2.4,1.7-3.8c0.3-2.4,5.6-8.4,14.2-7.8c8.6,0.6,12.7,6.7,13.5,10.7c0.8,3.9-1.3,6.8,1.9,6.2c1.3-3.4,2-7,1.9-10.7
			C97.6,92.4,91.3,85.4,83.7,83.1z"/>
		<path class="st16" d="M138.9,211.8l8.2,1.7c0.7,0.1,1.3,0.5,1.7,1c1.4,1.7,4.5,5.7,4.8,6.9c0.4,1.5,0.4,1.9-0.1,1.9
			c-0.7,0-1.4-0.1-2-0.3c-0.6-0.1-3-3.5-4.9-3.7c-1.9-0.3-3.7-0.8-5.4-1.4c0,0,4,3,4.9,3.8c0.9,0.8,0.8,1.1,0.1,1.4
			s-1.5-0.1-2.4-0.5s-1.3-0.5-4.3-1.8s-5-4.6-5-4.6L138.9,211.8z"/>
		<polyline class="st15" points="106.7,156.9 101.6,170.5 106.2,162.4 		"/>
		<polyline class="st15" points="48.2,146.9 48.2,161.9 45.7,151 		"/>
		<path class="st11" d="M73.3,157.1c1.3,0.9,3,1.2,4.6,0.9c2.5-0.6,9.4-5.6,13.5-11.1s6.1-8.7,6.1-8.7l-6.7-2c0,0-3.5,9.6-8.2,13.8
			S70.9,156,70.9,156L73.3,157.1z"/>
		<path class="st11" d="M42,111.9c0,0,29.9,44.4,31.2,45.2c0.7,0.4,1.3,0.7,2,1c0,0-7.1,0-9.1-1.7s-18.2-31.7-19.6-35
			c-1.1-2.5-2.4-5-3.8-7.3l-1.3-2.4L42,111.9z"/>
		<path class="st11" d="M42,111.9c0,0,12.4,35.7,13.4,38.2c1,2.5,4.6,4.6,6.4,4.8l1.9,0.3c0,0-9-14.7-12.9-23.5S42,111.9,42,111.9z"
			/>
		<circle class="st11" cx="38.7" cy="105.6" r="7.8"/>
		<path class="st10" d="M31.4,173.9c-4,2.2-12,7.2-13.5,4.9c-1.5-2.3-1.3-15.2,2.4-22.9s10.3-21.5,10.5-23.9s-0.3-18.1-0.1-18.7
			c0.2-0.6,6.8-4.2,6.8-4.2c0.7-0.2,1.4,0.1,1.8,0.7c0.6,1.1,3.6,4.2,3.4,5c-0.1,0.8-0.2,1.5-0.2,1.5s1.7,1,1.3,2.6
			c-0.4,1.6-1.2,6.6-2.1,7.2c-0.8,0.4-1.7,0.5-2.6,0.3c-0.1,1.2-0.4,2.3-1,3.4c-0.7,1.2-1.5,1.8-1.6,2.1s-2.4,37.5-3.7,38.8"/>
		<path class="st16" d="M42.5,116.4c0,0,0.1-0.6,0.2-1.5c0.1-0.9-2.8-4-3.4-5c-0.4-0.6-1.1-0.9-1.8-0.7c0,0-6.6,3.5-6.8,4.2
			c-0.2,0.7,0.2,13.4,0.2,17.6c1.6,1.3,3.7,1.7,5.6,1.2c0-0.1,0-0.1,0-0.1c0.1-0.3,0.8-1,1.6-2.1c0.5-1,0.9-2.2,1-3.4
			c0.9,0.2,1.8,0.1,2.6-0.3c1-0.6,1.7-5.6,2.1-7.2C44.2,117.4,42.5,116.4,42.5,116.4z"/>
		<line class="st12" x1="42.5" y1="116.4" x2="37" y2="114.3"/>
		<path class="st12" d="M36.4,117.3c0,0,5.7,1.3,6.2,2.1c0.3,0.6,0.5,1.3,0.5,1.9"/>
		<path class="st12" d="M36.7,120.4c0,0,4.3,1,4.9,1.5s0.7,2.8,0.7,2.8"/>
		<polyline class="st12" points="39,126.6 39,124.8 40.2,124.7 		"/>
		<path class="st11" d="M73.1,203.1l-1.5,20.7l2.4,0.4C74,224.2,74,202.3,73.1,203.1z"/>
		<path class="st11" d="M74.6,203.9l0.8,23l3.8-0.1l-3.7-22.7C75.5,204.1,74.9,202,74.6,203.9z"/>
	</g>
	<g id="freepik--Confetti--inject-69">
		<polygon class="st17" points="139.1,19.4 143.5,23.7 145.8,19.9 		"/>
		<polygon class="st17" points="85.1,26.6 89.4,30.9 91.8,27.1 		"/>
		<polygon class="st17" points="51.1,9.2 55.5,13.5 57.8,9.7 		"/>
		<polygon class="st17" points="187.8,42.4 185.1,47.9 189.5,48.9 		"/>
		<polygon class="st17" points="229.2,4 226.5,9.4 230.9,10.5 		"/>
		<polygon class="st0" points="139.5,51.4 135.2,47 132.8,50.8 		"/>
		<polygon class="st0" points="114.7,53 110.5,48.7 108,52.4 		"/>
		<polygon class="st0" points="168,33.6 173,30 169.6,27.1 		"/>
		<polygon class="st0" points="112.4,16 117.4,12.5 114,9.5 		"/>
		<polygon class="st0" points="206.9,47.5 211.9,43.9 208.5,40.9 		"/>
		<polygon class="st17" points="9.3,50.4 6.6,55.8 10.9,56.9 		"/>
		<polygon class="st17" points="36.9,54.4 34.2,59.9 38.5,60.9 		"/>
		<polygon class="st0" points="21.8,35.8 17.6,31.5 15.1,35.2 		"/>
		<polygon class="st0" points="137.5,78.6 142.5,75.1 139.1,72.1 		"/>
		<polygon class="st17" points="269.1,36.3 273.4,40.6 275.8,36.8 		"/>
		<polygon class="st17" points="317.8,47.4 315.1,52.8 319.4,53.9 		"/>
		<polygon class="st17" points="252.1,18.7 249.3,24.1 253.7,25.2 		"/>
		<polygon class="st17" points="345.4,51.4 342.7,56.9 347,58 		"/>
		<polygon class="st17" points="359.2,30.8 356.5,36.2 360.8,37.3 		"/>
		<polygon class="st0" points="269.4,56.4 265.2,52 262.7,55.7 		"/>
		<polygon class="st0" points="244.7,58 240.4,53.6 238,57.4 		"/>
		<polygon class="st0" points="297.2,16.7 302.1,13.2 298.8,10.2 		"/>
		<polygon class="st0" points="242.4,11 247.3,7.5 244,4.5 		"/>
		<polygon class="st0" points="323.9,23.7 328.9,20.2 325.5,17.2 		"/>
		<polygon class="st0" points="267.5,83.6 272.4,80.1 269.1,77.1 		"/>
		<polygon class="st0" points="67.1,47.4 72.1,43.9 68.7,40.9 		"/>
		<polygon class="st17" points="228.3,112.8 223.9,108.5 221.6,112.3 		"/>
		<polygon class="st17" points="270,110 265.7,105.7 263.3,109.5 		"/>
		<polygon class="st17" points="317.6,115.4 313.3,111.1 310.9,114.9 		"/>
		<polygon class="st17" points="179.5,101.7 182.3,96.3 177.9,95.2 		"/>
		<polygon class="st17" points="152,97.7 154.7,92.2 150.3,91.2 		"/>
		<polygon class="st0" points="288.4,107.4 292.6,111.7 295.1,108 		"/>
		<polygon class="st0" points="167.9,99.3 163,102.8 166.3,105.8 		"/>
		<polygon class="st0" points="170.4,79.8 165.4,83.4 168.8,86.4 		"/>
		<polygon class="st17" points="358.1,93.8 360.8,88.4 356.5,87.3 		"/>
		<polygon class="st17" points="330.5,89.7 333.2,84.3 328.9,83.2 		"/>
		<polygon class="st0" points="346.5,91.4 341.5,94.9 344.9,97.9 		"/>
		<polygon class="st17" points="112.3,80.1 108,75.8 105.6,79.6 		"/>
		<polygon class="st17" points="49.6,96.8 52.3,91.3 48,90.2 		"/>
		<polygon class="st17" points="22,92.7 24.7,87.3 20.4,86.2 		"/>
		<polygon class="st17" points="8.2,113.4 10.9,108 6.6,106.9 		"/>
		<polygon class="st0" points="37.1,111.3 41.4,115.7 43.8,111.9 		"/>
		<polygon class="st0" points="125,111.3 120.1,114.8 123.4,117.8 		"/>
		<line class="st6" x1="33.1" y1="97.9" x2="36.4" y2="100.9"/>
		<polygon class="st0" points="40.4,74.9 35.5,78.4 38.8,81.4 		"/>
		<polygon class="st0" points="292.3,76.9 287.4,80.4 290.7,83.4 		"/>
		<polygon class="st17" points="97.3,133.4 101.7,137.6 104,133.9 		"/>
		<polygon class="st17" points="49.8,128 54.1,132.2 56.5,128.4 		"/>
		<polygon class="st17" points="187.8,141.6 185.1,147.1 189.5,148.1 		"/>
		<polygon class="st17" points="57.9,170 55.2,175.4 59.6,176.5 		"/>
		<polygon class="st0" points="139.5,150.6 135.2,146.2 132.8,150 		"/>
		<polygon class="st0" points="114.7,152.2 110.5,147.9 108,151.6 		"/>
		<polygon class="st0" points="79,136 74.8,131.6 72.3,135.4 		"/>
		<polygon class="st0" points="200.3,127.1 196.1,122.7 193.6,126.4 		"/>
		<polygon class="st0" points="168,132.8 173,129.2 169.6,126.2 		"/>
		<polygon class="st0" points="199.5,144 204.4,140.5 201.1,137.5 		"/>
		<polygon class="st0" points="197,163.5 202,160 198.6,157 		"/>
		<polygon class="st17" points="9.3,149.6 6.6,155 10.9,156.1 		"/>
		<polygon class="st17" points="36.9,153.6 34.2,159 38.5,160.1 		"/>
		<polygon class="st0" points="21.8,135 17.6,130.6 15.1,134.4 		"/>
		<polygon class="st0" points="20.9,152 25.9,148.4 22.5,145.4 		"/>
		<polygon class="st0" points="137.5,177.8 142.5,174.3 139.1,171.3 		"/>
		<polygon class="st17" points="227.3,138.3 231.6,142.6 234,138.8 		"/>
		<polygon class="st17" points="317.8,146.6 315.1,152 319.4,153.1 		"/>
		<polygon class="st17" points="345.4,150.6 342.7,156.1 347,157.2 		"/>
		<polygon class="st17" points="359.2,129.9 356.5,135.4 360.8,136.5 		"/>
		<polygon class="st0" points="244.7,157.2 240.4,152.8 238,156.6 		"/>
		<polygon class="st0" points="236.5,251.2 232.2,246.9 229.8,250.6 		"/>
		<polygon class="st0" points="188.4,6.5 193.4,3 190,0 		"/>
		<polygon class="st0" points="267.5,182.8 272.4,179.3 269.1,176.3 		"/>
		<polygon class="st0" points="75,166.5 80,162.9 76.7,159.9 		"/>
		<polygon class="st17" points="270,209.2 265.7,204.9 263.3,208.7 		"/>
		<polygon class="st17" points="179.5,200.9 182.3,195.5 177.9,194.4 		"/>
		<polygon class="st17" points="152,196.9 154.7,191.4 150.3,190.3 		"/>
		<polygon class="st0" points="227.9,191.9 232.2,196.3 234.6,192.6 		"/>
		<polygon class="st0" points="252.7,190.3 256.9,194.7 259.4,190.9 		"/>
		<polygon class="st0" points="288.4,269 292.6,273.3 295.1,269.6 		"/>
		<polygon class="st0" points="199.4,209.8 194.4,213.3 197.8,216.3 		"/>
		<polygon class="st0" points="170.4,179 165.4,182.6 168.8,185.5 		"/>
		<polygon class="st17" points="358.1,255.4 360.8,250 356.5,248.9 		"/>
		<polygon class="st17" points="330.5,188.9 333.2,183.5 328.9,182.4 		"/>
		<polygon class="st0" points="346.5,253 341.5,256.5 344.9,259.5 		"/>
		<polygon class="st0" points="229.9,164.7 224.9,168.2 228.3,171.2 		"/>
		<polygon class="st17" points="140.1,204.2 135.8,199.9 133.4,203.7 		"/>
		<polygon class="st17" points="49.6,195.9 52.3,190.5 48,189.4 		"/>
		<polygon class="st17" points="115.3,202.9 118.1,197.4 113.7,196.3 		"/>
		<polygon class="st17" points="22,191.9 24.7,186.5 20.4,185.4 		"/>
		<polygon class="st17" points="8.2,212.6 10.9,207.2 6.6,206.1 		"/>
		<polygon class="st0" points="122.7,185.4 127,189.7 129.4,186 		"/>
		<polygon class="st0" points="37.1,210.5 41.4,214.9 43.8,211.1 		"/>
		<polygon class="st0" points="69.4,204.8 64.5,208.3 67.8,211.3 		"/>
		<polygon class="st0" points="85.9,294.2 81,297.8 84.3,300.8 		"/>
		<polygon class="st0" points="182.8,253.9 177.8,257.5 181.1,260.5 		"/>
		<polygon class="st0" points="292.3,176.1 287.4,179.6 290.7,182.6 		"/>
		<polygon class="st17" points="139.1,300.6 143.5,304.8 145.8,301 		"/>
		<polygon class="st17" points="46.8,262.1 51.2,266.3 53.5,262.6 		"/>
		<polygon class="st17" points="187.8,311.6 185.1,317.1 189.5,318.1 		"/>
		<polygon class="st17" points="122.1,234.9 119.4,240.3 123.8,241.4 		"/>
		<polygon class="st17" points="215.4,315.7 212.7,321.1 217.1,322.2 		"/>
		<polygon class="st17" points="229.2,295 226.5,300.4 230.9,301.5 		"/>
		<polygon class="st0" points="139.5,320.6 135.2,316.3 132.8,320 		"/>
		<polygon class="st0" points="76,270.1 71.8,265.7 69.4,269.5 		"/>
		<polygon class="st0" points="168,302.8 173,299.3 169.6,296.3 		"/>
		<polygon class="st0" points="197,333.5 202,330 198.6,327 		"/>
		<polygon class="st17" points="6.4,283.7 3.6,289.1 8,290.2 		"/>
		<polygon class="st17" points="33.9,287.7 31.2,293.2 35.6,294.2 		"/>
		<polygon class="st0" points="18.8,269.1 14.6,264.8 12.1,268.5 		"/>
		<polygon class="st0" points="137.5,353.8 142.5,350.3 139.1,347.3 		"/>
		<polygon class="st17" points="269.1,235.7 273.4,240 275.8,236.2 		"/>
		<polygon class="st17" points="317.8,309.2 315.1,314.6 319.4,315.7 		"/>
		<polygon class="st17" points="252.1,239.9 249.3,245.3 253.7,246.4 		"/>
		<polygon class="st17" points="345.4,313.3 342.7,318.7 347,319.8 		"/>
		<polygon class="st17" points="359.2,292.6 356.5,298 360.8,299.1 		"/>
		<polygon class="st0" points="244.7,327.2 240.4,322.8 238,326.6 		"/>
		<polygon class="st0" points="330.3,294.6 326,290.3 323.6,294 		"/>
		<polygon class="st0" points="298,300.4 302.9,296.8 299.6,293.8 		"/>
		<polygon class="st0" points="327,331.1 331.9,327.6 328.6,324.6 		"/>
		<polygon class="st0" points="267.5,358.8 272.4,355.2 269.1,352.3 		"/>
		<polygon class="st0" points="56,324.8 61,321.3 57.6,318.3 		"/>
		<polygon class="st17" points="139.1,365.3 143.5,366.2 145.8,365.4 		"/>
		<polygon class="st17" points="97.3,348.2 101.7,349.1 104,348.3 		"/>
		<polygon class="st17" points="49.8,347 54.1,347.9 56.5,347.1 		"/>
		<polygon class="st17" points="187.8,349.9 185.1,351.1 189.5,351.3 		"/>
		<polygon class="st17" points="122.1,348.5 119.4,349.6 123.8,349.9 		"/>
		<polygon class="st17" points="215.4,350.8 212.7,352 217.1,352.2 		"/>
		<polygon class="st17" points="229.2,346.4 226.5,347.5 230.9,347.8 		"/>
		<polygon class="st0" points="128.3,363 124.1,362 121.6,362.8 		"/>
		<polygon class="st0" points="114.7,352.2 110.5,351.3 108,352.1 		"/>
		<polygon class="st0" points="79,348.7 74.8,347.8 72.3,348.6 		"/>
		<polygon class="st0" points="200.3,346.8 196.1,345.9 193.6,346.7 		"/>
		<polygon class="st0" points="168,348 173,347.3 169.6,346.6 		"/>
		<polygon class="st0" points="112.4,346.8 117.4,346.1 114,345.4 		"/>
		<polygon class="st0" points="199.5,350.5 204.4,349.7 201.1,349.1 		"/>
		<polygon class="st0" points="197,354.6 202,353.9 198.6,353.2 		"/>
		<polygon class="st17" points="9.3,351.6 6.6,352.8 10.9,353 		"/>
		<polygon class="st17" points="36.9,352.5 34.2,353.7 38.5,353.9 		"/>
		<polygon class="st0" points="11.4,361.4 7.2,360.4 4.7,361.2 		"/>
		<polygon class="st0" points="30.1,363.6 35,362.8 31.7,362.2 		"/>
		<polygon class="st0" points="18.5,356.3 23.4,355.6 20.1,354.9 		"/>
		<polygon class="st0" points="137.5,357.7 142.5,357 139.1,356.3 		"/>
		<polygon class="st17" points="269.1,348.6 273.4,349.5 275.8,348.7 		"/>
		<polygon class="st17" points="227.3,349.2 231.6,350.2 234,349.3 		"/>
		<polygon class="st17" points="317.8,351 315.1,352.2 319.4,352.4 		"/>
		<polygon class="st17" points="252.1,349.5 249.3,350.7 253.7,350.9 		"/>
		<polygon class="st17" points="345.4,351.9 342.7,353 347,353.3 		"/>
		<polygon class="st17" points="198.1,362.2 195.4,363.3 199.8,363.6 		"/>
		<polygon class="st17" points="359.2,347.4 356.5,348.6 360.8,348.8 		"/>
		<polygon class="st0" points="269.4,352.9 265.2,352 262.7,352.8 		"/>
		<polygon class="st0" points="244.7,353.3 240.4,352.3 238,353.1 		"/>
		<polygon class="st0" points="347.7,363.1 343.5,362.2 341.1,363 		"/>
		<polygon class="st0" points="330.3,347.9 326,346.9 323.6,347.7 		"/>
		<polygon class="st0" points="298,349.1 302.9,348.3 299.6,347.7 		"/>
		<polygon class="st0" points="242.4,347.9 247.3,347.1 244,346.5 		"/>
		<polygon class="st0" points="329.4,351.5 334.3,350.8 331,350.1 		"/>
		<polygon class="st0" points="327,355.7 331.9,354.9 328.6,354.3 		"/>
		<polygon class="st17" points="296.9,369.7 294.2,370.9 298.5,371.1 		"/>
		<polygon class="st17" points="324.5,370.6 321.8,371.8 326.1,372 		"/>
		<polygon class="st0" points="309.4,366.6 305.2,365.7 302.7,366.5 		"/>
		<polygon class="st0" points="308.5,370.2 313.4,369.5 310.1,368.8 		"/>
		<polygon class="st0" points="306.1,374.4 311,373.7 307.7,373 		"/>
		<polygon class="st0" points="226.6,367.6 231.5,366.9 228.2,366.2 		"/>
		<polygon class="st0" points="75,355.3 80,354.5 76.7,353.9 		"/>
		<polygon class="st17" points="60.7,361.3 65,362.2 67.4,361.4 		"/>
		<polygon class="st0" points="78.1,365.3 73.8,364.4 71.4,365.2 		"/>
		<polygon class="st0" points="42.4,361.8 38.1,360.9 35.7,361.7 		"/>
		<polygon class="st0" points="38.4,368.4 43.3,367.6 40,367 		"/>
	</g>
</g>
</svg>
