<?xml version="1.0" encoding="utf-8"?>
<!-- Generator: Adobe Illustrator 22.1.0, SVG Export Plug-In . SVG Version: 6.00 Build 0)  -->
<svg version="1.1" id="Layer_1" xmlns="http://www.w3.org/2000/svg" xmlns:xlink="http://www.w3.org/1999/xlink" x="0px" y="0px"
	 viewBox="0 0 446.9 430.5" style="enable-background:new 0 0 446.9 430.5;" xml:space="preserve">
<style type="text/css">
	.st0{fill:#D1D1D1;}
	.st1{fill:#B0B0B0;}
	.st2{fill:#263238;}
	.st3{fill:#FFFFFF;}
	.st4{fill:#F9F9F9;}
	.st5{fill:none;}
</style>
<g>
	<g id="freepik--Audience--inject-32">
		<g>
			<path class="st0" d="M384.4,356c0,2.5-2,4.5-4.5,4.5c-2.5,0-4.5-2-4.5-4.5c0-2.5,2-4.5,4.5-4.5c0,0,0,0,0,0
				C382.4,351.5,384.4,353.5,384.4,356z"/>
		</g>
		<g>
			<path class="st0" d="M390.6,343.9c0,2.5-2,4.5-4.5,4.5c-2.5,0-4.5-2-4.5-4.5c0-2.5,2-4.5,4.5-4.5
				C388.6,339.5,390.6,341.5,390.6,343.9L390.6,343.9z"/>
		</g>
		<g>
			<path class="st1" d="M399.8,356c0,2.5-2,4.5-4.5,4.5c-2.5,0-4.5-2-4.5-4.5c0-2.5,2-4.5,4.5-4.5
				C397.8,351.5,399.8,353.5,399.8,356L399.8,356z"/>
		</g>
		<g>
			<path class="st1" d="M377.9,346.7c0,2.5-2,4.5-4.5,4.5c-2.5,0-4.5-2-4.5-4.5c0-2.5,2-4.5,4.5-4.5
				C375.9,342.2,377.9,344.2,377.9,346.7L377.9,346.7z"/>
		</g>
		<g>
			<path class="st0" d="M410.8,351.2c0,2.5-2,4.5-4.5,4.5c-2.5,0-4.5-2-4.5-4.5s2-4.5,4.5-4.5C408.8,346.7,410.8,348.7,410.8,351.2
				C410.8,351.1,410.8,351.2,410.8,351.2z"/>
		</g>
		<g>
			<path class="st0" d="M417,339.1c0,2.5-2,4.5-4.5,4.5c-2.5,0-4.5-2-4.5-4.5c0-2.5,2-4.5,4.5-4.5c0,0,0,0,0,0
				C415,334.7,417,336.7,417,339.1z"/>
		</g>
		<g>
			<circle class="st1" cx="421.8" cy="351.2" r="4.5"/>
		</g>
		<g>
			<path class="st1" d="M404.3,341.9c0,2.5-2,4.5-4.5,4.5s-4.5-2-4.5-4.5s2-4.5,4.5-4.5S404.3,339.4,404.3,341.9L404.3,341.9z"/>
		</g>
		<g>
			<path class="st0" d="M124.7,335.7c0,2.5-2,4.5-4.5,4.5s-4.5-2-4.5-4.5c0-2.5,2-4.5,4.5-4.5S124.7,333.2,124.7,335.7L124.7,335.7z
				"/>
		</g>
		<g>
			<path class="st0" d="M130.9,323.6c0,2.5-2,4.5-4.5,4.5c-2.5,0-4.5-2-4.5-4.5c0-2.5,2-4.5,4.5-4.5
				C128.9,319.2,130.9,321.1,130.9,323.6C130.9,323.6,130.9,323.6,130.9,323.6z"/>
		</g>
		<g>
			<path class="st1" d="M140.2,335.7c0,2.5-2,4.5-4.5,4.5c-2.5,0-4.5-2-4.5-4.5c0-2.5,2-4.5,4.5-4.5c0,0,0,0,0,0
				C138.2,331.2,140.2,333.2,140.2,335.7z"/>
		</g>
		<g>
			<path class="st1" d="M118.2,326.4c0,2.5-2,4.5-4.5,4.5c-2.5,0-4.5-2-4.5-4.5c0-2.5,2-4.5,4.5-4.5S118.2,324,118.2,326.4
				L118.2,326.4z"/>
		</g>
		<g>
			<path class="st0" d="M321.5,338.8c0,2.5-2,4.5-4.5,4.5c-2.5,0-4.5-2-4.5-4.5c0-2.5,2-4.5,4.5-4.5
				C319.5,334.3,321.5,336.3,321.5,338.8L321.5,338.8z"/>
		</g>
		<g>
			<path class="st0" d="M327.7,326.8c0,2.5-2,4.5-4.5,4.5c-2.5,0-4.5-2-4.5-4.5c0-2.5,2-4.5,4.5-4.5c0,0,0,0,0,0
				C325.7,322.3,327.7,324.3,327.7,326.8z"/>
		</g>
		<g>
			<path class="st1" d="M337,338.8c0,2.5-2,4.5-4.5,4.5c-2.5,0-4.5-2-4.5-4.5c0-2.5,2-4.5,4.5-4.5C335,334.3,337,336.3,337,338.8
				L337,338.8z"/>
		</g>
		<g>
			<path class="st1" d="M315,329.5c0,2.5-2,4.5-4.5,4.5c-2.5,0-4.5-2-4.5-4.5s2-4.5,4.5-4.5C313,325.1,315,327.1,315,329.5
				L315,329.5z"/>
		</g>
		<g>
			<path class="st0" d="M364.1,368.7c0,2.5-2,4.5-4.5,4.5c-2.5,0-4.5-2-4.5-4.5c0-2.5,2-4.5,4.5-4.5
				C362.1,364.2,364.1,366.2,364.1,368.7L364.1,368.7z"/>
		</g>
		<g>
			<path class="st0" d="M370.3,356.7c0,2.5-2,4.5-4.5,4.5s-4.5-2-4.5-4.5c0-2.5,2-4.5,4.5-4.5S370.3,354.2,370.3,356.7L370.3,356.7z
				"/>
		</g>
		<g>
			<path class="st1" d="M379.6,368.7c0,2.5-2,4.5-4.5,4.5c-2.5,0-4.5-2-4.5-4.5c0-2.5,2-4.5,4.5-4.5
				C377.6,364.2,379.6,366.2,379.6,368.7L379.6,368.7z"/>
		</g>
		<g>
			<path class="st1" d="M357.6,359.4c0,2.5-2,4.5-4.5,4.5c-2.5,0-4.5-2-4.5-4.5c0-2.5,2-4.5,4.5-4.5c0,0,0,0,0,0
				C355.6,354.9,357.6,356.9,357.6,359.4z"/>
		</g>
		<g>
			<circle class="st0" cx="390.6" cy="380" r="4.5"/>
		</g>
		<g>
			<path class="st0" d="M401.2,368c0,2.5-2,4.5-4.5,4.5c-2.5,0-4.5-2-4.5-4.5c0-2.5,2-4.5,4.5-4.5
				C399.2,363.5,401.2,365.5,401.2,368L401.2,368z"/>
		</g>
		<g>
			<path class="st1" d="M410.5,380c0,2.5-2,4.5-4.5,4.5c-2.5,0-4.5-2-4.5-4.5c0-2.5,2-4.5,4.5-4.5
				C408.5,375.5,410.5,377.5,410.5,380L410.5,380z"/>
		</g>
		<g>
			<path class="st1" d="M388.5,370.7c0,2.5-2,4.5-4.5,4.5s-4.5-2-4.5-4.5c0-2.5,2-4.5,4.5-4.5S388.5,368.2,388.5,370.7L388.5,370.7z
				"/>
		</g>
		<g>
			<path class="st0" d="M358,351.8c0,2.5-2,4.5-4.5,4.5c-2.5,0-4.5-2-4.5-4.5c0-2.5,2-4.5,4.5-4.5c0,0,0,0,0,0
				C356,347.4,358,349.4,358,351.8z"/>
		</g>
		<g>
			<path class="st0" d="M364.1,339.8c0,2.5-2,4.5-4.5,4.5c-2.5,0-4.5-2-4.5-4.5s2-4.5,4.5-4.5C362.1,335.4,364.1,337.4,364.1,339.8
				L364.1,339.8z"/>
		</g>
		<g>
			<path class="st1" d="M373.4,351.8c0,2.5-2,4.5-4.5,4.5c-2.5,0-4.5-2-4.5-4.5c0-2.5,2-4.5,4.5-4.5c0,0,0,0,0,0
				C371.4,347.4,373.4,349.4,373.4,351.8z"/>
		</g>
		<g>
			<path class="st1" d="M351.4,342.6c0,2.5-2,4.5-4.5,4.5c-2.5,0-4.5-2-4.5-4.5c0-2.5,2-4.5,4.5-4.5
				C349.4,338.1,351.4,340.1,351.4,342.6L351.4,342.6z"/>
		</g>
		<g>
			<path class="st0" d="M322.2,362.1c0,2.5-2,4.5-4.5,4.5c-2.5,0-4.5-2-4.5-4.5c0-2.5,2-4.5,4.5-4.5c0,0,0,0,0,0
				C320.2,357.7,322.2,359.7,322.2,362.1z"/>
		</g>
		<g>
			<path class="st0" d="M328.4,350.2c0,2.5-2,4.5-4.5,4.5s-4.5-2-4.5-4.5s2-4.5,4.5-4.5S328.4,347.7,328.4,350.2L328.4,350.2z"/>
		</g>
		<g>
			<path class="st1" d="M337.7,362.1c0,2.5-2,4.5-4.5,4.5c-2.5,0-4.5-2-4.5-4.5c0-2.5,2-4.5,4.5-4.5
				C335.7,357.7,337.7,359.7,337.7,362.1L337.7,362.1z"/>
		</g>
		<g>
			<path class="st1" d="M315.7,352.9c0,2.5-2,4.5-4.5,4.5c-2.5,0-4.5-2-4.5-4.5c0-2.5,2-4.5,4.5-4.5
				C313.7,348.4,315.7,350.4,315.7,352.9L315.7,352.9z"/>
		</g>
		<g>
			<path class="st0" d="M347.6,378.6c0,2.5-2,4.5-4.5,4.5c-2.5,0-4.5-2-4.5-4.5c0-2.5,2-4.5,4.5-4.5
				C345.6,374.2,347.6,376.2,347.6,378.6L347.6,378.6z"/>
		</g>
		<g>
			<path class="st0" d="M353.8,366.6c0,2.5-2,4.5-4.5,4.5c-2.5,0-4.5-2-4.5-4.5c0-2.5,2-4.5,4.5-4.5
				C351.8,362.1,353.8,364.1,353.8,366.6L353.8,366.6z"/>
		</g>
		<g>
			<path class="st1" d="M363.1,378.6c0,2.5-2,4.5-4.5,4.5c-2.5,0-4.5-2-4.5-4.5c0-2.5,2-4.5,4.5-4.5
				C361.1,374.2,363.1,376.2,363.1,378.6L363.1,378.6z"/>
		</g>
		<g>
			<path class="st1" d="M341.1,369.4c0,2.5-2,4.5-4.5,4.5s-4.5-2-4.5-4.5s2-4.5,4.5-4.5C339.1,364.9,341.1,366.9,341.1,369.4
				C341.1,369.3,341.1,369.4,341.1,369.4z"/>
		</g>
		<g>
			<path class="st0" d="M342.1,351.8c0,2.5-2,4.5-4.5,4.5c-2.5,0-4.5-2-4.5-4.5c0-2.5,2-4.5,4.5-4.5c0,0,0,0,0,0
				C340.1,347.4,342.1,349.4,342.1,351.8z"/>
		</g>
		<g>
			<path class="st0" d="M348.3,339.8c0,2.5-2,4.5-4.5,4.5s-4.5-2-4.5-4.5s2-4.5,4.5-4.5S348.3,337.4,348.3,339.8L348.3,339.8z"/>
		</g>
		<g>
			<path class="st1" d="M357.6,351.8c0,2.5-2,4.5-4.5,4.5c-2.5,0-4.5-2-4.5-4.5c0-2.5,2-4.5,4.5-4.5c0,0,0,0,0,0
				C355.6,347.4,357.6,349.4,357.6,351.8z"/>
		</g>
		<g>
			<path class="st1" d="M335.6,342.6c0,2.5-2,4.5-4.5,4.5c-2.5,0-4.5-2-4.5-4.5c0-2.5,2-4.5,4.5-4.5
				C333.6,338.1,335.6,340.1,335.6,342.6C335.6,342.6,335.6,342.6,335.6,342.6z"/>
		</g>
		<g>
			<path class="st0" d="M379.2,347c0,2.5-2,4.5-4.5,4.5c-2.5,0-4.5-2-4.5-4.5c0-2.5,2-4.5,4.5-4.5
				C377.2,342.6,379.2,344.6,379.2,347L379.2,347z"/>
		</g>
		<g>
			<path class="st0" d="M385.4,335c0,2.5-2,4.5-4.5,4.5c-2.5,0-4.5-2-4.5-4.5c0-2.5,2-4.5,4.5-4.5
				C383.4,330.5,385.4,332.5,385.4,335L385.4,335z"/>
		</g>
		<g>
			<path class="st1" d="M394.7,347c0,2.5-2,4.5-4.5,4.5c-2.5,0-4.5-2-4.5-4.5c0-2.5,2-4.5,4.5-4.5
				C392.7,342.6,394.7,344.6,394.7,347L394.7,347z"/>
		</g>
		<g>
			<path class="st1" d="M372.7,337.8c0,2.5-2,4.5-4.5,4.5c-2.5,0-4.5-2-4.5-4.5c0-2.5,2-4.5,4.5-4.5
				C370.7,333.3,372.7,335.3,372.7,337.8L372.7,337.8z"/>
		</g>
		<g>
			<path class="st0" d="M307.1,344.3c0,2.5-2,4.5-4.5,4.5c-2.5,0-4.5-2-4.5-4.5c0-2.5,2-4.5,4.5-4.5c0,0,0,0,0,0
				C305.1,339.8,307.1,341.8,307.1,344.3z"/>
		</g>
		<g>
			<path class="st0" d="M313.3,332.3c0,2.5-2,4.5-4.5,4.5c-2.5,0-4.5-2-4.5-4.5c0-2.5,2-4.5,4.5-4.5
				C311.3,327.8,313.3,329.8,313.3,332.3L313.3,332.3z"/>
		</g>
		<g>
			<path class="st1" d="M322.6,344.3c0,2.5-2,4.5-4.5,4.5c-2.5,0-4.5-2-4.5-4.5c0-2.5,2-4.5,4.5-4.5c0,0,0,0,0,0
				C320.6,339.8,322.6,341.8,322.6,344.3z"/>
		</g>
		<g>
			<path class="st1" d="M300.6,335c0,2.5-2,4.5-4.5,4.5s-4.5-2-4.5-4.5c0-2.5,2-4.5,4.5-4.5S300.6,332.5,300.6,335L300.6,335z"/>
		</g>
		<g>
			<path class="st0" d="M288.6,362.8c0,2.5-2,4.5-4.5,4.5c-2.5,0-4.5-2-4.5-4.5c0-2.5,2-4.5,4.5-4.5
				C286.6,358.4,288.6,360.4,288.6,362.8L288.6,362.8z"/>
		</g>
		<g>
			<path class="st0" d="M294.7,350.8c0,2.5-2,4.5-4.5,4.5c-2.5,0-4.5-2-4.5-4.5c0-2.5,2-4.5,4.5-4.5
				C292.7,346.3,294.7,348.3,294.7,350.8L294.7,350.8z"/>
		</g>
		<g>
			<path class="st1" d="M304,362.8c0,2.5-2,4.5-4.5,4.5c-2.5,0-4.5-2-4.5-4.5c0-2.5,2-4.5,4.5-4.5c0,0,0,0,0,0
				C302,358.4,304,360.4,304,362.8z"/>
		</g>
		<g>
			<path class="st1" d="M282,353.6c0,2.5-2,4.5-4.5,4.5c-2.5,0-4.5-2-4.5-4.5c0-2.5,2-4.5,4.5-4.5c0,0,0,0,0,0
				C280,349.1,282,351.1,282,353.6z"/>
		</g>
		<g>
			<path class="st0" d="M314.7,375.2c0,2.5-2,4.5-4.5,4.5c-2.5,0-4.5-2-4.5-4.5c0-2.5,2-4.5,4.5-4.5c0,0,0,0,0,0
				C312.7,370.7,314.7,372.7,314.7,375.2C314.7,375.2,314.7,375.2,314.7,375.2z"/>
		</g>
		<g>
			<path class="st0" d="M320.9,363.2c0,2.5-2,4.5-4.5,4.5c-2.5,0-4.5-2-4.5-4.5c0-2.5,2-4.5,4.5-4.5c0,0,0,0,0,0
				C318.8,358.7,320.8,360.7,320.9,363.2z"/>
		</g>
		<g>
			<path class="st1" d="M330.1,375.2c0,2.5-2,4.5-4.5,4.5c-2.5,0-4.5-2-4.5-4.5c0-2.5,2-4.5,4.5-4.5
				C328.1,370.7,330.1,372.7,330.1,375.2L330.1,375.2z"/>
		</g>
		<g>
			<path class="st1" d="M308.1,365.9c0,2.5-2,4.5-4.5,4.5c-2.5,0-4.5-2-4.5-4.5c0-2.5,2-4.5,4.5-4.5
				C306.1,361.4,308.1,363.4,308.1,365.9L308.1,365.9z"/>
		</g>
		<g>
			<path class="st0" d="M261.8,374.9c0,2.5-2,4.5-4.5,4.5c-2.5,0-4.5-2-4.5-4.5c0-2.5,2-4.5,4.5-4.5
				C259.8,370.4,261.8,372.4,261.8,374.9L261.8,374.9z"/>
		</g>
		<g>
			<path class="st0" d="M268,362.8c0,2.5-2,4.5-4.5,4.5c-2.5,0-4.5-2-4.5-4.5c0-2.5,2-4.5,4.5-4.5C266,358.4,268,360.4,268,362.8
				L268,362.8z"/>
		</g>
		<g>
			<path class="st1" d="M277.2,374.9c0,2.5-2,4.5-4.5,4.5c-2.5,0-4.5-2-4.5-4.5c0-2.5,2-4.5,4.5-4.5
				C275.2,370.4,277.2,372.4,277.2,374.9L277.2,374.9z"/>
		</g>
		<g>
			<path class="st1" d="M255.2,365.6c0,2.5-2,4.5-4.5,4.5c-2.5,0-4.5-2-4.5-4.5s2-4.5,4.5-4.5C253.2,361.1,255.2,363.1,255.2,365.6
				C255.2,365.6,255.2,365.6,255.2,365.6z"/>
		</g>
		<g>
			<path class="st0" d="M271.4,350.2c0,2.5-2,4.5-4.5,4.5c-2.5,0-4.5-2-4.5-4.5c0-2.5,2-4.5,4.5-4.5c0,0,0,0,0,0
				C269.4,345.7,271.4,347.7,271.4,350.2z"/>
		</g>
		<g>
			<path class="st0" d="M277.6,338.1c0,2.5-2,4.5-4.5,4.5c-2.5,0-4.5-2-4.5-4.5c0-2.5,2-4.5,4.5-4.5
				C275.6,333.6,277.6,335.6,277.6,338.1L277.6,338.1z"/>
		</g>
		<g>
			<path class="st1" d="M286.8,350.2c0,2.5-2,4.5-4.5,4.5c-2.5,0-4.5-2-4.5-4.5s2-4.5,4.5-4.5C284.8,345.7,286.8,347.7,286.8,350.2
				L286.8,350.2z"/>
		</g>
		<g>
			<path class="st1" d="M264.9,340.9c0,2.5-2,4.5-4.5,4.5c-2.5,0-4.5-2-4.5-4.5c0-2.5,2-4.5,4.5-4.5
				C262.9,336.4,264.9,338.4,264.9,340.9L264.9,340.9z"/>
		</g>
		<g>
			<path class="st0" d="M289.3,337.8c0,2.5-2,4.5-4.5,4.5c-2.5,0-4.5-2-4.5-4.5c0-2.5,2-4.5,4.5-4.5
				C287.3,333.3,289.3,335.3,289.3,337.8L289.3,337.8z"/>
		</g>
		<g>
			<path class="st0" d="M295.4,325.7c0,2.5-2,4.5-4.5,4.5c-2.5,0-4.5-2-4.5-4.5s2-4.5,4.5-4.5C293.4,321.3,295.4,323.3,295.4,325.7
				L295.4,325.7z"/>
		</g>
		<g>
			<path class="st1" d="M304.7,337.8c0,2.5-2,4.5-4.5,4.5c-2.5,0-4.5-2-4.5-4.5c0-2.5,2-4.5,4.5-4.5
				C302.7,333.3,304.7,335.3,304.7,337.8L304.7,337.8z"/>
		</g>
		<g>
			<path class="st1" d="M282.7,328.5c0,2.5-2,4.5-4.5,4.5c-2.5,0-4.5-2-4.5-4.5s2-4.5,4.5-4.5C280.7,324,282.7,326,282.7,328.5
				L282.7,328.5z"/>
		</g>
		<g>
			<path class="st0" d="M241.9,339.1c0,2.5-2,4.5-4.5,4.5s-4.5-2-4.5-4.5c0-2.5,2-4.5,4.5-4.5C239.9,334.7,241.9,336.7,241.9,339.1
				L241.9,339.1z"/>
		</g>
		<g>
			<path class="st0" d="M248,327.1c0,2.5-2,4.5-4.5,4.5c-2.5,0-4.5-2-4.5-4.5c0-2.5,2-4.5,4.5-4.5C246,322.7,248,324.6,248,327.1
				L248,327.1z"/>
		</g>
		<g>
			<path class="st1" d="M257.3,339.1c0,2.5-2,4.5-4.5,4.5s-4.5-2-4.5-4.5c0-2.5,2-4.5,4.5-4.5S257.3,336.7,257.3,339.1L257.3,339.1z
				"/>
		</g>
		<g>
			<path class="st1" d="M235.3,329.9c0,2.5-2,4.5-4.5,4.5c-2.5,0-4.5-2-4.5-4.5c0-2.5,2-4.5,4.5-4.5c0,0,0,0,0,0
				C233.3,325.4,235.3,327.4,235.3,329.9z"/>
		</g>
		<g>
			<path class="st0" d="M230.9,360.4c0,2.5-2,4.5-4.5,4.5s-4.5-2-4.5-4.5c0-2.5,2-4.5,4.5-4.5S230.9,358,230.9,360.4L230.9,360.4z"
				/>
		</g>
		<g>
			<path class="st0" d="M237,348.4c0,2.5-2,4.5-4.5,4.5c-2.5,0-4.5-2-4.5-4.5c0-2.5,2-4.5,4.5-4.5S237,345.9,237,348.4L237,348.4z"
				/>
		</g>
		<g>
			<path class="st1" d="M246.3,360.4c0,2.5-2,4.5-4.5,4.5c-2.5,0-4.5-2-4.5-4.5c0-2.5,2-4.5,4.5-4.5c0,0,0,0,0,0
				C244.3,356,246.3,358,246.3,360.4z"/>
		</g>
		<g>
			<path class="st1" d="M224.3,351.2c0,2.5-2,4.5-4.5,4.5c-2.5,0-4.5-2-4.5-4.5c0-2.5,2-4.5,4.5-4.5c0,0,0,0,0,0
				C222.3,346.7,224.3,348.7,224.3,351.2C224.3,351.2,224.3,351.2,224.3,351.2z"/>
		</g>
		<g>
			<path class="st0" d="M252.2,361.1c0,2.5-2,4.5-4.5,4.5s-4.5-2-4.5-4.5s2-4.5,4.5-4.5S252.2,358.7,252.2,361.1L252.2,361.1z"/>
		</g>
		<g>
			<path class="st0" d="M258.3,349.1c0,2.5-2,4.5-4.5,4.5c-2.5,0-4.5-2-4.5-4.5c0-2.5,2-4.5,4.5-4.5
				C256.3,344.6,258.3,346.6,258.3,349.1L258.3,349.1z"/>
		</g>
		<g>
			<path class="st1" d="M267.6,361.1c0,2.5-2,4.5-4.5,4.5c-2.5,0-4.5-2-4.5-4.5c0-2.5,2-4.5,4.5-4.5c0,0,0,0,0,0
				C265.6,356.7,267.6,358.7,267.6,361.1z"/>
		</g>
		<g>
			<path class="st1" d="M245.6,351.8c0,2.5-2,4.5-4.5,4.5c-2.5,0-4.5-2-4.5-4.5c0-2.5,2-4.5,4.5-4.5c0,0,0,0,0,0
				C243.6,347.4,245.6,349.4,245.6,351.8L245.6,351.8z"/>
		</g>
		<g>
			<path class="st0" d="M217.8,372.1c0,2.5-2,4.5-4.5,4.5s-4.5-2-4.5-4.5c0-2.5,2-4.5,4.5-4.5S217.8,369.6,217.8,372.1L217.8,372.1z
				"/>
		</g>
		<g>
			<path class="st0" d="M224,360.1c0,2.5-2,4.5-4.5,4.5c-2.5,0-4.5-2-4.5-4.5c0-2.5,2-4.5,4.5-4.5S224,357.6,224,360.1L224,360.1z"
				/>
		</g>
		<g>
			<path class="st1" d="M233.3,372.1c0,2.5-2,4.5-4.5,4.5s-4.5-2-4.5-4.5c0-2.5,2-4.5,4.5-4.5S233.3,369.6,233.3,372.1L233.3,372.1z
				"/>
		</g>
		<g>
			<path class="st1" d="M211.3,362.8c0,2.5-2,4.5-4.5,4.5s-4.5-2-4.5-4.5c0-2.5,2-4.5,4.5-4.5C209.3,358.4,211.3,360.4,211.3,362.8
				L211.3,362.8z"/>
		</g>
		<g>
			<path class="st0" d="M224,345.4c0,2.5-2,4.5-4.5,4.5c-2.5,0-4.5-2-4.5-4.5c0-2.5,2-4.5,4.5-4.5S224,342.9,224,345.4L224,345.4z"
				/>
		</g>
		<g>
			<path class="st0" d="M230.2,333.3c0,2.5-2,4.5-4.5,4.5s-4.5-2-4.5-4.5c0-2.5,2-4.5,4.5-4.5C228.2,328.8,230.2,330.8,230.2,333.3
				L230.2,333.3z"/>
		</g>
		<g>
			<path class="st1" d="M239.4,345.4c0,2.5-2,4.5-4.5,4.5s-4.5-2-4.5-4.5c0-2.5,2-4.5,4.5-4.5S239.4,342.9,239.4,345.4L239.4,345.4z
				"/>
		</g>
		<g>
			<path class="st1" d="M217.5,336c0,2.5-2,4.5-4.5,4.5s-4.5-2-4.5-4.5c0-2.5,2-4.5,4.5-4.5S217.5,333.6,217.5,336L217.5,336z"/>
		</g>
		<g>
			<path class="st0" d="M192.4,346.7c0,2.5-2,4.5-4.5,4.5s-4.5-2-4.5-4.5c0-2.5,2-4.5,4.5-4.5C190.4,342.2,192.4,344.2,192.4,346.7
				L192.4,346.7z"/>
		</g>
		<g>
			<path class="st0" d="M198.6,334.7c0,2.5-2,4.5-4.5,4.5c-2.5,0-4.5-2-4.5-4.5c0-2.5,2-4.5,4.5-4.5c0,0,0,0,0,0
				C196.6,330.2,198.6,332.2,198.6,334.7z"/>
		</g>
		<g>
			<path class="st1" d="M207.9,346.7c0,2.5-2,4.5-4.5,4.5s-4.5-2-4.5-4.5c0-2.5,2-4.5,4.5-4.5S207.9,344.2,207.9,346.7L207.9,346.7z
				"/>
		</g>
		<g>
			<path class="st1" d="M185.9,337.4c0,2.5-2,4.5-4.5,4.5c-2.5,0-4.5-2-4.5-4.5s2-4.5,4.5-4.5c0,0,0,0,0,0
				C183.9,333,185.9,335,185.9,337.4z"/>
		</g>
		<g>
			<path class="st0" d="M187.6,374.9c0,2.5-2,4.5-4.5,4.5s-4.5-2-4.5-4.5c0-2.5,2-4.5,4.5-4.5S187.6,372.4,187.6,374.9L187.6,374.9z
				"/>
		</g>
		<g>
			<path class="st0" d="M193.8,362.8c0,2.5-2,4.5-4.5,4.5s-4.5-2-4.5-4.5c0-2.5,2-4.5,4.5-4.5S193.8,360.4,193.8,362.8L193.8,362.8z
				"/>
		</g>
		<g>
			<path class="st1" d="M203,374.9c0,2.5-2,4.5-4.5,4.5c-2.5,0-4.5-2-4.5-4.5c0-2.5,2-4.5,4.5-4.5S203,372.4,203,374.9L203,374.9z"
				/>
		</g>
		<g>
			<path class="st1" d="M181.1,365.6c0,2.5-2,4.5-4.5,4.5c-2.5,0-4.5-2-4.5-4.5c0-2.5,2-4.5,4.5-4.5
				C179.1,361.1,181.1,363.1,181.1,365.6C181.1,365.6,181.1,365.6,181.1,365.6z"/>
		</g>
		<g>
			<path class="st0" d="M151.2,358.7c0,2.5-2,4.5-4.5,4.5s-4.5-2-4.5-4.5c0-2.5,2-4.5,4.5-4.5C149.2,354.3,151.2,356.3,151.2,358.7
				L151.2,358.7z"/>
		</g>
		<g>
			<path class="st0" d="M157.4,346.7c0,2.5-2,4.5-4.5,4.5s-4.5-2-4.5-4.5c0-2.5,2-4.5,4.5-4.5C155.4,342.2,157.4,344.2,157.4,346.7
				L157.4,346.7z"/>
		</g>
		<g>
			<path class="st1" d="M166.6,358.7c0,2.5-2,4.5-4.5,4.5s-4.5-2-4.5-4.5c0-2.5,2-4.5,4.5-4.5C164.6,354.2,166.6,356.2,166.6,358.7
				C166.6,358.7,166.6,358.7,166.6,358.7z"/>
		</g>
		<g>
			<path class="st1" d="M144.7,349.4c0,2.5-2,4.5-4.5,4.5s-4.5-2-4.5-4.5c0-2.5,2-4.5,4.5-4.5C142.6,345,144.6,347,144.7,349.4
				C144.7,349.4,144.7,349.4,144.7,349.4z"/>
		</g>
		<g>
			<path class="st0" d="M151.2,345c0,2.5-2,4.5-4.4,4.5s-4.5-2-4.5-4.4s2-4.5,4.4-4.5c0,0,0,0,0,0
				C149.2,340.5,151.2,342.5,151.2,345z"/>
		</g>
		<g>
			<path class="st0" d="M157.4,333c0,2.5-2,4.5-4.5,4.5s-4.5-2-4.5-4.5c0-2.5,2-4.5,4.5-4.5C155.4,328.5,157.4,330.5,157.4,333
				C157.4,332.9,157.4,333,157.4,333z"/>
		</g>
		<g>
			<path class="st1" d="M166.6,345c0,2.5-2,4.5-4.5,4.5c-2.5,0-4.5-2-4.5-4.5c0-2.5,2-4.5,4.5-4.5c0,0,0,0,0,0
				C164.6,340.5,166.6,342.5,166.6,345C166.6,345,166.6,345,166.6,345z"/>
		</g>
		<g>
			<path class="st1" d="M144.7,335.7c0,2.5-2,4.5-4.5,4.5s-4.5-2-4.5-4.5c0-2.5,2-4.5,4.5-4.5S144.7,333.2,144.7,335.7L144.7,335.7z
				"/>
		</g>
		<g>
			<path class="st0" d="M121,359.7c0,2.5-2,4.5-4.5,4.5s-4.5-2-4.5-4.5c0-2.5,2-4.5,4.5-4.5S121,357.3,121,359.7L121,359.7z"/>
		</g>
		<g>
			<path class="st0" d="M127.1,347.8c0,2.5-2,4.5-4.5,4.5s-4.5-2-4.5-4.5c0-2.5,2-4.5,4.5-4.5S127.1,345.3,127.1,347.8L127.1,347.8z
				"/>
		</g>
		<g>
			<path class="st1" d="M136.4,359.7c0,2.5-2,4.5-4.5,4.5s-4.5-2-4.5-4.5c0-2.5,2-4.5,4.5-4.5S136.4,357.3,136.4,359.7L136.4,359.7z
				"/>
		</g>
		<g>
			<path class="st1" d="M114.4,350.5c0,2.5-2,4.5-4.5,4.5s-4.5-2-4.5-4.5c0-2.5,2-4.5,4.5-4.5C112.4,346,114.4,348,114.4,350.5
				L114.4,350.5z"/>
		</g>
		<g>
			<path class="st0" d="M355.9,335.7c0,2.5-2,4.5-4.5,4.5c-2.5,0-4.5-2-4.5-4.5s2-4.5,4.5-4.5C353.9,331.2,355.9,333.2,355.9,335.7
				L355.9,335.7z"/>
		</g>
		<g>
			<path class="st0" d="M362.1,323.6c0,2.5-2,4.5-4.5,4.5c-2.5,0-4.5-2-4.5-4.5c0-2.5,2-4.5,4.5-4.5
				C360.1,319.2,362.1,321.2,362.1,323.6L362.1,323.6z"/>
		</g>
		<g>
			<path class="st1" d="M371.3,335.7c0,2.5-2,4.5-4.5,4.5c-2.5,0-4.5-2-4.5-4.5s2-4.5,4.5-4.5C369.3,331.2,371.3,333.2,371.3,335.7
				L371.3,335.7z"/>
		</g>
		<g>
			<path class="st1" d="M349.4,326.4c0,2.5-2,4.5-4.5,4.5c-2.5,0-4.5-2-4.5-4.5c0-2.5,2-4.5,4.5-4.5
				C347.4,322,349.4,324,349.4,326.4L349.4,326.4z"/>
		</g>
		<g>
			<path class="st0" d="M96.9,364.9c0,2.5-2,4.5-4.5,4.5c-2.5,0-4.5-2-4.5-4.5c0-2.5,2-4.5,4.5-4.5c0,0,0,0,0,0
				C94.9,360.4,96.9,362.4,96.9,364.9z"/>
		</g>
		<g>
			<path class="st0" d="M103.1,352.9c0,2.5-2,4.5-4.5,4.5s-4.5-2-4.5-4.5c0-2.5,2-4.5,4.5-4.5C101.1,348.4,103.1,350.4,103.1,352.9
				L103.1,352.9z"/>
		</g>
		<g>
			<path class="st1" d="M112.4,364.9c0,2.5-2,4.5-4.5,4.5s-4.5-2-4.5-4.5c0-2.5,2-4.5,4.5-4.5S112.4,362.4,112.4,364.9L112.4,364.9z
				"/>
		</g>
		<g>
			<path class="st1" d="M90.4,355.6c0,2.5-2,4.5-4.5,4.5c-2.5,0-4.5-2-4.5-4.5c0-2.5,2-4.5,4.5-4.5c0,0,0,0,0,0
				C88.4,351.2,90.4,353.2,90.4,355.6z"/>
		</g>
		<g>
			<path class="st0" d="M107.2,345.7c0,2.5-2,4.5-4.5,4.5c-2.5,0-4.5-2-4.5-4.5c0-2.5,2-4.5,4.5-4.5S107.2,343.2,107.2,345.7
				L107.2,345.7z"/>
		</g>
		<g>
			<path class="st0" d="M113.4,333.6c0,2.5-2,4.5-4.5,4.5c-2.5,0-4.5-2-4.5-4.5c0-2.5,2-4.5,4.5-4.5c0,0,0,0,0,0
				C111.4,329.2,113.4,331.2,113.4,333.6C113.4,333.6,113.4,333.6,113.4,333.6z"/>
		</g>
		<g>
			<path class="st1" d="M122.7,345.7c0,2.5-2,4.5-4.5,4.5c-2.5,0-4.5-2-4.5-4.5c0-2.5,2-4.5,4.5-4.5c0,0,0,0,0,0
				C120.7,341.2,122.7,343.2,122.7,345.7C122.7,345.6,122.7,345.7,122.7,345.7z"/>
		</g>
		<g>
			<path class="st1" d="M100.7,336.4c0,2.5-2,4.5-4.5,4.5c-2.5,0-4.5-2-4.5-4.5c0-2.5,2-4.5,4.5-4.5c0,0,0,0,0,0
				C98.7,331.9,100.7,333.9,100.7,336.4z"/>
		</g>
		<g>
			<circle class="st0" cx="72.2" cy="337.4" r="4.5"/>
		</g>
		<g>
			<path class="st0" d="M82.8,325.4c0,2.5-2,4.5-4.5,4.5c-2.5,0-4.5-2-4.5-4.5c0-2.5,2-4.5,4.5-4.5
				C80.8,320.9,82.8,322.9,82.8,325.4L82.8,325.4z"/>
		</g>
		<g>
			<path class="st1" d="M92.1,337.4c0,2.5-2,4.5-4.5,4.5c-2.5,0-4.5-2-4.5-4.5c0-2.5,2-4.5,4.5-4.5c0,0,0,0,0,0
				C90.1,333,92.1,334.9,92.1,337.4C92.1,337.4,92.1,337.4,92.1,337.4z"/>
		</g>
		<g>
			<path class="st1" d="M70.1,328.1c0,2.5-2,4.5-4.5,4.5s-4.5-2-4.5-4.5c0-2.5,2-4.5,4.5-4.5C68.1,323.7,70.1,325.7,70.1,328.1
				L70.1,328.1z"/>
		</g>
		<g>
			<path class="st0" d="M135.7,344.3c0,2.5-2,4.5-4.5,4.5s-4.5-2-4.5-4.5c0-2.5,2-4.5,4.5-4.5c0,0,0,0,0,0
				C133.7,339.8,135.7,341.8,135.7,344.3z"/>
		</g>
		<g>
			<path class="st0" d="M141.9,332.3c0,2.5-2,4.5-4.5,4.5c-2.5,0-4.5-2-4.5-4.5c0-2.5,2-4.5,4.5-4.5S141.9,329.8,141.9,332.3
				L141.9,332.3z"/>
		</g>
		<g>
			<path class="st1" d="M151.2,344.3c0,2.5-2,4.5-4.5,4.5s-4.5-2-4.5-4.5c0-2.5,2-4.5,4.5-4.5c0,0,0,0,0,0
				C149.2,339.8,151.2,341.8,151.2,344.3z"/>
		</g>
		<g>
			<path class="st1" d="M129.2,335c0,2.5-2,4.5-4.5,4.5s-4.5-2-4.5-4.5c0-2.5,2-4.5,4.5-4.5S129.2,332.5,129.2,335L129.2,335z"/>
		</g>
		<g>
			<path class="st0" d="M72.2,369c0,2.5-2,4.5-4.5,4.5s-4.5-2-4.5-4.5s2-4.5,4.5-4.5C70.2,364.5,72.2,366.5,72.2,369L72.2,369z"/>
		</g>
		<g>
			<path class="st0" d="M78.4,357c0,2.5-2,4.5-4.5,4.5c-2.5,0-4.5-2-4.5-4.5c0-2.5,2-4.5,4.5-4.5C76.4,352.5,78.4,354.5,78.4,357
				L78.4,357z"/>
		</g>
		<g>
			<path class="st1" d="M87.6,369c0,2.5-2,4.5-4.5,4.5c-2.5,0-4.5-2-4.5-4.5c0-2.5,2-4.5,4.5-4.5C85.6,364.5,87.6,366.5,87.6,369
				L87.6,369z"/>
		</g>
		<g>
			<path class="st1" d="M65.7,359.7c0,2.5-2,4.5-4.5,4.5c-2.5,0-4.5-2-4.5-4.5c0-2.5,2-4.5,4.5-4.5
				C63.7,355.3,65.7,357.3,65.7,359.7L65.7,359.7z"/>
		</g>
		<g>
			<path class="st0" d="M48.2,370.4c0,2.5-2,4.5-4.5,4.5s-4.5-2-4.5-4.5c0-2.5,2-4.5,4.5-4.5C46.2,365.9,48.2,367.9,48.2,370.4
				L48.2,370.4z"/>
		</g>
		<g>
			<path class="st0" d="M54.3,358.4c0,2.5-2,4.5-4.5,4.5c-2.5,0-4.5-2-4.5-4.5c0-2.5,2-4.5,4.5-4.5
				C52.3,353.9,54.3,355.9,54.3,358.4L54.3,358.4z"/>
		</g>
		<g>
			<path class="st1" d="M63.6,370.4c0,2.5-2,4.5-4.5,4.5c-2.5,0-4.5-2-4.5-4.5c0-2.5,2-4.5,4.5-4.5
				C61.6,365.9,63.6,367.9,63.6,370.4L63.6,370.4z"/>
		</g>
		<g>
			<path class="st1" d="M41.6,361.1c0,2.5-2,4.5-4.5,4.5c-2.5,0-4.5-2-4.5-4.5c0-2.5,2-4.5,4.5-4.5
				C39.6,356.7,41.6,358.7,41.6,361.1L41.6,361.1z"/>
		</g>
		<g>
			<path class="st0" d="M56.4,347.8c0.3,2.5-1.5,4.7-4,4.9c-2.5,0.3-4.7-1.5-4.9-4c-0.3-2.5,1.5-4.7,4-4.9c0.2,0,0.3,0,0.5,0
				C54.3,343.6,56.3,345.4,56.4,347.8z"/>
		</g>
		<g>
			<path class="st0" d="M62.6,337c0.3,2.5-1.5,4.7-4,4.9c-2.5,0.3-4.7-1.5-4.9-4c-0.3-2.5,1.5-4.7,4-4.9c0.2,0,0.3,0,0.5,0
				C60.4,332.8,62.4,334.6,62.6,337z"/>
		</g>
		<g>
			<path class="st1" d="M71.9,347.8c0.2,2.5-1.5,4.7-4,4.9c-2.5,0.2-4.7-1.5-4.9-4c-0.2-2.5,1.5-4.7,4-4.9c0.1,0,0.3,0,0.4,0
				C69.8,343.6,71.8,345.4,71.9,347.8z"/>
		</g>
		<g>
			<path class="st1" d="M49.9,339.5c0.3,2.5-1.5,4.7-4,4.9c-2.5,0.3-4.7-1.5-4.9-4c-0.3-2.5,1.5-4.7,4-4.9c0.2,0,0.3,0,0.5,0
				C47.7,335.3,49.7,337.1,49.9,339.5z"/>
		</g>
		<g>
			<path class="st0" d="M395.7,335.7c0,2.5-2,4.5-4.5,4.5c-2.5,0-4.5-2-4.5-4.5s2-4.5,4.5-4.5C393.7,331.2,395.7,333.2,395.7,335.7
				L395.7,335.7z"/>
		</g>
		<g>
			<path class="st0" d="M401.9,323.6c0,2.5-2,4.5-4.5,4.5c-2.5,0-4.5-2-4.5-4.5c0-2.5,2-4.5,4.5-4.5c0,0,0,0,0,0
				C399.9,319.2,401.9,321.2,401.9,323.6C401.9,323.6,401.9,323.6,401.9,323.6z"/>
		</g>
		<g>
			<path class="st1" d="M411.2,335.7c0,2.5-2,4.5-4.5,4.5c-2.5,0-4.5-2-4.5-4.5s2-4.5,4.5-4.5C409.2,331.2,411.2,333.2,411.2,335.7
				L411.2,335.7z"/>
		</g>
		<g>
			<path class="st1" d="M389.2,326.4c0,2.5-2,4.5-4.5,4.5c-2.5,0-4.5-2-4.5-4.5c0-2.5,2-4.5,4.5-4.5
				C387.2,322,389.2,324,389.2,326.4L389.2,326.4z"/>
		</g>
		<g>
			<path class="st0" d="M163.5,371.1c0,2.5-2,4.5-4.5,4.5s-4.5-2-4.5-4.5c0-2.5,2-4.5,4.5-4.5S163.5,368.6,163.5,371.1L163.5,371.1z
				"/>
		</g>
		<g>
			<path class="st0" d="M169.7,359.1c0,2.5-2,4.5-4.5,4.5c-2.5,0-4.5-2-4.5-4.5c0-2.5,2-4.5,4.5-4.5c0,0,0,0,0,0
				C167.7,354.6,169.7,356.6,169.7,359.1z"/>
		</g>
		<g>
			<path class="st1" d="M179,371.1c0,2.5-2,4.5-4.5,4.5s-4.5-2-4.5-4.5c0-2.5,2-4.5,4.5-4.5C177,366.6,179,368.6,179,371.1
				L179,371.1z"/>
		</g>
		<g>
			<path class="st1" d="M157,361.8c0,2.5-2,4.5-4.5,4.5c-2.5,0-4.5-2-4.5-4.5c0-2.5,2-4.5,4.5-4.5S157,359.3,157,361.8L157,361.8z"
				/>
		</g>
		<g>
			<path class="st0" d="M167.3,351.2c0,2.5-2,4.5-4.5,4.5s-4.5-2-4.5-4.5c0-2.5,2-4.5,4.5-4.5C165.3,346.7,167.3,348.7,167.3,351.2
				C167.3,351.1,167.3,351.2,167.3,351.2z"/>
		</g>
		<g>
			<path class="st0" d="M173.5,339.1c0,2.5-2,4.5-4.5,4.5c-2.5,0-4.5-2-4.5-4.5c0-2.5,2-4.5,4.5-4.5c0,0,0,0,0,0
				C171.5,334.7,173.5,336.7,173.5,339.1z"/>
		</g>
		<g>
			<path class="st1" d="M182.8,351.2c0,2.5-2,4.5-4.5,4.5s-4.5-2-4.5-4.5c0-2.5,2-4.5,4.5-4.5S182.8,348.7,182.8,351.2L182.8,351.2z
				"/>
		</g>
		<g>
			<path class="st1" d="M160.8,341.9c0,2.5-2,4.5-4.5,4.5c-2.5,0-4.5-2-4.5-4.5c0-2.5,2-4.5,4.5-4.5S160.8,339.4,160.8,341.9
				L160.8,341.9z"/>
		</g>
		<g>
			<path class="st0" d="M384.4,308.9c0,2.5-2,4.5-4.5,4.5c-2.5,0-4.5-2-4.5-4.5c0-2.5,2-4.5,4.5-4.5c0,0,0,0,0,0
				C382.4,304.4,384.4,306.4,384.4,308.9C384.4,308.9,384.4,308.9,384.4,308.9z"/>
		</g>
		<g>
			<path class="st0" d="M390.6,296.9c0,2.5-2,4.5-4.5,4.5c-2.5,0-4.5-2-4.5-4.5c0-2.5,2-4.5,4.5-4.5c0,0,0,0,0,0
				C388.6,292.4,390.6,294.4,390.6,296.9z"/>
		</g>
		<g>
			<path class="st1" d="M399.8,308.9c0,2.5-2,4.5-4.5,4.5c-2.5,0-4.5-2-4.5-4.5c0-2.5,2-4.5,4.5-4.5
				C397.8,304.4,399.8,306.4,399.8,308.9L399.8,308.9z"/>
		</g>
		<g>
			<path class="st1" d="M377.9,299.6c0,2.5-2,4.5-4.5,4.5c-2.5,0-4.5-2-4.5-4.5s2-4.5,4.5-4.5C375.9,295.2,377.9,297.2,377.9,299.6
				L377.9,299.6z"/>
		</g>
		<g>
			<path class="st0" d="M410.8,304.1c0,2.5-2,4.5-4.5,4.5c-2.5,0-4.5-2-4.5-4.5s2-4.5,4.5-4.5C408.8,299.6,410.8,301.6,410.8,304.1
				L410.8,304.1z"/>
		</g>
		<g>
			<path class="st0" d="M417,292.1c0,2.5-2,4.5-4.5,4.5c-2.5,0-4.5-2-4.5-4.5c0-2.5,2-4.5,4.5-4.5c0,0,0,0,0,0
				C415,287.6,417,289.6,417,292.1z"/>
		</g>
		<g>
			<path class="st1" d="M426.3,304.1c0,2.5-2,4.5-4.5,4.5s-4.5-2-4.5-4.5s2-4.5,4.5-4.5S426.3,301.6,426.3,304.1L426.3,304.1z"/>
		</g>
		<g>
			<path class="st1" d="M404.3,294.8c0,2.5-2,4.5-4.5,4.5s-4.5-2-4.5-4.5c0-2.5,2-4.5,4.5-4.5S404.3,292.3,404.3,294.8L404.3,294.8z
				"/>
		</g>
		<g>
			<path class="st0" d="M124.7,288.6c0,2.5-2,4.5-4.5,4.5s-4.5-2-4.5-4.5c0-2.5,2-4.5,4.5-4.5C122.7,284.1,124.7,286.1,124.7,288.6
				C124.7,288.6,124.7,288.6,124.7,288.6z"/>
		</g>
		<g>
			<path class="st0" d="M130.9,276.6c0,2.5-2,4.5-4.5,4.5c-2.5,0-4.5-2-4.5-4.5c0-2.5,2-4.5,4.5-4.5S130.9,274.1,130.9,276.6
				L130.9,276.6z"/>
		</g>
		<g>
			<path class="st1" d="M140.2,288.6c0,2.5-2,4.5-4.5,4.5c-2.5,0-4.5-2-4.5-4.5c0-2.5,2-4.5,4.5-4.5c0,0,0,0,0,0
				C138.2,284.2,140.2,286.2,140.2,288.6C140.2,288.6,140.2,288.6,140.2,288.6z"/>
		</g>
		<g>
			<path class="st1" d="M118.2,279.4c0,2.5-2,4.5-4.5,4.5c-2.5,0-4.5-2-4.5-4.5c0-2.5,2-4.5,4.5-4.5S118.2,276.9,118.2,279.4
				L118.2,279.4z"/>
		</g>
		<g>
			<path class="st0" d="M321.5,291.7c0,2.5-2,4.5-4.5,4.5c-2.5,0-4.5-2-4.5-4.5s2-4.5,4.5-4.5C319.5,287.3,321.5,289.3,321.5,291.7
				L321.5,291.7z"/>
		</g>
		<g>
			<path class="st0" d="M327.7,279.7c0,2.5-2,4.5-4.5,4.5c-2.5,0-4.5-2-4.5-4.5s2-4.5,4.5-4.5C325.7,275.2,327.7,277.2,327.7,279.7
				L327.7,279.7z"/>
		</g>
		<g>
			<path class="st1" d="M337,291.7c0,2.5-2,4.5-4.5,4.5c-2.5,0-4.5-2-4.5-4.5s2-4.5,4.5-4.5C335,287.3,337,289.3,337,291.7
				L337,291.7z"/>
		</g>
		<g>
			<path class="st1" d="M315,282.4c0,2.5-2,4.5-4.5,4.5c-2.5,0-4.5-2-4.5-4.5c0-2.5,2-4.5,4.5-4.5c0,0,0,0,0,0
				C313,278,315,280,315,282.4z"/>
		</g>
		<g>
			<path class="st0" d="M364.1,321.6c0,2.5-2,4.5-4.5,4.5c-2.5,0-4.5-2-4.5-4.5c0-2.5,2-4.5,4.5-4.5
				C362.1,317.1,364.1,319.1,364.1,321.6L364.1,321.6z"/>
		</g>
		<g>
			<path class="st0" d="M370.3,309.6c0,2.5-2,4.5-4.5,4.5s-4.5-2-4.5-4.5s2-4.5,4.5-4.5S370.3,307.1,370.3,309.6L370.3,309.6z"/>
		</g>
		<g>
			<path class="st1" d="M379.6,321.6c0,2.5-2,4.5-4.5,4.5c-2.5,0-4.5-2-4.5-4.5c0-2.5,2-4.5,4.5-4.5
				C377.6,317.1,379.6,319.1,379.6,321.6L379.6,321.6z"/>
		</g>
		<g>
			<path class="st1" d="M357.6,312.3c0,2.5-2,4.5-4.5,4.5c-2.5,0-4.5-2-4.5-4.5s2-4.5,4.5-4.5C355.6,307.9,357.6,309.9,357.6,312.3
				L357.6,312.3z"/>
		</g>
		<g>
			<path class="st0" d="M395,332.9c0,2.5-2,4.5-4.5,4.5c-2.5,0-4.5-2-4.5-4.5c0-2.5,2-4.5,4.5-4.5C393,328.5,395,330.5,395,332.9
				C395,332.9,395,332.9,395,332.9z"/>
		</g>
		<g>
			<path class="st0" d="M401.2,320.9c0,2.5-2,4.5-4.5,4.5c-2.5,0-4.5-2-4.5-4.5c0-2.5,2-4.5,4.5-4.5
				C399.2,316.4,401.2,318.4,401.2,320.9L401.2,320.9z"/>
		</g>
		<g>
			<path class="st1" d="M410.5,332.9c0,2.5-2,4.5-4.5,4.5c-2.5,0-4.5-2-4.5-4.5c0-2.5,2-4.5,4.5-4.5
				C408.5,328.5,410.5,330.5,410.5,332.9L410.5,332.9z"/>
		</g>
		<g>
			<path class="st1" d="M388.5,323.6c0,2.5-2,4.5-4.5,4.5s-4.5-2-4.5-4.5c0-2.5,2-4.5,4.5-4.5S388.5,321.2,388.5,323.6L388.5,323.6z
				"/>
		</g>
		<g>
			<path class="st0" d="M358,304.8c0,2.5-2,4.5-4.5,4.5c-2.5,0-4.5-2-4.5-4.5c0-2.5,2-4.5,4.5-4.5C356,300.3,358,302.3,358,304.8
				L358,304.8z"/>
		</g>
		<g>
			<path class="st0" d="M364.1,292.8c0,2.5-2,4.5-4.5,4.5c-2.5,0-4.5-2-4.5-4.5c0-2.5,2-4.5,4.5-4.5
				C362.1,288.3,364.1,290.3,364.1,292.8L364.1,292.8z"/>
		</g>
		<g>
			<path class="st1" d="M373.4,304.8c0,2.5-2,4.5-4.5,4.5c-2.5,0-4.5-2-4.5-4.5c0-2.5,2-4.5,4.5-4.5
				C371.4,300.3,373.4,302.3,373.4,304.8L373.4,304.8z"/>
		</g>
		<g>
			<path class="st1" d="M351.4,295.5c0,2.5-2,4.5-4.5,4.5c-2.5,0-4.5-2-4.5-4.5c0-2.5,2-4.5,4.5-4.5
				C349.4,291,351.4,293,351.4,295.5L351.4,295.5z"/>
		</g>
		<g>
			<path class="st0" d="M322.2,315.1c0,2.5-2,4.5-4.5,4.5c-2.5,0-4.5-2-4.5-4.5c0-2.5,2-4.5,4.5-4.5c0,0,0,0,0,0
				C320.2,310.6,322.2,312.6,322.2,315.1L322.2,315.1z"/>
		</g>
		<g>
			<path class="st0" d="M328.4,303.1c0,2.5-2,4.5-4.5,4.5s-4.5-2-4.5-4.5c0-2.5,2-4.5,4.5-4.5S328.4,300.6,328.4,303.1L328.4,303.1z
				"/>
		</g>
		<g>
			<path class="st1" d="M337.7,315.1c0,2.5-2,4.5-4.5,4.5c-2.5,0-4.5-2-4.5-4.5c0-2.5,2-4.5,4.5-4.5c0,0,0,0,0,0
				C335.7,310.6,337.7,312.6,337.7,315.1z"/>
		</g>
		<g>
			<path class="st1" d="M315.7,305.8c0,2.5-2,4.5-4.5,4.5c-2.5,0-4.5-2-4.5-4.5c0-2.5,2-4.5,4.5-4.5
				C313.7,301.3,315.7,303.3,315.7,305.8L315.7,305.8z"/>
		</g>
		<g>
			<path class="st0" d="M347.6,331.6c0,2.5-2,4.5-4.5,4.5c-2.5,0-4.5-2-4.5-4.5c0-2.5,2-4.5,4.5-4.5
				C345.6,327.1,347.6,329.1,347.6,331.6L347.6,331.6z"/>
		</g>
		<g>
			<path class="st0" d="M353.8,319.5c0,2.5-2,4.5-4.5,4.5c-2.5,0-4.5-2-4.5-4.5c0-2.5,2-4.5,4.5-4.5
				C351.8,315.1,353.8,317.1,353.8,319.5C353.8,319.5,353.8,319.5,353.8,319.5z"/>
		</g>
		<g>
			<path class="st1" d="M363.1,331.6c0,2.5-2,4.5-4.5,4.5c-2.5,0-4.5-2-4.5-4.5c0-2.5,2-4.5,4.5-4.5
				C361.1,327.1,363.1,329.1,363.1,331.6L363.1,331.6z"/>
		</g>
		<g>
			<path class="st1" d="M341.1,322.3c0,2.5-2,4.5-4.5,4.5s-4.5-2-4.5-4.5s2-4.5,4.5-4.5S341.1,319.8,341.1,322.3L341.1,322.3z"/>
		</g>
		<g>
			<path class="st0" d="M342.1,304.8c0,2.5-2,4.5-4.5,4.5c-2.5,0-4.5-2-4.5-4.5c0-2.5,2-4.5,4.5-4.5
				C340.1,300.3,342.1,302.3,342.1,304.8L342.1,304.8z"/>
		</g>
		<g>
			<path class="st0" d="M348.3,292.8c0,2.5-2,4.5-4.5,4.5s-4.5-2-4.5-4.5c0-2.5,2-4.5,4.5-4.5S348.3,290.3,348.3,292.8L348.3,292.8z
				"/>
		</g>
		<g>
			<path class="st1" d="M357.6,304.8c0,2.5-2,4.5-4.5,4.5c-2.5,0-4.5-2-4.5-4.5c0-2.5,2-4.5,4.5-4.5
				C355.6,300.3,357.6,302.3,357.6,304.8L357.6,304.8z"/>
		</g>
		<g>
			<path class="st1" d="M335.6,295.5c0,2.5-2,4.5-4.5,4.5c-2.5,0-4.5-2-4.5-4.5c0-2.5,2-4.5,4.5-4.5
				C333.6,291,335.6,293,335.6,295.5L335.6,295.5z"/>
		</g>
		<g>
			<path class="st0" d="M379.2,300c0,2.5-2,4.5-4.5,4.5c-2.5,0-4.5-2-4.5-4.5s2-4.5,4.5-4.5C377.2,295.5,379.2,297.5,379.2,300
				L379.2,300z"/>
		</g>
		<g>
			<path class="st0" d="M385.4,287.9c0,2.5-2,4.5-4.5,4.5c-2.5,0-4.5-2-4.5-4.5s2-4.5,4.5-4.5C383.4,283.5,385.4,285.5,385.4,287.9
				L385.4,287.9z"/>
		</g>
		<g>
			<path class="st1" d="M394.7,300c0,2.5-2,4.5-4.5,4.5c-2.5,0-4.5-2-4.5-4.5s2-4.5,4.5-4.5C392.7,295.5,394.7,297.5,394.7,300
				L394.7,300z"/>
		</g>
		<g>
			<path class="st1" d="M372.7,290.7c0,2.5-2,4.5-4.5,4.5c-2.5,0-4.5-2-4.5-4.5c0-2.5,2-4.5,4.5-4.5
				C370.7,286.2,372.7,288.2,372.7,290.7L372.7,290.7z"/>
		</g>
		<g>
			<path class="st0" d="M307.1,297.2c0,2.5-2,4.5-4.5,4.5c-2.5,0-4.5-2-4.5-4.5c0-2.5,2-4.5,4.5-4.5
				C305.1,292.8,307.1,294.8,307.1,297.2L307.1,297.2z"/>
		</g>
		<g>
			<path class="st0" d="M313.3,285.2c0,2.5-2,4.5-4.5,4.5c-2.5,0-4.5-2-4.5-4.5c0-2.5,2-4.5,4.5-4.5
				C311.3,280.7,313.3,282.7,313.3,285.2L313.3,285.2z"/>
		</g>
		<g>
			<path class="st1" d="M322.6,297.2c0,2.5-2,4.5-4.5,4.5c-2.5,0-4.5-2-4.5-4.5c0-2.5,2-4.5,4.5-4.5
				C320.6,292.8,322.6,294.8,322.6,297.2L322.6,297.2z"/>
		</g>
		<g>
			<path class="st1" d="M300.6,287.9c0,2.5-2,4.5-4.5,4.5s-4.5-2-4.5-4.5s2-4.5,4.5-4.5S300.6,285.5,300.6,287.9L300.6,287.9z"/>
		</g>
		<g>
			<path class="st0" d="M288.6,315.8c0,2.5-2,4.5-4.5,4.5c-2.5,0-4.5-2-4.5-4.5c0-2.5,2-4.5,4.5-4.5
				C286.6,311.3,288.6,313.3,288.6,315.8L288.6,315.8z"/>
		</g>
		<g>
			<path class="st0" d="M294.7,303.7c0,2.5-2,4.5-4.5,4.5c-2.5,0-4.5-2-4.5-4.5s2-4.5,4.5-4.5C292.7,299.3,294.7,301.3,294.7,303.7
				C294.7,303.7,294.7,303.7,294.7,303.7z"/>
		</g>
		<g>
			<path class="st1" d="M304,315.8c0,2.5-2,4.5-4.5,4.5c-2.5,0-4.5-2-4.5-4.5c0-2.5,2-4.5,4.5-4.5c0,0,0,0,0,0
				C302,311.3,304,313.3,304,315.8C304,315.7,304,315.8,304,315.8z"/>
		</g>
		<g>
			<path class="st1" d="M282,306.5c0,2.5-2,4.5-4.5,4.5c-2.5,0-4.5-2-4.5-4.5c0-2.5,2-4.5,4.5-4.5c0,0,0,0,0,0
				C280,302,282,304,282,306.5z"/>
		</g>
		<g>
			<path class="st0" d="M314.7,328.1c0,2.5-2,4.5-4.5,4.5c-2.5,0-4.5-2-4.5-4.5c0-2.5,2-4.5,4.5-4.5c0,0,0,0,0,0
				C312.7,323.7,314.7,325.7,314.7,328.1z"/>
		</g>
		<g>
			<path class="st0" d="M320.9,316.1c0,2.5-2,4.5-4.5,4.5c-2.5,0-4.5-2-4.5-4.5s2-4.5,4.5-4.5C318.9,311.6,320.9,313.6,320.9,316.1
				L320.9,316.1z"/>
		</g>
		<g>
			<path class="st1" d="M330.1,328.1c0,2.5-2,4.5-4.5,4.5c-2.5,0-4.5-2-4.5-4.5s2-4.5,4.5-4.5C328.1,323.7,330.1,325.7,330.1,328.1
				L330.1,328.1z"/>
		</g>
		<g>
			<path class="st1" d="M308.1,318.8c0,2.5-2,4.5-4.5,4.5c-2.5,0-4.5-2-4.5-4.5c0-2.5,2-4.5,4.5-4.5c0,0,0,0,0,0
				C306.1,314.3,308.1,316.3,308.1,318.8z"/>
		</g>
		<g>
			<path class="st0" d="M261.8,327.8c0,2.5-2,4.5-4.5,4.5c-2.5,0-4.5-2-4.5-4.5s2-4.5,4.5-4.5C259.8,323.3,261.8,325.3,261.8,327.8
				L261.8,327.8z"/>
		</g>
		<g>
			<path class="st0" d="M268,315.8c0,2.5-2,4.5-4.5,4.5c-2.5,0-4.5-2-4.5-4.5c0-2.5,2-4.5,4.5-4.5C266,311.3,268,313.3,268,315.8
				L268,315.8z"/>
		</g>
		<g>
			<path class="st1" d="M277.2,327.8c0,2.5-2,4.5-4.5,4.5c-2.5,0-4.5-2-4.5-4.5s2-4.5,4.5-4.5C275.2,323.3,277.2,325.3,277.2,327.8
				L277.2,327.8z"/>
		</g>
		<g>
			<path class="st1" d="M255.2,318.5c0,2.5-2,4.5-4.5,4.5c-2.5,0-4.5-2-4.5-4.5c0-2.5,2-4.5,4.5-4.5
				C253.2,314,255.2,316,255.2,318.5L255.2,318.5z"/>
		</g>
		<g>
			<path class="st0" d="M271.4,303.1c0,2.5-2,4.5-4.5,4.5c-2.5,0-4.5-2-4.5-4.5c0-2.5,2-4.5,4.5-4.5c0,0,0,0,0,0
				C269.4,298.6,271.4,300.6,271.4,303.1C271.4,303.1,271.4,303.1,271.4,303.1z"/>
		</g>
		<g>
			<path class="st0" d="M277.6,291c0,2.5-2,4.5-4.5,4.5c-2.5,0-4.5-2-4.5-4.5c0-2.5,2-4.5,4.5-4.5
				C275.6,286.6,277.6,288.6,277.6,291L277.6,291z"/>
		</g>
		<g>
			<path class="st1" d="M286.8,303.1c0,2.5-2,4.5-4.5,4.5c-2.5,0-4.5-2-4.5-4.5c0-2.5,2-4.5,4.5-4.5
				C284.8,298.6,286.8,300.6,286.8,303.1L286.8,303.1z"/>
		</g>
		<g>
			<path class="st1" d="M264.9,293.8c0,2.5-2,4.5-4.5,4.5c-2.5,0-4.5-2-4.5-4.5s2-4.5,4.5-4.5C262.9,289.3,264.9,291.3,264.9,293.8
				L264.9,293.8z"/>
		</g>
		<g>
			<path class="st0" d="M289.3,290.7c0,2.5-2,4.5-4.5,4.5c-2.5,0-4.5-2-4.5-4.5c0-2.5,2-4.5,4.5-4.5
				C287.3,286.2,289.3,288.2,289.3,290.7L289.3,290.7z"/>
		</g>
		<g>
			<path class="st0" d="M295.4,278.7c0,2.5-2,4.5-4.5,4.5c-2.5,0-4.5-2-4.5-4.5c0-2.5,2-4.5,4.5-4.5c0,0,0,0,0,0
				C293.4,274.2,295.4,276.2,295.4,278.7C295.4,278.7,295.4,278.7,295.4,278.7z"/>
		</g>
		<g>
			<path class="st1" d="M304.7,290.7c0,2.5-2,4.5-4.5,4.5c-2.5,0-4.5-2-4.5-4.5c0-2.5,2-4.5,4.5-4.5
				C302.7,286.2,304.7,288.2,304.7,290.7C304.7,290.7,304.7,290.7,304.7,290.7z"/>
		</g>
		<g>
			<path class="st1" d="M282.7,281.4c0,2.5-2,4.5-4.5,4.5c-2.5,0-4.5-2-4.5-4.5c0-2.5,2-4.5,4.5-4.5
				C280.7,276.9,282.7,278.9,282.7,281.4L282.7,281.4z"/>
		</g>
		<g>
			<path class="st0" d="M241.9,292.1c0,2.5-2,4.5-4.5,4.5s-4.5-2-4.5-4.5c0-2.5,2-4.5,4.5-4.5C239.9,287.6,241.9,289.6,241.9,292.1
				L241.9,292.1z"/>
		</g>
		<g>
			<path class="st0" d="M248,280c0,2.5-2,4.5-4.5,4.5c-2.5,0-4.5-2-4.5-4.5s2-4.5,4.5-4.5C246,275.6,248,277.6,248,280L248,280z"/>
		</g>
		<g>
			<path class="st1" d="M257.3,292.1c0,2.5-2,4.5-4.5,4.5s-4.5-2-4.5-4.5s2-4.5,4.5-4.5S257.3,289.6,257.3,292.1L257.3,292.1z"/>
		</g>
		<g>
			<path class="st1" d="M235.3,282.8c0,2.5-2,4.5-4.5,4.5s-4.5-2-4.5-4.5c0-2.5,2-4.5,4.5-4.5S235.3,280.3,235.3,282.8L235.3,282.8z
				"/>
		</g>
		<g>
			<path class="st0" d="M230.9,313.4c0,2.5-2,4.5-4.5,4.5s-4.5-2-4.5-4.5c0-2.5,2-4.5,4.5-4.5S230.9,310.9,230.9,313.4L230.9,313.4z
				"/>
		</g>
		<g>
			<path class="st0" d="M237,301.3c0,2.5-2,4.5-4.5,4.5c-2.5,0-4.5-2-4.5-4.5c0-2.5,2-4.5,4.5-4.5C235,296.9,237,298.8,237,301.3
				C237,301.3,237,301.3,237,301.3z"/>
		</g>
		<g>
			<path class="st1" d="M246.3,313.4c0,2.5-2,4.5-4.5,4.5c-2.5,0-4.5-2-4.5-4.5c0-2.5,2-4.5,4.5-4.5c0,0,0,0,0,0
				C244.3,308.9,246.3,310.9,246.3,313.4z"/>
		</g>
		<g>
			<path class="st1" d="M224.3,304.1c0,2.5-2,4.5-4.5,4.5c-2.5,0-4.5-2-4.5-4.5c0-2.5,2-4.5,4.5-4.5c0,0,0,0,0,0
				C222.3,299.6,224.3,301.6,224.3,304.1z"/>
		</g>
		<g>
			<path class="st0" d="M252.2,314c0,2.5-2,4.5-4.5,4.5s-4.5-2-4.5-4.5s2-4.5,4.5-4.5S252.2,311.6,252.2,314L252.2,314z"/>
		</g>
		<g>
			<path class="st0" d="M258.3,302c0,2.5-2,4.5-4.5,4.5c-2.5,0-4.5-2-4.5-4.5s2-4.5,4.5-4.5C256.3,297.5,258.3,299.5,258.3,302
				C258.3,302,258.3,302,258.3,302z"/>
		</g>
		<g>
			<path class="st1" d="M267.6,314c0,2.5-2,4.5-4.5,4.5c-2.5,0-4.5-2-4.5-4.5c0-2.5,2-4.5,4.5-4.5c0,0,0,0,0,0
				C265.6,309.6,267.6,311.6,267.6,314z"/>
		</g>
		<g>
			<path class="st1" d="M245.6,304.8c0,2.5-2,4.5-4.5,4.5c-2.5,0-4.5-2-4.5-4.5c0-2.5,2-4.5,4.5-4.5c0,0,0,0,0,0
				C243.6,300.3,245.6,302.3,245.6,304.8z"/>
		</g>
		<g>
			<path class="st0" d="M217.8,325c0,2.5-2,4.5-4.5,4.5s-4.5-2-4.5-4.5c0-2.5,2-4.5,4.5-4.5S217.8,322.6,217.8,325L217.8,325z"/>
		</g>
		<g>
			<path class="st0" d="M224,313c0,2.5-2,4.5-4.5,4.5c-2.5,0-4.5-2-4.5-4.5c0-2.5,2-4.5,4.5-4.5S224,310.6,224,313L224,313z"/>
		</g>
		<g>
			<path class="st1" d="M233.3,325c0,2.5-2,4.5-4.5,4.5s-4.5-2-4.5-4.5c0-2.5,2-4.5,4.5-4.5C231.3,320.6,233.3,322.6,233.3,325
				C233.3,325,233.3,325,233.3,325z"/>
		</g>
		<g>
			<path class="st1" d="M211.3,315.8c0,2.5-2,4.5-4.5,4.5s-4.5-2-4.5-4.5c0-2.5,2-4.5,4.5-4.5C209.3,311.3,211.3,313.3,211.3,315.8
				C211.3,315.7,211.3,315.7,211.3,315.8z"/>
		</g>
		<g>
			<path class="st0" d="M224,298.3c0,2.5-2,4.5-4.5,4.5c-2.5,0-4.5-2-4.5-4.5c0-2.5,2-4.5,4.5-4.5S224,295.8,224,298.3L224,298.3z"
				/>
		</g>
		<g>
			<path class="st0" d="M230.2,286.2c0,2.5-2,4.5-4.5,4.5c-2.5,0-4.5-2-4.5-4.5c0-2.5,2-4.5,4.5-4.5c0,0,0,0,0,0
				C228.2,281.7,230.2,283.7,230.2,286.2C230.2,286.2,230.2,286.2,230.2,286.2z"/>
		</g>
		<g>
			<path class="st1" d="M239.4,298.3c0,2.5-2,4.5-4.5,4.5s-4.5-2-4.5-4.5c0-2.5,2-4.5,4.5-4.5C237.4,293.8,239.4,295.8,239.4,298.3
				C239.4,298.3,239.4,298.3,239.4,298.3z"/>
		</g>
		<g>
			<path class="st1" d="M217.5,289c0,2.5-2,4.5-4.5,4.5s-4.5-2-4.5-4.5c0-2.5,2-4.5,4.5-4.5S217.5,286.5,217.5,289L217.5,289z"/>
		</g>
		<g>
			<path class="st0" d="M192.4,299.6c0,2.5-2,4.5-4.5,4.5s-4.5-2-4.5-4.5c0-2.5,2-4.5,4.5-4.5C190.4,295.2,192.4,297.2,192.4,299.6
				L192.4,299.6z"/>
		</g>
		<g>
			<path class="st0" d="M198.6,287.6c0,2.5-2,4.5-4.5,4.5c-2.5,0-4.5-2-4.5-4.5c0-2.5,2-4.5,4.5-4.5c0,0,0,0,0,0
				C196.6,283.1,198.6,285.1,198.6,287.6C198.6,287.6,198.6,287.6,198.6,287.6z"/>
		</g>
		<g>
			<path class="st1" d="M207.9,299.6c0,2.5-2,4.5-4.5,4.5s-4.5-2-4.5-4.5c0-2.5,2-4.5,4.5-4.5S207.9,297.2,207.9,299.6L207.9,299.6z
				"/>
		</g>
		<g>
			<path class="st1" d="M185.9,290.3c0,2.5-2,4.5-4.5,4.5c-2.5,0-4.5-2-4.5-4.5c0-2.5,2-4.5,4.5-4.5S185.9,287.9,185.9,290.3
				L185.9,290.3z"/>
		</g>
		<g>
			<path class="st0" d="M187.6,327.8c0,2.5-2,4.5-4.5,4.5s-4.5-2-4.5-4.5c0-2.5,2-4.5,4.5-4.5S187.6,325.3,187.6,327.8L187.6,327.8z
				"/>
		</g>
		<g>
			<path class="st0" d="M193.8,315.8c0,2.5-2,4.5-4.5,4.5s-4.5-2-4.5-4.5c0-2.5,2-4.5,4.5-4.5C191.8,311.3,193.8,313.3,193.8,315.8
				C193.8,315.7,193.8,315.7,193.8,315.8z"/>
		</g>
		<g>
			<path class="st1" d="M203,327.8c0,2.5-2,4.5-4.5,4.5c-2.5,0-4.5-2-4.5-4.5c0-2.5,2-4.5,4.5-4.5S203,325.3,203,327.8L203,327.8z"
				/>
		</g>
		<g>
			<path class="st1" d="M181.1,318.5c0,2.5-2,4.5-4.5,4.5c-2.5,0-4.5-2-4.5-4.5c0-2.5,2-4.5,4.5-4.5S181.1,316,181.1,318.5
				L181.1,318.5z"/>
		</g>
		<g>
			<path class="st0" d="M151.2,311.6c0,2.5-2,4.5-4.5,4.5s-4.5-2-4.5-4.5c0-2.5,2-4.5,4.5-4.5C149.2,307.2,151.2,309.2,151.2,311.6
				L151.2,311.6z"/>
		</g>
		<g>
			<path class="st0" d="M157.4,299.6c0,2.5-2,4.5-4.5,4.5s-4.5-2-4.5-4.5c0-2.5,2-4.5,4.5-4.5C155.4,295.2,157.4,297.2,157.4,299.6
				L157.4,299.6z"/>
		</g>
		<g>
			<path class="st1" d="M166.6,311.6c0,2.5-2,4.5-4.5,4.5s-4.5-2-4.5-4.5c0-2.5,2-4.5,4.5-4.5S166.6,309.2,166.6,311.6L166.6,311.6z
				"/>
		</g>
		<g>
			<path class="st1" d="M144.7,302.4c0,2.5-2,4.5-4.5,4.5s-4.5-2-4.5-4.5c0-2.5,2-4.5,4.5-4.5S144.7,299.9,144.7,302.4L144.7,302.4z
				"/>
		</g>
		<g>
			<path class="st0" d="M151.2,297.9c0,2.5-2,4.5-4.5,4.5c-2.5,0-4.5-2-4.5-4.5c0-2.5,2-4.5,4.5-4.5c0,0,0,0,0,0
				C149.2,293.5,151.2,295.5,151.2,297.9z"/>
		</g>
		<g>
			<path class="st0" d="M157.4,285.9c0,2.5-2,4.5-4.5,4.5s-4.5-2-4.5-4.5c0-2.5,2-4.5,4.5-4.5C155.4,281.4,157.4,283.4,157.4,285.9
				L157.4,285.9z"/>
		</g>
		<g>
			<path class="st1" d="M166.6,297.9c0,2.5-2,4.5-4.5,4.5s-4.5-2-4.5-4.5c0-2.5,2-4.5,4.5-4.5S166.6,295.4,166.6,297.9L166.6,297.9z
				"/>
		</g>
		<g>
			<path class="st1" d="M144.7,288.6c0,2.5-2,4.5-4.5,4.5s-4.5-2-4.5-4.5c0-2.5,2-4.5,4.5-4.5C142.6,284.1,144.6,286.1,144.7,288.6
				C144.7,288.6,144.7,288.6,144.7,288.6z"/>
		</g>
		<g>
			<path class="st0" d="M121,312.7c0,2.5-2,4.5-4.5,4.5s-4.5-2-4.5-4.5c0-2.5,2-4.5,4.5-4.5C119,308.2,121,310.2,121,312.7
				C121,312.7,121,312.7,121,312.7z"/>
		</g>
		<g>
			<path class="st0" d="M127.1,300.7c0,2.5-2,4.5-4.5,4.5c-2.5,0-4.5-2-4.5-4.5c0-2.5,2-4.5,4.5-4.5c0,0,0,0,0,0
				C125.1,296.2,127.1,298.2,127.1,300.7C127.1,300.7,127.1,300.7,127.1,300.7z"/>
		</g>
		<g>
			<path class="st1" d="M136.4,312.7c0,2.5-2,4.5-4.5,4.5s-4.5-2-4.5-4.5c0-2.5,2-4.5,4.5-4.5S136.4,310.2,136.4,312.7L136.4,312.7z
				"/>
		</g>
		<g>
			<path class="st1" d="M114.4,303.4c0,2.5-2,4.5-4.5,4.5s-4.5-2-4.5-4.5c0-2.5,2-4.5,4.5-4.5C112.4,298.9,114.4,300.9,114.4,303.4
				L114.4,303.4z"/>
		</g>
		<g>
			<path class="st0" d="M355.9,288.6c0,2.5-2,4.5-4.5,4.5c-2.5,0-4.5-2-4.5-4.5c0-2.5,2-4.5,4.5-4.5
				C353.9,284.2,355.9,286.2,355.9,288.6L355.9,288.6z"/>
		</g>
		<g>
			<path class="st0" d="M362.1,276.6c0,2.5-2,4.5-4.5,4.5c-2.5,0-4.5-2-4.5-4.5c0-2.5,2-4.5,4.5-4.5
				C360.1,272.1,362.1,274.1,362.1,276.6L362.1,276.6z"/>
		</g>
		<g>
			<path class="st1" d="M371.3,288.6c0,2.5-2,4.5-4.5,4.5c-2.5,0-4.5-2-4.5-4.5c0-2.5,2-4.5,4.5-4.5
				C369.3,284.1,371.3,286.1,371.3,288.6C371.3,288.6,371.3,288.6,371.3,288.6z"/>
		</g>
		<g>
			<path class="st1" d="M349.4,279.4c0,2.5-2,4.5-4.5,4.5c-2.5,0-4.5-2-4.5-4.5c0-2.5,2-4.5,4.5-4.5
				C347.3,274.9,349.3,276.9,349.4,279.4C349.4,279.3,349.4,279.3,349.4,279.4z"/>
		</g>
		<g>
			<path class="st0" d="M96.9,317.8c0,2.5-2,4.5-4.5,4.5c-2.5,0-4.5-2-4.5-4.5c0-2.5,2-4.5,4.5-4.5c0,0,0,0,0,0
				C94.9,313.4,96.9,315.4,96.9,317.8z"/>
		</g>
		<g>
			<path class="st0" d="M103.1,305.8c0,2.5-2,4.5-4.5,4.5s-4.5-2-4.5-4.5c0-2.5,2-4.5,4.5-4.5C101.1,301.3,103.1,303.3,103.1,305.8
				L103.1,305.8z"/>
		</g>
		<g>
			<path class="st1" d="M112.4,317.8c0,2.5-2,4.5-4.5,4.5s-4.5-2-4.5-4.5c0-2.5,2-4.5,4.5-4.5S112.4,315.4,112.4,317.8L112.4,317.8z
				"/>
		</g>
		<g>
			<path class="st1" d="M90.4,308.6c0,2.5-2,4.5-4.5,4.5c-2.5,0-4.5-2-4.5-4.5c0-2.5,2-4.5,4.5-4.5
				C88.4,304.1,90.4,306.1,90.4,308.6L90.4,308.6z"/>
		</g>
		<g>
			<path class="st0" d="M107.2,298.6c0,2.5-2,4.5-4.5,4.5c-2.5,0-4.5-2-4.5-4.5c0-2.5,2-4.5,4.5-4.5S107.2,296.1,107.2,298.6
				L107.2,298.6z"/>
		</g>
		<g>
			<path class="st0" d="M113.4,286.6c0,2.5-2,4.5-4.5,4.5c-2.5,0-4.5-2-4.5-4.5c0-2.5,2-4.5,4.5-4.5S113.4,284.1,113.4,286.6
				L113.4,286.6z"/>
		</g>
		<g>
			<path class="st1" d="M122.7,298.6c0,2.5-2,4.5-4.5,4.5c-2.5,0-4.5-2-4.5-4.5c0-2.5,2-4.5,4.5-4.5c0,0,0,0,0,0
				C120.7,294.1,122.7,296.1,122.7,298.6z"/>
		</g>
		<g>
			<path class="st1" d="M100.7,289.3c0,2.5-2,4.5-4.5,4.5s-4.5-2-4.5-4.5c0-2.5,2-4.5,4.5-4.5c0,0,0,0,0,0
				C98.7,284.9,100.7,286.9,100.7,289.3L100.7,289.3z"/>
		</g>
		<g>
			<path class="st0" d="M76.7,290.3c0,2.5-2,4.5-4.5,4.5s-4.5-2-4.5-4.5c0-2.5,2-4.5,4.5-4.5C74.7,285.9,76.7,287.9,76.7,290.3
				L76.7,290.3z"/>
		</g>
		<g>
			<path class="st0" d="M82.8,278.3c0,2.5-2,4.5-4.5,4.5c-2.5,0-4.5-2-4.5-4.5c0-2.5,2-4.5,4.5-4.5
				C80.8,273.9,82.8,275.9,82.8,278.3L82.8,278.3z"/>
		</g>
		<g>
			<path class="st1" d="M92.1,290.3c0,2.5-2,4.5-4.5,4.5s-4.5-2-4.5-4.5c0-2.5,2-4.5,4.5-4.5C90.1,285.9,92.1,287.9,92.1,290.3
				L92.1,290.3z"/>
		</g>
		<g>
			<path class="st1" d="M70.1,281.1c0,2.5-2,4.5-4.5,4.5s-4.5-2-4.5-4.5c0-2.5,2-4.5,4.5-4.5C68.1,276.6,70.1,278.6,70.1,281.1
				L70.1,281.1z"/>
		</g>
		<g>
			<path class="st0" d="M135.7,297.2c0,2.5-2,4.5-4.5,4.5s-4.5-2-4.5-4.5c0-2.5,2-4.5,4.5-4.5S135.7,294.8,135.7,297.2L135.7,297.2z
				"/>
		</g>
		<g>
			<path class="st0" d="M141.9,285.2c0,2.5-2,4.5-4.5,4.5c-2.5,0-4.5-2-4.5-4.5c0-2.5,2-4.5,4.5-4.5S141.9,282.7,141.9,285.2
				L141.9,285.2z"/>
		</g>
		<g>
			<path class="st1" d="M151.2,297.2c0,2.5-2,4.5-4.5,4.5s-4.5-2-4.5-4.5c0-2.5,2-4.5,4.5-4.5C149.2,292.8,151.2,294.8,151.2,297.2
				L151.2,297.2z"/>
		</g>
		<g>
			<path class="st1" d="M129.2,287.9c0,2.5-2,4.5-4.5,4.5s-4.5-2-4.5-4.5c0-2.5,2-4.5,4.5-4.5S129.2,285.5,129.2,287.9L129.2,287.9z
				"/>
		</g>
		<g>
			<path class="st0" d="M72.2,321.9c0,2.5-2,4.5-4.5,4.5c-2.5,0-4.5-2-4.5-4.5c0-2.5,2-4.5,4.5-4.5c0,0,0,0,0,0
				C70.2,317.5,72.2,319.5,72.2,321.9z"/>
		</g>
		<g>
			<path class="st0" d="M78.4,309.9c0,2.5-2,4.5-4.5,4.5c-2.5,0-4.5-2-4.5-4.5c0-2.5,2-4.5,4.5-4.5
				C76.4,305.5,78.4,307.5,78.4,309.9L78.4,309.9z"/>
		</g>
		<g>
			<path class="st1" d="M87.6,321.9c0,2.5-2,4.5-4.5,4.5c-2.5,0-4.5-2-4.5-4.5c0-2.5,2-4.5,4.5-4.5c0,0,0,0,0,0
				C85.6,317.5,87.6,319.5,87.6,321.9C87.6,321.9,87.6,321.9,87.6,321.9z"/>
		</g>
		<g>
			<path class="st1" d="M65.7,312.7c0,2.5-2,4.5-4.5,4.5c-2.5,0-4.5-2-4.5-4.5c0-2.5,2-4.5,4.5-4.5
				C63.7,308.2,65.7,310.2,65.7,312.7C65.7,312.7,65.7,312.7,65.7,312.7z"/>
		</g>
		<g>
			<path class="st0" d="M48.2,323.3c0,2.5-2,4.5-4.5,4.5s-4.5-2-4.5-4.5c0-2.5,2-4.5,4.5-4.5C46.1,318.8,48.1,320.8,48.2,323.3
				C48.2,323.3,48.2,323.3,48.2,323.3z"/>
		</g>
		<g>
			<path class="st0" d="M54.3,311.3c0,2.5-2,4.5-4.5,4.5c-2.5,0-4.5-2-4.5-4.5c0-2.5,2-4.5,4.5-4.5c0,0,0,0,0,0
				C52.3,306.8,54.3,308.8,54.3,311.3C54.3,311.3,54.3,311.3,54.3,311.3z"/>
		</g>
		<g>
			<path class="st1" d="M63.6,323.3c0,2.5-2,4.5-4.5,4.5c-2.5,0-4.5-2-4.5-4.5s2-4.5,4.5-4.5C61.6,318.8,63.6,320.8,63.6,323.3
				L63.6,323.3z"/>
		</g>
		<g>
			<path class="st1" d="M41.6,314c0,2.5-2,4.5-4.5,4.5c-2.5,0-4.5-2-4.5-4.5c0-2.5,2-4.5,4.5-4.5C39.6,309.6,41.6,311.6,41.6,314
				L41.6,314z"/>
		</g>
		<g>
			<path class="st0" d="M56.4,300.7c0.3,2.5-1.5,4.7-4,4.9c-2.5,0.3-4.7-1.5-4.9-4c-0.3-2.5,1.5-4.7,4-4.9c0.2,0,0.3,0,0.5,0
				C54.3,296.6,56.3,298.4,56.4,300.7z"/>
		</g>
		<g>
			<path class="st0" d="M62.6,289.9c0.3,2.5-1.5,4.7-4,4.9c-2.5,0.3-4.7-1.5-4.9-4c-0.3-2.5,1.5-4.7,4-4.9c0.2,0,0.3,0,0.5,0
				C60.4,285.8,62.4,287.6,62.6,289.9z"/>
		</g>
		<g>
			<path class="st1" d="M71.9,300.7c0.3,2.5-1.5,4.7-4,4.9c-2.5,0.3-4.7-1.5-4.9-4c-0.3-2.5,1.5-4.7,4-4.9c0.2,0,0.3,0,0.5,0
				C69.8,296.6,71.8,298.4,71.9,300.7z"/>
		</g>
		<g>
			<path class="st1" d="M49.9,292.4c0.2,2.5-1.5,4.7-4,4.9c-2.5,0.2-4.7-1.5-4.9-4c-0.2-2.5,1.5-4.7,4-4.9c0.1,0,0.3,0,0.4,0
				C47.8,288.2,49.7,290,49.9,292.4z"/>
		</g>
		<g>
			<path class="st0" d="M395.7,288.6c0,2.5-2,4.5-4.5,4.5c-2.5,0-4.5-2-4.5-4.5c0-2.5,2-4.5,4.5-4.5
				C393.7,284.1,395.7,286.1,395.7,288.6C395.7,288.6,395.7,288.6,395.7,288.6z"/>
		</g>
		<g>
			<path class="st0" d="M401.9,276.6c0,2.5-2,4.5-4.5,4.5c-2.5,0-4.5-2-4.5-4.5c0-2.5,2-4.5,4.5-4.5c0,0,0,0,0,0
				C399.9,272.2,401.9,274.2,401.9,276.6z"/>
		</g>
		<g>
			<path class="st1" d="M411.2,288.6c0,2.5-2,4.5-4.5,4.5c-2.5,0-4.5-2-4.5-4.5c0-2.5,2-4.5,4.5-4.5
				C409.2,284.2,411.2,286.2,411.2,288.6L411.2,288.6z"/>
		</g>
		<g>
			<path class="st1" d="M389.2,279.4c0,2.5-2,4.5-4.5,4.5c-2.5,0-4.5-2-4.5-4.5c0-2.5,2-4.5,4.5-4.5
				C387.2,274.9,389.2,276.9,389.2,279.4L389.2,279.4z"/>
		</g>
		<g>
			<path class="st0" d="M163.5,324c0,2.5-2,4.5-4.5,4.5s-4.5-2-4.5-4.5c0-2.5,2-4.5,4.5-4.5S163.5,321.5,163.5,324L163.5,324z"/>
		</g>
		<g>
			<path class="st0" d="M169.7,312c0,2.5-2,4.5-4.5,4.5c-2.5,0-4.5-2-4.5-4.5c0-2.5,2-4.5,4.5-4.5c0,0,0,0,0,0
				C167.7,307.5,169.7,309.5,169.7,312C169.7,312,169.7,312,169.7,312z"/>
		</g>
		<g>
			<path class="st1" d="M179,324c0,2.5-2,4.5-4.5,4.5s-4.5-2-4.5-4.5c0-2.5,2-4.5,4.5-4.5C177,319.5,179,321.5,179,324L179,324z"/>
		</g>
		<g>
			<path class="st1" d="M157,314.7c0,2.5-2,4.5-4.5,4.5c-2.5,0-4.5-2-4.5-4.5c0-2.5,2-4.5,4.5-4.5S157,312.3,157,314.7L157,314.7z"
				/>
		</g>
		<g>
			<path class="st0" d="M167.3,304.1c0,2.5-2,4.5-4.5,4.5s-4.5-2-4.5-4.5c0-2.5,2-4.5,4.5-4.5C165.3,299.6,167.3,301.6,167.3,304.1
				L167.3,304.1z"/>
		</g>
		<g>
			<path class="st0" d="M173.5,292.1c0,2.5-2,4.5-4.5,4.5c-2.5,0-4.5-2-4.5-4.5c0-2.5,2-4.5,4.5-4.5c0,0,0,0,0,0
				C171.5,287.6,173.5,289.6,173.5,292.1z"/>
		</g>
		<g>
			<path class="st1" d="M182.8,304.1c0,2.5-2,4.5-4.5,4.5s-4.5-2-4.5-4.5c0-2.5,2-4.5,4.5-4.5S182.8,301.6,182.8,304.1L182.8,304.1z
				"/>
		</g>
		<g>
			<path class="st1" d="M160.8,294.8c0,2.5-2,4.5-4.5,4.5c-2.5,0-4.5-2-4.5-4.5c0-2.5,2-4.5,4.5-4.5S160.8,292.3,160.8,294.8
				L160.8,294.8z"/>
		</g>
	</g>
	<g id="freepik--Floor--inject-8">
		<g>
			<path class="st2" d="M444.8,430.5c-0.3,0-0.5-0.2-0.5-0.5v-19.4H0.5c-0.3,0-0.5-0.2-0.5-0.5s0.2-0.5,0.5-0.5h444.3
				c0.3,0,0.5,0.2,0.5,0.5V430C445.3,430.3,445.1,430.5,444.8,430.5z"/>
		</g>
	</g>
	<g id="freepik--Character--inject-113_1_">
		<g>
			<path class="st3" d="M190.6,191.4c0,0-2.2,5.8-1.8,6.6s1.6,2.7,1,4.3s-3.1,1.8-2.8,3.1c0.3,1.2,2,2.2,2,2.2s1.8,8.3,2.6,9.4
				c0.8,1.1,5,0.5,5,0.5l0.3,4.2l12.5-0.8l-0.5-7.5l-0.6-23L190.6,191.4z"/>
			<path class="st2" d="M196.9,222c-0.2,0-0.4-0.1-0.4-0.3l-0.3-3.8c-1.2,0.1-4.2,0.4-4.9-0.7c-0.8-1.1-2.3-8-2.6-9.4
				c-0.4-0.3-1.8-1.2-2.1-2.3c-0.2-0.9,0.6-1.4,1.3-1.9c0.6-0.4,1.2-0.8,1.5-1.4c0.5-1.4-0.5-3.1-0.9-3.9c-0.5-0.9,1-5.2,1.7-7
				c0.1-0.1,0.2-0.2,0.3-0.2l17.8-1.1c0.1,0,0.2,0,0.3,0.1c0.1,0.1,0.1,0.2,0.1,0.3l0.6,23l0.5,7.5c0,0.1,0,0.2-0.1,0.3
				c-0.1,0.1-0.2,0.1-0.3,0.1L196.9,222C196.9,222,196.9,222,196.9,222z M196.6,217c0.1,0,0.2,0,0.2,0.1c0.1,0.1,0.1,0.2,0.1,0.3
				l0.3,3.8l11.7-0.7l-0.4-7.1l-0.6-22.7l-17.1,1.1c-1,2.6-1.9,5.6-1.7,6.1c0.5,0.9,1.7,2.9,1,4.6c-0.3,0.8-1.1,1.3-1.8,1.8
				c-0.8,0.5-1.1,0.7-1,1.1c0.3,1.1,1.8,1.9,1.8,1.9c0.1,0.1,0.2,0.1,0.2,0.2c0.7,3.3,2,8.5,2.6,9.2
				C192.4,217.3,194.9,217.3,196.6,217C196.6,217,196.6,217,196.6,217z"/>
		</g>
		<g>
			<path class="st2" d="M213.6,188.7c-1.5-2.1-3.8-3.4-6.3-3.6l0,0c0,0-3.2-2.7-6.4-2.7c-3.2,0-4.5,1.6-6.6,1.6
				c-2,0-3.4-2.5-6.8,1.1c-3.4,3.6,0.9,7.5,0.9,7.5c0.9,0.9,2.1,1.4,3.4,1.2c-0.1,0.7-0.4,2.2-0.5,3.4c-0.2,1.6,2.6,3.3,2.6,3.3
				c-0.1,1,0,2.1,0.2,3.1c0.3,0.8,1.1,0.9,1.6,0.3c0.5-0.6,0.8-3.6,1.2-2.3c0.5,1.2,2.3,10.6,3.6,11.7c1.2,1.1,6.9,0.5,8.4,0.2
				c1.6-0.3,4.5-6.8,5.9-10.7S215.6,191.8,213.6,188.7z"/>
			<path class="st2" d="M203.8,214.2c-1.5,0-2.9-0.2-3.5-0.7c-0.9-0.8-1.9-4.6-3-9.1c-0.2-1-0.4-1.8-0.6-2.3
				c-0.1,0.2-0.1,0.4-0.2,0.6c-0.2,0.6-0.3,1.2-0.5,1.5c-0.3,0.4-0.7,0.6-1.1,0.5c-0.5-0.1-0.9-0.4-1.1-0.9
				c-0.2-1.1-0.3-2.1-0.2-3.1c-0.7-0.5-2.8-2-2.6-3.5c0.1-1,0.3-2.2,0.5-2.9c-1.2,0-2.3-0.5-3.2-1.3c-0.1-0.1-2.2-2-2.3-4.5
				c-0.1-1.3,0.4-2.4,1.4-3.5c2.6-2.8,4.2-2.2,5.6-1.6c0.5,0.2,1,0.4,1.5,0.4c0.8,0,1.6-0.3,2.4-0.6c1.1-0.4,2.3-1,4.2-1
				c3,0,5.9,2.3,6.5,2.7c2.6,0.3,4.9,1.6,6.4,3.7c0,0,0,0,0,0c2.1,3.2,2.7,10.3,1.3,14.2c0,0.1-3.9,10.5-6.2,11
				C208.5,213.8,206,214.2,203.8,214.2z M196.7,200.8c0.4,0,0.5,0.4,0.6,0.5c0.1,0.4,0.4,1.4,0.7,2.8c0.7,2.8,2,8.1,2.8,8.7
				c1,0.9,6.2,0.4,8.1,0.1c1.2-0.2,3.9-5.7,5.7-10.5c1.4-3.8,0.8-10.5-1.2-13.5c-1.4-2-3.6-3.2-6-3.4c-0.1,0-0.1,0-0.2-0.1
				c0,0-3.1-2.6-6.1-2.6c-1.7,0-2.9,0.5-3.9,0.9c-0.9,0.4-1.7,0.7-2.7,0.7c-0.6,0-1.2-0.2-1.8-0.4c-1.3-0.5-2.5-1-4.8,1.4
				c-0.8,0.9-1.2,1.9-1.2,2.9c0.1,2.2,2.1,4,2.1,4c0.8,0.8,1.9,1.3,3.1,1.1c0.1,0,0.2,0,0.3,0.1c0.1,0.1,0.1,0.2,0.1,0.3
				c0,0.2-0.4,2-0.5,3.3c-0.1,1.1,1.7,2.5,2.5,2.9c0.1,0.1,0.2,0.2,0.2,0.3c-0.1,1,0,2,0.2,3c0.1,0.2,0.3,0.4,0.5,0.4
				c0.2,0,0.3-0.1,0.4-0.2c0.1-0.2,0.3-0.8,0.4-1.2C196.1,201.4,196.2,200.9,196.7,200.8C196.7,200.8,196.7,200.8,196.7,200.8z"/>
		</g>
		<g>
			<path class="st3" d="M195.6,201.4c0.2,1.4,0.3,2.9,0.4,4.4c0,1.7-1.1,2.7-0.4,3.4c0.8,0.8,1.3,0.4,1.9-1c0.6-1.6,0.9-3.3,0.7-4.9
				C198.1,202,197.9,199.1,195.6,201.4z"/>
			<path class="st2" d="M196.3,210c-0.3,0-0.7-0.2-1-0.5c-0.6-0.6-0.3-1.3-0.1-2c0.2-0.5,0.4-1,0.4-1.7c0-1.4-0.2-2.9-0.4-4.3
				c0-0.1,0-0.2,0.1-0.3c0.8-0.8,1.5-1.1,2-0.9c0.9,0.3,1.1,1.7,1.2,2.8l0,0.2c0.1,1.7-0.1,3.5-0.8,5.1c-0.4,1-0.8,1.5-1.3,1.6
				C196.4,210,196.4,210,196.3,210z M196,201.5c0.2,1.4,0.3,2.8,0.4,4.2c0,0.8-0.2,1.5-0.4,2c-0.3,0.7-0.3,0.9-0.1,1.2
				c0.1,0.1,0.3,0.3,0.5,0.3c0.1,0,0.4-0.2,0.8-1.1c0.6-1.5,0.8-3.1,0.7-4.8l0-0.2c-0.1-0.7-0.2-2-0.7-2.2
				C197,200.9,196.7,200.9,196,201.5z"/>
		</g>
		<g>
			<path class="st2" d="M182.9,288.9c0,0-3.9,25.9-6.9,51.5c-3,25.6-2.6,61.2-2.6,61.2l7.9,0c0,0,9-49.9,10.9-55.5
				c1.9-5.6,8.3-29.3,8.3-29.3s3.4,27,4.5,28.9s16.4,56.3,16.4,56.3l8.3-0.1l-8.2-58.8l-4.5-54.1L182.9,288.9z"/>
			<path class="st2" d="M221.4,402.3c-0.2,0-0.3-0.1-0.4-0.3c-5.3-18.8-15.5-54.8-16.4-56.2c-1-1.6-3.5-20.7-4.3-27.2
				c-1.5,5.7-6.2,22.8-7.8,27.5c-1.9,5.5-10.8,55-10.9,55.5c0,0.2-0.2,0.3-0.4,0.3l-7.9,0c0,0,0,0,0,0c-0.2,0-0.4-0.2-0.4-0.4
				c0-0.4-0.3-36,2.6-61.3c3-25.3,6.9-51.3,6.9-51.5c0-0.2,0.2-0.3,0.4-0.3h0l34,0.1c0.2,0,0.4,0.1,0.4,0.3l4.5,54.1l8.2,58.7
				c0,0.1,0,0.2-0.1,0.3c-0.1,0.1-0.2,0.1-0.3,0.1L221.4,402.3C221.4,402.3,221.4,402.3,221.4,402.3z M200.4,316.3
				C200.5,316.3,200.5,316.3,200.4,316.3c0.2,0,0.3,0.1,0.4,0.3c1.4,10.8,3.7,27.4,4.5,28.8c1.1,1.8,15.1,51.5,16.4,56.1l7.6-0.1
				l-8.1-58.4l-4.5-53.8l-33.4-0.1c-0.5,3-4.1,27.4-6.8,51.2c-2.8,23.9-2.7,57-2.6,60.8l7.2,0c0.8-4.6,9-49.9,10.8-55.3
				c1.9-5.6,8.2-29,8.3-29.3C200.1,316.4,200.3,316.3,200.4,316.3z"/>
		</g>
		<g>
			<path class="st3" d="M200.4,317c-0.1,0-0.1,0-0.2-0.1c-0.1-0.1-0.1-0.3-0.1-0.4l3.5-4.7c0,0,0.1-0.1,0.1-0.1l11.1-4.2
				c0.1-0.1,0.3,0,0.4,0.2s0,0.3-0.2,0.4l-11,4.2l-3.5,4.6C200.6,316.9,200.5,317,200.4,317z"/>
		</g>
		<g>
			<path class="st3" d="M198.3,295.9h-9.9c-0.2,0-0.3-0.1-0.3-0.3s0.1-0.3,0.3-0.3h9.9c0.2,0,0.3,0.1,0.3,0.3
				S198.4,295.9,198.3,295.9z"/>
		</g>
		<g>
			<path class="st3" d="M216.2,295.9h-3.9c-0.2,0-0.3-0.1-0.3-0.3s0.1-0.3,0.3-0.3h3.9c0.2,0,0.3,0.1,0.3,0.3
				S216.3,295.9,216.2,295.9z"/>
		</g>
		<g>
			<path class="st2" d="M173,401.9l-1.4,1.9c0,0-11.4,4.6-11.4,5.1s-0.1,0.7,0.8,0.7h14.7l1.6-0.5v0.5h4.2l0.1-7.8L173,401.9z"/>
		</g>
		<g>
			<path class="st2" d="M221.4,401.9l-1.4,1.9c0,0-11.4,4.6-11.4,5.1s-0.1,0.7,0.8,0.7h14.7l1.6-0.5v0.5h4.2l0.1-7.8L221.4,401.9z"
				/>
		</g>
		<g>
			<path class="st4" d="M194,221.1l-3.4,6.2c0,0,8.6-2.5,13.2-2.5c3.3,0.1,6.6,0.4,9.8,0.9l-2.5-5
				C211.1,220.7,199.6,218.5,194,221.1z"/>
			<path class="st2" d="M190.6,227.7c-0.1,0-0.2,0-0.3-0.1c-0.1-0.1-0.1-0.3,0-0.4l3.4-6.2c0-0.1,0.1-0.1,0.2-0.2
				c5.6-2.7,16.9-0.5,17.4-0.4c0.1,0,0.2,0.1,0.3,0.2l2.5,5c0.1,0.1,0,0.3,0,0.4s-0.2,0.2-0.4,0.1c-3.2-0.6-6.5-0.9-9.8-0.9
				c-4.6,0-13,2.5-13.1,2.5C190.6,227.7,190.6,227.7,190.6,227.7z M194.2,221.4l-2.9,5.3c2.3-0.6,8.6-2.3,12.5-2.3
				c3.1,0.1,6.1,0.3,9.2,0.8l-2.1-4.2C209.4,220.8,199.3,219.1,194.2,221.4z"/>
		</g>
		<g>
			<path class="st4" d="M226,230.3l10.5,42.8c0.6,2.4-0.9,4.9-3.3,5.5c-0.2,0-0.3,0.1-0.5,0.1l-22.7,3.1l0.5-7.3l11.4-5.4l-2.4-12.2
				C219.5,256.8,222.1,230.6,226,230.3z"/>
			<path class="st2" d="M210,282.2c-0.1,0-0.2,0-0.3-0.1c-0.1-0.1-0.1-0.2-0.1-0.3l0.5-7.3c0-0.1,0.1-0.3,0.2-0.3l11.1-5.3
				l-2.4-11.9c0,0,0-0.1,0-0.1c0.4-4.4,2.8-26.6,6.8-26.9c0.2,0,0.3,0.1,0.4,0.3l10.5,42.8c0.6,2.6-1,5.3-3.6,5.9
				c-0.2,0-0.3,0.1-0.5,0.1L210,282.2C210.1,282.2,210.1,282.2,210,282.2z M210.9,274.7l-0.5,6.7l22.2-3c0.1,0,0.3,0,0.4-0.1
				c2.2-0.5,3.6-2.8,3-5l-10.4-42.5c-2.5,1.3-4.9,16.4-5.8,26.1l2.4,12.2c0,0.2-0.1,0.3-0.2,0.4L210.9,274.7z"/>
		</g>
		<g>
			<path class="st4" d="M191.6,225.6c-3,0.6-6,1.6-8.8,2.9c-1.5,0.8-3.1,1.4-4.7,2c0,0,4,52.2,4,54.9c0,2.7-0.2,2.8,0.7,3.6
				c0.9,0.8,5.8,1.1,14.3,1c8.6-0.2,16.2,0,17,0c1.3-0.1,2.4-0.8,3.1-1.9c0.9-1.4,8.5-57,8.7-57.6s-11.8-4.2-12.9-4.5
				C207,224,198.8,224.1,191.6,225.6z"/>
			<path class="st2" d="M193.5,290.3c-6.4,0-10-0.4-10.9-1.1c-0.9-0.8-0.9-1.1-0.9-2.9c0-0.3,0-0.6,0-1c0-2.6-4-54.3-4-54.8
				c0-0.2,0.1-0.3,0.2-0.4c1.6-0.6,3.1-1.3,4.6-2c2.8-1.3,5.8-2.3,8.9-2.9c7.7-1.6,15.8-1.5,21.7,0.2c0.6,0.2,3.9,1.2,6.9,2.2
				c6.4,2.1,6.3,2.4,6.2,2.8c0,0.2-0.5,3.5-1.1,8c-4.1,29.2-6.9,48.8-7.6,49.8c-0.7,1.2-2,1.9-3.4,2l-0.8,0c-2.2,0-8.9-0.1-16.2,0
				C195.9,290.3,194.7,290.3,193.5,290.3z M178.5,230.7c0.3,4.5,4,52,4,54.6c0,0.4,0,0.7,0,1c0,1.7,0,1.7,0.6,2.3
				c0.4,0.3,2.5,1.1,14.1,0.9c7.3-0.1,14-0.1,16.2-0.1l0.8,0c1.1-0.1,2.2-0.7,2.8-1.7c0.7-1.4,5.5-35.1,7.5-49.5
				c0.7-5.1,1-7.2,1.1-7.9c-1.1-0.8-9.8-3.5-12.6-4.3c-5.8-1.7-13.8-1.8-21.3-0.2c0,0,0,0,0,0c-3,0.6-5.9,1.6-8.7,2.8
				C181.5,229.5,180,230.2,178.5,230.7z M225.6,230.3C225.6,230.3,225.6,230.3,225.6,230.3C225.6,230.3,225.6,230.3,225.6,230.3z
				 M191.6,225.6L191.6,225.6L191.6,225.6z"/>
		</g>
		<g>
			<path class="st2" d="M207.5,269.1c-0.1,0-0.2-0.1-0.3-0.2c-0.1-0.2-0.1-0.4,0.1-0.5c1.1-0.7,2.1-1.5,3.1-2.4
				c0.2-0.1,0.4-0.1,0.5,0c0.1,0.2,0.1,0.4,0,0.5c-1,0.9-2.1,1.7-3.2,2.5C207.7,269,207.6,269.1,207.5,269.1z"/>
		</g>
		<g>
			<path class="st2" d="M213.6,263.5c-0.1,0-0.2,0-0.2-0.1c-0.2-0.1-0.2-0.4,0-0.5c6.2-7.5,8.4-16.9,8.4-17c0-0.2,0.2-0.3,0.4-0.3
				c0.2,0,0.3,0.2,0.3,0.4c0,0.1-2.3,9.7-8.6,17.3C213.8,263.4,213.7,263.5,213.6,263.5z"/>
		</g>
		<g>
			<path class="st2" d="M230.9,273.2C230.9,273.2,230.9,273.2,230.9,273.2c-5.7-0.4-8.1-3.6-8.2-3.7c-0.1-0.2-0.1-0.4,0.1-0.5
				c0.2-0.1,0.4-0.1,0.5,0.1c0,0,2.3,3.1,7.6,3.4c0.2,0,0.4,0.2,0.3,0.4C231.3,273,231.1,273.2,230.9,273.2z"/>
		</g>
		<g>
			<path class="st2" d="M226.6,274.8c-0.1,0-0.1,0-0.2,0c-2.3-1.1-4.1-3.1-4.9-5.6c-0.1-0.2,0-0.4,0.2-0.5c0.2-0.1,0.4,0,0.5,0.2
				c0.7,2.2,2.4,4.1,4.5,5.1c0.2,0.1,0.3,0.3,0.2,0.5C226.9,274.7,226.8,274.8,226.6,274.8z"/>
		</g>
		<g>
			<path class="st4" d="M178.1,230.5l-22,6.9l-21.8-27.2l-4.2,3.5l19.6,37.6c1.2,2.4,3.9,3.6,6.6,3.1l23.3-5.2
				C179.5,249.2,182.4,241.3,178.1,230.5z"/>
			<path class="st2" d="M154.9,254.9c-2.3,0-4.5-1.3-5.6-3.4l-19.6-37.6c-0.1-0.2,0-0.3,0.1-0.5l4.2-3.5c0.1-0.1,0.2-0.1,0.3-0.1
				c0.1,0,0.2,0.1,0.3,0.1l21.7,27l21.8-6.8c0.2-0.1,0.4,0,0.5,0.2c4.3,10.9,1.5,18.7,1.4,19c0,0.1-0.1,0.2-0.3,0.2l-23.3,5.2
				C155.8,254.8,155.3,254.9,154.9,254.9z M130.5,213.8l19.4,37.4c1.2,2.2,3.7,3.4,6.1,2.9l23.1-5.1c0.4-1.2,2.3-8.4-1.3-18
				l-21.7,6.8c-0.1,0-0.3,0-0.4-0.1l-21.6-26.9L130.5,213.8z"/>
		</g>
		<g>
			<path class="st2" d="M153.5,244.5c-0.2,0-0.4-0.1-0.4-0.3c-0.2-3.2,1.9-6.1,2-6.2c0.1-0.2,0.4-0.2,0.5-0.1s0.2,0.4,0.1,0.5
				c0,0-2.1,2.8-1.8,5.7C153.9,244.3,153.8,244.5,153.5,244.5C153.5,244.5,153.5,244.5,153.5,244.5z"/>
		</g>
		<g>
			<path class="st2" d="M152.6,247.9c-0.1,0-0.2-0.1-0.3-0.2c-1.8-2.7-0.8-7-0.8-7.2c0-0.2,0.2-0.3,0.4-0.3c0.2,0,0.3,0.2,0.3,0.4
				c0,0-0.9,4.2,0.7,6.6c0.1,0.2,0.1,0.4-0.1,0.5C152.7,247.9,152.7,247.9,152.6,247.9z"/>
		</g>
		<g>
			<path class="st2" d="M189.3,258.1c-0.1,0-0.1,0-0.2,0c-4.3-2.2-9.6-8.4-9.9-8.6c-0.1-0.2-0.1-0.4,0-0.5c0.2-0.1,0.4-0.1,0.5,0
				c0.1,0.1,5.5,6.4,9.6,8.4c0.2,0.1,0.3,0.3,0.2,0.5C189.5,258,189.4,258.1,189.3,258.1z"/>
		</g>
		<g>
			<path class="st2" d="M190.2,263.4c-0.1,0-0.1,0-0.2,0c-6.2-3.4-9.3-10.4-9.5-10.7c-0.1-0.2,0-0.4,0.2-0.5c0.2-0.1,0.4,0,0.5,0.2
				c0,0.1,3.1,7.1,9.1,10.3c0.2,0.1,0.2,0.3,0.2,0.5C190.5,263.3,190.3,263.4,190.2,263.4z"/>
		</g>
		<g>
			<path class="st2" d="M131.9,217.8c-0.1,0-0.2-0.1-0.3-0.2c-0.1-0.2-0.1-0.4,0.1-0.5l4.7-3.1c0.2-0.1,0.4-0.1,0.5,0.1
				c0.1,0.2,0.1,0.4-0.1,0.5l-4.7,3.1C132.1,217.8,132,217.8,131.9,217.8z"/>
		</g>
		<g>
			<path class="st3" d="M134.3,210.1c0,0,1.5-1.8,1.5-3.5s-1.2-3.7-0.7-5.1c0.5-1.4,2.7-3.1,0.8-3.6c-1.9-0.5-3.4,0.5-3.6,1.9
				c-0.2,1.4,0,1.5,0,1.5s-2-4.1-3.4-5.4c-1.4-1.4-2.4-2.9-3.2-2.9s-1.7,0.5-1.2,1.4c0.5,0.9,3.1,4.9,3.1,4.9l0.5,1.7
				c0,0-2.9,0.2-3.2,0.7c-0.3,0.5-0.2,2-1,3.1c-0.9,1-0.7,2-0.3,3.1c0.3,1,1.4,2.7,2,2.7c0.4,0,0.8-0.1,1.2-0.3l3.2,3.5L134.3,210.1
				z"/>
			<path class="st2" d="M130,214c-0.1,0-0.2,0-0.3-0.1l-3-3.3c-0.3,0.2-0.7,0.2-1.1,0.2c-1.1,0-2.1-2.2-2.4-3
				c-0.4-1.1-0.6-2.3,0.4-3.4c0.5-0.6,0.6-1.3,0.7-1.9c0.1-0.4,0.1-0.8,0.3-1.1c0.3-0.5,1.9-0.7,3.1-0.8l-0.4-1.2
				c-0.3-0.4-2.5-4.1-3-4.9c-0.3-0.6-0.2-1-0.1-1.2c0.3-0.4,0.9-0.7,1.6-0.7c0.8,0,1.5,0.8,2.4,1.8c0.3,0.4,0.7,0.8,1.1,1.2
				c0.9,0.9,2,2.9,2.8,4.2c0,0,0,0,0-0.1c0.1-0.7,0.5-1.4,1.1-1.8c0.8-0.5,1.8-0.7,2.9-0.4c0.5,0.1,0.8,0.4,1,0.7
				c0.2,0.6-0.3,1.3-0.8,2.1c-0.3,0.4-0.6,0.9-0.8,1.3c-0.3,0.7,0,1.6,0.3,2.6c0.2,0.8,0.4,1.6,0.4,2.3c0,1.8-1.5,3.7-1.6,3.8
				c0,0,0,0-0.1,0.1l-4.3,3.5C130.2,214,130.1,214,130,214z M126.8,209.8c0.1,0,0.2,0,0.3,0.1l3,3.2l4-3.3c0.2-0.2,1.4-1.8,1.4-3.3
				c0-0.7-0.2-1.4-0.4-2.1c-0.3-1.1-0.6-2.2-0.3-3.1c0.2-0.5,0.5-1,0.8-1.4c0.4-0.5,0.8-1.1,0.7-1.4c0-0.1-0.2-0.2-0.5-0.3
				c-0.8-0.2-1.7-0.1-2.3,0.3c-0.5,0.3-0.8,0.8-0.8,1.3c-0.1,0.9-0.1,1.2,0,1.3c0,0,0,0,0,0c0.1,0.2,0,0.4-0.1,0.5
				c-0.1,0.1-0.4,0.1-0.5,0c0,0-0.1-0.1-0.1-0.2c-0.3-0.5-2.1-4.1-3.3-5.3c-0.4-0.4-0.8-0.8-1.1-1.2c-0.7-0.8-1.4-1.6-1.8-1.6
				c-0.4,0-0.8,0.2-0.9,0.4c0,0-0.1,0.2,0.1,0.4c0.5,0.9,3,4.9,3.1,4.9c0,0,0,0.1,0,0.1l0.5,1.7c0,0.1,0,0.2-0.1,0.3
				c-0.1,0.1-0.2,0.2-0.3,0.2c-1.4,0.1-2.8,0.3-3,0.5c-0.1,0.1-0.1,0.5-0.2,0.8c-0.1,0.7-0.3,1.6-0.8,2.3c-0.7,0.8-0.6,1.7-0.3,2.7
				c0.4,1.2,1.3,2.5,1.7,2.5c0.3,0,0.7-0.1,1-0.3C126.6,209.8,126.7,209.8,126.8,209.8z M134.3,210.1L134.3,210.1L134.3,210.1z"/>
		</g>
		<g>
			<path class="st2" d="M126.8,210.5c-0.1,0-0.2-0.1-0.3-0.2l-1.7-2.5c-0.1-0.2-0.1-0.4,0.1-0.5c0.2-0.1,0.4-0.1,0.5,0.1l1.7,2.5
				c0.1,0.2,0.1,0.4-0.1,0.5C127,210.5,126.9,210.5,126.8,210.5z"/>
		</g>
	</g>
	<g>
		<rect x="283.1" y="24.7" class="st4" width="141.5" height="341.7"/>
	</g>
	<g>
		<rect x="283.1" y="24.7" class="st5" width="141.5" height="341.7"/>
	</g>
	<g>
		<path class="st2" d="M387.8,143.4c2.5-2.1,5.3-4.1,8.1-5.8c2.9-1.7,5.9-3.1,9-4.3c3.1-1.2,6.3-2.1,9.6-2.7c3.3-0.6,6.6-1,9.9-1
			h0.2v-8.6h-0.4c-3.8,0.1-7.6,0.5-11.3,1.2c-3.7,0.7-7.4,1.8-11,3.1c-3.6,1.3-7,3-10.3,4.9c-3.3,2-6.3,4.2-9.2,6.6
			c-5.7,4.9-10.7,10.6-14.8,16.8c-8.2,12.6-12.8,27.2-13.3,42.2c-0.3,7.5,0.5,14.9,2.3,22.2c1.8,7.2,4.6,14.2,8.3,20.6
			c3.7,6.4,8.2,12.3,13.5,17.5c5.2,5.2,10.9,9.8,17.1,13.8c9,5.7,18.8,9.9,29.1,12.4v-4.8c-9.2-2.8-18-6.9-26-12.3
			c-5.7-3.9-11-8.4-15.8-13.4c-4.8-4.9-8.8-10.5-12.1-16.5c-13.2-24.4-11.8-54.2,3.7-77.2C378.1,152.8,382.7,147.8,387.8,143.4z
			 M368.1,262.9c-0.2-0.4-0.5-0.8-0.7-1.2l-0.8-1.2L365,258c-1.2-1.5-2.4-3-3.6-4.5c-2.6-2.8-5.3-5.4-8.3-7.8
			c-6-4.7-12.8-8.4-20-10.8c-7.2-2.4-14.8-3.5-22.5-3.4c-3.8,0.1-7.6,0.5-11.3,1.2c-3.7,0.7-7.4,1.8-11,3.1
			c-1.8,0.7-3.5,1.4-5.2,2.2v9.7c8.4-4.8,18-7.4,27.7-7.5c13.4-0.2,26.4,4.2,37,12.4c2.6,2,5,4.3,7.3,6.7c1,1.3,2.1,2.5,3.1,3.8
			l1.3,2l0.7,1c0.2,0.3,0.5,0.7,0.6,1c3.3,5.7,5.2,12,5.9,18.5c0.6,6.5-0.2,13.1-2.2,19.3c-2.1,6.2-5.6,11.9-10.1,16.6
			c-1.1,1.2-2.3,2.3-3.5,3.4c-0.6,0.5-1.2,1.1-1.9,1.5l-2,1.3c-0.7,0.5-1.4,0.9-2.1,1.2c-0.7,0.4-1.4,0.8-2.1,1.1
			c-1.5,0.7-3,1.2-4.5,1.7c-6.2,1.9-12.8,2.1-19.1,0.6c-6.3-1.5-12.2-4.7-16.8-9.3c-0.6-0.6-1.2-1.1-1.7-1.7l-1.5-1.8
			c-1-1.3-1.8-2.6-2.5-4c-1.5-2.8-2.5-5.9-3-9.1c-0.9-6.4,0.3-13,3.5-18.7c1.6-2.8,3.7-5.3,6.1-7.5c2.4-2.1,5.3-3.7,8.3-4.6
			c6.3-1.9,13.1-1.1,18.7,2.3c2.8,1.7,5.2,3.9,7.1,6.6c0.2,0.3,0.5,0.6,0.6,1c0.2,0.3,0.4,0.7,0.6,1.1c0.3,0.7,0.6,1.5,0.9,2.3
			c0.5,1.5,0.8,3.1,0.9,4.8c0.2,3.3-0.5,6.6-2,9.5c-1.5,3-3.7,5.5-6.5,7.3c-6,3.6-13.6,2.8-18.6-2.1c-2.6-2.3-4-5.7-4.1-9.1
			c0-3.6,1.4-7,4-9.5c-2.8,2.4-4.5,5.8-4.6,9.4c-0.2,3.7,1.2,7.4,3.8,10.1c2.6,2.7,6,4.5,9.7,5.1c3.8,0.6,7.6-0.1,11-1.9
			c6.7-4,10.8-11.3,10.6-19.1c0-1.9-0.3-3.8-0.9-5.7c-0.3-0.9-0.6-1.8-1-2.7c-0.2-0.4-0.4-0.9-0.6-1.3c-0.2-0.4-0.4-0.9-0.7-1.3
			l-0.8-1.2c-0.3-0.4-0.6-0.8-0.9-1.2c-0.6-0.8-1.2-1.5-1.9-2.2c-4.1-4.1-9.5-6.9-15.2-7.8c-7.8-1.2-15.8,1-22,5.9
			c-3,2.5-5.6,5.4-7.6,8.7c-4,6.7-5.7,14.6-4.8,22.4c0.5,3.9,1.6,7.7,3.4,11.2c0.9,1.7,1.9,3.4,3,5l1.8,2.3c0.6,0.8,1.3,1.4,2,2.1
			c5.5,5.5,12.3,9.5,19.9,11.5c15.4,3.9,31.8-0.8,42.7-12.4c5.4-5.5,9.5-12.1,12.1-19.4C377.2,292.8,375.8,276.5,368.1,262.9z
			 M416.6,169.8c2.3-2,5.1-3.6,8-4.5v-5.2c-4.1,0.9-8,2.8-11.4,5.5c-3,2.5-5.6,5.4-7.6,8.7c-6.2,10.2-6.7,22.9-1.4,33.6
			c0.9,1.8,1.9,3.5,3,5l1.8,2.3c0.6,0.8,1.3,1.4,2,2.1c0.5,0.5,1,0.9,1.4,1.4c3.7,3.4,7.8,6.1,12.1,8V219c-3.2-1.6-6.2-3.8-8.8-6.3
			c-0.6-0.6-1.2-1.1-1.7-1.7l-1.5-1.8c-1-1.3-1.8-2.6-2.5-4c-1.5-2.8-2.5-5.9-3-9.1c-0.9-6.4,0.3-13,3.5-18.7
			C412,174.5,414.1,172,416.6,169.8z M424.6,181.6c-1.6,2.1-2.5,4.6-2.6,7.3c-0.2,3.1,0.8,6.1,2.6,8.6v-2c-1.3-2-2-4.3-2-6.6
			c0-2.5,0.7-4.9,2-7V181.6z"/>
	</g>
	<g>
		<path class="st2" d="M424.6,366.9H283.1c-0.3,0-0.5-0.2-0.5-0.5V24.7c0-0.3,0.2-0.5,0.5-0.5h141.5c0.3,0,0.5,0.2,0.5,0.5v341.7
			C425.1,366.6,424.8,366.9,424.6,366.9z M283.6,365.9h140.5V25.2H283.6V365.9z"/>
	</g>
	<g>
		<path class="st2" d="M424.6,25.2c-0.3,0-0.5-0.2-0.5-0.5V12.3c0-0.3,0.2-0.5,0.5-0.5s0.5,0.2,0.5,0.5v12.4
			C425.1,25,424.8,25.2,424.6,25.2z"/>
	</g>
	<g>
		<path class="st2" d="M283.1,25.2c-0.3,0-0.5-0.2-0.5-0.5V12c0-0.3,0.2-0.5,0.5-0.5s0.5,0.2,0.5,0.5v12.7
			C283.6,25,283.4,25.2,283.1,25.2z"/>
	</g>
	<g id="freepik--Lights--inject-136">
		<g>
			<path class="st2" d="M444.9,13.8H50.2c-1.1,0-2-0.9-2-2s0.9-2,2-2h394.8c1.1,0,2,0.9,2,2S446,13.8,444.9,13.8z"/>
		</g>
		<g>
			<rect x="76.8" y="3.4" class="st2" width="22.4" height="23.4"/>
		</g>
		<g>
			<rect x="244" y="3.4" class="st2" width="22.4" height="23.4"/>
		</g>
		<g>
			<rect x="164" y="3.4" transform="matrix(0.9251 -0.3798 0.3798 0.9251 7.39 67.6648)" class="st2" width="22.4" height="23.4"/>
		</g>
		<g>
			
				<rect x="325" y="3.4" transform="matrix(0.9251 -0.3798 0.3798 0.9251 19.4571 128.8255)" class="st2" width="22.4" height="23.4"/>
		</g>
	</g>
	<g>
		<path class="st2" d="M424.6,366.9H283.1c-0.3,0-0.5-0.2-0.5-0.5V24.7c0-0.3,0.2-0.5,0.5-0.5h141.5c0.3,0,0.5,0.2,0.5,0.5v341.7
			C425.1,366.6,424.8,366.9,424.6,366.9z M283.6,365.9h140.5V25.2H283.6V365.9z"/>
	</g>
	<g>
		<path class="st2" d="M424.6,25.2c-0.3,0-0.5-0.2-0.5-0.5V12.3c0-0.3,0.2-0.5,0.5-0.5s0.5,0.2,0.5,0.5v12.4
			C425.1,25,424.8,25.2,424.6,25.2z"/>
	</g>
	<g>
		<path class="st2" d="M283.1,25.2c-0.3,0-0.5-0.2-0.5-0.5V12c0-0.3,0.2-0.5,0.5-0.5s0.5,0.2,0.5,0.5v12.7
			C283.6,25,283.4,25.2,283.1,25.2z"/>
	</g>
	<g>
		<path class="st2" d="M317.8,54.3h-4.5v32h-8.1v-32h-4.5v-4.8h17.1V54.3z"/>
		<path class="st2" d="M341.2,86.3h-8l-1.4-9.9h-3.6l-1.4,9.9h-8l6.1-36.9h10.3L341.2,86.3z M331.2,71.3l-1.2-11l-1.1,11H331.2z"/>
		<path class="st2" d="M357.8,86.3h-15.2V49.4h8.1v32.1h7.1V86.3z"/>
		<path class="st2" d="M379.2,86.3h-8.9l-3.1-13.6v13.6h-8.1V49.4h8.1v12.3l3.5-12.3h7.5l-5,16.8L379.2,86.3z"/>
		<path class="st2" d="M319.2,131.3h-18.5v-4.9l9.1-16.7c1-1.8,1.5-4.3,1.5-7.5c0-1.6-0.5-2.5-1.6-2.5c-1.1,0-1.7,0.5-1.7,1.5v6.3
			h-7.2v-6.4c0-4.7,3-7.1,9.1-7.1c3.8,0,6.3,0.9,7.5,2.6s1.8,4.6,1.8,8.6c0,1.6-0.3,2.8-0.8,3.9l-9.1,17.4h9.9V131.3z"/>
		<path class="st2" d="M320.6,125v-23.7c0-4.8,3.2-7.2,9.5-7.2c6.2,0,9.4,2.4,9.4,7.1v23.7c0,2.1-0.9,3.8-2.6,4.9
			c-1.8,1.2-4,1.7-6.8,1.7c-2.8,0-5.1-0.6-6.9-1.7C321.5,128.8,320.6,127.1,320.6,125z M331.4,125.4v-25.1c0-0.7-0.4-1.1-1.3-1.1
			c-0.9,0-1.4,0.4-1.4,1.1v25.1c0,0.7,0.5,1.1,1.4,1.1C330.9,126.5,331.4,126.1,331.4,125.4z"/>
		<path class="st2" d="M319.2,176.3h-18.5v-4.9l9.1-16.7c1-1.8,1.5-4.3,1.5-7.5c0-1.6-0.5-2.5-1.6-2.5c-1.1,0-1.7,0.5-1.7,1.5v6.3
			h-7.2v-6.4c0-4.7,3-7.1,9.1-7.1c3.8,0,6.3,0.9,7.5,2.6s1.8,4.6,1.8,8.6c0,1.6-0.3,2.8-0.8,3.9l-9.1,17.4h9.9V176.3z"/>
		<path class="st2" d="M320.6,170v-23.7c0-4.8,3.2-7.2,9.5-7.2c6.2,0,9.4,2.4,9.4,7.1v23.7c0,2.1-0.9,3.8-2.6,4.9
			c-1.8,1.2-4,1.7-6.8,1.7c-2.8,0-5.1-0.6-6.9-1.7C321.5,173.8,320.6,172.1,320.6,170z M331.4,170.4v-25.1c0-0.7-0.4-1.1-1.3-1.1
			c-0.9,0-1.4,0.4-1.4,1.1v25.1c0,0.7,0.5,1.1,1.4,1.1C330.9,171.5,331.4,171.1,331.4,170.4z"/>
	</g>
</g>
</svg>
