<?xml version="1.0" encoding="utf-8"?>
<!-- Generator: Adobe Illustrator 22.1.0, SVG Export Plug-In . SVG Version: 6.00 Build 0)  -->
<svg version="1.1" id="Layer_1" xmlns="http://www.w3.org/2000/svg" xmlns:xlink="http://www.w3.org/1999/xlink" x="0px" y="0px"
	 viewBox="0 0 357.4 358" style="enable-background:new 0 0 357.4 358;" xml:space="preserve">
<style type="text/css">
	.st0{fill:#F9F9F9;}
	.st1{opacity:0.5;fill:#FFFFFF;enable-background:new    ;}
	.st2{fill:#263238;}
	.st3{fill:#FFFFFF;}
	.st4{fill:none;stroke:#FFFFFF;stroke-linecap:round;stroke-linejoin:round;}
	.st5{fill:none;stroke:#263238;stroke-linecap:round;stroke-linejoin:round;}
	.st6{fill:none;stroke:#263238;stroke-width:0.5;stroke-linecap:round;stroke-linejoin:round;stroke-dasharray:3,3;}
	.st7{fill:none;stroke:#263238;stroke-width:0.5;stroke-linecap:round;stroke-linejoin:round;stroke-dasharray:5,3;}
	.st8{fill:#263238;stroke:#F9F9F9;stroke-linecap:round;stroke-linejoin:round;}
	.st9{fill:#263238;stroke:#263238;stroke-linecap:round;stroke-linejoin:round;}
	.st10{fill:#FFFFFF;stroke:#263238;stroke-linecap:round;stroke-linejoin:round;}
	.st11{clip-path:url(#SVGID_2_);}
	.st12{opacity:0.39;enable-background:new    ;}
	.st13{clip-path:url(#SVGID_4_);}
	.st14{clip-path:url(#SVGID_6_);}
	.st15{opacity:0.14;enable-background:new    ;}
	.st16{clip-path:url(#SVGID_8_);}
</style>
<g>
	<g id="freepik--Gears--inject-562">
		<path class="st0" d="M321.8,135.2l12-1.4l1.8-13.3l-11.3-4.6c-0.2-4.3-1-8.6-2.3-12.8l9.2-8.1L325.1,83L313,85.8
			c-4.5-5.8-10.3-10.7-16.8-14.1l0.8-12.5L284.3,55l-6.7,10.7c-4.2-0.5-8.5-0.5-12.7,0l-6.6-10.8l-12.8,4l0.7,12.7
			c-3.7,2-7.2,4.4-10.4,7.2l-11.6-5.1l-8.2,10.6l7.8,9.9c-1.4,2.6-2.5,5.4-3.4,8.3c-0.4,1.2-0.7,2.4-1,3.6l-12.4,2.5l-0.7,13.4
			l11.9,3.7c0.6,4.3,1.6,8.4,3.2,12.4l-8.5,9l7.1,11.4l11.7-3.8c2.9,3.2,6.2,6.1,9.9,8.5l-1.8,12l12.4,5.2l7.3-9.6
			c4.3,1,8.7,1.4,13.1,1.3l5.4,10.7l13.1-2.8l0.5-12c4.1-1.7,7.9-3.9,11.5-6.5l10.6,5.7l9.1-9.8l-6.5-10.1
			C318.6,143.4,320.4,139.4,321.8,135.2z M302.9,128.9c-5.6,17.6-24.5,27.3-42.1,21.7c-17.6-5.6-27.3-24.5-21.7-42.1
			c5.6-17.6,24.5-27.3,42.1-21.7C298.9,92.4,308.6,111.3,302.9,128.9C302.9,128.9,302.9,128.9,302.9,128.9L302.9,128.9z"/>
		<path class="st0" d="M67.3,136.2l4.5-0.5l0.7-5l-4.2-1.7c-0.1-1.6-0.4-3.3-0.9-4.8l3.4-3.1l-2.3-4.5l-4.5,1
			c-1.7-2.2-3.9-4-6.3-5.3l0.3-4.7l-4.8-1.5l-2.5,4c-1.6-0.2-3.2-0.2-4.8,0l-2.5-4.1l-4.8,1.5l0.3,4.8c-1.4,0.7-2.7,1.6-3.9,2.7
			l-4.4-1.9l-3.1,4l2.9,3.7c-0.5,1-1,2-1.3,3.1c-0.1,0.4-0.3,0.9-0.4,1.4l-4.6,0.9l-0.2,5l4.4,1.4c0.2,1.6,0.6,3.2,1.2,4.7l-3.2,3.4
			l2.7,4.3l4.4-1.4c1.1,1.2,2.3,2.3,3.7,3.2l-0.7,4.5l4.7,2l2.7-3.6c1.6,0.4,3.3,0.5,4.9,0.5l2,4l4.9-1.1l0.2-4.5
			c1.5-0.6,3-1.5,4.3-2.4l4,2.1l3.4-3.7l-2.4-3.8C66,139.3,66.7,137.8,67.3,136.2z M60.2,133.9c-2.1,6.6-9.2,10.3-15.8,8.1
			c-6.6-2.1-10.3-9.2-8.1-15.8c2.1-6.6,9.2-10.3,15.8-8.1c0,0,0,0,0,0C58.6,120.2,62.3,127.3,60.2,133.9L60.2,133.9z"/>
		<path class="st1" d="M321.8,135.2l12-1.4l1.8-13.3l-11.3-4.6c-0.2-4.3-1-8.6-2.3-12.8l9.2-8.1L325.1,83L313,85.8
			c-4.5-5.8-10.3-10.7-16.8-14.1l0.8-12.5L284.3,55l-6.7,10.7c-4.2-0.5-8.5-0.5-12.7,0l-6.6-10.8l-12.8,4l0.7,12.7
			c-3.7,2-7.2,4.4-10.4,7.2l-11.6-5.1l-8.2,10.6l7.8,9.9c-1.4,2.6-2.5,5.4-3.4,8.3c-0.4,1.2-0.7,2.4-1,3.6l-12.4,2.5l-0.7,13.4
			l11.9,3.7c0.6,4.3,1.6,8.4,3.2,12.4l-8.5,9l7.1,11.4l11.7-3.8c2.9,3.2,6.2,6.1,9.9,8.5l-1.8,12l12.4,5.2l7.3-9.6
			c4.3,1,8.7,1.4,13.1,1.3l5.4,10.7l13.1-2.8l0.5-12c4.1-1.7,7.9-3.9,11.5-6.5l10.6,5.7l9.1-9.8l-6.5-10.1
			C318.6,143.4,320.4,139.4,321.8,135.2z M302.9,128.9c-5.6,17.6-24.5,27.3-42.1,21.7c-17.6-5.6-27.3-24.5-21.7-42.1
			c5.6-17.6,24.5-27.3,42.1-21.7C298.9,92.4,308.6,111.3,302.9,128.9C302.9,128.9,302.9,128.9,302.9,128.9L302.9,128.9z"/>
		<path class="st1" d="M67.3,136.2l4.5-0.5l0.7-5l-4.2-1.7c-0.1-1.6-0.4-3.3-0.9-4.8l3.4-3.1l-2.3-4.5l-4.5,1
			c-1.7-2.2-3.9-4-6.3-5.3l0.3-4.7l-4.8-1.5l-2.5,4c-1.6-0.2-3.2-0.2-4.8,0l-2.5-4.1l-4.8,1.5l0.3,4.8c-1.4,0.7-2.7,1.6-3.9,2.7
			l-4.4-1.9l-3.1,4l2.9,3.7c-0.5,1-1,2-1.3,3.1c-0.1,0.4-0.3,0.9-0.4,1.4l-4.6,0.9l-0.2,5l4.4,1.4c0.2,1.6,0.6,3.2,1.2,4.7l-3.2,3.4
			l2.7,4.3l4.4-1.4c1.1,1.2,2.3,2.3,3.7,3.2l-0.7,4.5l4.7,2l2.7-3.6c1.6,0.4,3.3,0.5,4.9,0.5l2,4l4.9-1.1l0.2-4.5
			c1.5-0.6,3-1.5,4.3-2.4l4,2.1l3.4-3.7l-2.4-3.8C66,139.3,66.7,137.8,67.3,136.2z M60.2,133.9c-2.1,6.6-9.2,10.3-15.8,8.1
			c-6.6-2.1-10.3-9.2-8.1-15.8c2.1-6.6,9.2-10.3,15.8-8.1c0,0,0,0,0,0C58.6,120.2,62.3,127.3,60.2,133.9L60.2,133.9z"/>
		<path class="st2" d="M228.3,42.3l3.9-0.9l0.1-4.4l-3.9-1.1c-0.2-1.4-0.6-2.8-1.2-4.1l2.7-3l-2.5-3.7l-3.8,1.4
			c-1.7-1.7-3.7-3.1-6-4l-0.2-4.1l-4.3-0.9l-1.9,3.8c-1.4,0-2.8,0.1-4.1,0.5l-2.6-3.3l-4,1.8l0.7,4.1c-1.1,0.8-2.2,1.7-3.1,2.7
			l-4-1.2l-2.3,3.8l2.9,3c-0.3,0.9-0.6,1.9-0.8,2.8c-0.1,0.4-0.1,0.8-0.2,1.2l-3.9,1.3l0.3,4.4l4,0.7c0.3,1.4,0.9,2.7,1.5,3.9
			l-2.5,3.3l2.8,3.4l3.7-1.7c1.1,0.9,2.3,1.7,3.5,2.4l-0.1,4l4.2,1.2l2-3.4c1.4,0.2,2.9,0.1,4.3-0.1l2.2,3.3l4.2-1.4l-0.3-3.9
			c1.3-0.7,2.4-1.6,3.5-2.6l3.7,1.4l2.6-3.6l-2.5-3.1C227.6,45.1,228,43.7,228.3,42.3z M221.9,41c-1.2,6-7,9.8-12.9,8.6
			c-6-1.2-9.8-7-8.6-12.9c1.2-5.9,6.9-9.8,12.9-8.7C219.2,29.2,223.1,35,221.9,41C222,40.9,222,41,221.9,41L221.9,41z"/>
	</g>
	<g id="freepik--Rocket--inject-562">
		<path class="st2" d="M75,100.5c0,0-9.1,20.8-7.7,22.1s11.9,21.7,13.6,21.8s1.1-5.3,1.1-5.3l10.2-9.6L75,100.5z"/>
		<path class="st2" d="M115.4,87.9c0,0,19.8,11.1,19.5,13s3.6,24.5,2.2,25.6s-4.1-3.6-4.1-3.6l-13.9-1.6L115.4,87.9z"/>
		<path class="st0" d="M326.3,240c-10.6-30.3-43.9,15.5-60.8,26.2c-16.9,10.7-14-47-40.6-28.1s-28,71.9-53.1,70.3
			c-10.8-0.7-16.7-35.1-24.1-55.5l-35.6-143l-19.1,8.4l46.7,141c2.3,12.1,15.6,44.3,14.9,51c-0.9,9-22.6,7.9-44,1
			c-36-11.6-52.4-73.6-81-81.4c-13.6-3.7-21.4,4.7-27,14.6c1.3,2.8,2.6,5.5,4.1,8.1c27.6,48.6,72.8,72.3,140.1,74.9
			s114.5,7.1,171.9-45c1.8-1.6,3.5-3.3,5.2-5C327.5,265.9,330.3,251.7,326.3,240z"/>
		<path class="st1" d="M326.3,240c-10.6-30.3-43.9,15.5-60.8,26.2c-16.9,10.7-14-47-40.6-28.1s-28,71.9-53.1,70.3
			c-10.8-0.7-16.7-35.1-24.1-55.5l-35.6-143l-19.1,8.4l46.7,141c2.3,12.1,15.6,44.3,14.9,51c-0.9,9-22.6,7.9-44,1
			c-36-11.6-52.4-73.6-81-81.4c-13.6-3.7-21.4,4.7-27,14.6c1.3,2.8,2.6,5.5,4.1,8.1c27.6,48.6,72.8,72.3,140.1,74.9
			s114.5,7.1,171.9-45c1.8-1.6,3.5-3.3,5.2-5C327.5,265.9,330.3,251.7,326.3,240z"/>
		<path class="st3" d="M120,118.9c0,0-6-63-10.8-80.5S78-3.7,68.6,0.5S55.1,37.8,57.4,55s29.1,74.5,37.5,80S119.3,142.1,120,118.9z"
			/>
		<path class="st2" d="M120,118.9c0,0,0-0.4-0.1-1.2c-6.3,20.7-20.3,17.3-29.4,12.3c1.2,1.9,2.7,3.6,4.4,5
			C103.3,140.5,119.3,142.1,120,118.9z"/>
		<path class="st2" d="M68.6,0.5c-8.8,3.9-12.9,33-11.5,50.8c3.3,2.8,7.1,4.8,11.2,6c16.1,4.7,33.2-4.3,40.5-20.3
			C102.9,19.6,77.8-3.6,68.6,0.5z"/>
		<path class="st4" d="M88.6,15c6.8,6.9,12.5,14.7,17,23.3"/>
		<path class="st4" d="M79.7,6.8c0,0,1.7,1.4,4.4,3.8"/>
		<line class="st5" x1="116.9" y1="115.3" x2="117.2" y2="118.2"/>
		<line class="st5" x1="115.7" y1="106.3" x2="116.5" y2="112.9"/>
		<line class="st5" x1="108.8" y1="54.5" x2="114.9" y2="100.4"/>
		<line class="st5" x1="107.5" y1="44.7" x2="108.1" y2="48.8"/>
		<line class="st5" x1="65.9" y1="73.1" x2="77.2" y2="98.6"/>
		<line class="st5" x1="78.4" y1="101.7" x2="80.7" y2="106.9"/>
		<ellipse transform="matrix(0.28 -0.96 0.96 0.28 -7.8285 144.1413)" class="st2" cx="92.2" cy="77.3" rx="15" ry="14.2"/>
		<path class="st0" d="M101.3,81.3c-1.7,4.7-6.9,7.2-11.6,5.5s-7.2-6.9-5.5-11.6c1.6-4.5,6.5-7,11.1-5.7
			C100.2,71.1,102.9,76.4,101.3,81.3z"/>
		<path class="st2" d="M102.1,116.1l10.8,27.8c0.2,0.6,0.9,1,1.5,0.8c0,0,0.1,0,0.1,0l0,0c0.7-0.3,1-1.1,0.7-1.7l-9.2-28.5
			c-0.4-1-1.5-1.6-2.6-1.2c-0.1,0-0.2,0.1-0.2,0.1l0,0C102.2,113.9,101.8,115,102.1,116.1z"/>
	</g>
	<g id="freepik--paper-plane--inject-562">
		<path class="st6" d="M135.3,112.4c47.4,10.4,139.6,38.4,163.1,40c57.5,4,61-97.2-14.2-119.9C225.6,14.9,167.1,60,120.2,77"/>
		<path class="st7" d="M0.3,228.8c21.9-16.5,71.8-42.8,166.4-40.4c105.4,2.6,143.8,19.2,190.5,19.8"/>
		<path class="st7" d="M221,324.6c0,0-27.4,6.9-101.1-15.7c-32.8-10-66.6-27.5-84.7-57.9c-28.5-47.8-14.4-113,32.9-136.6"/>
		<polygon class="st8" points="204.7,314.5 197.6,346.2 282.4,329.8 		"/>
		<polygon class="st8" points="204.8,323.7 197.6,346.2 228.2,339.7 		"/>
		<polygon class="st8" points="203.2,289.1 204.7,314.5 282.4,329.8 		"/>
		<polygon class="st8" points="282.4,329.8 204.3,357.5 204.8,323.7 		"/>
	</g>
	<g id="freepik--Character--inject-562">
		<path class="st9" d="M227.9,130.6c0,0-4.4-8.8-2.3-13.7s9.9-12.8,14-9.6s2.6,10.5,6.1,12.6s14.9,7.3,15.8,17.2s-6.7,17.5-4.7,21
			s17.2,2.6,23.3,12.6s4.1,23.9-0.3,29.5s-30.9,14-30.9,20.4s8.2,13.4-4.1,19.8s-30.6,3.2-32.4-12s16.6-29.5,15.5-39.7
			s-11.7-17.8-14.6-27.4s12.8-12.5,15.2-16S227.9,130.6,227.9,130.6z"/>
		<path class="st4" d="M277.5,188.6c-0.7,2.3-1.8,3.7-2.2,3.8"/>
		<path class="st4" d="M242.2,139.9c0,0,1.3,6.6,6.3,9.5s-3.8,9.5,1.6,16.4s22.5,0,26.6,9.5c1,2.4,1.6,4.9,1.7,7.5"/>
		<path class="st4" d="M255.4,147c0.9,0.6,1.9,1.1,3,1.4"/>
		<path class="st4" d="M243.8,119.7c0,0,0.3,15.5,5.1,21.5c1,1.2,2,2.4,3.2,3.4"/>
		<path class="st10" d="M159.5,123.2c0,0,1.6-6.7,1.6-8.6s-0.5-2.4-1-1.3c-0.5,1.3-0.9,2.6-1.2,4L159.5,123.2z"/>
		<path class="st9" d="M101,300.3c0,0-5.5,9.1-10.1,14s-6,10.1-1.1,11.5s12.4-0.5,16.2-4.4s7.1-9.6,11-11.8s6.3-2.5,6.3-8.5
			s-2.7-7.4-2.7-7.4S109.5,300,101,300.3z"/>
		<path class="st10" d="M114.5,309.3c-5.2,4.4-9.6,12.6-18.1,13.7c-5,0.6-8-0.6-9.6-1.7c-0.3,2.1,0.6,3.8,3,4.5
			c4.9,1.4,12.4-0.5,16.2-4.4s7.1-9.6,11-11.8c3.4-1.9,5.7-2.4,6.2-6.5C120.1,305,117.2,307.1,114.5,309.3z"/>
		<path class="st0" d="M184.4,214.7c0,0-28.5-7.7-42-10.1s-26.1-4.1-30.5,1.1s-3.3,45.8-5.2,56c-1.9,10.2-4.1,29.6-4.7,32.6
			s-3,5.8-1.4,6.9s11.5,1.9,15.1,0s6.3-3,6.3-6.3s0.6-32.6,3-41.7c2.4-9.1,4.4-24.4,4.4-24.4s17.8,4.1,26.1,6.6s20,11.3,31.3,11.5
			s9.9-16.7,7.7-21.7S188.6,215.5,184.4,214.7z"/>
		<g>
			<defs>
				<path id="SVGID_1_" d="M184.4,214.7c0,0-28.5-7.7-42-10.1s-26.1-4.1-30.5,1.1s-3.3,45.8-5.2,56c-1.9,10.2-4.1,29.6-4.7,32.6
					s-3,5.8-1.4,6.9s11.5,1.9,15.1,0s6.3-3,6.3-6.3s0.6-32.6,3-41.7c2.4-9.1,4.4-24.4,4.4-24.4s17.8,4.1,26.1,6.6s20,11.3,31.3,11.5
					s9.9-16.7,7.7-21.7S188.6,215.5,184.4,214.7z"/>
			</defs>
			<clipPath id="SVGID_2_">
				<use xlink:href="#SVGID_1_"  style="overflow:visible;"/>
			</clipPath>
			<g class="st11">
				<path class="st12" d="M195.5,228.2c-1.3-2.6-2.9-5-4.7-7.2c-2.1-2.1-5.1-4.9-6.7-6.4l-3.6-1l-11.3,0.9c0,0-44.8-10.6-46-5.7
					s1.5,10.3,1.5,10.3s-9.5-9.9-8.4-6.1s8.4,12.2,8.4,12.2s-7.6-8.7-7.6-3.4s2.3,30.8-1.9,50.9c-2.8,13.2-8.1,23.2-10,29.4
					c3.6,0.3,8.3,0.2,10.6-1c3.6-1.9,6.3-3,6.3-6.3s0.6-32.6,3-41.7c2.4-9.1,4.4-24.4,4.4-24.4s17.8,4.1,26.1,6.6s20,11.3,31.3,11.5
					C196.4,247,196.9,235,195.5,228.2z"/>
				<path class="st5" d="M129.6,228.7c0,0,1.2-12.3-6.4-19.8"/>
				<path class="st5" d="M128.6,210.1c0,0,2.9,2.8,1.9,10.7"/>
			</g>
		</g>
		<path class="st5" d="M184.4,214.7c0,0-28.5-7.7-42-10.1s-26.1-4.1-30.5,1.1s-3.3,45.8-5.2,56c-1.9,10.2-4.1,29.6-4.7,32.6
			s-3,5.8-1.4,6.9s11.5,1.9,15.1,0s6.3-3,6.3-6.3s0.6-32.6,3-41.7c2.4-9.1,4.4-24.4,4.4-24.4s17.8,4.1,26.1,6.6s20,11.3,31.3,11.5
			s9.9-16.7,7.7-21.7S188.6,215.5,184.4,214.7z"/>
		<path class="st0" d="M225.6,160.9c0,0-2.6,0.6-10.2-0.9s-7.3,1.8-17.2-2.3s-32.1-20.7-35.6-23.3l-3.5-2.6c0,0,0.5-5.5,0.5-8.6
			s-0.2-5.9-0.2-5.9s0.9-6.9,0.2-8.1s-1.9,0.3-1.9,1.7c-0.4,2.5-1,4.9-1.9,7.3c0,0-1.2-7.1-1.5-8.4s-1.2-1.9-2-1.5s0.2,4.1,0.2,5.6
			s-0.2,5.9-0.2,5.9s-3-7.4-3.9-8.9s-1.9-0.3-1.7,1s2.7,8.8,2.7,8.8s-1.5,7.9-1.5,8.4s-3.2-0.5-4.7-1.9s-2,0-1,1.7s3.7,3.4,6.8,4.7
			s6.4,2.7,6.4,2.7s17.6,18.9,24,24.8s13.5,9.6,17.2,11.7c3.7,2,11.8,6.3,11.8,6.3s-4,3-4,7.9s1,9.3-1.4,12.5s-10.3,9.6-10.3,9.6
			s-10.8-11-17.6-15s-13.9-5.6-19.1,2.4s-5.6,42.1-6.1,53.2c-0.5,11.2-2.7,18.4-3.9,19.6c-1.1,1-1.8,2.4-2,3.9c0,1-0.2,3.4-0.2,3.4
			s1.5,8.6,6.1,12s7.1,7.8,8.6,4.9s5.4-7.8,5.7-12c0.2-3.9,0.6-7.7,1.3-11.6c0.5-2,0.3-17.7,3.2-25.7s4.4-12.7,4.4-12.7
			s2.7,15.7,14.4,18.9c11.6,3.2,22.5-3,28.7-12.3s14.4-26.7,19.8-33.6s13.7-18.4,13.7-18.4l12,16c-0.9,2-2,4-3.2,5.9
			c-2,3.2-8.8,9.5-8.8,9.5s3,2.4,5.4,2.7s13.7-5.1,19.3-9.8s6.6-6.8,4.4-10s-11-14.9-16.2-22.3s-5.6-13.4-10.8-15.2
			s-11.6-0.3-13.7-0.3c-2-0.1-4.1-0.4-6.1-0.9L225.6,160.9z"/>
		<g>
			<defs>
				<path id="SVGID_3_" d="M225.6,160.9c0,0-2.6,0.6-10.2-0.9s-7.3,1.8-17.2-2.3s-32.1-20.7-35.6-23.3l-3.5-2.6c0,0,0.5-5.5,0.5-8.6
					s-0.2-5.9-0.2-5.9s0.9-6.9,0.2-8.1s-1.9,0.3-1.9,1.7c-0.4,2.5-1,4.9-1.9,7.3c0,0-1.2-7.1-1.5-8.4s-1.2-1.9-2-1.5
					s0.2,4.1,0.2,5.6s-0.2,5.9-0.2,5.9s-3-7.4-3.9-8.9s-1.9-0.3-1.7,1s2.7,8.8,2.7,8.8s-1.5,7.9-1.5,8.4s-3.2-0.5-4.7-1.9
					s-2,0-1,1.7s3.7,3.4,6.8,4.7s6.4,2.7,6.4,2.7s17.6,18.9,24,24.8s13.5,9.6,17.2,11.7c3.7,2,11.8,6.3,11.8,6.3s-4,3-4,7.9
					s1,9.3-1.4,12.5s-10.3,9.6-10.3,9.6s-10.8-11-17.6-15s-13.9-5.6-19.1,2.4s-5.6,42.1-6.1,53.2c-0.5,11.2-2.7,18.4-3.9,19.6
					c-1.1,1-1.8,2.4-2,3.9c0,1-0.2,3.4-0.2,3.4s1.5,8.6,6.1,12s7.1,7.8,8.6,4.9s5.4-7.8,5.7-12c0.2-3.9,0.6-7.7,1.3-11.6
					c0.5-2,0.3-17.7,3.2-25.7s4.4-12.7,4.4-12.7s2.7,15.7,14.4,18.9c11.6,3.2,22.5-3,28.7-12.3s14.4-26.7,19.8-33.6
					s13.7-18.4,13.7-18.4l12,16c-0.9,2-2,4-3.2,5.9c-2,3.2-8.8,9.5-8.8,9.5s3,2.4,5.4,2.7s13.7-5.1,19.3-9.8s6.6-6.8,4.4-10
					s-11-14.9-16.2-22.3s-5.6-13.4-10.8-15.2s-11.6-0.3-13.7-0.3c-2-0.1-4.1-0.4-6.1-0.9L225.6,160.9z"/>
			</defs>
			<clipPath id="SVGID_4_">
				<use xlink:href="#SVGID_3_"  style="overflow:visible;"/>
			</clipPath>
			<g class="st13">
				<path class="st12" d="M205.3,233.9c0,0-8.7-19-23.6-29.6s-14.8-8-14.1-5.7s1.5,5.3,1.5,5.3s-5.7-6.1-5.7-1.9s5.3,16.7,1.5,32.3
					s-8,30.4-6.8,37.2s2.7,12.5-1.5,8s-6.5,0-6.1,1.9c0.2,0.8,4,5.3,8.7,10.5c1.8-2.9,4.6-7,4.9-10.6c0.2-3.9,0.7-7.7,1.4-11.5
					c0.5-2,0.3-17.7,3.2-25.7s4.4-12.7,4.4-12.7s2.7,15.7,14.4,18.9c11.6,3.2,22.5-3,28.7-12.3c2.7-4,5.7-9.5,8.7-15l-14,6.3
					L205.3,233.9z"/>
				<path class="st5" d="M173.4,202.5c0,0,5.9,10,0.6,26.7"/>
				<path class="st5" d="M176.7,201.3c0,0,1.9,6.9,0,12.2"/>
			</g>
		</g>
		<path class="st5" d="M225.6,160.9c0,0-2.6,0.6-10.2-0.9s-7.3,1.8-17.2-2.3s-32.1-20.7-35.6-23.3l-3.5-2.6c0,0,0.5-5.5,0.5-8.6
			s-0.2-5.9-0.2-5.9s0.9-6.9,0.2-8.1s-1.9,0.3-1.9,1.7c-0.4,2.5-1,4.9-1.9,7.3c0,0-1.2-7.1-1.5-8.4s-1.2-1.9-2-1.5s0.2,4.1,0.2,5.6
			s-0.2,5.9-0.2,5.9s-3-7.4-3.9-8.9s-1.9-0.3-1.7,1s2.7,8.8,2.7,8.8s-1.5,7.9-1.5,8.4s-3.2-0.5-4.7-1.9s-2,0-1,1.7s3.7,3.4,6.8,4.7
			s6.4,2.7,6.4,2.7s17.6,18.9,24,24.8s13.5,9.6,17.2,11.7c3.7,2,11.8,6.3,11.8,6.3s-4,3-4,7.9s1,9.3-1.4,12.5s-10.3,9.6-10.3,9.6
			s-10.8-11-17.6-15s-13.9-5.6-19.1,2.4s-5.6,42.1-6.1,53.2c-0.5,11.2-2.7,18.4-3.9,19.6c-1.1,1-1.8,2.4-2,3.9c0,1-0.2,3.4-0.2,3.4
			s1.5,8.6,6.1,12s7.1,7.8,8.6,4.9s5.4-7.8,5.7-12c0.2-3.9,0.6-7.7,1.3-11.6c0.5-2,0.3-17.7,3.2-25.7s4.4-12.7,4.4-12.7
			s2.7,15.7,14.4,18.9c11.6,3.2,22.5-3,28.7-12.3s14.4-26.7,19.8-33.6s13.7-18.4,13.7-18.4l12,16c-0.9,2-2,4-3.2,5.9
			c-2,3.2-8.8,9.5-8.8,9.5s3,2.4,5.4,2.7s13.7-5.1,19.3-9.8s6.6-6.8,4.4-10s-11-14.9-16.2-22.3s-5.6-13.4-10.8-15.2
			s-11.6-0.3-13.7-0.3c-2-0.1-4.1-0.4-6.1-0.9L225.6,160.9z"/>
		<path class="st3" d="M262.6,178.1c-5.2-7.4-5.6-13.4-10.8-15.2s-11.6-0.3-13.7-0.3c-2-0.1-4.1-0.4-6.1-0.9l-6.4-0.8
			c0,0-2.6,0.6-10.2-0.9s-7.3,1.8-17.2-2.3s-32.1-20.7-35.6-23.3l-3.5-2.6c0,0,0.5-5.5,0.5-8.6s-0.2-5.9-0.2-5.9s0.9-6.9,0.2-8.1
			s-1.9,0.3-1.9,1.7c-0.4,2.5-1,4.9-1.9,7.3c0,0-1.2-7.1-1.5-8.4s-1.2-1.9-2-1.5s0.2,4.1,0.2,5.6s-0.2,5.9-0.2,5.9s-3-7.4-3.9-8.9
			s-1.9-0.3-1.7,1s2.7,8.8,2.7,8.8s-1.5,7.9-1.5,8.4s-3.2-0.5-4.7-1.9s-2,0-1,1.7s3.7,3.4,6.8,4.7s6.4,2.7,6.4,2.7
			s17.6,18.9,24,24.8s13.5,9.6,17.2,11.7c3.7,2,11.8,6.3,11.8,6.3s-4,3-4,7.9v0.6l35.9,11.6c4.7-6.3,9.6-13,9.6-13l12,16
			c-0.9,2-2,4-3.2,5.9c-2,3.2-8.8,9.5-8.8,9.5s3,2.4,5.4,2.7s13.7-5.1,19.3-9.8s6.6-6.8,4.4-10S267.8,185.5,262.6,178.1z"/>
		<g>
			<defs>
				<path id="SVGID_5_" d="M262.6,178.1c-5.2-7.4-5.6-13.4-10.8-15.2s-11.6-0.3-13.7-0.3c-2-0.1-4.1-0.4-6.1-0.9l-6.4-0.8
					c0,0-2.6,0.6-10.2-0.9s-7.3,1.8-17.2-2.3s-32.1-20.7-35.6-23.3l-3.5-2.6c0,0,0.5-5.5,0.5-8.6s-0.2-5.9-0.2-5.9s0.9-6.9,0.2-8.1
					s-1.9,0.3-1.9,1.7c-0.4,2.5-1,4.9-1.9,7.3c0,0-1.2-7.1-1.5-8.4s-1.2-1.9-2-1.5s0.2,4.1,0.2,5.6s-0.2,5.9-0.2,5.9s-3-7.4-3.9-8.9
					s-1.9-0.3-1.7,1s2.7,8.8,2.7,8.8s-1.5,7.9-1.5,8.4s-3.2-0.5-4.7-1.9s-2,0-1,1.7s3.7,3.4,6.8,4.7s6.4,2.7,6.4,2.7
					s17.6,18.9,24,24.8s13.5,9.6,17.2,11.7c3.7,2,11.8,6.3,11.8,6.3s-4,3-4,7.9v0.6l35.9,11.6c4.7-6.3,9.6-13,9.6-13l12,16
					c-0.9,2-2,4-3.2,5.9c-2,3.2-8.8,9.5-8.8,9.5s3,2.4,5.4,2.7s13.7-5.1,19.3-9.8s6.6-6.8,4.4-10S267.8,185.5,262.6,178.1z"/>
			</defs>
			<clipPath id="SVGID_6_">
				<use xlink:href="#SVGID_5_"  style="overflow:visible;"/>
			</clipPath>
			<g class="st14">
				<path class="st0" d="M262.6,178.1c-5.2-7.4-5.6-13.4-10.8-15.2s-11.6-0.3-13.7-0.3c-1.6-0.1-3.2-0.3-4.8-0.6c0,0,0,0.1,0,0.1
					s3.3,2.5,11.4,5.3s19.1,22.7,23.3,27.2s5.5,6.9,4.4,8.3s-3.3,2.8-7.5,7.2c-2.7,2.9-6.3,6.3-7.8,9.8c6.2-2.2,12-5.4,17.2-9.5
					c5.6-4.7,6.6-6.8,4.4-10S267.8,185.5,262.6,178.1z"/>
				<path class="st0" d="M194.8,157.9c-4.4-1.4-8.6-3.5-12.2-6.4c-6.6-5-16.4-11.9-14.1-6.9s17.5,17.5,23.6,20.5s10,1.4,17.8,0.8
					s6.1-4.4,1.1-4.4S198.7,159.6,194.8,157.9z"/>
				<path class="st1" d="M194.8,157.9c-4.4-1.4-8.6-3.5-12.2-6.4c-6.6-5-16.4-11.9-14.1-6.9s17.5,17.5,23.6,20.5s10,1.4,17.8,0.8
					s6.1-4.4,1.1-4.4S198.7,159.6,194.8,157.9z"/>
				<path class="st1" d="M262.6,178.1c-5.2-7.4-5.6-13.4-10.8-15.2s-11.6-0.3-13.7-0.3c-1.6-0.1-3.2-0.3-4.8-0.6c0,0,0,0.1,0,0.1
					s3.3,2.5,11.4,5.3s19.1,22.7,23.3,27.2s5.5,6.9,4.4,8.3s-3.3,2.8-7.5,7.2c-2.7,2.9-6.3,6.3-7.8,9.8c6.2-2.2,12-5.4,17.2-9.5
					c5.6-4.7,6.6-6.8,4.4-10S267.8,185.5,262.6,178.1z"/>
			</g>
		</g>
		<path class="st5" d="M262.6,178.1c-5.2-7.4-5.6-13.4-10.8-15.2s-11.6-0.3-13.7-0.3c-2-0.1-4.1-0.4-6.1-0.9l-6.4-0.8
			c0,0-2.6,0.6-10.2-0.9s-7.3,1.8-17.2-2.3s-32.1-20.7-35.6-23.3l-3.5-2.6c0,0,0.5-5.5,0.5-8.6s-0.2-5.9-0.2-5.9s0.9-6.9,0.2-8.1
			s-1.9,0.3-1.9,1.7c-0.4,2.5-1,4.9-1.9,7.3c0,0-1.2-7.1-1.5-8.4s-1.2-1.9-2-1.5s0.2,4.1,0.2,5.6s-0.2,5.9-0.2,5.9s-3-7.4-3.9-8.9
			s-1.9-0.3-1.7,1s2.7,8.8,2.7,8.8s-1.5,7.9-1.5,8.4s-3.2-0.5-4.7-1.9s-2,0-1,1.7s3.7,3.4,6.8,4.7s6.4,2.7,6.4,2.7
			s17.6,18.9,24,24.8s13.5,9.6,17.2,11.7c3.7,2,11.8,6.3,11.8,6.3s-4,3-4,7.9v0.6l35.9,11.6c4.7-6.3,9.6-13,9.6-13l12,16
			c-0.9,2-2,4-3.2,5.9c-2,3.2-8.8,9.5-8.8,9.5s3,2.4,5.4,2.7s13.7-5.1,19.3-9.8s6.6-6.8,4.4-10S267.8,185.5,262.6,178.1z"/>
		<path class="st10" d="M262.6,178.1c-5.2-7.4-5.6-13.4-10.8-15.2s-11.6-0.3-13.7-0.3c-2-0.1-4.1-0.4-6.1-0.9l-6.4-0.8
			c0,0-2.6,0.6-10.2-0.9s-7.3,1.8-17.2-2.3c-0.6-0.3-1.3-0.5-1.9-0.9c-2.7,2-5.6,5.5-7.3,11.5c3,1.9,5.8,3.4,7.6,4.4
			c3.7,2,11.8,6.3,11.8,6.3s-4,3-4,7.9s1,9.3-1.4,12.5c-1.8,2.5-6.9,6.8-9.2,8.7c4,3.7,16,15.7,21,32c0.5-0.6,1-1.3,1.5-2
			c6.3-9.3,14.4-26.7,19.8-33.6s13.7-18.4,13.7-18.4l4.5,6c3.2-3.8,7.2-7.2,12.1-8.7C265,181.5,263.7,179.7,262.6,178.1z"/>
		<path class="st15" d="M238.9,188c-0.7,0.5-1.4,1-2.1,1.6c-3.4,3.1-7.9,4.5-12.5,4.1c-11.8-0.8-17.9-9.9-18.2-6.8s0,11.4,6.8,14.1
			s15.6-0.8,12.9,2.3s-15.5,10-12.5,14.2s11.2,3.1,21.4-14.9c1.5-2.6,8.6-9.9,8.7-13.2C243.4,185.7,240.9,186.7,238.9,188z"/>
		<path class="st15" d="M237.1,166c1.6,0.8,3.7,1.6,6.3,2.5c4.1,1.4,8.9,7.2,13.2,13.1c1.4-1,2.9-1.9,4.5-2.6
			c-5.1-7.4-5.5-13.2-10.7-15c-4-1.4-8.6-0.9-11.5-0.5L237.1,166z"/>
		<path class="st9" d="M263.4,179.3c-5,1.3-9.3,4.7-11.8,9.2l2.6,3.5c3.2-3.8,7.2-7.2,12.1-8.7L263.4,179.3z"/>
		<path class="st9" d="M232,161.7l-6.4-0.8c-1.6,0.2-3.3,0.2-4.9-0.1c-0.9,3.8-2.3,10.3-3.1,14.1c-1.1,5.7,5,4.2,11.1,0
			c3.9-2.7,7.2-8.4,9.4-12.4C236,162.4,234,162.1,232,161.7z"/>
		<path class="st9" d="M191.9,170.1c1.3-3.2,3.9-8.3,8.3-11.6c-0.6-0.2-1.3-0.5-2-0.8s-1.3-0.5-1.9-0.9c-2.7,2-5.6,5.5-7.3,11.5
			C189.9,169,190.9,169.6,191.9,170.1z"/>
		<path class="st3" d="M236.9,124.5c0,0-7.3,2.1-9.3,3.8s-5,7.3-8.5,7.9s-3.5,2.6-3.5,4.1c0,0.8,0.2,1.6,0.6,2.3
			c0,0-0.3,6.7-0.3,10.2s0.9,4.4,2.6,4.4h4.1c0,0-0.9,12.3-1.8,15.2s4.4-0.3,5.8-1.8l8.2-8.2c0,0-1.8-8.5,0.9-14.3s-2-7.9-2.6-14.3
			C232.7,130.2,234.1,126.7,236.9,124.5z"/>
		<g>
			<defs>
				<path id="SVGID_7_" d="M236.9,124.5c0,0-7.3,2.1-9.3,3.8s-5,7.3-8.5,7.9s-3.5,2.6-3.5,4.1c0,0.8,0.2,1.6,0.6,2.3
					c0,0-0.3,6.7-0.3,10.2s0.9,4.4,2.6,4.4h4.1c0,0-0.9,12.3-1.8,15.2s4.4-0.3,5.8-1.8l8.2-8.2c0,0-1.8-8.5,0.9-14.3
					s-2-7.9-2.6-14.3C232.7,130.2,234.1,126.7,236.9,124.5z"/>
			</defs>
			<clipPath id="SVGID_8_">
				<use xlink:href="#SVGID_7_"  style="overflow:visible;"/>
			</clipPath>
			<g class="st16">
				<path class="st0" d="M234.9,162.4c0,0-1.8-8.5,0.9-14.3s-2-7.9-2.6-14.3c0-0.4,0-0.7,0-1.1c-1.7,2.3-2.6,5.1-2.6,7.9
					c0.4,5.3-1.1,11.4-4.6,13c-2.5,1.1-7.8,1.8-9.4,2.5c0.4,0.7,1.2,1.1,2.1,1h4.1c0,0-0.1,1.6-0.3,3.9c2.4,2.1,5.1,4.6,7.3,6.6
					L234.9,162.4z"/>
				<path class="st1" d="M234.9,162.4c0,0-1.8-8.5,0.9-14.3s-2-7.9-2.6-14.3c0-0.4,0-0.7,0-1.1c-1.7,2.3-2.6,5.1-2.6,7.9
					c0.4,5.3-1.1,11.4-4.6,13c-2.5,1.1-7.8,1.8-9.4,2.5c0.4,0.7,1.2,1.1,2.1,1h4.1c0,0-0.1,1.6-0.3,3.9c2.4,2.1,5.1,4.6,7.3,6.6
					L234.9,162.4z"/>
			</g>
		</g>
		<path class="st5" d="M236.9,124.5c0,0-7.3,2.1-9.3,3.8s-5,7.3-8.5,7.9s-3.5,2.6-3.5,4.1c0,0.8,0.2,1.6,0.6,2.3
			c0,0-0.3,6.7-0.3,10.2s0.9,4.4,2.6,4.4h4.1c0,0-0.9,12.3-1.8,15.2s4.4-0.3,5.8-1.8l8.2-8.2c0,0-1.8-8.5,0.9-14.3s-2-7.9-2.6-14.3
			C232.7,130.2,234.1,126.7,236.9,124.5z"/>
		<path class="st2" d="M226.3,136.6c-0.6,1-1.5,1.6-1.9,1.3s-0.3-1.3,0.3-2.3s1.5-1.6,1.9-1.3S226.9,135.6,226.3,136.6z"/>
		<path class="st5" d="M226.7,131.9c0,0,3.7-1.6,3,3"/>
		<path class="st5" d="M223.2,144c-3.5,1.2-4.9,0-4.9,0"/>
		<path class="st5" d="M219.6,144.4v2.9c0,0,1.5,1.3,2.9-3.1C221.6,144.5,220.6,144.5,219.6,144.4z"/>
		<path class="st10" d="M234.6,145.5c0,0,8.5-2.3,7.3,1.5s-8.2,6.4-9,3.5"/>
		<path class="st5" d="M192.6,209c0,0,12.4,15.5,13.9,28.6"/>
		<path class="st5" d="M208.3,178.9c0,0,2.5-4.9,2.5-8.4"/>
		<line class="st5" x1="249.7" y1="186" x2="243.4" y2="178.4"/>
		<path class="st5" d="M261.7,202.1c2.6-2,6-2.8,9.3-2"/>
		<path class="st10" d="M252.5,211.5c-1.2-2.2-2.7-4.3-4.4-6.2c-2.1-2.1-7.8-1.8-8.5-0.3s3.3,1.1,5.7,3.6s2.1,4.6,2.1,4.6
			c-2.2,0.8-4.5,1.2-6.9,1c-3.1-0.5-7.2-1.3-7.5-0.2s0.8,2.4,3.4,3.1s5.7,0.5,6.7,0.6s3.4,2.8,5.4,2.8s4.4-0.5,5,0s2.4,2.8,4.4,2.8
			s3.8-2,3.9-4.2s-1.1-4.4-3.9-5.5S252.5,211.5,252.5,211.5z"/>
		<path class="st10" d="M257.1,211.7c0,0-6.5-5.6-8.1-5.7s-6.3,2.8-5.2,4s2.7-0.6,4.2-0.4s5.3,3.5,6,3.7"/>
		<path class="st10" d="M257.4,214.3l-2-3.3c0,0-2.1,3.6-4.6,3.1s2.8-5.9,3.9-6.2s2.6-1,3.9,1.5c0.9,2,1.6,4.1,2.1,6.2"/>
		<path class="st10" d="M261.8,217.2c0,0-0.8-5.2-1.8-5.9s-4.1,0.5-5.4,2s-0.5,1.8,1.1,1.8c0.9,0,1.8-0.3,2.4-0.8l1.1,2.5"/>
		<path class="st9" d="M159.3,292.5c-1.9-4.6-4.5-8.9-7.5-12.9c-4.7-5.9-12.5-8.2-17.5-11.4s-12.3-7.6-15.5-3.8s-0.3,9,5,14.9
			s14.6,10.5,15.5,11.7s9.2,10.9,12.4,11.2S158.1,298.4,159.3,292.5z"/>
		<path class="st10" d="M156.8,298.8c-1.7-5.9-7.7-11-11.9-14.1c-5-3.8-8.2-9.1-17.3-15.9c-3.9-3-6.7-4.1-8.5-4.5
			c-0.1,0.1-0.2,0.2-0.3,0.3c-3.2,3.8-0.3,9,5,14.9s14.6,10.5,15.5,11.7s9.2,10.9,12.4,11.2C153.4,302.4,155.3,301.1,156.8,298.8z"
			/>
		<path class="st10" d="M142.5,286.6c-5.8-4.8-18.5-19.2-21.4-20.4c-2.4-1.1-3.4,1.5-3.6,2.4c0.2,3.1,2.7,6.8,6.3,10.8
			c5.3,5.8,14.6,10.5,15.5,11.7s9.2,10.9,12.4,11.2c0.8,0.2,1.6-0.2,1.9-1C155.1,298.9,148.3,291.4,142.5,286.6z"/>
	</g>
</g>
</svg>
