<?xml version="1.0" encoding="utf-8"?>
<!-- Generator: Adobe Illustrator 22.1.0, SVG Export Plug-In . SVG Version: 6.00 Build 0)  -->
<svg version="1.1" id="Layer_1" xmlns="http://www.w3.org/2000/svg" xmlns:xlink="http://www.w3.org/1999/xlink" x="0px" y="0px"
	 viewBox="0 0 363.3 364.5" style="enable-background:new 0 0 363.3 364.5;" xml:space="preserve">
<style type="text/css">
	.st0{fill:#F7F8F9;}
	.st1{opacity:0.5;fill:#FFFFFF;enable-background:new    ;}
	.st2{fill:#FFFFFF;}
	.st3{fill:none;stroke:#263238;stroke-width:0.8655;stroke-linecap:round;stroke-linejoin:round;}
	.st4{fill:#263238;}
	.st5{fill:#F7F8F9;stroke:#263238;stroke-width:0.8655;stroke-miterlimit:10;}
	.st6{fill:none;stroke:#F7F8F9;stroke-width:0.8655;stroke-linecap:round;stroke-linejoin:round;}
	.st7{fill:none;stroke:#263238;stroke-width:1.0191;stroke-linecap:round;stroke-linejoin:round;}
	.st8{opacity:0.4;fill:#FFFFFF;enable-background:new    ;}
	.st9{fill:none;stroke:#263238;stroke-width:0.8655;stroke-miterlimit:10;}
	.st10{opacity:0.3;enable-background:new    ;}
	.st11{opacity:0.1;enable-background:new    ;}
	.st12{opacity:5.000000e-02;enable-background:new    ;}
	.st13{fill:#FFFFFF;stroke:#263238;stroke-width:0.8655;stroke-linecap:round;stroke-linejoin:round;}
	
		.st14{opacity:0.8;fill:none;stroke:#FFFFFF;stroke-width:0.8655;stroke-linecap:round;stroke-linejoin:round;enable-background:new    ;}
	.st15{opacity:0.7;fill:#FFFFFF;enable-background:new    ;}
	.st16{fill:none;stroke:#FFFFFF;stroke-width:0.8655;stroke-linecap:round;stroke-linejoin:round;}
</style>
<g>
	<g id="freepik--Shadow--inject-401">
		<ellipse class="st0" cx="208.1" cy="322.7" rx="155.2" ry="41.8"/>
		<ellipse class="st1" cx="208.1" cy="322.7" rx="155.2" ry="41.8"/>
	</g>
	<g id="freepik--Window--inject-401">
		<path class="st2" d="M44.6,21.5h182.5c4.3,0,7.7,3.5,7.7,7.7v102.3c0,4.3-3.5,7.7-7.7,7.7H44.6c-4.3,0-7.7-3.5-7.7-7.7V29.3
			C36.8,25,40.3,21.5,44.6,21.5z"/>
		<path class="st0" d="M234.8,29.3v3.1h-198v-3.1c0-4.3,3.5-7.8,7.7-7.8h182.5C231.4,21.5,234.8,25,234.8,29.3
			C234.8,29.3,234.8,29.3,234.8,29.3z"/>
		<path class="st3" d="M44.6,21.5h182.5c4.3,0,7.7,3.5,7.7,7.7v102.3c0,4.3-3.5,7.7-7.7,7.7H44.6c-4.3,0-7.7-3.5-7.7-7.7V29.3
			C36.8,25,40.3,21.5,44.6,21.5z"/>
		<path class="st3" d="M234.8,29.3v3.1h-198v-3.1c0-4.3,3.5-7.8,7.7-7.8h182.5C231.4,21.5,234.8,25,234.8,29.3
			C234.8,29.3,234.8,29.3,234.8,29.3z"/>
		<path class="st4" d="M59.1,26.9c0,1.1-0.9,2-2,2c-1.1,0-2-0.9-2-2c0-1.1,0.9-2,2-2c0,0,0,0,0,0C58.2,25,59.1,25.8,59.1,26.9z"/>
		<path class="st4" d="M69.4,26.9c0,1.1-0.9,2-2,2c-1.1,0-2-0.9-2-2c0-1.1,0.9-2,2-2c0,0,0,0,0,0C68.5,25,69.4,25.8,69.4,26.9z"/>
		<circle class="st4" cx="77.8" cy="26.9" r="2"/>
		<path class="st3" d="M51.8,40.9h56c1.8,0,3.2,1.4,3.2,3.2V71c0,1.8-1.4,3.2-3.2,3.2h-56c-1.8,0-3.2-1.4-3.2-3.2V44.1
			C48.6,42.3,50,40.9,51.8,40.9z"/>
		<line class="st3" x1="52.2" y1="70" x2="106.3" y2="70"/>
		<rect x="56.3" y="63.7" class="st5" width="6.3" height="6.3"/>
		<rect x="65.4" y="55.4" class="st5" width="6.3" height="14.6"/>
		<rect x="75.8" y="57.9" class="st5" width="6.3" height="12.2"/>
		<rect x="86.7" y="45.7" class="st5" width="6.3" height="24"/>
		<rect x="97.5" y="45.9" class="st5" width="6.3" height="24"/>
		
			<ellipse transform="matrix(0.1602 -0.9871 0.9871 0.1602 100.442 234.8624)" class="st5" cx="188.2" cy="58.4" rx="17.5" ry="17.5"/>
		<path class="st4" d="M189.7,69.3v1.8h-2.9v-1.8c-2.5-0.6-4.2-2.9-4.1-5.5v-0.8l3.3-0.4v0.9c0,1.7,0.9,2.7,2.2,2.7
			c1.1,0.1,2.1-0.7,2.2-1.9c0-0.1,0-0.2,0-0.3c0-1.6-1.5-3-3.3-4.4c-2.1-1.7-4.2-3.8-4.2-6.7s1.4-4.9,3.8-5.5v-1.8h2.9v1.8
			c2.4,0.6,3.8,2.6,3.8,5.5v0.6l-3.3,0.4v-0.6c0-1.7-0.7-2.7-1.9-2.7c-1.2,0-1.9,0.8-1.9,2.2c0,1.6,1.5,2.9,3.3,4.4
			c2.1,1.7,4.2,3.8,4.2,6.7C193.9,66.5,192.2,68.8,189.7,69.3z"/>
		<line class="st3" x1="47.1" y1="91.2" x2="52.2" y2="91.2"/>
		<line class="st3" x1="47.1" y1="101.1" x2="52.2" y2="101.1"/>
		<line class="st3" x1="47.1" y1="111.1" x2="52.2" y2="111.1"/>
		<line class="st3" x1="47.1" y1="121" x2="52.2" y2="121"/>
		<line class="st3" x1="63.5" y1="128.4" x2="63.5" y2="124.4"/>
		<line class="st3" x1="71.7" y1="128.4" x2="71.7" y2="124.4"/>
		<line class="st3" x1="79.8" y1="128.4" x2="79.8" y2="124.4"/>
		<line class="st3" x1="87.9" y1="128.4" x2="87.9" y2="124.4"/>
		<line class="st3" x1="96" y1="128.4" x2="96" y2="124.4"/>
		<line class="st3" x1="104.1" y1="128.4" x2="104.1" y2="124.4"/>
		<line class="st3" x1="112.3" y1="128.4" x2="112.3" y2="124.4"/>
		<line class="st3" x1="120.4" y1="128.4" x2="120.4" y2="124.4"/>
		<line class="st3" x1="128.5" y1="128.4" x2="128.5" y2="124.4"/>
		<line class="st3" x1="136.6" y1="128.4" x2="136.6" y2="124.4"/>
		<line class="st3" x1="144.7" y1="128.4" x2="144.7" y2="124.4"/>
		<line class="st3" x1="152.9" y1="128.4" x2="152.9" y2="124.4"/>
		<line class="st3" x1="161" y1="128.4" x2="161" y2="124.4"/>
		<line class="st3" x1="169.1" y1="128.4" x2="169.1" y2="124.4"/>
		<line class="st3" x1="177.2" y1="128.4" x2="177.2" y2="124.4"/>
		<line class="st3" x1="185" y1="128.4" x2="185" y2="124.4"/>
		<line class="st3" x1="192.8" y1="128.4" x2="192.8" y2="124.4"/>
		<line class="st3" x1="200.7" y1="128.4" x2="200.7" y2="124.4"/>
		<path class="st6" d="M221.3,85.2v38.5c0,2.6-2.7,4.8-6,4.8H53.1c-2,0.1-3.9-0.8-5.2-2.3c-0.5-0.7-0.8-1.5-0.9-2.4V85.2
			c0-2.6,2.7-4.8,6-4.8h162.3C218.6,80.4,221.3,82.5,221.3,85.2z"/>
		<path class="st4" d="M172,10.7l-51.8,69.8l-19.8,26.7L78.7,93.3l-26.5,35.1h-0.4c-1.7,0-3.3-0.9-4.1-2.3l29.7-39.5l21.6,13.8
			L114,80.5l54-72.7L172,10.7z"/>
		<polygon class="st4" points="158.8,11.5 177.9,0 172.6,20 169.2,10.7 		"/>
	</g>
	<g id="freepik--Floor--inject-401">
		<polyline class="st3" points="338.9,231.2 34.6,231.2 0.4,261.5 		"/>
		<line class="st3" x1="34.7" y1="209.9" x2="34.7" y2="150.9"/>
		<line class="st3" x1="34.7" y1="227.7" x2="34.7" y2="216.3"/>
		<g id="freepik--freepik--Plants--inject-120--inject-401">
			<path class="st0" d="M320.6,87.7c0,0,0-3.6-5-8.6c-5-5-8.2-7.8-8.2-7.8s-2.5,8.2,2.1,13.2c3.4,3.5,7.1,6.7,11.1,9.6V87.7z"/>
			<path class="st0" d="M313.4,109.9c0,0,0-3.6-5-8.6c-5-5-8.2-7.8-8.2-7.8s-2.5,8.2,2.1,13.2c3.4,3.5,7.1,6.7,11.1,9.7V109.9z"/>
			<path class="st0" d="M320.3,93.7c0,0,0.4-3.5,5.9-8c5.5-4.4,9-6.9,9-6.9s1.6,8.4-3.5,12.9c-3.8,3.1-7.8,5.9-12,8.4L320.3,93.7z"
				/>
			<path class="st0" d="M311.5,120c0,0,0.8-3.5,6.7-7.3s9.7-6,9.7-6s0.7,8.5-4.8,12.5c-4.1,2.7-8.4,5.1-12.8,7.1L311.5,120z"/>
			<path class="st0" d="M313.2,148.7c0,0,0-3.6,5-8.6c5-5,8.2-7.8,8.2-7.8s2.5,8.2-2.1,13.2c-3.4,3.5-7.1,6.8-11,9.7V148.7z"/>
			<path class="st0" d="M313.1,155.7c0,0,0.5-3.5-3.7-9.2c-4.2-5.6-7-8.9-7-8.9s-3.6,7.8,0.3,13.4c2.9,4,6.1,7.7,9.6,11.1
				L313.1,155.7z"/>
			<path class="st0" d="M308.2,176.4c0,0,0-3.6,5-8.6c5-5,8.2-7.8,8.2-7.8s2.5,8.2-2.1,13.2c-3.4,3.5-7.1,6.7-11.1,9.7V176.4z"/>
			<path class="st0" d="M311.5,195.2c0,0-0.9-3.5,2.7-9.5c3.5-6.1,5.9-9.7,5.9-9.7s4.5,7.3,1.3,13.3c-2.4,4.3-5.2,8.3-8.3,12.1
				L311.5,195.2z"/>
			<path class="st7" d="M321.1,86.8c-0.3,3.7-0.7,7.4-1.4,11.1c-2,10.2-6.9,16.8-8.9,26c-2,9.2,3.7,21.1,2.2,32.9
				s-6.1,18.4-4.8,26.3s8.2,29.3,8.2,29.3"/>
			<line class="st7" x1="320.2" y1="96.1" x2="325.6" y2="92"/>
			<line class="st7" x1="320.5" y1="91.4" x2="318.3" y2="87.4"/>
			<path class="st7" d="M311.1,123.4c0,0,4.5-3.4,9.1-6.8"/>
			<path class="st7" d="M313.4,116.3c0,0-3.8-7.4-8-12.2"/>
			<path class="st7" d="M313.4,153.8c2.6-4.7,5.8-9.1,9.7-12.9"/>
			<path class="st7" d="M312.5,158.8c-1.4-3.2-3-6.3-4.9-9.3c-2.6-3.9-3-4.4-3-4.4"/>
			<path class="st7" d="M308.2,183c1.1-2.8,2.5-5.6,4.1-8.2c1.6-2.4,3.3-4.8,5.2-6.9"/>
			<path class="st7" d="M313.1,201.4c-0.3-2.7,0.2-5.4,1.4-7.9c1.9-3.6,4-8.4,4.9-10.3"/>
			<path class="st0" d="M287.9,135.3c0,0-0.4-2.2,2.2-5.9c2.6-3.7,4.3-5.8,4.3-5.8s2.4,4.9,0.1,8.5c-1.8,2.6-3.7,5-5.9,7.2
				L287.9,135.3z"/>
			<path class="st0" d="M294.9,148.5c0,0-0.4-2.2,2.2-5.9c2.6-3.7,4.3-5.8,4.3-5.8s2.4,4.9,0.1,8.5c-1.8,2.6-3.7,5-5.9,7.2
				L294.9,148.5z"/>
			<path class="st0" d="M288.8,139.1c0,0-0.6-2.2-4.5-4.3c-3.9-2.1-6.4-3.4-6.4-3.4s-0.1,5.4,3.6,7.7c2.7,1.6,5.5,2.9,8.4,4
				L288.8,139.1z"/>
			<path class="st0" d="M297.1,154.6c0,0-0.9-2.1-5-3.9c-4.1-1.8-6.7-2.7-6.7-2.7s0.5,5.4,4.4,7.3c2.8,1.3,5.8,2.3,8.8,3.1
				L297.1,154.6z"/>
			<path class="st0" d="M299.2,172.7c0,0-0.4-2.2-4.1-4.8s-6-4-6-4s-0.7,5.4,2.8,8c2.5,1.8,5.2,3.4,8,4.8L299.2,172.7z"/>
			<path class="st0" d="M300,177.1c0,0-0.7-2.2,1.3-6.2c2-4,3.5-6.4,3.5-6.4s3.1,4.5,1.3,8.4c-1.4,2.8-3,5.5-4.8,8L300,177.1z"/>
			<path class="st0" d="M306.3,195.2c0,0,0.3-2.3,3.8-5c3.5-2.8,5.8-4.3,5.8-4.3s1,5.4-2.3,8.2c-2.4,2-5,3.7-7.7,5.3L306.3,195.2z"
				/>
			<path class="st0" d="M305.4,189.6c0,0-0.4-2.2-4.1-4.8s-6-4-6-4s-0.7,5.4,2.8,8c2.5,1.8,5.2,3.4,8,4.8L305.4,189.6z"/>
			<path class="st0" d="M305.3,201.8c0,0,0.2-2.3-2.7-5.7c-2.9-3.4-4.8-5.4-4.8-5.4s-2,5.1,0.6,8.5c2,2.4,4.1,4.7,6.5,6.7
				L305.3,201.8z"/>
			<path class="st7" d="M287.5,134.8c0.6,2.3,1.3,4.6,2.1,6.8c2.3,6.2,6.1,9.8,8.4,15.3c2.2,5.6,0,13.6,2.2,20.9
				c2.2,7.2,5.8,10.9,5.9,16c0,5.1-1.9,19.2-1.9,19.2"/>
			<line class="st7" x1="289.1" y1="140.5" x2="285.3" y2="138.5"/>
			<line class="st7" x1="288.4" y1="137.6" x2="289.4" y2="134.8"/>
			<path class="st7" d="M297.8,156.6c0,0-3.2-1.6-6.5-3.2"/>
			<path class="st7" d="M295.6,152.5c0.9-3,2.2-5.8,3.7-8.5"/>
			<path class="st7" d="M299.7,175.9c-2.1-2.7-4.6-5.1-7.4-7"/>
			<path class="st7" d="M300.7,179c0.5-2.2,1.2-4.3,2.1-6.3c1.2-2.7,1.4-3.1,1.4-3.1"/>
			<path class="st7" d="M305.9,197.6c1.2-1.5,2.6-3,4.1-4.3c0.9-0.7,1.8-1.5,2.7-2.3"/>
			<path class="st7" d="M306.1,193.7c-1-1.7-2.2-3.2-3.5-4.7c-1.2-1.4-2.6-2.6-4-3.7"/>
			<path class="st7" d="M305,205.8c-0.1-1.7-0.7-3.4-1.7-4.8c-1.6-2.1-3.5-4.8-4.2-5.9"/>
			<path class="st4" d="M321.6,237.3h-22.7c-0.9,0-1.7-0.7-1.7-1.7l-3.3-25.2h32.6l-3.3,25.2C323.2,236.6,322.5,237.3,321.6,237.3z"
				/>
			<path class="st4" d="M326.2,214.7h-32.4c-1.4,0-2.5-1.1-2.6-2.5l0,0c0-1.4,1.1-2.5,2.5-2.6h32.4c1.4,0,2.5,1.1,2.6,2.5
				c0,0,0,0,0,0l0,0C328.8,213.6,327.7,214.7,326.2,214.7C326.2,214.7,326.2,214.7,326.2,214.7z"/>
		</g>
	</g>
	<g id="freepik--Coins--inject-401">
		<path class="st0" d="M253.3,114.1c0,14.6-10.1,27.3-24.3,30.6h-0.1c-0.8,0.2-1.6,0.3-2.5,0.5c-1.5,0.2-3,0.3-4.5,0.3
			c-17.4-0.1-31.4-14.2-31.3-31.5c0.1-16.8,13.3-30.6,30.2-31.3c0.3,0,0.6,0,0.9,0c0.1,0,0.2,0,0.3,0c0.1,0,0.2,0,0.3,0
			c4.2,0,8.4,0.9,12.3,2.6C245.9,90.4,253.3,101.7,253.3,114.1z"/>
		<path class="st8" d="M234.5,85.4c-36.3-1.9-36.5,38.4-36.5,38.4s-5.5-13.1,3.5-27.7c5.1-8.1,13.8-11.7,20.7-13.3
			C226.4,82.8,230.6,83.7,234.5,85.4z"/>
		<path class="st3" d="M253.3,114.1c0,14.7-10.1,27.4-24.4,30.6c-2.3,0.5-4.6,0.8-7,0.8c-17.4,0.3-31.7-13.5-32-30.8
			c-0.3-17.4,13.5-31.7,30.8-32c0.4,0,0.8,0,1.2,0C239.2,82.7,253.3,96.8,253.3,114.1z"/>
		<path class="st3" d="M253.3,114.1c0,14.7-10.1,27.4-24.4,30.6c-0.4,0-0.8,0-1.2,0c-17.4,0-31.4-14.2-31.4-31.5
			c0-14.6,10.1-27.3,24.4-30.5c0.4,0,0.8,0,1.2,0C239.2,82.7,253.3,96.8,253.3,114.1z"/>
		<path class="st9" d="M232.7,133.8l0.8,3.3l-5.4,1.3l-0.8-3.3c-4.9,0-8.8-3.2-10-8.2l-0.4-1.5l6-2.2l0.4,1.6
			c0.8,3.1,2.8,4.6,5.3,3.9c2.1-0.3,3.6-2.3,3.2-4.4c0-0.2-0.1-0.4-0.1-0.6c-0.7-3-4.1-4.8-8-6.7c-4.6-2.3-9.4-5.1-10.8-10.5
			c-1.3-5.2,0.3-9.6,4.5-11.8l-0.8-3.3L222,90l0.8,3.3c4.7-0.1,8.2,3,9.5,8.4l0.3,1.1l-6,2.2l-0.3-1.2c-0.8-3.3-2.5-4.6-4.7-4.1
			s-3.2,2.3-2.5,4.9c0.7,3,4.2,4.7,8,6.7c4.6,2.3,9.4,5.1,10.8,10.5C239.2,127,237.1,131.6,232.7,133.8z"/>
		<path class="st10" d="M232.7,133.8l0.8,3.3l-5.4,1.3l-0.8-3.3c-4.9,0-8.8-3.2-10-8.2l-0.4-1.5l6-2.2l0.4,1.6
			c0.8,3.1,2.8,4.6,5.3,3.9c2.1-0.3,3.6-2.3,3.2-4.4c0-0.2-0.1-0.4-0.1-0.6c-0.7-3-4.1-4.8-8-6.7c-4.6-2.3-9.4-5.1-10.8-10.5
			c-1.3-5.2,0.3-9.6,4.5-11.8l-0.8-3.3L222,90l0.8,3.3c4.7-0.1,8.2,3,9.5,8.4l0.3,1.1l-6,2.2l-0.3-1.2c-0.8-3.3-2.5-4.6-4.7-4.1
			s-3.2,2.3-2.5,4.9c0.7,3,4.2,4.7,8,6.7c4.6,2.3,9.4,5.1,10.8,10.5C239.2,127,237.1,131.6,232.7,133.8z"/>
		<line class="st3" x1="205.8" y1="141.2" x2="212.5" y2="140.9"/>
		<line class="st3" x1="202.6" y1="139" x2="208.4" y2="138.5"/>
		<line class="st3" x1="200" y1="136.6" x2="205.8" y2="136.1"/>
		<line class="st3" x1="199.2" y1="92.3" x2="204.2" y2="92.3"/>
		<line class="st3" x1="201.7" y1="90.1" x2="206.6" y2="89.8"/>
		<line class="st3" x1="204.8" y1="87.8" x2="210" y2="87.3"/>
		<path class="st10" d="M229,144.8L229,144.8c-2.4,0.5-4.7,0.8-7.1,0.8c-17.4-0.1-31.4-14.2-31.3-31.5c0.1-16.8,13.3-30.6,30.2-31.3
			c0.3,0,0.6,0,0.9,0c-7.7,2.4-20.5,8.6-23.9,21.5C192.8,122.5,203.7,143.2,229,144.8z"/>
		<path class="st11" d="M253.3,114.1c0,14.6-10.1,27.3-24.3,30.6h-0.1c-0.8,0.2-1.6,0.3-2.5,0.5l8.1-59.9
			C245.9,90.4,253.3,101.7,253.3,114.1z"/>
		<path class="st0" d="M271.1,64.7c-5.1,7.2-14.6,10-22.8,6.6l-0.1-0.1c-0.6-0.3-1.2-0.5-1.7-0.9c-0.6-0.3-1.2-0.7-1.8-1.1
			c-8.4-6.4-10-18.3-3.6-26.7c5.8-7.6,16.2-9.7,24.5-5l0.4,0.3c0.2,0.1,0.4,0.3,0.6,0.4c0.2,0.1,0.6,0.4,0.9,0.6
			C275.4,45.1,277,56.4,271.1,64.7z"/>
		<path class="st8" d="M242.5,64.9c0,0-3.1-9.1,1-15.9c5.2-8.4,13.1-12.3,24-10.2c0,0-5.9-4-15.7-1.2
			C241.9,40.5,236.7,54,242.5,64.9z"/>
		<path class="st3" d="M271.1,64.7c-5.1,7.2-14.6,10-22.8,6.6c-1.3-0.5-2.6-1.2-3.7-2c-8.3-6.4-9.9-18.4-3.5-26.7
			c5.9-7.7,16.6-9.7,24.9-4.7c0.2,0.1,0.4,0.2,0.6,0.4C275.2,44.3,277.2,56.1,271.1,64.7z"/>
		<path class="st3" d="M271.1,64.7c-5.1,7.2-14.6,10-22.8,6.6l-0.6-0.4c-8.5-6.2-10.4-18.1-4.2-26.6c5.1-7.1,14.4-9.7,22.5-6.5
			c0.2,0.1,0.4,0.2,0.6,0.4C275.2,44.3,277.2,56.1,271.1,64.7z"/>
		<path class="st9" d="M254.1,67.2l-0.8,1.9l-3.2-1.2l0.8-1.9c-2.4-1.7-3.3-4.9-2.1-7.6l0.3-0.9l3.7,1l-0.4,0.9
			c-0.7,1.8-0.2,3.2,1.2,3.8c1.2,0.6,2.6,0.1,3.2-1.1c0.1-0.1,0.1-0.2,0.1-0.4c0.7-1.7-0.4-3.8-1.6-6.1c-1.5-2.7-2.9-5.8-1.7-8.9
			c1.2-3.1,3.5-4.6,6.3-4.3l0.8-1.9l3.1,1.2l-0.8,1.9c2.4,1.6,3,4.3,1.8,7.5l-0.3,0.6l-3.7-1l0.3-0.7c0.7-1.9,0.4-3.2-0.9-3.7
			c-1.3-0.5-2.3,0-3,1.5c-0.7,1.7,0.4,3.8,1.6,6.1c1.5,2.8,2.9,5.8,1.7,8.9C259.9,65.9,257.1,67.7,254.1,67.2z"/>
		<path class="st10" d="M254.1,67.2l-0.8,1.9l-3.2-1.2l0.8-1.9c-2.4-1.7-3.3-4.9-2.1-7.6l0.3-0.9l3.7,1l-0.4,0.9
			c-0.7,1.8-0.2,3.2,1.2,3.8c1.2,0.6,2.6,0.1,3.2-1.1c0.1-0.1,0.1-0.2,0.1-0.4c0.7-1.7-0.4-3.8-1.6-6.1c-1.5-2.7-2.9-5.8-1.7-8.9
			c1.2-3.1,3.5-4.6,6.3-4.3l0.8-1.9l3.1,1.2l-0.8,1.9c2.4,1.6,3,4.3,1.8,7.5l-0.3,0.6l-3.7-1l0.3-0.7c0.7-1.9,0.4-3.2-0.9-3.7
			c-1.3-0.5-2.3,0-3,1.5c-0.7,1.7,0.4,3.8,1.6,6.1c1.5,2.8,2.9,5.8,1.7,8.9C259.9,65.9,257.1,67.7,254.1,67.2z"/>
		<path class="st10" d="M265.6,37.5c-5.2-0.9-11.8-1.4-15.3,0.9c-6.5,4.2-10.6,9.5-10.5,18s8,14.5,8,14.5l0.5,0.3
			c-1.3-0.5-2.5-1.2-3.6-2c-8.4-6.4-10-18.3-3.6-26.7C246.8,35,257.3,32.9,265.6,37.5L265.6,37.5z"/>
		<path class="st11" d="M271.1,64.7c-5.1,7.2-14.6,10-22.8,6.6l-0.1-0.1c-0.6-0.3-1.2-0.5-1.7-0.9l20.9-31.5
			C275.3,45.1,276.9,56.4,271.1,64.7z"/>
	</g>
	<g id="freepik--Character--inject-401">
		<path class="st0" d="M261.3,308.4c-8.1,9.7-17.7,18-28.4,24.5c-3.4,2-6.8,3.8-10.4,5.4c-24.6,11.1-52.6,11.8-78.8,5.4
			c-55.1-13.4-84.3-62-88.1-116c-1-14.6-3.2-30.4,2.7-44.2s17.9-22.5,31.4-28.5c9.8-4.4,20.4-7.3,30-9.7c17.4-4.3,35.8-2.4,52,5.4
			c11.3,5.4,19.4,14.7,28.9,22.6c1,0.8,2,1.7,3,2.5c9.6,7.7,19.7,14.9,30.3,21.3c16,9.8,32.4,19,42.7,35.4
			C293,258.6,279.3,287.1,261.3,308.4z"/>
		<path class="st8" d="M261.3,308.4c-8.1,9.7-17.7,18-28.4,24.5c-3.4,2-6.8,3.8-10.4,5.4c-24.6,11.1-52.6,11.8-78.8,5.4
			c-55.1-13.4-84.3-62-88.1-116c-1-14.6-3.2-30.4,2.7-44.2s17.9-22.5,31.4-28.5c9.8-4.4,20.4-7.3,30-9.7c17.4-4.3,35.8-2.4,52,5.4
			c11.3,5.4,19.4,14.7,28.9,22.6c1,0.8,2,1.7,3,2.5c9.6,7.7,19.7,14.9,30.3,21.3c16,9.8,32.4,19,42.7,35.4
			C293,258.6,279.3,287.1,261.3,308.4z"/>
		<path class="st9" d="M203.7,175.8c-1-0.8-2-1.7-3-2.5c-9.5-7.9-17.6-17.2-28.9-22.6c-16.2-7.8-34.6-9.7-52-5.4
			c-22.9,5.7-51.3,14.4-61.5,38.2c-5.9,13.8-3.7,29.6-2.7,44.2c3.8,54,33,102.6,88.1,116c30,7.3,62.3,5.3,89.2-10.8
			c10.8-6.6,20.4-14.8,28.4-24.5c17.9-21.3,31.7-49.8,15.4-75.9c-10.2-16.4-26.6-25.6-42.7-35.4
			C223.5,190.6,213.4,183.5,203.7,175.8z"/>
		<path class="st3" d="M120.2,272.1c-4.6,1.4-9,3.2-13.3,5.4"/>
		<path class="st3" d="M148.3,266.7c-6.7,0.6-13.4,1.6-19.9,3.2"/>
		<path class="st3" d="M142.5,265.3c0,0-25.9-15-57.1-3"/>
		<path class="st11" d="M261.3,308.4c-8.1,9.7-17.7,18-28.4,24.5c-3.4,2-6.8,3.8-10.4,5.4c-2.8-0.9-5.6-1.9-8.3-3
			c-16.2-6.9-29.7-18.6-42.9-30.2c-8-6.9-16.1-14-25.7-18.6c-12.9-6.1-27.6-7.3-41.4-3.4c7.1-8,16.8-13.4,27.4-15.1
			c-6.8-6.2-16.3-8.8-25.6-9c-9.2-0.2-14.3,1-23.4,3c3-5.6,11-10.6,17.4-10.4c-6-0.1-12-0.5-18-1.3c-8.2-1.3-11.8-10.9-13-19.1
			c-3.4-22.5,0-46.5,12.3-65.6c2.4-3.8,5.2-7.4,8.4-10.6c9.8-4.4,20.4-7.3,30-9.7c17.4-4.3,35.8-2.4,52,5.4
			c11.3,5.4,19.4,14.7,28.9,22.6c1,0.8,2,1.7,3,2.5c9.6,7.7,19.7,14.9,30.3,21.3c16,9.8,32.4,19,42.7,35.4
			C293,258.6,279.3,287.1,261.3,308.4z"/>
		<path class="st2" d="M270.4,307.7c4.9,4,9.9,7.8,15.2,11.3c10.3,0.7,5.7,13.1,5.7,13.1l-8.8,5.7c0,0-15.1-12-23.3-15.9
			C250.9,318,270.4,307.7,270.4,307.7z"/>
		<path class="st10" d="M197.2,176.8c0,0-1.4-14-3.7-17.9l-34.2-7v-2.6c0,0,0.8-4.6-6.8-7.5c-7.6-2.9-23.5,0.9-27.6,4
			c-4.1,3.1-2.6,8.4-2.6,8.4s-13.8,6.9-19.9,9.6c-5.1,2.3-10,4.9-14.8,7.8c0,0-2.8,32.1-2.3,39.5c0.6,7.5-0.5,14.5,0.2,18.6
			c0.6,4.1,1.1,6.5,5.5,10s8.3,8.7,19.6,3.6l-1.6-1.3l74.7-25.2L197.2,176.8z"/>
		<path class="st0" d="M197.2,176.8c0,0-1.4-14-3.7-17.9l-34.2-7v-2.6c0,0,0.8-4.6-6.8-7.5c-7.6-2.9-23.5,0.9-27.6,4
			c-4.1,3.1-2.6,8.4-2.6,8.4s-13.8,6.9-19.9,9.6c-5.1,2.3-10,4.9-14.8,7.8c0,0-2.8,32.1-2.3,39.5c0.6,7.5-0.5,14.5,0.2,18.6
			c0.6,4.1,1.1,6.5,5.5,10s8.3,8.7,19.6,3.6l-1.6-1.3l74.7-25.2L197.2,176.8z"/>
		<path class="st12" d="M197.2,176.8c0,0-1.4-14-3.7-17.9l-34.2-7v-2.6c0,0,0.8-4.6-6.8-7.5c-7.6-2.9-23.5,0.9-27.6,4
			c-4.1,3.1-2.6,8.4-2.6,8.4s-13.8,6.9-19.9,9.6c-5.1,2.3-10,4.9-14.8,7.8c0,0-2.8,32.1-2.3,39.5c0.6,7.5-0.5,14.5,0.2,18.6
			c0.6,4.1,1.1,6.5,5.5,10s8.3,8.7,19.6,3.6l-1.6-1.3l74.7-25.2L197.2,176.8z"/>
		<path class="st11" d="M194,160.6h-14.3c-2.8,0-5.1,2-5.6,4.8l-7,42.4c0,0-9.7,0.8-16.6,5.8s-23.8-30.7-50.5-30.8
			c0,0,7.7,17.6,9.4,31.6c0,0-16.7-1.8-19.5,4.7c-2.8,6.5,1.3,18.8,8.3,14c7.1-4.7,13.7-12.7,18.4-7.7c4.7,5,25.8,7.7,25.8,7.7
			l32.4-16.3l12.6-5.9L194,160.6z"/>
		<path class="st8" d="M148.6,139.6c0,0,8.1,2.3,9.4,5s1.2,9.6,1.2,9.6c-2,4.6-5,8.7-8.7,12l-6.1-12l0.5,13.6c0,0-11.5-1.9-16.4-5.6
			l-4.9-3.7c0,0-2.1-6.9-1.8-9.3c0.3-2.3,9.1-7.1,9.1-7.1L148.6,139.6z"/>
		<path class="st0" d="M283.9,349.7c-0.2-0.5,3.3-6.8,0.5-13.2c-2.8-6.4-7.2-3.9-7.2-3.9s-12.6-8-18-10.6c-3.8-1.9-7.5-4.1-11-6.6
			l-5.6,7.6l5.2,16.1L283.9,349.7z"/>
		<path class="st0" d="M276.7,332.2l16.2,9.9c0,0,11.4-7.3,16.9-12.4c5.4-5.1,17.7-15.8,17.7-15.8l7.8-10.5c0,0-5.4-6.7-14.4-1.3
			c-11.6,6.9-25.8,17-35.3,16.9C285.6,319,287.5,330.6,276.7,332.2"/>
		<path class="st2" d="M145.9,97.6c0,0,7.4,11.1,8.7,14.8c1.3,3.6,2.4,8.9,2.2,11.5c-0.3,2.6-3,16.3-4.3,16.7l-1.3,1.5l0.9,5.8
			c0,0-5.8,10-22.7,2.7c0,0-0.7-11.6-2.7-15.3c-2.1-3.7-5.1,0.7-8.2-9.9c-3.1-10.6,6.8-21.6,6.8-21.6L145.9,97.6z"/>
		<path class="st1" d="M328.2,300.1c0,0-8.4,1.5-11.1,6.4c-2.7,4.9-7.9,14.1-9.7,18.6c-1.8,4.4-16.4,15.2-16.4,15.2l1.9,1.8
			c0,0,11.9-7.4,19.2-14.4c7.2-7,23.1-24.7,23.1-24.7S334.1,301.9,328.2,300.1z"/>
		<path class="st1" d="M244.6,320.2l-2.1,2.8l6.4,13.2l34.9,12.6l1.6-5.1c0,0,0.5-5.2-11.7-9.1s-19.7-6.6-23.2-9.3
			C247,322.5,244.6,320.2,244.6,320.2z"/>
		<path class="st2" d="M129.3,222.3c0,0-10.7-1.6-15.7,7.1c-5,8.8-4.5,12.5-4.5,12.5s7.1,6.4,16.8,6.1s23.9-11.5,28.5-15.1
			s16.2-14,24.2-11.9l0.9-7.5c0,0-0.8-3.4-7.6-2.5s-9.5,4.8-11.6,4.8s-4.3-2.1-8.7,5.4C151.6,221.3,136.1,224.1,129.3,222.3z"/>
		<path class="st3" d="M143.2,113.7c0.2,1.4,0.6,2.8,1,4.1c0.2,0.7,0.5,1.3,0.9,1.8c0.8,0.9,2.1,1.1,3.3,1.3c0.2,0,0.4,0.1,0.5,0.2
			c0.1,0.2,0.1,0.3,0.1,0.5c0,1.4-0.4,2.7-1.2,3.8"/>
		<path class="st11" d="M251.8,311.2l-7.2,8.9c0,0,7.9,7.3,16,10c8.2,2.7,22.4,7.8,24.8,11.7l-0.9-4.7c0,0-22.3-13.7-27.4-17
			C254,318.2,252.1,314.9,251.8,311.2z"/>
		<path class="st11" d="M276.7,332.2l14.3,8.1c0,0,7.1-4.8,10.5-8.4s7.7-7.5,10.4-15.5c3.6-11,14-16.3,14-16.3s-14.4,6.8-22,12.1
			c-7.5,5.3-14.9,7.6-19.1,7.2C284.8,319.5,288.2,330.3,276.7,332.2z"/>
		<path class="st13" d="M138.2,127.4c0,0,5.6,4.4,11.5,2.8C149.6,130.2,144.1,141.1,138.2,127.4z"/>
		<path class="st4" d="M137.9,117.9c0.2,1.2-0.2,2.3-0.8,2.3c-0.6,0.1-1.2-0.9-1.4-2.1c-0.2-1.2,0.2-2.3,0.8-2.3
			C137.2,115.8,137.8,116.7,137.9,117.9z"/>
		<path class="st4" d="M150.2,115.7c0.2,1.2-0.2,2.3-0.8,2.3c-0.6,0.1-1.2-0.9-1.4-2c-0.2-1.2,0.2-2.3,0.8-2.3
			S150,114.5,150.2,115.7z"/>
		<path class="st3" d="M137.1,112.8c0,0-3.3-1.7-5.6,1.9"/>
		<path class="st3" d="M145.5,110.5c0,0,3.5-3,5.5,0"/>
		<path class="st3" d="M126,123.9c0,0-2.1-3.1-4.3-3c-2.2,0.1-3.1,3.2-2.3,6.2c0.8,3,4.1,7.2,6.6,6.8c1.4-0.2,2.7-0.9,3.6-2"/>
		<path class="st3" d="M146.1,100.1c2.4,2,4.9,4.1,6.1,7c1.1,2.5,1.3,5.2,2.3,7.7c1,2.7,2.2,5.4,2.2,8.3c0,2.7-0.4,5.4-1,8
			c-0.4,2.3-0.9,4.5-1.6,6.7c-1.2,3.1-3.3,5-6.2,6.5c-2.1,1.1-5.6,2.6-7.9,1.2c-1.3-0.9-3.3-3.3-5-5.6"/>
		<path class="st3" d="M126,133.9c0,0,3.7,9.1,2.8,15.5"/>
		<path class="st4" d="M125,122.4c1-0.7,1.6-2,1.4-3.2c-0.1-1.4-1.1-2.7-0.9-4.1c0.2-0.7,0.4-1.3,0.7-1.9c1-2.4,0.9-5.1-0.5-7.3
			c0,0,11.8,0.6,17.4-3s9.8-12.5,6.4-16.8c-3.3-4.3-9.9,1.6-14.7,2.2c-4.8,0.6-22,3.4-24.8,10c-2.7,6.6,1.4,9,1.6,15.3
			c0.1,6.3,0.1,18.3,9.6,17.2c0,0-3.5-4.6-1.1-9.3C121.8,119.6,125,122.4,125,122.4z"/>
		<path class="st4" d="M148.2,93.5c3.2,2.5,5.3,6.3,5.7,10.4c0.5,4.7,8.9,14,2.9,19.2c0,0-1.4-5.6-2.2-8.3c-0.8-2.8-1.9-7.8-3.3-9.5
			s-8.8-7.8-8.8-7.8L148.2,93.5z"/>
		<path class="st3" d="M127.1,149.3c0,0,5.8,3.8,16.7,4l1.3,14.5c0,0-12.2-0.9-21.2-9.3c0,0-2.4-6.5-1.8-9.3
			c0.6-2.8,6.5-5.5,6.5-5.5"/>
		<path class="st3" d="M151.6,142.8l0.3,5.2c-2.3,2.4-5.1,4.2-8.2,5.3l6.8,12.9c0,0,8.1-6.3,8.9-12.9c0,0,0.1-6.8-1.3-8.7
			c-1.4-1.9-6.6-2.8-6.6-2.8"/>
		<path class="st14" d="M118.7,102.6c0.9-2.2,3.2-3.5,5.5-3.8c2.3-0.3,4.7-0.1,7-0.2c3.2,0,6.4-0.9,9.2-2.6c2.8-1.7,4.8-4.4,5.5-7.6
			"/>
		<path class="st14" d="M113.1,102.2c1.5-4.4,6.2-7.2,10.9-7.6c2.3-0.2,4.6,0.1,6.9-0.2c2.3-0.3,4.7-1.2,5.9-3.2"/>
		<path class="st3" d="M110.7,243.3c-11.3,5.8-15.2-0.2-21.5-5.1c-6.3-5-2.2-13.8-3.5-28.1c-1.3-14.2,1.9-38.5,1.9-38.5
			s2.8-0.6,10.6-5.4c7.8-4.8,24.2-12,24.2-12"/>
		<path class="st3" d="M121.8,221.7c0,0-1.8-5.7-6.8-5.8s-13,2.1-18.6,12.8"/>
		<path class="st3" d="M113.9,215.6c-0.3,0-0.6-0.1-0.9-0.2c-4.2-1.5-8.7-1.7-12.9-0.6"/>
		<path class="st3" d="M97.1,179.3c9.2,10.1,13.6,23.5,17.9,36.5"/>
		<path class="st3" d="M159.4,152c0,0,16.6,4,24.7,4.9c8.1,0.9,9.4,2.1,9.4,2.1l1.5,5.7"/>
		<polygon class="st2" points="236.8,161.8 180.2,164 175.6,222.2 185.3,222.2 234.5,211.2 240.6,163.2 		"/>
		<polygon class="st0" points="178.6,223.9 240.5,164.6 234.5,211.2 		"/>
		<polygon class="st15" points="178.6,223.9 240.5,164.6 234.5,211.2 		"/>
		<polygon class="st3" points="178.6,222.3 183.5,166.2 240.6,163.2 234.5,211.2 		"/>
		<path class="st4" d="M216.6,190.4c-0.4,3.4-2.2,6-4.1,5.8c-1.9-0.2-3.1-3.2-2.7-6.6c0.4-3.4,2.2-6,4.1-5.8
			C215.8,184,217,187,216.6,190.4z"/>
		<path class="st4" d="M234.5,211.2c0,0,26.2-0.7,34.3,4.7c8.2,5.4,13,32.5,11.8,46.9c-1.1,14.4-11,47.4-11,47.4l-18.9-21.4
			c0,0-9.3-33.9-4.2-47.1c0,0-25.1,1.4-35-1.7c0,0-8.9-14.5-24-19.3L234.5,211.2z"/>
		<path class="st9" d="M273.6,310.7c-6.7-6.3-12.7-13.2-18-20.8c-9.1-14.1-21.8-27.7-34.8-38.3c-10.5-8.5-12.9-22.3-25.8-29.3
			c-21.4-11.5-39.9,11.3-46.9,16c-6.9,4.6-18.9,9.9-18.9,9.9s4.4,16.4,17.2,18.4s25.9-6.9,32-2.6c6.2,4.3,10.7,23.4,31,34.6
			c16.6,9.2,39.2,18.1,50.9,24.1c2.6,1.4,4.5,2.8,6,3.6c4,2.2,8.3,4.8,12.4,7.3l14,8.5c0,0,14.1-8.3,19.5-16c0.7-1,2.2-3.8,3.6-6.4
			c3.1-5.8,6.9-11,12.3-13.8c3.7-2,7-2.6,6.9-2.8c-0.4-0.7-7.1-4.1-11.6-2.2c-9.7,4-29,19.3-38.1,18.2
			C281.3,316.6,277.3,313.8,273.6,310.7z"/>
		<path class="st4" d="M273.6,310.7c-8.4,3.4-11.8,8.7-13.1,12c-11.7-6.1-34.3-15-50.9-24.1c-20.3-11.3-24.8-30.3-31-34.6
			c-6.2-4.3-19.2,4.6-32,2.6c-12.8-2-17.3-18.4-17.3-18.4s12-5.2,18.9-9.8c6.9-4.6,22.9-27.5,46.9-16c13.2,6.3,15.3,20.8,25.8,29.3
			c13,10.6,25.7,24.1,34.8,38.3C260.9,297.5,266.9,304.4,273.6,310.7z"/>
		<path class="st16" d="M210.3,237.3c0,0-6.5-13.2-16.9-15.7"/>
		<path class="st3" d="M176.4,211.1c-7.1-1.6-15,6.3-18.3,4.9c-2.5-1.1-6.5,5.4-6.5,5.4c-6.7,1-13.4,1.3-20.1,1
			c-9.6-0.6-14.2,1.3-17.6,6.4l-4.8,12.6c0,0,12.6,11.3,26,4.7c13.4-6.6,31.2-26.3,43.5-26.3"/>
		<path class="st9" d="M276.2,331.8c0,0,11.7,1,9-13.1"/>
		<path class="st4" d="M331.5,310.1c-0.9,1.7-11.6,10.9-20.9,18.9c0-0.1,2.6-5,3.7-7.1c2.5-4.6,8.8-17.2,21-18.9
			C336.9,304,331.5,310.1,331.5,310.1z"/>
		<path class="st9" d="M326.9,300.2c-12.3,2.4-15.1,18.2-19.4,24.9S291,340.9,291,340.9"/>
		<path class="st9" d="M284.4,336.9c2,3.7,1.1,7.9,0,10.6c-0.5,1.3-1.2,2.6-1.9,3.8c-17.4-2.9-34.7-12.2-34.7-12.2l-4.5-13.8
			l-0.7-2.2l6.7-9.1"/>
		<path class="st4" d="M284.4,347.4c-0.5,1.3-1.2,2.6-1.9,3.8c-17.4-2.9-34.7-12.2-34.7-12.2l-4.5-13.8c2.2,2.9,6.4,7.2,12.6,9
			C264.4,336.5,280,339.3,284.4,347.4z"/>
		<polyline class="st3" points="175.6,220.2 180.2,164 236.8,161.8 240.6,163.2 		"/>
		<path class="st9" d="M285.1,325.1c0,0,7.7,1.4,13.7-3.5c5.9-4.8,15.5-15.8,15.5-15.8"/>
		<path class="st3" d="M293,318.1c0,0-1.9,2.8,0,8.5"/>
		<path class="st3" d="M298.4,315.4c-0.9,2.8-0.6,5.8,0.7,8.5"/>
		<path class="st3" d="M305,311.6c0,0-1.6,4.7,0,8.8"/>
		<path class="st9" d="M250.8,312.7l-6.2,7.5c0,0,6.2,6.8,15.1,9.7c8.8,2.8,24.6,7.7,25.9,12.8"/>
	</g>
</g>
</svg>
