<?xml version="1.0" encoding="utf-8"?>
<!-- Generator: Adobe Illustrator 22.1.0, SVG Export Plug-In . SVG Version: 6.00 Build 0)  -->
<svg version="1.1" id="Layer_1" xmlns="http://www.w3.org/2000/svg" xmlns:xlink="http://www.w3.org/1999/xlink" x="0px" y="0px"
	 viewBox="0 0 378.9 349.6" style="enable-background:new 0 0 378.9 349.6;" xml:space="preserve">
<style type="text/css">
	.st0{fill:#F7F8F9;}
	.st1{opacity:0.7;fill:#FFFFFF;enable-background:new    ;}
	.st2{fill:none;stroke:#263238;stroke-width:1.5711;stroke-linejoin:round;}
	.st3{fill:#263238;}
	.st4{fill:#FFFFFF;}
	.st5{opacity:0.2;enable-background:new    ;}
	.st6{fill:none;stroke:#263238;stroke-linejoin:round;}
	.st7{fill:none;stroke:#263238;stroke-width:0.8792;stroke-linecap:round;stroke-linejoin:round;}
	.st8{fill:#FFFFFF;stroke:#263238;stroke-width:0.8792;stroke-linejoin:round;}
	.st9{opacity:0.3;enable-background:new    ;}
	.st10{fill:none;stroke:#263238;stroke-linecap:round;stroke-linejoin:round;}
	.st11{fill:none;stroke:#FFFFFF;stroke-linecap:round;stroke-linejoin:round;}
	.st12{fill:#FFFFFF;stroke:#263238;stroke-linecap:round;stroke-linejoin:round;}
</style>
<g>
	<g id="freepik--Shadow--inject-222_1_">
		<ellipse class="st0" cx="191.3" cy="337.9" rx="187.6" ry="11.6"/>
		<ellipse class="st1" cx="191.3" cy="337.9" rx="187.6" ry="11.6"/>
	</g>
	<g id="freepik--Graphics--inject-222_1_">
		<path class="st2" d="M232.4,31.6l-0.5,4.6l2.5,0.9c0,1.6,0.3,3.1,0.6,4.7l-2.1,1.6l1.8,4.3l2.6-0.5c0.8,1.3,1.8,2.6,2.9,3.7
			l-1.1,2.4l3.7,2.8l2-1.7c1.4,0.8,2.8,1.3,4.4,1.8l0.3,2.6l4.6,0.6l0.9-2.5c1.6,0,3.1-0.3,4.7-0.6l1.6,2.1l4.3-1.8l-0.5-2.6
			c1.3-0.8,2.6-1.8,3.7-2.9L271,52l2.8-3.7l-1.7-2c0.8-1.4,1.4-2.8,1.8-4.3l2.6-0.3l0.5-4.6l-2.5-0.9c0-1.6-0.2-3.1-0.6-4.6L276,30
			l-1.8-4.3l-2.6,0.5c-0.8-1.3-1.8-2.6-2.9-3.7l1.1-2.4l-3.7-2.7l-2,1.7c-1.4-0.7-2.8-1.3-4.3-1.8l-0.3-2.7l-4.6-0.5l-0.9,2.5
			c-1.6,0-3.1,0.3-4.6,0.7l-1.6-2.2l-4.3,1.8l0.5,2.6c-1.3,0.8-2.6,1.8-3.7,2.8l-2.4-1.1l-2.8,3.7l1.7,2c-0.8,1.4-1.3,2.8-1.8,4.3
			L232.4,31.6z M243,35.3c0.7-6.3,6.4-10.8,12.7-10c6.3,0.7,10.8,6.4,10,12.7c-0.7,6.3-6.4,10.8-12.7,10c0,0,0,0,0,0l0,0
			C246.7,47.2,242.3,41.5,243,35.3z"/>
		<path class="st3" d="M112.9,144.3l-0.5,4.1l2.3,0.8c0,1.4,0.2,2.8,0.6,4.2l-2,1.4l1.6,3.9l2.4-0.4c0.7,1.2,1.6,2.3,2.6,3.4l-1,2.2
			l3.4,2.5l1.8-1.6c1.2,0.7,2.6,1.2,3.9,1.6l0.3,2.4l4.1,0.5l0.8-2.3c1.4,0,2.8-0.2,4.2-0.6l1.4,1.9l3.8-1.6l-0.4-2.4
			c1.2-0.7,2.3-1.6,3.4-2.6l2.2,1l2.5-3.3l-1.6-1.8c0.7-1.2,1.2-2.6,1.6-3.9l2.4-0.3l0.5-4.1l-2.3-0.8c0-1.4-0.2-2.8-0.6-4.2l2-1.4
			l-1.6-3.9l-2.4,0.4c-0.7-1.2-1.6-2.3-2.6-3.3l1-2.2l-3.4-2.5l-1.8,1.6c-1.2-0.7-2.6-1.2-3.9-1.6l-0.3-2.4l-4.1-0.5l-0.8,2.3
			c-1.4,0-2.8,0.2-4.2,0.6l-1.4-1.9L123,131l0.4,2.4c-1.2,0.7-2.3,1.6-3.4,2.6l-2.2-1l-2.5,3.4l1.6,1.8c-0.7,1.2-1.2,2.6-1.6,3.9
			L112.9,144.3z M122.5,147.6c0.7-5.7,5.8-9.8,11.5-9.1c5.7,0.7,9.8,5.8,9.1,11.5c-0.7,5.7-5.8,9.8-11.5,9.1l0,0
			C125.9,158.5,121.9,153.3,122.5,147.6z"/>
		<path class="st4" d="M324.4,246.1v-9.4l-5.3-1.2c-0.4-3.2-1.3-6.3-2.4-9.3l4-3.7l-4.7-8.2l-5.2,1.6c-2-2.5-4.2-4.8-6.7-6.8
			l1.6-5.2l-8.2-4.7l-3.6,3.9c-3-1.2-6.1-2-9.2-2.5l-1.2-5.3H274l-1.2,5.3c-3.2,0.4-6.3,1.3-9.3,2.4l-3.7-4l-8.2,4.7l1.6,5.2
			c-2.5,2-4.8,4.2-6.8,6.7l-5.2-1.6l-4.7,8.1l3.9,3.7c-1.2,3-2,6.1-2.5,9.2l-5.3,1.2v9.4l5.3,1.2c0.5,3.2,1.3,6.3,2.4,9.3l-4,3.7
			l4.7,8.2l5.1-1.6c2,2.5,4.2,4.8,6.8,6.8l-1.6,5.2l8.2,4.7l3.6-4c3,1.2,6,2,9.2,2.5l1.2,5.3h9.4l1.2-5.3c3.2-0.5,6.3-1.3,9.3-2.5
			l3.7,4l8.2-4.7l-1.6-5.1c2.5-2,4.8-4.2,6.8-6.7l5.2,1.6l4.7-8.2l-4-3.7c1.2-3,2-6.1,2.5-9.2L324.4,246.1z M308.1,241.2
			c0,16.3-13.2,29.5-29.5,29.5c-16.3,0-29.5-13.2-29.5-29.5c0-16.3,13.2-29.5,29.5-29.5l0,0C294.9,211.7,308.1,224.9,308.1,241.2
			C308.1,241.2,308.1,241.2,308.1,241.2z"/>
		<rect x="136.6" y="12.5" class="st0" width="24.2" height="5.6"/>
		<rect x="136.6" y="20.6" class="st0" width="15.9" height="5.6"/>
		<rect x="136.6" y="28.7" class="st0" width="9.2" height="5.6"/>
		<rect x="136.6" y="12.5" class="st5" width="24.2" height="5.6"/>
		<rect x="136.6" y="20.6" class="st5" width="15.9" height="5.6"/>
		<rect x="136.6" y="28.7" class="st5" width="9.2" height="5.6"/>
		<rect x="94.6" y="74.4" class="st0" width="8.2" height="16.8"/>
		<rect x="106.4" y="80.2" class="st0" width="8.2" height="11.1"/>
		<rect x="118.3" y="84.9" class="st0" width="8.2" height="6.4"/>
		<rect x="94.6" y="74.4" class="st5" width="8.2" height="16.8"/>
		<rect x="106.4" y="80.2" class="st5" width="8.2" height="11.1"/>
		<rect x="118.3" y="84.9" class="st5" width="8.2" height="6.4"/>
		<path class="st3" d="M192.2,104H92.7c-5.7,0-10.4-4.6-10.4-10.4c0,0,0,0,0,0V11.5c0-5.7,4.7-10.4,10.4-10.4h99.5
			c5.7,0,10.4,4.6,10.4,10.4v82.2C202.6,99.4,198,104,192.2,104z M92.7,2c-5.2,0-9.5,4.2-9.5,9.5v82.2c0,5.2,4.2,9.5,9.5,9.5h99.5
			c5.2,0,9.5-4.2,9.5-9.5V11.5c0-5.2-4.2-9.5-9.5-9.5L92.7,2z"/>
		<rect x="155.5" y="74.9" class="st3" width="35.5" height="0.9"/>
		<rect x="155.5" y="78.7" class="st3" width="35.5" height="0.9"/>
		<rect x="155.5" y="82.5" class="st3" width="35.5" height="0.9"/>
		<rect x="155.5" y="86.3" class="st3" width="35.5" height="0.9"/>
		<rect x="155.5" y="90.1" class="st3" width="35.5" height="0.9"/>
		<rect x="93.5" y="12.9" class="st3" width="35.5" height="0.9"/>
		<rect x="93.5" y="16.7" class="st3" width="35.5" height="0.9"/>
		<rect x="93.5" y="20.5" class="st3" width="35.5" height="0.9"/>
		<rect x="93.5" y="24.3" class="st3" width="35.5" height="0.9"/>
		<rect x="93.5" y="28.1" class="st3" width="35.5" height="0.9"/>
		<path class="st3" d="M184,43.6l6.4,3.3L189.6,29l-15.2,9.6l6.4,3.3L176,51l0,0c-0.8,0-1.7,0.3-2.3,0.8l-8.4-3.9v-0.1
			c0.1-2.1-1.6-3.9-3.7-4c-2.1-0.1-3.9,1.5-4,3.6l0,0c0,0.1,0,0.3,0,0.4c0,0.6,0.1,1.1,0.4,1.6l-11,12c-0.4-0.1-0.7-0.2-1.1-0.2
			c-0.2,0-0.4,0-0.6,0.1l-15.8-20.1c0.8-2-0.2-4.2-2.2-5c-1.9-0.7-4,0.1-4.9,1.9c-0.2,0.5-0.3,1-0.3,1.5c0,0.4,0.1,0.8,0.2,1.2
			l-18,18.5c-2-0.7-4.2,0.3-5,2.3s0.3,4.2,2.3,5c2,0.7,4.2-0.3,4.9-2.3l0,0c0.2-0.4,0.2-0.9,0.2-1.3c0-0.3,0-0.6-0.1-0.9l18.3-18.7
			c0.4,0.1,0.7,0.2,1.1,0.2c0.2,0,0.5,0,0.7-0.1l15.7,20c-1,1.9-0.3,4.3,1.6,5.3c1.9,1,4.3,0.3,5.3-1.6c0.3-0.5,0.4-1.1,0.5-1.6
			c0-0.1,0-0.3,0-0.4c0-0.4-0.1-0.8-0.2-1.2l11.3-12.3c0.2,0,0.4,0.1,0.6,0.1c0.8,0,1.5-0.2,2.2-0.7l8.6,4c0.1,2.1,1.9,3.8,4,3.7
			s3.8-1.9,3.7-4c0,0,0-0.1,0-0.1c0-0.7-0.3-1.4-0.7-2L184,43.6z"/>
		<g id="freepik--chart-1--inject-2--inject-222_1_">
			<path class="st6" d="M192.5,114.6c-3.3,0-5.9,2.6-5.9,5.9v51.2c0,3.3,2.6,5.9,5.9,5.9h62c3.3,0,5.9-2.6,5.9-5.9v-51.2
				c0-3.3-2.6-5.9-5.9-5.9L192.5,114.6z"/>
			<rect x="191.5" y="121.6" class="st3" width="4.7" height="0.6"/>
			<rect x="191.5" y="126.7" class="st3" width="4.7" height="0.6"/>
			<rect x="191.5" y="131.9" class="st3" width="4.7" height="0.6"/>
			<rect x="191.5" y="137" class="st3" width="4.7" height="0.6"/>
			<rect x="191.3" y="126.7" class="st3" width="4.7" height="0.6"/>
			<rect x="191.5" y="142.2" class="st3" width="4.7" height="0.6"/>
		</g>
		<path class="st0" d="M227.1,170c12.5,0.3,22.8-9.6,23.1-22.1c0.3-12.5-9.6-22.8-22.1-23.1c-12.5-0.3-22.8,9.6-23.1,22.1
			c0,0,0,0,0,0.1C204.7,159.5,214.6,169.7,227.1,170z M227.9,131.5c8.8,0.2,15.9,7.5,15.7,16.3c-0.2,8.8-7.5,15.9-16.3,15.7
			c-8.8-0.2-15.9-7.5-15.7-16.3c0,0,0,0,0,0C211.7,138.3,219,131.3,227.9,131.5L227.9,131.5z"/>
		<path class="st5" d="M227.1,170c12.5,0.3,22.8-9.6,23.1-22.1c0.3-12.5-9.6-22.8-22.1-23.1c-12.5-0.3-22.8,9.6-23.1,22.1
			c0,0,0,0,0,0.1C204.7,159.5,214.6,169.7,227.1,170z M227.9,131.5c8.8,0.2,15.9,7.5,15.7,16.3c-0.2,8.8-7.5,15.9-16.3,15.7
			c-8.8-0.2-15.9-7.5-15.7-16.3c0,0,0,0,0,0C211.7,138.3,219,131.3,227.9,131.5L227.9,131.5z"/>
		<path class="st3" d="M211.3,163.6c8.9,9,23.5,9.1,32.5,0.1c0,0,0,0,0,0c0.2-0.2,0.2-0.5,0-0.6l-4.7-4.7c-0.1-0.1-0.2-0.1-0.3-0.1
			c-0.1,0-0.2,0.1-0.3,0.1c-3,3-7.1,4.6-11.3,4.5h-1.1c-3.4-0.2-6.6-1.5-9.2-3.7c-0.2-0.2-0.5-0.4-0.7-0.6c-5.4-5.4-6.2-14-1.8-20.3
			c0,0,0-0.1,0-0.1c0.1-0.1,0.2-0.3,0.3-0.4c3.1-4,8-6.1,13-5.9c0.2,0,0.5-0.2,0.5-0.4c0,0,0,0,0,0l0,0l0.1-6.6
			c0-0.3-0.2-0.5-0.4-0.5l0,0c-12.7-0.2-23.2,9.9-23.4,22.6C204.5,153.2,206.9,159.2,211.3,163.6z"/>
		<path class="st3" d="M228,124.4c13,0,23.5,10.6,23.5,23.5c0,13-10.6,23.5-23.5,23.5s-23.5-10.6-23.5-23.5
			C204.5,134.9,215,124.4,228,124.4L228,124.4z M227.1,169.5c12.2,0.3,22.3-9.5,22.6-21.7c0.3-12.2-9.5-22.3-21.7-22.6
			c-12.2-0.3-22.3,9.5-22.6,21.7c0,0,0,0,0,0l0,0C205.1,159.2,214.9,169.3,227.1,169.5L227.1,169.5z M227.9,131
			c9.1,0.2,16.3,7.7,16.1,16.8c-0.2,9.1-7.7,16.3-16.8,16.1c-9.1-0.2-16.3-7.7-16.1-16.8c0,0,0,0,0,0
			C211.3,138,218.8,130.8,227.9,131z M227.2,162.9c8.6,0.2,15.6-6.6,15.8-15.2c0.2-8.6-6.6-15.6-15.2-15.8
			c-8.6-0.2-15.6,6.6-15.8,15.2c0,0,0,0,0,0l0,0C211.9,155.6,218.7,162.7,227.2,162.9L227.2,162.9z"/>
		<line class="st7" x1="111" y1="196.5" x2="111" y2="257.1"/>
		<rect x="115.6" y="219.4" class="st3" width="5.1" height="34.7"/>
		<rect x="122.9" y="233.5" class="st0" width="5.1" height="20.5"/>
		<rect x="131.6" y="208.1" class="st8" width="5.1" height="46"/>
		<rect x="145.9" y="201.5" class="st3" width="5.1" height="52.6"/>
		<rect x="153.3" y="241.1" class="st0" width="5.1" height="13"/>
		<rect x="162" y="223.1" class="st8" width="5.1" height="31"/>
		<rect x="182.9" y="227.8" class="st3" width="5.1" height="26.3"/>
		<rect x="190.3" y="207.4" class="st0" width="5.1" height="46.7"/>
		<rect x="199" y="217.7" class="st8" width="5.1" height="36.4"/>
		<line class="st7" x1="105.4" y1="246.1" x2="108.3" y2="246.1"/>
		<line class="st7" x1="105.4" y1="238.6" x2="108.3" y2="238.6"/>
		<line class="st7" x1="105.4" y1="231.1" x2="108.3" y2="231.1"/>
		<line class="st7" x1="105.4" y1="223.6" x2="108.3" y2="223.6"/>
		<line class="st7" x1="105.4" y1="216.1" x2="108.3" y2="216.1"/>
		<line class="st7" x1="105.4" y1="208.6" x2="108.3" y2="208.6"/>
		<line class="st7" x1="105.4" y1="201.1" x2="108.3" y2="201.1"/>
		<line class="st7" x1="107.6" y1="254.1" x2="207.7" y2="254.1"/>
		<rect x="122.9" y="233.5" class="st9" width="5.1" height="20.5"/>
		<rect x="153.3" y="241.1" class="st9" width="5.1" height="13"/>
		<rect x="190.3" y="207.4" class="st9" width="5.1" height="46.7"/>
		<path class="st6" d="M101.4,188.1c-3.6,0-6.5,2.9-6.5,6.5v59.5c0,3.6,2.9,6.5,6.5,6.5h110.4c3.6,0,6.5-2.9,6.5-6.5v-59.5
			c0-3.6-2.9-6.5-6.5-6.5L101.4,188.1z"/>
	</g>
	<g id="freepik--character-1--inject-222_1_">
		<path class="st4" d="M14,321.1c0,0,2.3,15.4-3.3,17s-9.5-0.5-10.2-2.8s4.3-18.8,4.3-18.8L14,321.1z"/>
		<path class="st4" d="M111.2,324.5l24.3,5.8c0,0,1.8,1,1.6,2.6s-11.3,5.9-14.4,6.4s-21.1,2.9-23.6,0.7s2.8-19.6,2.8-19.6
			L111.2,324.5z"/>
		<path class="st4" d="M67.2,43.3c0,0,3.4,5.2,3.5,7.8s-0.3,5.6,1.3,7.1s2.8,3.2,2.2,4s-1.9,2.3-1.9,2.3s1.6,8.8-0.5,10.4
			s-8.6,0-8.6,0v5.7c0,0-9.1-3-15.4-2.4l-1.1-12.2C46.6,65.9,60.3,39.6,67.2,43.3z"/>
		<path class="st4" d="M123.4,79.2c0,0-0.8-6.2,2.2-10c0,0-3.6-0.6-3.2-1.9s6,0.4,6,0.4l-1.5-3c0,0-5.3-1.7-4.6-3.4s8.3,2.4,8.3,2.4
			s-4.6-3.8-3.9-5.4s5.3-1.6,7.8,6.7l1.3-1.6c0,0,0.4-9.4,1.7-9.9c0,0,2,1.1,2,6.5c0,0,2,2.4,0.7,4.4s-4.3,6.6-6.8,8.4
			s-2.5,8.4-2.5,8.4L123.4,79.2z"/>
		<path class="st4" d="M42.9,27.9l1.2-1.5c0,0,12.9-5.7,12.6-7.5s-7.6,0.7-9-0.3c0,0,1.3-16.9,0-17.5s-2.8,7.9-2.8,7.9
			s-1.9-8.7-3.3-8.5s-0.8,9-0.8,9S37.9,4,36.8,4.5s0.5,7.4,0.5,7.4s-2-2.3-2.8-1.6c0.3,3.5,1.2,7,2.8,10.1l-2.8,4.7L42.9,27.9z"/>
		<path class="st0" d="M122,79.3l8.9,1.2c0,0-6.5,55-8.4,61.8s-3.6,11.7-10.1,12s-29.8-19.2-29.8-19.2l-1.1,27l1.5,11.2
			c0,0-28.4,14.9-57.3,1.9l0.7-13.1L16,102L7.8,73.5l26.4-50.1l9.6,5L26.9,74l4.7,15.2l5.3-2.1l5.8-7.5c0,0,9.9-5.1,22.5,2l2,6.3
			c0,0,14.7,1.1,39.6,35.6L122,79.3z"/>
		<path class="st5" d="M58.6,79.3l1.1,7.7c0,0,8.3,5.5,11.6,7.4c0,0,8.1,51.3,2.1,61.4l-6.3,9.9c0,0,6.5,0,9.4-4.5
			c0,0-3.7,12.4-13.3,15.7c0,0,14.8-1.5,19.9-3.5l-1.5-11.2L84,99.7c0,0,2.3-4.2-16.8-11.7l-2.8-6.8L58.6,79.3z"/>
		<path class="st10" d="M67.2,44c0,0,3.1,4.5,3.5,7.1s-0.7,5.3,1.3,7.1s3,3,2.2,4s-1.9,2.3-1.9,2.3s0.8,8.6-0.5,10.4s-8.6,0-8.6,0
			v5.7"/>
		<path class="st10" d="M63.2,64.1c0,0-2.9-7.5-5.1-5.7s-0.2,11.7,5.1,9.5"/>
		<path class="st3" d="M62.4,62.4c0,0,3.4-0.3,1.3-8.4s2.5-7,7.6-9.3c5.1-2.3,6.3-6.5,5.2-9.1s-2.9-3.9-9.3-2.7c0,0-7-8.1-13.8,0.8
			c0,0-15.2-0.2-19.3,7s1.3,25.7,9.3,31.9s15.8,1.2,17.4-4.6c0,0-5.4-2.9-2.7-9.7C58.1,58.4,60.6,57.5,62.4,62.4z"/>
		<path class="st10" d="M15.2,97.4c0,0,36.8-26.7,68.9,0l-2.6,64.6l1.5,11.2c0,0-27.1,12.7-57.3,1.9l0.7-13.1L15.2,97.4z"/>
		<path class="st10" d="M36.4,87.7l6.3-8.1c0,0,12.4-4.3,22.5,2l2,6.3"/>
		<line class="st10" x1="84.1" y1="97.4" x2="116.2" y2="134.3"/>
		<path class="st10" d="M82.6,134.4c0,0,21.3,19.8,29.7,20s9.9-10,9.9-10l8.7-63.8l-8.9-1.2l-15.3,44.2"/>
		<path class="st10" d="M130.7,80.4c0,0,1.1-7.2,4-8.9s6.3-8,5.2-9.8s-4.5,4.1-7.5,5.3s-5.5,6.7-5.9,9.2"/>
		<path class="st10" d="M139,61.4c0,0,0-8.3-1.5-7.9s-1.7,10.9-1.7,10.9"/>
		<path class="st10" d="M134.6,65.5c0,0-1-4.7-3.8-6.9s-4.5-1.1-4.2-0.3s5,7,4.9,9.1"/>
		<path class="st10" d="M129.9,63.2c0,0-7.5-3.5-7.6-1.4s4.6,2.9,4.6,2.9l1.5,3c0,0-6.4-2-6-0.4s3.2,1.9,3.2,1.9s-3.1,3.1-2.2,10"/>
		<path class="st3" d="M78.6,174l1.9,13.5c0,0,17.8,53.3,20.5,63.7s4.3,34,5,44.8s7,29,7,29s-0.8,7.3-13.9,6.2
			c0,0-5.4-21.6-11.2-34.4s-6.6-32.1-6.6-32.1L53.1,213c0,0-5.8,30.1-9.7,41.3c-4,11.5-31.3,75.6-29.4,71.1c0,0-3.9,2.3-12-3.5
			c0,0,5.8-19.3,7.3-29.7s9.7-34.4,9.7-34.4s1.9-45.2,5-59.1c0,0-2-15.3,2.3-26.1C43.3,178.1,61.4,178.6,78.6,174z"/>
		<polyline class="st11" points="37.7,203.9 50.3,207.6 52.2,212.1 		"/>
		<path class="st10" d="M99.4,329.7c0,0-1.7,8.6-0.3,10.3c0.7,0.9,2.9,0.8,4,0.8c2.4,0,4.9-0.1,7.3-0.3c4.9-0.3,9.9-0.3,14.6-1.8
			c4-1.2,7.8-2.9,11.3-5.1c1.9-1.3,0-3.4,0-3.4l-23.2-5.2"/>
		<path class="st10" d="M99.3,337c0,0,26.1,4.3,37-6.7"/>
		<path class="st10" d="M3.1,321.1c0,0-3,10.3-2.6,13.5s3.7,4,7.5,3.9c3.8-0.1,5.4-1.8,5.9-4.4s0-10.9,0-10.9"/>
		<line class="st10" x1="0.5" y1="333.1" x2="14" y2="334.2"/>
		<path class="st10" d="M35.6,23.7c1.1-2.1,1.8-3.3,1.8-3.3s-3.7-9-2.8-10.1s3.1,2,3.1,2s-2.2-7.1-0.8-7.7s3.9,6,3.9,6
			s-0.7-9.6,0.8-10s3.2,9.1,3.2,9.1s1.9-8.5,3-8.6s0,17.5,0,17.5c2.3,1.1,9.1-1.6,9,0.6s-13,7.4-13,7.4c-0.2,0.3-0.4,0.6-0.6,0.9"/>
		<polyline class="st10" points="15.2,97.4 7.8,73.5 34.2,23.4 43.8,28.4 26.9,74 31.6,89.2 		"/>
		<path class="st10" d="M16,69.7c0,0,9.5-0.1,10.8,4.3c-4.2-0.2-8.3,0.9-11.7,3.2"/>
		<line class="st10" x1="47.3" y1="78.6" x2="47.3" y2="71.7"/>
		<path class="st5" d="M83.9,116.8l2.4,15.8c0,0,1.9-10.3,3.1-10.3s0,12.1,0,12.1s19.9,18,28.5,18.1c0,0-4.8,3.4-9.6,0.9
			s-25.8-19-25.8-19L83.9,116.8z"/>
		<path class="st5" d="M42.1,27.5L23.9,71.7c0,0-6.3-0.1-8.7,5.6l9.7-1.7l3.3,15l3.4-1.3L26.9,74l16.9-45.6L42.1,27.5z"/>
	</g>
	<g id="freepik--character-2--inject-222_1_">
		<polygon class="st4" points="292.6,105.2 285.5,89.9 257.3,108.5 280.5,149.6 298.6,139.3 		"/>
		<path class="st4" d="M315.8,237.4c0,0,4.5,12.6,5.2,18.8s-1.4,32-0.9,39.2s4.3,28.5,4.3,28.5s-18.9,13.8-24.9,9.3
			c0,0,13.3-10.8,14.7-15.1l-4.3-29.2l-4.3-34.5c0,0-1.1-7.2-2.6-10.9s-1.3-11.6-1.3-11.6L315.8,237.4z"/>
		<path class="st10" d="M315.4,236.3c0,0,4.9,13.3,6.1,22.9s-2.3,31.2-1.2,41.6s2.3,16.2,4.3,21.7l-1,16.1H321l-1-9.1
			c0,0-4.1-1.7-6.5,4.2s-11.5,6.6-15.9,3.2c0,0,0-2.6,3.2-4.9s11.7-9.5,13.2-13.8c0,0-4.6-30-5.7-39.7s-2.8-27.4-4.9-33.1
			s-2.1-13.9-2.1-13.9"/>
		<path class="st10" d="M323.6,319.5c0,0-12.7,13.8-23.3,13.7"/>
		<path class="st3" d="M299.4,333.2c1.8,0.2,3.5,0,5.2-0.6c2.9-1,13.2-6,18.3-12.3l1.6,1.8l-0.8,16.2l-2.6,0.4l-1-9.1
			c0,0-3.3-1.5-5.5,2.2s-3.7,6.3-7.5,7.2s-9.4-2-9.4-2S296.7,335.4,299.4,333.2z"/>
		<path class="st4" d="M324.7,237.8c1.2,4.4,2.6,8.7,4.3,12.9c2.3,5.2,21.9,57.9,21.9,57.9s1.5,28.5,9.8,28.4s-0.3-19.9-0.3-19.9
			l-5.1-10.9c0,0-1.9-31.9-4.3-43.7l-10.2-27.5L324.7,237.8z"/>
		<path class="st10" d="M340.9,236c0,0,8.4,19.1,10.1,26.6s3.5,41.4,4.3,43.7s14.8,26.9,6.4,31.8s-10.4-28.3-10.4-28.3
			s-19.4-53.8-22.3-59s-6.1-20.3-6.1-20.3L340.9,236z"/>
		<path class="st10" d="M363.3,325.5c0,0-0.6,6.7-2.8,7.6s-7.1-6.6-7.1-6.6"/>
		<path class="st3" d="M353.5,327.7c0,0,3,11.4,7,10.9s4.7-6.8,2.8-11.7c0,0-0.7,5-2.8,6.2C358.4,333.1,353.5,327.7,353.5,327.7z"/>
		<path class="st3" d="M318.1,136.7c0,0,10.1,13.8,17.1,36s6.3,64.7,6.3,64.7s-26.1,8.4-51.4-2.3l4.6-95.8
			C294.7,139.4,311,139.7,318.1,136.7z"/>
		<path class="st4" d="M305,36.6c0,0-7.9,7.4-8.8,12.2c-0.8,3.4-2,6.6-3.6,9.7c0.8,1.3,2.1,2.2,3.5,2.8c0,0,0.5,9.9,3.4,10.6
			l6.9-1.8l0.7,4.2l9.8-3.7v-5.7l7.5-4.9l-2.7-12.8l-12.2-5.7L305,36.6z"/>
		<path class="st4" d="M294.7,138.6l-0.9-13.8c0,0-6.4-12-4.4-16.4c2.2-4.8,15.7-22.5,15.7-22.5l-1.3-9.7l18.9-8.1l0.9,8.1l-2.3,1.7
			l2.5,5.4c0,0,0.2-1.6,4.5,6.6s20.9,37.2,22.2,42.8c1.3,5.6-25.7,25.2-34.8,29.9c0,0-1-2.3-11.9,6c-2.8-0.5-6.5-2.9-7.4-4.5
			s3.1-5.2,3.1-5.2s2.4-4.5,6.5-0.9h4.4l25.4-23.7l-12.9-18.8l-5.1,21.2C318.1,136.7,301.5,141.7,294.7,138.6z"/>
		<polygon class="st10" points="303.8,76.2 305.2,86.1 323.6,76.2 322.7,68.1 		"/>
		<path class="st10" d="M305.2,86.1c0,0-16.8,20.5-16.3,24.5s4.9,14.1,4.9,14.1l0.9,14.6c0,0,13.5,0.4,23.3-2.6l5.1-21.2"/>
		<path class="st10" d="M336.1,134.4l-26-39.1c0,0-2.5-9,3.6-12.2s11.5,0.9,13.4,3s22.5,41.8,23.5,46.6c1,4.8-20.8,23.9-33.4,29
			c0,0-5.7,3.4-5.7-3.6L336.1,134.4z"/>
		<line class="st10" x1="323.6" y1="83.3" x2="321.2" y2="77.5"/>
		<path class="st10" d="M311.4,158h-5.2c0,0-4.1-3.6-6,0s-4.4,4.4-3.6,6.1s4.9,5.1,7.4,4.5s9.4-6.2,9.4-6.2"/>
		<path class="st10" d="M303.1,39.2c0,0-6.1,5.4-6.8,8.3s-0.4,8-3.7,10.9c0,0,0.2,2.4,3.5,2.8c0,0,1.7,9.5,3.4,10.6
			s11.8-4.1,15.8-6.2c1-0.7,1.8-1.7,2.1-2.9"/>
		<path class="st10" d="M298.4,64.1c1.9-0.3,3.6-1.3,4.8-2.8"/>
		<path class="st10" d="M298.4,50.4c0,0,2.4-1.4,3.8,0.9"/>
		<path class="st3" d="M300,55.5c0,0.8-0.2,1.5-0.6,1.5s-0.7-0.6-0.8-1.4s0.2-1.5,0.6-1.5S300,54.6,300,55.5z"/>
		<line class="st10" x1="306.4" y1="70.1" x2="307.2" y2="74.7"/>
		<path class="st3" d="M314.2,54.8c0,0,1.5-2.9,3.2-1.2s4.8,9.6-3.7,7.7c0,0-0.6,4.8,3.7,6s12.4-5.4,12.7-16.7s-10.6-18.9-16.4-16.7
			c0,0-8.4-13.1-16.6-7.5s-2.7,14.2-4.5,16.1s-5.5,0.1-5.6,5.3s8.6,4.7,8.6,4.7l1-5.7l7.2-7.5c0,0-1.7,5.4,1.2,10.2
			C307.6,53.6,314.2,54.8,314.2,54.8z"/>
		<path class="st3" d="M330.1,50.6c0,0,4,0.9,3.6,6.3s-9.5,18.7-8.8,26.4l23.3,43.4c0,0,10.5-2,10-12.8S344.9,94,347.4,86.1
			s12.2-28.2-1.6-39.8s-35.2,6.2-35.2,6.2l10.5-3.4L330.1,50.6z"/>
		<polyline class="st10" points="291.7,104.3 285.5,89.9 257.3,108.5 280.5,149.6 294.6,141.9 		"/>
		<path class="st12" d="M266.1,128.8c0,0-1.5-3.1,0.5-4.9s9-6.9,9-5.6c0.1,0.6-0.1,1.2-0.5,1.7c-2,2.7-6.8,7-6.5,7.4
			c0,0,8.7-5.8,9.6-5.3c0.2,0.1,0.1,0.9-0.6,1.6c-2.4,2.1-4.9,4.1-7.6,5.9c0,0,9.2-3.6,10.4-3c0.3,0.2,0.3,0.7-0.8,1.3
			c-2.7,1.5-5.4,2.8-8.3,3.9l2.3,3.9C273.7,135.8,269.3,136.6,266.1,128.8z"/>
		<line class="st6" x1="316.3" y1="64.1" x2="317" y2="70.6"/>
	</g>
</g>
</svg>
