<?xml version="1.0" encoding="utf-8"?>
<!-- Generator: Adobe Illustrator 22.1.0, SVG Export Plug-In . SVG Version: 6.00 Build 0)  -->
<svg version="1.1" id="Layer_1" xmlns="http://www.w3.org/2000/svg" xmlns:xlink="http://www.w3.org/1999/xlink" x="0px" y="0px"
	 viewBox="0 0 403 334.2" style="enable-background:new 0 0 403 334.2;" xml:space="preserve">
<style type="text/css">
	.st0{fill:#F9F9F9;}
	.st1{opacity:0.7;fill:#FFFFFF;enable-background:new    ;}
	.st2{opacity:0.8;fill:#FFFFFF;enable-background:new    ;}
	.st3{fill:#FFFFFF;stroke:#263238;stroke-linecap:round;stroke-linejoin:round;}
	.st4{fill:none;stroke:#263238;stroke-width:0.75;stroke-linecap:round;stroke-linejoin:round;}
	.st5{fill:#263238;stroke:#263238;stroke-linecap:round;stroke-linejoin:round;}
	.st6{fill:none;stroke:#FFFFFF;stroke-width:0.75;stroke-linecap:round;stroke-linejoin:round;}
	.st7{fill:#263238;}
	.st8{fill:#F9F9F9;stroke:#263238;stroke-miterlimit:10;}
	.st9{font-family:'Arial-BoldMT';}
	.st10{font-size:9.6385px;}
	.st11{fill:#FFFFFF;stroke:#263238;stroke-width:0.75;stroke-linecap:round;stroke-linejoin:round;}
	.st12{fill:#F9F9F9;stroke:#263238;stroke-linecap:round;stroke-linejoin:round;}
	.st13{font-size:6.4257px;}
	.st14{font-size:10.0773px;}
	.st15{font-size:7.4966px;}
	.st16{fill:none;stroke:#263238;stroke-linecap:round;stroke-linejoin:round;}
	.st17{opacity:0.5;fill:#FFFFFF;enable-background:new    ;}
	.st18{fill:none;stroke:#FFFFFF;stroke-linecap:round;stroke-linejoin:round;}
	.st19{fill:none;stroke:#FFFFFF;stroke-width:0.5;stroke-linecap:round;stroke-linejoin:round;}
	.st20{fill:none;stroke:#263238;stroke-miterlimit:10;}
</style>
<g>
	<g id="freepik--Clouds--inject-5_1_">
		<path class="st0" d="M210.5,32.6c-4.8-2.6-7-0.4-8.7-2.6s4.8-7.8-8.3-13.5c0,0-0.9-12.2-18.7-12.6C157,3.4,161.8,16.1,157,19.1
			c-4.8,3-6.1-1.7-10.9,1.3s-2.6,9.1-6.5,10c-3.9,0.9-9.1-3.9-13.9-0.9c-4.8,3-4.8,5.7-7,5.7s-6.5-1.7-9.1,0s-5.7,3.9-5.7,3.9H214
			C214,39.1,215.3,35.2,210.5,32.6z"/>
		<path class="st0" d="M210.5,32.6c-4.8-2.6-7-0.4-8.7-2.6s4.8-7.8-8.3-13.5c0,0-0.9-12.2-18.7-12.6C157,3.4,161.8,16.1,157,19.1
			c-4.8,3-6.1-1.7-10.9,1.3s-2.6,9.1-6.5,10c-3.9,0.9-9.1-3.9-13.9-0.9c-4.8,3-4.8,5.7-7,5.7s-6.5-1.7-9.1,0s-5.7,3.9-5.7,3.9H214
			C214,39.1,215.3,35.2,210.5,32.6z"/>
		<path class="st1" d="M210.5,32.6c-4.8-2.6-7-0.4-8.7-2.6s4.8-7.8-8.3-13.5c0,0-0.9-12.2-18.7-12.6C157,3.4,161.8,16.1,157,19.1
			c-4.8,3-6.1-1.7-10.9,1.3s-2.6,9.1-6.5,10c-3.9,0.9-9.1-3.9-13.9-0.9c-4.8,3-4.8,5.7-7,5.7s-6.5-1.7-9.1,0s-5.7,3.9-5.7,3.9H214
			C214,39.1,215.3,35.2,210.5,32.6z"/>
		<path class="st2" d="M344.1,79.5c-2.6-1.4-3.8-0.2-4.8-1.4s2.6-4.3-4.6-7.4c0,0-0.5-6.7-10.3-7s-7.2,6.7-9.9,8.4s-3.4-1-6,0.7
			s-1.4,5-3.6,5.5s-5-2.2-7.7-0.5s-2.6,3.1-3.9,3.1s-3.6-1-5,0s-3.1,2.2-3.1,2.2h60.8C346.1,83.1,346.8,80.9,344.1,79.5z"/>
		<path class="st2" d="M58.9,134.1c-2.6-1.4-3.8-0.2-4.8-1.4s2.7-4.3-4.6-7.5c0,0-0.5-6.7-10.3-7s-7.2,6.7-9.9,8.4s-3.4-1-6,0.7
			s-1.4,5-3.6,5.5s-5-2.2-7.7-0.5s-2.7,3.1-3.8,3.1s-3.6-1-5,0S0,137.7,0,137.7h60.8C60.8,137.7,61.5,135.6,58.9,134.1z"/>
	</g>
	<g id="freepik--Buildings--inject-5_1_">
		<polygon class="st3" points="193.8,222 192.2,55.5 225,55.2 224.1,227.5 		"/>
		<line class="st4" x1="196.1" y1="59" x2="196.4" y2="127"/>
		<line class="st4" x1="201" y1="59.2" x2="201" y2="141.9"/>
		<line class="st4" x1="206.3" y1="59" x2="206.8" y2="143"/>
		<line class="st4" x1="213" y1="59.8" x2="213" y2="141.9"/>
		<line class="st4" x1="219.1" y1="60" x2="219.1" y2="203.3"/>
		<line class="st4" x1="193.7" y1="66.4" x2="222.6" y2="66.7"/>
		<line class="st4" x1="194" y1="77.2" x2="222.4" y2="78"/>
		<line class="st4" x1="194.5" y1="88.1" x2="221.8" y2="89.5"/>
		<line class="st4" x1="194.2" y1="99.1" x2="222.4" y2="101"/>
		<line class="st4" x1="194.5" y1="109.8" x2="221.6" y2="112.8"/>
		<polygon class="st5" points="225,55.2 250.5,55.5 248.5,210.4 224.1,227.5 		"/>
		<line class="st6" x1="247.9" y1="59.2" x2="247.9" y2="141.9"/>
		<line class="st6" x1="242.5" y1="59" x2="242.6" y2="153.6"/>
		<line class="st6" x1="235.8" y1="59.8" x2="235.9" y2="157.1"/>
		<line class="st6" x1="229.6" y1="60" x2="229.6" y2="203.3"/>
		<line class="st6" x1="249.8" y1="66.4" x2="226.2" y2="66.7"/>
		<line class="st6" x1="249.8" y1="77.7" x2="226.4" y2="78"/>
		<line class="st6" x1="250.4" y1="88.1" x2="227" y2="89.5"/>
		<line class="st6" x1="249.5" y1="99.8" x2="226.4" y2="101"/>
		<line class="st6" x1="249.5" y1="110.5" x2="227.2" y2="112.8"/>
		<line class="st6" x1="248.9" y1="121.5" x2="226.6" y2="123.8"/>
		<line class="st6" x1="248.9" y1="131.3" x2="226" y2="134.8"/>
		<line class="st6" x1="247.9" y1="141.9" x2="225.4" y2="145.9"/>
		<rect x="221.1" y="0.5" class="st3" width="2.2" height="35.1"/>
		<polygon class="st3" points="208.1,41.8 208,33.4 235.5,33.8 235.7,42.3 		"/>
		<polygon class="st5" points="223.1,42 223.1,33.8 235.5,33.8 235.7,42.3 		"/>
		<polygon class="st3" points="192.2,55.5 198.9,47.8 225,47.4 225,55.2 		"/>
		<polygon class="st5" points="225,47.4 244.7,48.1 250.5,55.5 225,55.2 		"/>
		<polygon class="st3" points="198.9,47.8 198.9,42 225,41.8 225,47.4 		"/>
		<polygon class="st5" points="225,41.8 244.7,42.4 244.7,48.1 225,47.4 		"/>
		<polygon class="st7" points="324,201.6 343.6,206 345.1,167.4 360.3,160.5 381.3,165.4 380.3,228.1 391.6,230 390.6,333.3 
			335.3,315.7 290.8,302.5 		"/>
		<polygon class="st3" points="246.7,113.2 303.2,118 321.7,112.9 264.6,108.4 		"/>
		<polygon class="st5" points="303.2,118 301.6,211.9 320.1,203.2 321.7,112.9 		"/>
		<polygon class="st3" points="246.7,113.2 246.4,200 301.6,211.9 303.2,118 		"/>
		<polygon class="st8" points="294,139.8 252,135.7 252,118.3 294,122.4 		"/>
		<text transform="matrix(1 9.999651e-02 0 1 256.7827 131.6307)" class="st7 st9 st10">W</text>
		<text transform="matrix(1 9.999651e-02 0 1 263.1927 132.2717)" class="st7 st9 st10">ANTED</text>
		<polygon class="st3" points="236.6,161.3 273,165.8 294.8,156.2 260.1,152.1 		"/>
		<polygon class="st11" points="243.4,160.7 271.3,164.2 288,156.9 261.4,153.7 		"/>
		<polygon class="st3" points="236.6,161.3 235.7,235 271.1,244.6 273,165.8 		"/>
		<polygon class="st5" points="273,165.8 294.8,156.2 293.4,234.8 271.1,244.6 		"/>
		<polygon class="st3" points="149.9,256.2 146.8,164.8 116.5,159.3 119.4,248.4 		"/>
		<line class="st4" x1="118.7" y1="191.8" x2="146.1" y2="198.5"/>
		<line class="st4" x1="120.1" y1="195" x2="146.3" y2="201.7"/>
		<line class="st4" x1="120.4" y1="212.1" x2="146.6" y2="218.8"/>
		<line class="st4" x1="119" y1="209.4" x2="146.3" y2="216.6"/>
		<polygon class="st5" points="146.8,164.8 171.6,157.8 172.8,237 149.9,256.2 		"/>
		<polygon class="st3" points="116.5,159.3 151.1,151.2 171.6,157.8 146.8,164.8 		"/>
		<polygon class="st12" points="119.1,164.4 144.4,168.6 144.8,187 119.7,182.2 		"/>
		<text transform="matrix(1.01 0.16 0 1 122.8216 173.1434)" class="st7 st9 st13">WE ARE</text>
		<text transform="matrix(1.01 0.16 0 1 123.0642 180.2814)" class="st7 st9 st13">HIRING</text>
		<polygon class="st3" points="153,126.3 156.8,255.7 189,264.6 187.2,131 		"/>
		<line class="st4" x1="157.7" y1="136.6" x2="160.8" y2="246.9"/>
		<line class="st4" x1="157.5" y1="130" x2="157.6" y2="133.3"/>
		<line class="st4" x1="162.7" y1="131.3" x2="165.1" y2="247.6"/>
		<line class="st4" x1="168.1" y1="132.6" x2="169.8" y2="249.2"/>
		<line class="st4" x1="173.2" y1="133.2" x2="174.9" y2="249.7"/>
		<line class="st4" x1="178.8" y1="134.9" x2="180.3" y2="252"/>
		<line class="st4" x1="184.4" y1="153.1" x2="185.7" y2="252.3"/>
		<line class="st4" x1="184.3" y1="135.1" x2="184.4" y2="148.4"/>
		<polygon class="st7" points="217.8,124 254.6,206 254.6,283.4 213.1,266.3 		"/>
		<line class="st6" x1="236.9" y1="175" x2="236.9" y2="199.3"/>
		<polygon class="st5" points="187.2,131 217.8,124 217.8,272.1 188.3,264.7 		"/>
		<line class="st6" x1="211.6" y1="137.2" x2="212.5" y2="259.9"/>
		<line class="st6" x1="211.6" y1="129.7" x2="211.6" y2="133.3"/>
		<line class="st6" x1="206.3" y1="131.5" x2="207.4" y2="259.2"/>
		<line class="st6" x1="201.1" y1="132.7" x2="201.9" y2="259.2"/>
		<line class="st6" x1="195.5" y1="135" x2="196.5" y2="256.5"/>
		<line class="st6" x1="190.1" y1="135.7" x2="191.5" y2="255.2"/>
		<polygon class="st3" points="153,126.3 186.4,120.5 217.8,124 187.2,131 		"/>
		<polygon class="st11" points="159.8,126.2 186.2,121.6 211.1,124.4 186.8,129.9 		"/>
		<polygon class="st8" points="189.3,153.7 216.7,145.6 216.7,162.1 189.3,171.1 		"/>
		<text transform="matrix(1.1899 -0.37 1.000000e-02 0.9999 194.9863 164.4209)" class="st7 st9 st14">JOB</text>
		<polygon class="st3" points="248.1,195 217.1,208.6 259.1,217.3 283.8,200.5 		"/>
		<polygon class="st11" points="248.4,196.6 221.7,208.3 257.9,215.8 279.2,201.3 		"/>
		<polygon class="st3" points="217.1,208.6 217.8,272.1 258.6,282.2 259.1,217.3 		"/>
		<polygon class="st7" points="223.6,263.5 223.2,252.9 247.3,259.3 247.3,269.9 		"/>
		<polygon class="st12" points="220.5,217.6 248.8,223.8 249.2,244.4 221.2,237.6 		"/>
		<text transform="matrix(1 0.21 0 1 224.3112 227.6422)" class="st7 st9 st15">WE ARE</text>
		<text transform="matrix(1 0.21 0 1 224.5912 234.8006)" class="st7 st9 st15">HIRING</text>
		<polygon class="st3" points="259.4,181.4 258.6,282.2 300.9,293.8 304,189.2 		"/>
		<line class="st4" x1="264.9" y1="186" x2="263.9" y2="273.8"/>
		<line class="st4" x1="270.4" y1="187.4" x2="269.9" y2="276.3"/>
		<line class="st4" x1="277.7" y1="189.3" x2="277.4" y2="279.1"/>
		<line class="st4" x1="286" y1="191" x2="285.2" y2="281.6"/>
		<line class="st4" x1="295.4" y1="192.6" x2="293" y2="283.4"/>
		<polygon class="st3" points="304,189.2 327.7,175.6 285,169.4 259.4,181.4 		"/>
		<polygon class="st11" points="301.9,187.2 320.8,176.4 286.7,171.4 266.2,181 		"/>
		<polygon class="st5" points="327.7,175.6 323.8,296.8 300.9,293.8 304,189.2 		"/>
		<line class="st6" x1="308.6" y1="191.9" x2="306.1" y2="289.7"/>
		<line class="st6" x1="314.9" y1="187.6" x2="312.7" y2="284.1"/>
		<line class="st6" x1="321.5" y1="182.9" x2="319.9" y2="281.9"/>
		<polygon class="st12" points="270,207.3 270,227.3 260.4,225.7 261.3,219.8 250.7,228.5 261,237.5 261.3,233.2 277.5,236.9 
			278.1,211 		"/>
		<path class="st3" d="M263.2,232.6c0,0.7-0.5,1.2-1.2,1.2c-0.7,0-1.2-0.5-1.2-1.2s0.5-1.2,1.2-1.2c0,0,0,0,0,0
			C262.7,231.4,263.2,231.9,263.2,232.6C263.2,232.6,263.2,232.6,263.2,232.6z"/>
		<circle class="st3" cx="266.9" cy="233.8" r="1.2"/>
		<path class="st3" d="M272.9,235.1c0,0.7-0.5,1.2-1.2,1.2s-1.2-0.5-1.2-1.2s0.5-1.2,1.2-1.2S272.9,234.4,272.9,235.1L272.9,235.1z"
			/>
		<path class="st3" d="M277.8,236.3c0,0.7-0.5,1.2-1.2,1.2s-1.2-0.5-1.2-1.2s0.5-1.2,1.2-1.2S277.8,235.7,277.8,236.3L277.8,236.3z"
			/>
		<path class="st3" d="M278.4,230.3c0,0.7-0.5,1.2-1.2,1.2s-1.2-0.5-1.2-1.2s0.5-1.2,1.2-1.2S278.4,229.7,278.4,230.3L278.4,230.3z"
			/>
		<path class="st3" d="M278.6,223.6c0,0.7-0.5,1.2-1.2,1.2s-1.2-0.5-1.2-1.2s0.5-1.2,1.2-1.2S278.6,223,278.6,223.6L278.6,223.6z"/>
		<path class="st3" d="M278.9,217c0,0.7-0.5,1.2-1.2,1.2s-1.2-0.5-1.2-1.2s0.5-1.2,1.2-1.2S278.9,216.4,278.9,217L278.9,217z"/>
		<path class="st3" d="M278.8,211.6c0,0.7-0.5,1.2-1.2,1.2c-0.7,0-1.2-0.5-1.2-1.2s0.5-1.2,1.2-1.2c0,0,0,0,0,0
			C278.3,210.4,278.8,211,278.8,211.6C278.8,211.6,278.8,211.6,278.8,211.6z"/>
		<path class="st3" d="M275.4,209.3c0,0.7-0.5,1.2-1.2,1.2c-0.7,0-1.2-0.5-1.2-1.2s0.5-1.2,1.2-1.2c0,0,0,0,0,0
			C274.9,208.1,275.4,208.6,275.4,209.3z"/>
		<circle class="st3" cx="270.3" cy="207.3" r="1.2"/>
		<path class="st3" d="M271.2,213.8c0,0.7-0.5,1.2-1.2,1.2s-1.2-0.5-1.2-1.2s0.5-1.2,1.2-1.2S271.2,213.2,271.2,213.8L271.2,213.8z"
			/>
		<path class="st3" d="M270.8,220.3c0,0.7-0.5,1.2-1.2,1.2s-1.2-0.5-1.2-1.2s0.5-1.2,1.2-1.2C270.3,219.1,270.8,219.6,270.8,220.3
			C270.8,220.3,270.8,220.3,270.8,220.3z"/>
		<path class="st3" d="M270.5,226.8c0,0.7-0.5,1.2-1.2,1.2s-1.2-0.5-1.2-1.2s0.5-1.2,1.2-1.2S270.5,226.1,270.5,226.8L270.5,226.8z"
			/>
		<path class="st3" d="M262.1,225.8c0,0.7-0.5,1.2-1.2,1.2c-0.7,0-1.2-0.5-1.2-1.2s0.5-1.2,1.2-1.2c0,0,0,0,0,0
			C261.6,224.6,262.1,225.1,262.1,225.8z"/>
		<path class="st3" d="M262.4,220c0,0.7-0.5,1.2-1.2,1.2s-1.2-0.5-1.2-1.2s0.5-1.2,1.2-1.2S262.4,219.3,262.4,220L262.4,220z"/>
		<path class="st3" d="M252.3,228.4c0,0.7-0.5,1.2-1.2,1.2s-1.2-0.5-1.2-1.2s0.5-1.2,1.2-1.2S252.3,227.7,252.3,228.4L252.3,228.4z"
			/>
		<path class="st3" d="M262.2,238.3c0,0.7-0.5,1.2-1.2,1.2s-1.2-0.5-1.2-1.2s0.5-1.2,1.2-1.2S262.2,237.7,262.2,238.3L262.2,238.3z"
			/>
		<path class="st3" d="M256.1,232.6c0,0.7-0.5,1.2-1.2,1.2c-0.7,0-1.2-0.5-1.2-1.2s0.5-1.2,1.2-1.2c0,0,0,0,0,0
			C255.5,231.4,256.1,231.9,256.1,232.6C256.1,232.6,256.1,232.6,256.1,232.6z"/>
		<path class="st3" d="M256.9,224.4c0,0.7-0.5,1.2-1.2,1.2s-1.2-0.5-1.2-1.2s0.5-1.2,1.2-1.2S256.9,223.8,256.9,224.4L256.9,224.4z"
			/>
	</g>
	<g id="freepik--Character--inject-5_1_">
		<polyline class="st3" points="3.8,262.3 94.4,221.9 350.1,293.7 297.3,333.7 		"/>
		<polyline class="st3" points="23.3,267.4 96.6,234.6 303.8,292.9 261,325.3 		"/>
		<polyline class="st7" points="96.6,234.6 96.6,243.8 294.3,299.7 303.8,292.9 99.8,235.8 		"/>
		<polyline class="st16" points="23.3,276.6 96.6,243.8 293.8,299.2 		"/>
		<polygon class="st7" points="403,333.3 350.1,293.7 297.9,333.3 		"/>
		<ellipse class="st0" cx="81.9" cy="281" rx="35.7" ry="16.5"/>
		<ellipse class="st17" cx="81.9" cy="281" rx="35.7" ry="16.5"/>
		<path class="st3" d="M90.7,82.7c0,0,2.5,6,2,9s-7.2,5.5-8.2,6s-6.2-1.8-6.2-7.5S87.7,78,90.7,82.7z"/>
		<path class="st7" d="M87.8,66.5l14.1-1.6c2.7-0.3,5.2,1.7,5.5,4.4c0,0,0,0,0,0.1l0,0c0.2,2.8-1.8,5.2-4.6,5.4c-0.1,0-0.2,0-0.3,0
			l-13,0.3L87.8,66.5z"/>
		<path class="st3" d="M89.4,63.5c0,0,3-1,5,0s3.8,2.5,3.5,3.5s-1.8,0.8-3.8,1s-4.1,1.6-4.6,0.6S89.4,63.5,89.4,63.5z"/>
		<path class="st7" d="M96.8,67.8l14.1-0.4c2.8,0,5,2.1,5.1,4.9c0,0,0,0.1,0,0.1l0,0c0,2.8-2.2,5-5,5c-0.1,0-0.2,0-0.3,0l-13-0.9
			L96.8,67.8z"/>
		<path class="st7" d="M91.3,67.8l7.2,0.2c0.9,0.7,1.5,1.8,1.6,3c0,1.7-0.2,3.5-0.6,5.1h-7.7c-1.1-0.8-1.8-1.9-2.2-3.2
			C88.9,70.9,91.3,67.8,91.3,67.8z"/>
		<path class="st7" d="M88.7,100.4c0,0,9.1,1.1,13.7,1.5s15.2-5.5,21.1-7c7-1.8,10.7,2.1,12.5,4.6s14.7,11.3,14.7,11.3l2.4,6.7
			l-10.4,3.4c0,0-4-4.9-10.1-12.5c-6.1-7.6-8.8-11.5-13.7-8.5s-11.9,8.5-17.4,7.3S88.7,100.4,88.7,100.4z"/>
		<path class="st12" d="M92.7,273.8l0.7,0.2l14.8,4.8c0,0,1.9,1.1,1.3,2.7s-16,3.5-22.2,3.5s-10.1-0.5-10.1-2.9
			S92.7,273.8,92.7,273.8z"/>
		<path class="st3" d="M109.5,281.5c0.2-0.7,0-1.4-0.5-1.9c-5.8,1.6-11.8,2.5-17.8,2.8c-4.6,0.4-9.3,0.5-13.9,0.3
			c0.7,1.9,4.5,2.3,10,2.3C93.5,285,109,283.1,109.5,281.5z"/>
		<path class="st12" d="M65.7,264.7c0,0,7.7-3.2,9.1-0.5s-1.9,6.7-3.7,7.5s-3.2,1.3-4.3,2.7s-4.3,4.5-7.8,4s-3.5-5.1-3.2-5.9
			S65.7,264.7,65.7,264.7z"/>
		<path class="st3" d="M74.1,263.5c-0.2,2.2-0.9,4.5-2.4,5.4c-3.2,1.8-4.6,1.4-7.5,5c-1.8,2.1-4.6,3.1-7.3,2.6l-0.3,0.2
			c0.5,0.9,1.4,1.5,2.5,1.6c3.5,0.5,6.7-2.7,7.8-4s2.4-1.9,4.3-2.7s5.1-4.8,3.7-7.5C74.7,263.9,74.4,263.7,74.1,263.5z"/>
		<path class="st7" d="M59.6,153c0,0-2.1,8.8-0.5,12.8s1.9,10.4,2.1,12.6s-2.7,20-3.8,29.4s-5.6,19.8-3.7,26.5s0.3,31,0.8,34.7
			s1.6,7,2.4,7.5s3.7,0.8,6.2-0.3s4-9.1,4.5-11.5s2.7-30.5,3.5-34.7s3.2-23.5,3.2-23.5s2.1,15.8,1.6,20s-2.4,12.6-1.6,20
			s2.1,35.3,2.1,35.3c1.2,0.7,2.4,1.1,3.7,1.3c1.3,0,11.5-7,12.6-9.4s0-6.7,0-6.7s1.9-42.5,3.7-56.9s-2.4-53.7-2.4-53.7
			S72.9,161.3,59.6,153z"/>
		<polyline class="st18" points="74,203.2 70.5,183.7 64.7,173.6 		"/>
		<path class="st3" d="M91.7,61.5c0.6,1.7,1.1,3.5,1.3,5.3c0,1.8-1,3-0.8,4.3s2.3,3.3,0.5,6.6s-0.3,8.1-2.8,9.1
			c-1.7,0.6-3.5,1-5.3,1l-0.8,5.6l-12.6-4V79.2c0,0,5.3,0.3,7.3-2.3s1.5-7.8,2.5-11.4s5.1-5.8,6.8-5.8S91.7,61.5,91.7,61.5z"/>
		<path class="st7" d="M95.3,56.9c-0.5,1.9-1.8,3.6-3.6,4.6c-2.5,1.5-5.8,1-5.8,2.3s2.3,1,1.5,4.3c-0.5,2-1.5,3.9-3,5.3
			c0,0,2.3,2.8,0,3.3s-2.8,3.8-5.6,4.6s-5.3,2.8-7.6,0.8s-9.6-10.4-10.6-15.9s4.6-11.4,4.6-11.4S65,51.4,67,50.1s7.4-1.7,7.9-3.7
			c2.1-8.4,16.7-0.5,19.3,3.9C95.3,52.3,95.8,54.7,95.3,56.9z"/>
		<path class="st19" d="M90.7,55.1c0,2.2-1.1,4.3-3,5.4c-3.2,1.8-10.4,0.4-13,3.8S74,73.1,70.2,74"/>
		<path class="st19" d="M85.2,66.4c0,0-3.4,1.1-4.9,3.2s-2.2,7.2-6.5,8.5"/>
		<path class="st3" d="M84.6,77.9c0,0-2-6.1-4.8-4.5s-0.5,6.1,1,7.3s3.3-0.5,3.3-0.5"/>
		<path class="st12" d="M65.2,90.3c-3.1,2.3-5.8,5.1-7.7,8.4c-3,5.3,0.9,29.9,1.9,36.5s-1.3,17.4,0.5,20.4s7.6,5.6,13.1,6.1
			c5.5,0.5,14.1-0.3,17.4-1.3s5.1-3.8,5.1-5.1s-0.3-16.7-0.3-19.9s-0.3-26.8-2.3-31.3c-1.8-3.9-5-7.1-8.8-9.1
			C81.1,93.6,69.7,88,65.2,90.3z"/>
		<path class="st20" d="M87.6,120.3c0,0-2.7,2.4-10.3,3.4"/>
		<path class="st20" d="M82.1,130.8c-0.7,0.8-1.5,1.4-2.4,2"/>
		<path class="st20" d="M88.5,120.3c-1.2,2.9-2.7,5.7-4.6,8.3"/>
		<path class="st16" d="M87.3,147.6c-4.5,5.9-11.1,9.8-18.4,11c0,0,10.8,0.3,17.9-7.4"/>
		<path class="st12" d="M67.4,86c0,0,7.3,0.5,12.1,3.3s8.1,5.6,9.8,6.1s5.1,0.8,4,1s-2.3,0.5-4.8,1.3s-6.1-0.8-11.4-3.3
			s-11.1-4-12.1-4S65.4,86,67.4,86z"/>
		<path class="st16" d="M110.4,111.2c0,0,8.4,5.6,9.6,9.8"/>
		<path class="st3" d="M109.9,102.1L101,81.5c-1.1-1.3-2.4-2.4-3.8-3.3c-0.8-0.4-1.2-1.3-0.8-2.1c0.1-0.1,0.2-0.3,0.3-0.4
			c0,0,2.5,0.5,2.5-0.5c0-1.7-0.2-3.4-0.5-5c-0.3-0.8-1-1.3-1-2s1.8-1.8,3.8-1.3s1.7,0.2,1.7,0.2c2.9-0.6,3.4,0,4.9,2.6
			c0.9,2,1.3,4.1,1.3,6.3c0,1.3-1.5,5.1-1.5,5.1l10.9,21L109.9,102.1z"/>
		<path class="st12" d="M110.9,108c0,0-3.3,0-3-0.8s-0.8-3.5-0.8-4.8s2.3-2.8,5-3.3s5.8,0.5,6.8,0.8s1.3,2.3,2,3.5s1.3,2.8,0.8,3.8
			c-0.5,0.7-1.2,1.2-2,1.5L110.9,108z"/>
		<path class="st12" d="M74.5,104.2c0,0,1.8-6.1,5.3-7.3s7.8,0.5,12.1,3.3s18.4,11.1,18.4,11.1l-1.5-6.1c0,0,9.1-2.8,11.4,1.5
			s3.8,19.9,3.8,22s-5.3,3.8-8.6,3.5s-32.3-14.6-32.3-14.6"/>
		<path class="st16" d="M114.1,113.7c2.6,0.8,4.9,2.3,6.6,4.4"/>
	</g>
</g>
</svg>
