<?xml version="1.0" encoding="utf-8"?>
<!-- Generator: Adobe Illustrator 22.1.0, SVG Export Plug-In . SVG Version: 6.00 Build 0)  -->
<svg version="1.1" id="Layer_1" xmlns="http://www.w3.org/2000/svg" xmlns:xlink="http://www.w3.org/1999/xlink" x="0px" y="0px"
	 viewBox="0 0 401.5 354.9" style="enable-background:new 0 0 401.5 354.9;" xml:space="preserve">
<style type="text/css">
	.st0{fill:#263238;}
	.st1{fill:#F9F9F9;}
	.st2{opacity:0.65;fill:#FFFFFF;enable-background:new    ;}
	.st3{fill:#CCCCCC;}
	.st4{opacity:0.65;fill:#E5E5E5;enable-background:new    ;}
	.st5{fill:#FFFFFF;}
	.st6{clip-path:url(#SVGID_3_);}
	.st7{clip-path:url(#SVGID_4_);}
	.st8{opacity:0.24;}
	.st9{clip-path:url(#SVGID_7_);}
	.st10{clip-path:url(#SVGID_8_);}
</style>
<g>
	<g id="freepik--Books--inject-369_1_">
		<path class="st0" d="M342.3,135.7L342.3,135.7c-0.4,0-40.9-0.7-42-0.7s-4.5,0-6.1-1.6s-5-6.4-5.1-6.6c-0.1-0.1-0.1-0.3-0.1-0.4
			l10.5-43.8c0.1-0.3,0.3-0.4,0.6-0.4c0.3,0.1,0.4,0.3,0.4,0.6c0,0,0,0,0,0L290,126.4c0.7,0.9,3.6,5,4.9,6.3s4.4,1.3,5.4,1.3
			s36.9,0.6,41.6,0.7l8-53.1c0-0.3,0.3-0.5,0.6-0.4c0.3,0,0.5,0.3,0.4,0.6l0,0l-8,53.6C342.8,135.5,342.6,135.7,342.3,135.7z"/>
		<path class="st0" d="M308.7,74.9L308.7,74.9l-3.3-0.1c-0.3,0-0.5-0.2-0.5-0.5c0-0.3,0.2-0.5,0.5-0.5l3.3,0.1
			c0.3,0,0.5,0.2,0.5,0.5S309,74.9,308.7,74.9L308.7,74.9z"/>
		<path class="st0" d="M291.6,127.7c-0.3,0-0.5-0.2-0.5-0.5s0.2-0.5,0.5-0.5l43.8-0.1l9.2-51L312.8,75c-0.3,0-0.5-0.2-0.5-0.5
			c0-0.3,0.2-0.5,0.5-0.5l32.4,0.6c0.1,0,0.3,0.1,0.4,0.2c0.1,0.1,0.1,0.3,0.1,0.4l-9.4,52c0,0.2-0.2,0.4-0.5,0.4L291.6,127.7
			L291.6,127.7z"/>
		<path class="st0" d="M340.1,133.1L340.1,133.1l-42.4-1.1c-0.1,0-0.3-0.1-0.4-0.2l-3.6-4c-0.2-0.2-0.2-0.5,0-0.7
			c0.2-0.2,0.5-0.2,0.7,0c0,0,0,0,0,0l3.5,3.8l41.7,1.1l7.6-45.8l-3.1-4.4c-0.2-0.2-0.1-0.5,0.1-0.7c0,0,0,0,0,0
			c0.2-0.2,0.5-0.1,0.7,0.1c0,0,0,0,0,0l3.3,4.6c0.1,0.1,0.1,0.2,0.1,0.4l-7.7,46.4C340.7,133,340.4,133.2,340.1,133.1z"/>
		<path class="st0" d="M301.6,129.9h6.1c0,0-1,4.9-1.5,9.4s-0.8,10.5-0.8,10.5l-3.6-6.6l-4.4,5.6L301.6,129.9z"/>
		<path class="st0" d="M43.2,140c-0.2,0-0.4-0.1-0.5-0.3c-0.1-0.3,0-0.5,0.3-0.7l25.9-10.4c0.5-1.5,1-3.1,1.4-4.6
			c0.1-0.7-0.3-1.8-1.3-3.1c-0.4-0.5-12.6-18.4-14.6-21.3l-29.8,15.1c-0.2,0.1-0.5,0-0.7-0.2c0,0,0,0,0,0c-0.1-0.2,0-0.5,0.2-0.7
			c0,0,0,0,0,0l30.2-15.3c0.2-0.1,0.5,0,0.6,0.2c0.2,0.2,14.4,21.1,14.8,21.6c0.7,1,1.7,2.5,1.4,3.8s-1.4,4.9-1.5,5
			c0,0.1-0.2,0.3-0.3,0.3l-26.1,10.5C43.4,139.9,43.3,139.9,43.2,140z"/>
		<path class="st0" d="M37,140.2c-0.2,0-0.3-0.1-0.4-0.2l-1.2-1.7c-0.2-0.2-0.1-0.5,0.1-0.7c0.2-0.2,0.5-0.1,0.7,0.1l1.2,1.7
			c0.1,0.2,0.1,0.5-0.1,0.7C37.2,140.2,37.1,140.2,37,140.2z"/>
		<path class="st0" d="M34.4,136.4c-0.2,0-0.3-0.1-0.4-0.2l-11.4-16.7c-0.1-0.1-0.1-0.3-0.1-0.4c0-0.1,0.1-0.3,0.3-0.3l29.9-14
			c0.2-0.1,0.5,0,0.6,0.2l16.1,22.4c0.2,0.2,0.1,0.5-0.1,0.7c-0.2,0.2-0.5,0.1-0.7-0.1c0,0,0,0,0,0l-15.8-22.1l-29,13.6l11.1,16.2
			c0.2,0.2,0.1,0.5-0.1,0.7C34.6,136.3,34.5,136.4,34.4,136.4z"/>
		<path class="st0" d="M68.1,126.6L68.1,126.6c-0.4-0.1-0.5-0.3-0.5-0.6l0.7-3.1l-14.4-21.4l-25.8,12.6l-1.1,3.2
			c-0.1,0.3-0.4,0.4-0.6,0.3c-0.3-0.1-0.4-0.4-0.3-0.6l1.1-3.4c0-0.1,0.1-0.2,0.3-0.3l26.4-12.9c0.2-0.1,0.5,0,0.6,0.2l14.8,22
			c0.1,0.1,0.1,0.2,0.1,0.4l-0.7,3.3C68.6,126.5,68.4,126.7,68.1,126.6z"/>
		<path class="st0" d="M66.7,121.5l-2.2-3.1c0,0,2.8-1.2,5.4-2.6s5.6-3.4,5.6-3.4l-2.1,4.2l4.4,0.2L66.7,121.5z"/>
		<path class="st0" d="M58.8,217L58.8,217c-0.2,0-0.4-0.1-0.4-0.3l-18.3-35c0-0.1,0-0.3,0-0.4c0-0.1,0.1-0.2,0.3-0.3l2.1-1
			c0.3-0.1,0.5,0,0.7,0.3c0.1,0.2,0,0.5-0.2,0.6l-1.6,0.8L59,215.7l30.2-32.1c0.1-0.1,0.1-0.1,0.2-0.1l36.8-11.4l-18.2-29l-1.3,0.1
			c-0.3,0-0.5-0.2-0.5-0.4c0,0,0,0,0,0c0-0.3,0.2-0.5,0.5-0.5l1.6-0.1c0.2,0,0.4,0.1,0.5,0.2l18.7,29.8c0.1,0.1,0.1,0.3,0,0.4
			c-0.1,0.1-0.2,0.3-0.3,0.3l-37.3,11.5l-30.5,32.5C59.1,216.9,59,217,58.8,217z"/>
		<path class="st0" d="M59.2,212.2L59.2,212.2c-0.2,0-0.4-0.1-0.4-0.3l-17.5-33.4c-0.1-0.2-0.1-0.5,0.1-0.6
			c0.1-0.1,8.3-6.8,12.2-16.1c3.6-8.6,9.7-12.9,16.5-11.4c0.1,0,0.3,0.1,0.3,0.3l16.3,29.4c0.1,0.2,0,0.5-0.2,0.7
			c-0.1,0.1-0.2,0.1-0.4,0.1c-0.3-0.1-6.7-1.4-8.1,4.8c-1.6,6.6-8.4,15.1-11.7,19.2l-0.4,0.5c-2,2.4-4.1,4.7-6.4,6.8
			C59.5,212.2,59.3,212.2,59.2,212.2z M42.4,178.4l17,32.5c2.1-1.9,4-4,5.8-6.3l0.4-0.5c3.2-4,10-12.4,11.5-18.8
			c1.3-5.6,6.2-5.8,8.3-5.7l-15.7-28.4c-6.1-1.2-11.8,2.9-15.1,10.9C51,170.7,43.9,177.1,42.4,178.4z"/>
		<path class="st0" d="M86.3,180.8c-0.2,0-0.3-0.1-0.4-0.3l-16.3-29.4c0-0.1,0-0.2,0-0.3c1.2-5.5,7.2-8,19.6-8
			c10.8,0,15.2-3.4,15.2-3.5c0.1-0.1,0.3-0.1,0.4-0.1c0.1,0,0.3,0.1,0.3,0.2l18.3,29.8c0.1,0.2,0.1,0.5-0.1,0.7
			c-0.1,0-1.3,0.9-8.9,3.2c-5.2,1.7-11,1.4-15.6,1.3c-1.8-0.1-3.7-0.1-5.5,0c-4.4,0.4-6.3,6-6.3,6C86.7,180.6,86.6,180.7,86.3,180.8
			L86.3,180.8z M70.5,150.8l15.7,28.4c0.8-1.8,2.9-5.4,6.8-5.7c1.9-0.1,3.8-0.1,5.7,0c4.6,0.2,10.2,0.4,15.3-1.2
			c2.8-0.8,5.5-1.8,8.2-2.9l-17.7-28.9c-1.4,0.9-6.1,3.4-15.4,3.4C77.4,143.8,71.7,146,70.5,150.8z"/>
		<path class="st0" d="M72,200.3c-0.1,0-0.2,0-0.3-0.1c-0.2-0.2-0.3-0.5-0.1-0.7c1.9-2.4,3.5-4.6,4.8-6.5c1.5-2.3,3.2-4.4,5.2-6.3
			c1.7-1.5,3.6-2.7,5.7-3.7c0.2-0.1,0.5,0,0.6,0.3c0,0,0,0,0,0c0.1,0.3,0,0.5-0.3,0.7c-2,0.9-3.8,2.1-5.4,3.5
			c-1.9,1.9-3.6,3.9-5,6.2c-1.4,1.9-2.9,4-4.8,6.5C72.3,200.2,72.1,200.3,72,200.3z"/>
		<path class="st0" d="M90.6,181.6c-0.1,0-0.2,0-0.3-0.1c-0.2-0.2-0.3-0.5-0.1-0.7c1.9-2.3,4.6-3.8,7.5-4.2l1.8-0.1
			c7.7-0.4,15.2-2.1,22.3-5c0.3-0.1,0.6,0,0.6,0.3c0.1,0.3,0,0.6-0.3,0.6c-7.2,2.9-14.9,4.6-22.6,5.1l-1.8,0.1
			c-2.7,0.4-5.1,1.7-6.8,3.8C90.9,181.5,90.8,181.6,90.6,181.6z"/>
		<path class="st0" d="M47.7,183.2c-0.3,0-0.5-0.2-0.5-0.5c0-0.1,0-0.3,0.1-0.3c3.4-3.9,6.6-8,9.5-12.3c5.7-8.1,9.8-11.4,14.3-11.4
			c0.3,0,0.5,0.2,0.5,0.5s-0.2,0.5-0.5,0.5c-4.2,0-8.1,3.2-13.5,10.9c-3,4.3-6.2,8.4-9.6,12.4C48,183.1,47.8,183.2,47.7,183.2z"/>
		<path class="st0" d="M50.9,188.4c-0.1,0-0.2,0-0.3-0.1c-0.2-0.2-0.2-0.5,0-0.7c0,0,0,0,0,0c3.4-3.9,6.6-8,9.5-12.3
			c5.6-8.1,9.8-11.4,14.3-11.4c0.3,0,0.5,0.2,0.5,0.5c0,0.3-0.2,0.5-0.5,0.5c-4.2,0-8.1,3.2-13.5,10.9c-3,4.3-6.2,8.4-9.6,12.4
			C51.2,188.3,51,188.4,50.9,188.4z"/>
		<path class="st0" d="M54.1,193.5c-0.3,0-0.5-0.2-0.5-0.5c0-0.1,0-0.2,0.1-0.3c3.4-3.9,6.6-8,9.5-12.3c5.6-8.1,9.8-11.4,14.3-11.4
			c0.3,0,0.5,0.2,0.5,0.5c0,0.3-0.2,0.5-0.5,0.5c-4.2,0-8.1,3.2-13.5,10.9c-3,4.3-6.2,8.4-9.6,12.4
			C54.3,193.5,54.2,193.5,54.1,193.5z"/>
		<path class="st0" d="M57.2,198.7c-0.1,0-0.2,0-0.3-0.1c-0.2-0.2-0.2-0.5,0-0.7c0,0,0,0,0,0c3.4-3.9,6.6-8,9.5-12.3
			c5.6-8.1,9.8-11.4,14.3-11.4c0.3,0,0.5,0.2,0.5,0.5s-0.2,0.5-0.5,0.5c-4.2,0-8.1,3.2-13.5,10.9c-3,4.3-6.2,8.4-9.6,12.4
			C57.5,198.6,57.4,198.7,57.2,198.7z"/>
		<path class="st0" d="M76.7,157.3h-0.2c-0.3-0.1-0.4-0.4-0.3-0.6c0-0.1,1.8-4.7,8-4.7c11.6,0,19.2-1.8,20.2-4.8
			c0.1-0.3,0.4-0.4,0.7-0.3s0.4,0.4,0.3,0.7c-1.6,4.8-13.9,5.5-21.2,5.5c-5.5,0-7,3.9-7.1,4.1C77.1,157.2,76.9,157.3,76.7,157.3z"/>
		<path class="st0" d="M80.3,163.3c-0.1,0-0.2,0-0.3-0.1c-0.2-0.2-0.3-0.5-0.1-0.7c0.1-0.2,3-3.8,10.7-3.8c8.3,0,14.5-1.9,18.4-5.8
			c0.2-0.2,0.5-0.2,0.7,0c0.2,0.2,0.2,0.5,0,0.7c0,0,0,0,0,0c-4.1,4.1-10.5,6.2-19.1,6.2c-7.2,0-9.9,3.4-9.9,3.4
			C80.6,163.3,80.4,163.3,80.3,163.3z"/>
		<path class="st0" d="M82.7,169.3c-0.1,0-0.1,0-0.2-0.1c-0.2-0.1-0.4-0.4-0.2-0.6c0,0,0,0,0,0c1.9-3.5,5.6-5.6,9.6-5.5
			c8.4,0,15.7-1.8,19.6-4.7c0.2-0.2,0.5-0.1,0.7,0.1c0,0,0,0,0,0c0.2,0.2,0.1,0.5-0.1,0.7c-5.9,4.4-16.1,4.9-20.2,4.9
			c-3.6-0.2-7,1.7-8.7,4.9C83.1,169.1,82.9,169.3,82.7,169.3z"/>
		<path class="st0" d="M85.5,173.6c0,0-0.1,0-0.1,0c-0.3-0.1-0.4-0.4-0.3-0.6c0.1-0.2,1.4-4.3,8.4-4.7c7.3-0.4,14.5-2,21.3-4.7
			c0.2-0.1,0.5-0.1,0.7,0.2c0.1,0.2,0.1,0.5-0.2,0.7c0,0-0.1,0-0.1,0c-6.9,2.8-14.2,4.4-21.6,4.8c-6.3,0.4-7.5,3.9-7.5,4
			C85.9,173.5,85.7,173.6,85.5,173.6z"/>
		<path class="st0" d="M279.1,56.8L279.1,56.8c-0.2,0-0.3-0.1-0.4-0.2l-14.1-22.8l-26.9-14.7c-0.1-0.1-0.2-0.2-0.3-0.4
			c0-0.2,0-0.3,0.2-0.4l20.1-18.2C257.9,0,258,0,258.2,0c0.1,0,0.3,0.1,0.3,0.2l1,1.2c0.2,0.2,0.1,0.5-0.1,0.7
			c-0.2,0.1-0.4,0.1-0.6,0l-0.7-0.8l-19.2,17.4L265.3,33c0.1,0,0.1,0.1,0.2,0.2l13.8,22.3l16-16.9l-0.3-0.8c-0.1-0.3,0-0.5,0.3-0.6
			c0.3-0.1,0.5,0,0.6,0.3l0.4,1.1c0.1,0.2,0,0.4-0.1,0.5l-16.6,17.6C279.4,56.8,279.3,56.8,279.1,56.8z"/>
		<path class="st0" d="M266.8,31.2c-0.1,0-0.1,0-0.2,0c-0.2-0.1-0.3-0.3-0.3-0.4c0-0.2-0.2-4.6-4.4-4.4c-4.7,0.1-11.6-3-14.9-4.4
			l-0.4-0.2c-2-0.9-3.9-1.9-5.7-3.1c-0.1-0.1-0.2-0.2-0.2-0.4c0-0.2,0.1-0.3,0.2-0.4l19.2-17.5c0.2-0.2,0.5-0.2,0.6,0
			c3.8,2.7,8.2,4.5,12.8,5.3c6.4,0.9,10.4,4.3,10.6,9.1c0,0.1,0,0.3-0.1,0.4l-16.8,16C267.1,31.2,267,31.3,266.8,31.2z M262.1,25.3
			c2.6,0,4.8,1.8,5.1,4.4l15.9-15.1c-0.3-4.2-3.8-7.1-9.7-8c-4.6-0.8-9-2.6-12.9-5.2l-18.5,16.8c1.6,1,3.3,1.9,5,2.7l0.4,0.2
			c3.2,1.4,10,4.5,14.5,4.4H262.1z"/>
		<path class="st0" d="M280.3,53.8c-0.1,0-0.2,0-0.3-0.1c-0.1-0.1-0.9-0.8-3.7-5.4c-2-3.2-2.9-7.1-3.6-10.3
			c-0.2-1.2-0.6-2.5-0.9-3.7c-1-2.8-4.9-3.1-5-3.1c-0.2,0-0.4-0.1-0.4-0.3c-0.1-0.2,0-0.4,0.1-0.5l16.8-15.9
			c0.1-0.1,0.2-0.1,0.3-0.1c3.9-0.2,6.7,3.4,8.8,11.8c1.9,7.2,4.9,9.4,4.9,9.4c0.1,0.1,0.2,0.2,0.2,0.4c0,0.1,0,0.3-0.1,0.4
			l-16.7,17.3C280.6,53.7,280.5,53.7,280.3,53.8z M267.9,30.4c1.4,0.3,4,1.2,4.8,3.6c0.4,1.2,0.7,2.5,1,3.8c0.7,3.1,1.5,6.9,3.4,9.9
			c1,1.7,2.1,3.2,3.2,4.8L296.3,36c-1-0.9-3.3-3.6-4.8-9.6c-2-7.5-4.4-11-7.6-11l0,0L267.9,30.4z"/>
		<path class="st0" d="M264.9,32.6c-0.2,0-0.3-0.1-0.4-0.2c-0.9-1.1-2-2.2-3.2-3c-1.6-0.9-3.2-1.7-4.9-2.3c-1.5-0.6-3.2-1.2-5.2-2.1
			c-0.3-0.1-0.4-0.4-0.3-0.7c0.1-0.2,0.4-0.4,0.6-0.3c0,0,0,0,0,0c1.9,0.9,3.6,1.5,5.1,2.1c1.8,0.6,3.5,1.4,5.2,2.4
			c1.3,0.9,2.5,2,3.5,3.2c0.2,0.2,0.1,0.5-0.1,0.7C265.2,32.5,265,32.6,264.9,32.6z"/>
		<path class="st0" d="M278.6,53.6c-0.2,0-0.3-0.1-0.4-0.2c-3.2-4.3-5.7-9.1-7.3-14.2c-0.1-0.4-0.3-0.8-0.4-1.2
			c-0.7-1.7-2-3-3.6-3.8c-0.3-0.1-0.4-0.4-0.3-0.6s0.4-0.4,0.6-0.3c0,0,0.1,0,0.1,0c1.9,0.9,3.4,2.4,4.2,4.4
			c0.1,0.4,0.3,0.8,0.4,1.2c1.6,5,4,9.8,7.2,14c0.2,0.2,0.1,0.5-0.1,0.7c0,0,0,0,0,0C278.8,53.6,278.7,53.6,278.6,53.6z"/>
		<path class="st0" d="M278.3,17.5c-0.2,0-0.4-0.2-0.5-0.4c-0.7-2.7-3.5-4.7-9.5-7c-3.4-1.2-6.7-2.6-9.9-4.2
			c-0.3-0.1-0.4-0.4-0.3-0.7c0.1-0.3,0.4-0.4,0.7-0.3c0,0,0,0,0.1,0c3.2,1.6,6.5,3,9.8,4.2c6.4,2.4,9.3,4.6,10.1,7.7
			c0.1,0.3-0.1,0.5-0.4,0.6c0,0,0,0,0,0L278.3,17.5z"/>
		<path class="st0" d="M275.4,20.5c-0.2,0-0.4-0.2-0.5-0.4c-0.7-2.7-3.5-4.7-9.5-7c-3.4-1.2-6.7-2.6-9.9-4.3
			c-0.3-0.1-0.4-0.4-0.3-0.7c0.1-0.3,0.4-0.4,0.7-0.3c0,0,0,0,0.1,0c3.2,1.6,6.5,3,9.8,4.2c6.4,2.4,9.3,4.6,10.1,7.7
			c0.1,0.3-0.1,0.5-0.3,0.6c0,0,0,0,0,0C275.5,20.5,275.4,20.5,275.4,20.5z"/>
		<path class="st0" d="M272.5,23.5c-0.2,0-0.4-0.2-0.5-0.4c-0.7-2.7-3.5-4.7-9.5-7c-3.4-1.2-6.7-2.6-9.9-4.2
			c-0.2-0.1-0.3-0.4-0.2-0.7s0.4-0.3,0.7-0.2l0,0c3.2,1.6,6.5,3,9.8,4.2c6.4,2.4,9.3,4.6,10.1,7.7c0.1,0.3-0.1,0.5-0.4,0.6
			c0,0,0,0,0,0L272.5,23.5z"/>
		<path class="st0" d="M269.6,26.6c-0.2,0-0.4-0.2-0.5-0.4c-0.7-2.7-3.5-4.7-9.5-7c-3.4-1.2-6.7-2.6-9.9-4.2
			c-0.2-0.1-0.3-0.4-0.2-0.7c0.1-0.2,0.4-0.3,0.7-0.2c3.2,1.6,6.5,3,9.8,4.2c6.4,2.4,9.3,4.6,10.1,7.7c0.1,0.3-0.1,0.5-0.4,0.6
			c0,0,0,0,0,0L269.6,26.6z"/>
		<path class="st0" d="M292.1,38L292.1,38c-3.4-0.2-5.9-7.3-7.5-13.2c-0.9-3.6-3.7-3.9-3.8-3.9c-0.3,0-0.5-0.3-0.4-0.6
			c0-0.3,0.3-0.5,0.5-0.4c0.1,0,3.5,0.4,4.7,4.6c2,7.7,4.5,12.4,6.6,12.5c0.3,0,0.5,0.3,0.5,0.5c0,0,0,0,0,0
			C292.6,37.8,292.3,38,292.1,38z"/>
		<path class="st0" d="M288.8,41.9c-0.1,0-0.2,0-0.3-0.1c-3.4-2-5.9-6-7.4-11.7c-1.2-4.7-3.9-5.9-3.9-5.9c-0.2-0.1-0.3-0.4-0.2-0.7
			c0.1-0.2,0.4-0.3,0.6-0.2c0.1,0,3.1,1.4,4.5,6.6c1.4,5.5,3.8,9.2,7,11.1c0.2,0.1,0.3,0.4,0.2,0.7C289.2,41.8,289,41.9,288.8,41.9z
			"/>
		<path class="st0" d="M285.5,44.4c-0.1,0-0.2,0-0.3-0.1c-4-3.2-6.1-9.9-6.8-12.7c-0.5-2.4-2.3-4.2-4.6-4.8
			c-0.3-0.1-0.4-0.3-0.4-0.6c0.1-0.3,0.3-0.5,0.6-0.4c2.7,0.7,4.8,2.8,5.4,5.6c1.4,5.5,3.9,10.1,6.4,12.1c0.2,0.2,0.3,0.5,0.1,0.7
			c0,0,0,0,0,0C285.8,44.4,285.7,44.4,285.5,44.4z"/>
		<path class="st0" d="M282.7,47.5c-0.2,0-0.3-0.1-0.4-0.2c-3.1-4.1-5.4-8.7-7-13.6c-1.3-4-3.7-4.2-3.8-4.2c-0.3,0-0.5-0.3-0.5-0.5
			c0-0.3,0.2-0.5,0.4-0.5c0,0,0,0,0.1,0c0.1,0,3.2,0.2,4.7,4.9c1.5,4.8,3.8,9.3,6.8,13.3c0.2,0.2,0.1,0.5-0.1,0.7
			C282.9,47.4,282.8,47.5,282.7,47.5z"/>
		<path class="st0" d="M100.6,68.9h-0.1L96.9,68c-0.3-0.1-0.4-0.3-0.4-0.6c0-0.1,0-0.1,0.1-0.1L113.3,41c0.1-0.2,0.5-0.3,0.7-0.2
			c0.2,0.1,0.3,0.5,0.2,0.7L97.8,67.2l2.6,0.6l16.5-24.6c0.1-0.2,0.4-0.3,0.7-0.2l26.3,15.2l2.9-2.9l-28.8-15
			c-0.2-0.1-0.3-0.4-0.2-0.7s0.4-0.3,0.7-0.2l29.4,15.4c0.1,0.1,0.2,0.2,0.3,0.4c0,0.2,0,0.3-0.1,0.4l-3.6,3.6
			c-0.2,0.2-0.4,0.2-0.6,0.1l-26.3-15.1L101,68.7C100.9,68.8,100.8,68.9,100.6,68.9z"/>
		<path class="st0" d="M146.7,100c-0.1,0-0.2,0-0.2-0.1l-22.1-12.6c-0.1-0.1-0.2-0.2-0.3-0.4l-7.2-43.4c0-0.3,0.1-0.5,0.4-0.6
			c0.3,0,0.5,0.1,0.6,0.4c0,0,0,0,0,0l7.2,43.1l21.2,12.1l-3.1-37.4c0-0.3,0.2-0.5,0.5-0.5c0.3,0,0.5,0.2,0.5,0.5c0,0,0,0,0,0
			l3.1,38.4c0,0.2-0.1,0.4-0.2,0.5C146.8,100,146.8,100,146.7,100z"/>
		<path class="st0" d="M146.7,100c-0.3,0-0.5-0.2-0.5-0.5c0-0.1,0-0.2,0.1-0.2l3.6-6.6l-2.7-37.3c0-0.3,0.2-0.5,0.5-0.5
			c0.3,0,0.5,0.2,0.5,0.5l2.7,37.5c0,0.1,0,0.2-0.1,0.3l-3.6,6.7C147.1,99.9,146.9,100,146.7,100z"/>
		<path class="st0" d="M109.6,107.8h-0.1c-0.2,0-0.3-0.2-0.4-0.4l-7.7-35.2c-0.1-0.3,0.1-0.5,0.4-0.6c0.3-0.1,0.5,0.1,0.6,0.4
			c0,0,0,0,0,0l7.4,34.1l14.3-19.5c0.2-0.2,0.5-0.3,0.7-0.1s0.3,0.5,0.1,0.7L110,107.5C110,107.7,109.8,107.8,109.6,107.8z"/>
		<path class="st0" d="M109.6,107.8L109.6,107.8l-4.1-0.4c-0.2,0-0.4-0.2-0.4-0.4l-8.6-39.3c-0.1-0.3,0.1-0.5,0.4-0.6
			c0.3-0.1,0.5,0.1,0.6,0.4l8.5,38.9l3.7,0.4c0.3,0,0.5,0.2,0.5,0.5S110,107.8,109.6,107.8L109.6,107.8z"/>
		<path class="st0" d="M106.5,75.2c-0.3,0-0.5-0.2-0.5-0.5c0-0.1,0-0.2,0.1-0.3l11.8-16.3c0.1-0.2,0.4-0.3,0.7-0.1c0,0,0,0,0,0
			c0.2,0.2,0.3,0.5,0.1,0.7c0,0,0,0,0,0L106.9,75C106.8,75.1,106.6,75.2,106.5,75.2z"/>
		<path class="st0" d="M107.4,82.9c-0.1,0-0.2,0-0.3-0.1c-0.2-0.2-0.3-0.5-0.1-0.7l11.7-16.3c0.2-0.2,0.5-0.3,0.7-0.1c0,0,0,0,0,0
			c0.2,0.2,0.3,0.5,0.1,0.7l-11.7,16.3C107.7,82.8,107.5,82.9,107.4,82.9z"/>
		<path class="st0" d="M108.3,90.6c-0.1,0-0.2,0-0.3-0.1c-0.2-0.2-0.3-0.5-0.1-0.7l11.7-16.3c0.2-0.2,0.5-0.3,0.7-0.1c0,0,0,0,0,0
			c0.2,0.2,0.3,0.5,0.1,0.7l-11.7,16.3C108.6,90.5,108.4,90.6,108.3,90.6z"/>
		<path class="st0" d="M109.1,98.2c-0.1,0-0.2,0-0.3-0.1c-0.2-0.2-0.3-0.5-0.1-0.7c0,0,0,0,0,0l11.8-16.3c0.2-0.2,0.5-0.3,0.7-0.1
			c0.2,0.2,0.3,0.5,0.1,0.7c0,0,0,0,0,0L109.5,98C109.5,98.2,109.3,98.2,109.1,98.2z"/>
		<path class="st0" d="M139,68.4c-0.1,0-0.2,0-0.3-0.1l-15.8-9c-0.2-0.1-0.3-0.4-0.2-0.7c0.1-0.2,0.4-0.3,0.7-0.2l15.8,9
			c0.2,0.1,0.3,0.4,0.2,0.7C139.3,68.3,139.2,68.4,139,68.4z"/>
		<path class="st0" d="M139,75.6c-0.1,0-0.2,0-0.3-0.1l-15.8-9c-0.3-0.1-0.4-0.4-0.2-0.7s0.4-0.4,0.7-0.2c0,0,0.1,0,0.1,0.1l15.8,9
			c0.2,0.1,0.3,0.4,0.2,0.7C139.3,75.6,139.2,75.6,139,75.6z"/>
		<path class="st0" d="M141.2,83.3c-0.1,0-0.2,0-0.2-0.1l-15.8-9c-0.2-0.1-0.3-0.4-0.2-0.7c0.1-0.2,0.4-0.3,0.7-0.2l15.8,9
			c0.2,0.1,0.3,0.4,0.2,0.7c0,0,0,0,0,0C141.6,83.2,141.4,83.3,141.2,83.3z"/>
		<path class="st0" d="M141.7,91c-0.1,0-0.2,0-0.3-0.1l-15.8-9c-0.2-0.1-0.3-0.4-0.2-0.7s0.4-0.3,0.7-0.2l15.8,9
			c0.2,0.1,0.3,0.4,0.2,0.7C142,90.9,141.9,91,141.7,91L141.7,91z"/>
		<path class="st0" d="M338.1,233.8c-0.1,0-0.1,0-0.2,0l-30.8-12.3c-0.1-0.1-0.3-0.2-0.3-0.3c0-0.2,0-0.3,0.1-0.4l3.2-4
			c0.1-0.2,0.4-0.2,0.6-0.1l27.6,12.4l13.9-26c0.1-0.2,0.3-0.3,0.5-0.3l3.7,0.5c0.2,0,0.3,0.1,0.4,0.3c0.1,0.1,0.1,0.3,0,0.5
			l-14,27.7c-0.1,0.2-0.4,0.3-0.7,0.2c-0.2-0.1-0.3-0.4-0.2-0.7l13.7-27.1l-2.6-0.4l-13.9,26.1c-0.1,0.2-0.4,0.3-0.6,0.2l-27.7-12.4
			l-2.6,3.2l30.1,12c0.3,0.1,0.4,0.4,0.3,0.6C338.6,233.6,338.4,233.8,338.1,233.8z"/>
		<path class="st0" d="M338.7,230.1c-0.2,0-0.4-0.1-0.5-0.4l-11.5-42.2l-22.2-9.9l6.8,37c0,0.3-0.1,0.5-0.4,0.6
			c-0.3,0-0.5-0.1-0.6-0.4l-7-37.9c0-0.2,0-0.4,0.2-0.5c0.1-0.1,0.3-0.1,0.5-0.1l23.3,10.4c0.1,0.1,0.2,0.2,0.3,0.3l11.5,42.4
			C339.2,229.7,339.1,230,338.7,230.1L338.7,230.1z"/>
		<path class="st0" d="M307.4,221.4c-0.2,0-0.5-0.2-0.5-0.4l-6.5-37c0-0.1,0-0.2,0-0.3l2.9-7.1c0.1-0.2,0.4-0.3,0.7-0.2
			c0.2,0.1,0.3,0.4,0.2,0.6l-2.9,7l6.5,36.9C307.9,221.2,307.7,221.4,307.4,221.4C307.5,221.5,307.5,221.5,307.4,221.4L307.4,221.4z
			"/>
		<path class="st0" d="M351.1,200.2c-0.2,0-0.4-0.1-0.5-0.4l-10.8-33.2l-12.2,20.8c-0.1,0.2-0.5,0.3-0.7,0.2
			c-0.2-0.1-0.3-0.4-0.2-0.7l12.8-21.7c0.1-0.2,0.3-0.3,0.5-0.2c0.2,0,0.4,0.2,0.4,0.3l11.2,34.3c0.1,0.3,0,0.5-0.3,0.6c0,0,0,0,0,0
			L351.1,200.2z"/>
		<path class="st0" d="M356.5,204.2c-0.2,0-0.4-0.1-0.5-0.3L343.7,166h-3.7c-0.3,0-0.5-0.2-0.5-0.5c0-0.3,0.2-0.5,0.5-0.5h4.1
			c0.2,0,0.4,0.1,0.5,0.4l12.5,38.2c0.1,0.3,0,0.5-0.3,0.6c0,0,0,0,0,0L356.5,204.2z"/>
		<path class="st0" d="M336.3,215.3c-0.1,0-0.2,0-0.3-0.1c-0.2-0.1-0.3-0.4-0.2-0.7l10-17.4c0.1-0.2,0.4-0.3,0.7-0.2
			c0.2,0.1,0.3,0.4,0.2,0.7l-10,17.4C336.6,215.2,336.5,215.3,336.3,215.3z"/>
		<path class="st0" d="M334.6,207.8c-0.1,0-0.2,0-0.3-0.1c-0.2-0.1-0.3-0.4-0.2-0.7l10.1-17.4c0.1-0.3,0.4-0.4,0.7-0.2
			s0.4,0.4,0.2,0.7c0,0,0,0.1-0.1,0.1l-10,17.4C335,207.7,334.8,207.8,334.6,207.8z"/>
		<path class="st0" d="M333,200.2c-0.1,0-0.2,0-0.3-0.1c-0.2-0.1-0.3-0.4-0.2-0.7c0,0,0,0,0,0l10-17.4c0.2-0.2,0.5-0.3,0.7-0.1
			c0.2,0.1,0.3,0.4,0.2,0.6l-10,17.4C333.3,200.1,333.1,200.2,333,200.2z"/>
		<path class="st0" d="M331.3,192.7c-0.1,0-0.2,0-0.3-0.1c-0.2-0.1-0.3-0.4-0.2-0.7c0,0,0,0,0,0l10-17.4c0.1-0.2,0.4-0.3,0.7-0.2
			c0.2,0.1,0.3,0.4,0.2,0.7c0,0,0,0,0,0l-10,17.4C331.6,192.6,331.4,192.7,331.3,192.7z"/>
		<path class="st0" d="M331.3,215.4c-0.1,0-0.1,0-0.2,0l-16.6-7.4c-0.2-0.1-0.4-0.4-0.3-0.6c0,0,0,0,0,0c0.1-0.3,0.4-0.4,0.7-0.3
			c0,0,0,0,0,0l16.6,7.4c0.3,0.1,0.5,0.3,0.4,0.6S331.6,215.5,331.3,215.4L331.3,215.4z"/>
		<path class="st0" d="M330.6,208.2c-0.1,0-0.1,0-0.2,0l-16.6-7.4c-0.3-0.1-0.4-0.4-0.3-0.6s0.4-0.4,0.6-0.3c0,0,0,0,0.1,0l16.6,7.4
			c0.3,0.1,0.5,0.3,0.4,0.6S330.9,208.3,330.6,208.2L330.6,208.2L330.6,208.2z"/>
		<path class="st0" d="M327.6,200.8c-0.1,0-0.1,0-0.2,0l-16.6-7.4c-0.2-0.1-0.4-0.4-0.3-0.6c0,0,0,0,0,0c0.1-0.3,0.4-0.4,0.7-0.3
			c0,0,0,0,0,0l16.6,7.4c0.3,0.1,0.4,0.4,0.3,0.7c0,0,0,0,0,0C327.9,200.6,327.8,200.8,327.6,200.8z"/>
		<path class="st0" d="M326.3,193.2c-0.1,0-0.1,0-0.2,0l-16.6-7.4c-0.3-0.1-0.4-0.4-0.3-0.6s0.4-0.4,0.6-0.3c0,0,0.1,0,0.1,0
			l16.6,7.4c0.3,0.1,0.4,0.4,0.3,0.7c0,0,0,0,0,0C326.7,193.1,326.5,193.2,326.3,193.2z"/>
	</g>
	<g id="freepik--Plants--inject-369_1_">
		<path class="st1" d="M281.9,245.9c-2.8,6.9-5.7,1.4-5.2-27.7c0.2-13.6,1.2-41.4,16.2-35.3c14.5,5.9-4.6,47-4.6,47L281.9,245.9z
			 M302.5,250c0,0,31.4-32.7,19.6-43c-12.3-10.7-22.2,15.3-26.8,28.1c-9.9,27.3-8.9,33.5-4,27.9L302.5,250z M309.1,279.3
			c0,0,28.7-20.5,21.2-30c-7.8-9.9-19.2,8.5-24.6,17.6c-11.5,19.5-11.7,24.3-7.1,20.7L309.1,279.3z M316.9,308.6
			c0,0,28.7-20.5,21.2-30c-7.8-9.9-19.2,8.5-24.6,17.6c-11.5,19.5-11.7,24.3-7.1,20.7L316.9,308.6z M266.8,249.8
			c0,0-40.2-20.9-46.7-6.8c-6.8,14.8,20.9,17,34.5,17.8c29,1.8,34.7-0.8,27.9-4L266.8,249.8z M272.4,272.8c0,0-43.5-12.5-47.1,2.7
			c-3.7,15.8,23.9,12.5,37.4,10.6c28.8-4,33.8-7.7,26.5-9.4L272.4,272.8z M282.4,297.9c0,0-37.1-9.6-39.8,3.4
			c-2.8,13.5,20.5,10,31.8,8.1c24.2-4,28.4-7.3,22.2-8.6L282.4,297.9z M288.2,318.6c0,0-35.9-13.5-39.9-0.9
			c-4.2,13.1,19.3,12.1,30.8,11.4c24.5-1.5,29-4.2,23-6.2L288.2,318.6z M264.2,213.6c0,0-16.4-50.9-35-41.7
			c-19.4,9.6,3,32.6,14.2,43.6c23.9,23.5,31.3,25.1,28.1,16.9L264.2,213.6z"/>
		<path class="st2" d="M281.9,245.9c-2.8,6.9-5.7,1.4-5.2-27.7c0.2-13.6,1.2-41.4,16.2-35.3c14.5,5.9-4.6,47-4.6,47L281.9,245.9z
			 M302.5,250c0,0,31.4-32.7,19.6-43c-12.3-10.7-22.2,15.3-26.8,28.1c-9.9,27.3-8.9,33.5-4,27.9L302.5,250z M309.1,279.3
			c0,0,28.7-20.5,21.2-30c-7.8-9.9-19.2,8.5-24.6,17.6c-11.5,19.5-11.7,24.3-7.1,20.7L309.1,279.3z M316.9,308.6
			c0,0,28.7-20.5,21.2-30c-7.8-9.9-19.2,8.5-24.6,17.6c-11.5,19.5-11.7,24.3-7.1,20.7L316.9,308.6z M266.8,249.8
			c0,0-40.2-20.9-46.7-6.8c-6.8,14.8,20.9,17,34.5,17.8c29,1.8,34.7-0.8,27.9-4L266.8,249.8z M272.4,272.8c0,0-43.5-12.5-47.1,2.7
			c-3.7,15.8,23.9,12.5,37.4,10.6c28.8-4,33.8-7.7,26.5-9.4L272.4,272.8z M282.4,297.9c0,0-37.1-9.6-39.8,3.4
			c-2.8,13.5,20.5,10,31.8,8.1c24.2-4,28.4-7.3,22.2-8.6L282.4,297.9z M288.2,318.6c0,0-35.9-13.5-39.9-0.9
			c-4.2,13.1,19.3,12.1,30.8,11.4c24.5-1.5,29-4.2,23-6.2L288.2,318.6z M264.2,213.6c0,0-16.4-50.9-35-41.7
			c-19.4,9.6,3,32.6,14.2,43.6c23.9,23.5,31.3,25.1,28.1,16.9L264.2,213.6z"/>
		<path class="st3" d="M308.5,354.4c-0.3,0-0.6-0.3-0.6-0.6c-1.5-26.6-9-58.7-20.5-88.1c-9.7-24.8-50.5-74.7-50.9-75.2
			c-0.2-0.3-0.2-0.7,0.1-0.9c0.3-0.2,0.7-0.2,0.9,0.1c0,0,0,0,0,0c0.4,0.5,41.3,50.6,51.1,75.5c11.6,29.6,19.1,61.8,20.6,88.6
			C309.2,354.1,308.9,354.4,308.5,354.4L308.5,354.4z"/>
		<path class="st3" d="M279.8,249.7L279.8,249.7c-0.4,0-0.7-0.4-0.6-0.7l5.7-47.9c0-0.3,0.4-0.6,0.7-0.5c0.3,0,0.6,0.4,0.5,0.7l0,0
			l-5.7,47.9C280.3,249.4,280.1,249.6,279.8,249.7z"/>
		<path class="st3" d="M288,266.1c-0.1,0-0.2,0-0.3-0.1c-0.3-0.2-0.4-0.5-0.3-0.8c0,0,0,0,0,0l20.7-40.2c0.1-0.3,0.5-0.5,0.8-0.4
			s0.5,0.5,0.4,0.8c0,0,0,0.1-0.1,0.1l-20.7,40.3C288.4,265.9,288.2,266.1,288,266.1z"/>
		<path class="st3" d="M284.9,260.1h-0.1l-43.4-8.8c-0.3,0-0.6-0.4-0.6-0.7s0.4-0.6,0.7-0.6c0,0,0.1,0,0.1,0l43.4,8.8
			c0.3,0.1,0.5,0.4,0.5,0.7C285.5,259.9,285.2,260.1,284.9,260.1z"/>
		<path class="st3" d="M296.1,288.9c-0.3,0-0.6-0.3-0.6-0.7c0-0.1,0-0.2,0.1-0.3l25.5-29.1c0.2-0.3,0.6-0.3,0.9-0.1s0.3,0.6,0.1,0.9
			l0,0l-25.5,29C296.5,288.8,296.3,288.9,296.1,288.9z"/>
		<path class="st3" d="M292.5,279.3L292.5,279.3l-32.7-0.3c-0.3,0-0.6-0.3-0.6-0.6c0-0.3,0.3-0.6,0.6-0.6l32.7,0.3
			c0.3,0,0.6,0.3,0.6,0.6C293.2,279,292.9,279.3,292.5,279.3C292.5,279.3,292.5,279.3,292.5,279.3z"/>
		<path class="st3" d="M273.7,304.1c-0.3,0-0.6-0.3-0.6-0.6c0-0.3,0.3-0.6,0.6-0.6l25.1-1c0.3,0,0.6,0.3,0.6,0.6
			c0,0.3-0.2,0.6-0.6,0.6c0,0,0,0,0,0L273.7,304.1L273.7,304.1z"/>
		<path class="st3" d="M304,318.2c-0.1,0-0.3,0-0.4-0.1c-0.3-0.2-0.3-0.6-0.1-0.9l13.4-17.9c0.2-0.3,0.6-0.3,0.9-0.1
			c0.3,0.2,0.3,0.6,0.1,0.9c0,0,0,0,0,0L304.5,318C304.4,318.1,304.2,318.2,304,318.2z"/>
		<path class="st3" d="M305,324.9L305,324.9l-29.4-1.5c-0.3,0-0.6-0.3-0.6-0.7c0,0,0,0,0,0c0-0.3,0.3-0.6,0.7-0.6l29.4,1.5
			c0.3,0,0.6,0.3,0.6,0.6c0,0,0,0,0,0C305.6,324.6,305.3,324.9,305,324.9C305,324.9,305,324.9,305,324.9z"/>
		<path class="st1" d="M361,285.5c-5.1,1.9-3.5-2.4,12.1-16.4c7.3-6.6,22.6-19.7,26.7-8.7c4,10.6-27.3,20.6-27.3,20.6L361,285.5z
			 M369,298.5c0,0,32.8,0.6,32.5-10.7c-0.3-11.8-19-4.3-28.1-0.4c-19.4,8.2-22.2,11.7-16.8,11.5L369,298.5z M356.6,316.5
			c0,0,25,5.2,26.4-3.5c1.5-9-13.9-6-21.4-4.4c-16,3.5-18.7,5.7-14.5,6.4L356.6,316.5z M344.9,335c0,0,25,5.2,26.4-3.5
			c1.5-9-13.9-6-21.4-4.4c-16,3.5-18.7,5.7-14.5,6.4L344.9,335z M351.5,279.4c0,0-8.6-31.6-19.4-28.2c-11.2,3.6,1.3,19.5,7.5,27.1
			c13.3,16.3,17.5,18,15.8,12.9L351.5,279.4z M342,293.8c0,0-14.8-29.3-24.6-23.8c-10.2,5.8,5.1,18.8,12.7,25.1
			c16.3,13.3,20.7,14.2,18.1,9.5L342,293.8z M333.6,311.4c0,0-13.1-24.5-21.4-19.5c-8.5,5.1,4.8,15.8,11.3,20.9
			c14.1,10.9,17.9,11.5,15.5,7.6L333.6,311.4z M325.4,324.7c0,0-10.5-25.7-19.2-21.7c-9,4.2,3,16.2,9.1,22
			c12.8,12.3,16.5,13.4,14.6,9.2L325.4,324.7z M369.4,260.3c0,0,19-33.8,5-39.1c-14.6-5.6-15.9,17.6-16.2,29
			c-0.8,24.2,2,29,4.8,23.3L369.4,260.3z"/>
		<path class="st4" d="M361,285.5c-5.1,1.9-3.5-2.4,12.1-16.4c7.3-6.6,22.6-19.7,26.7-8.7c4,10.6-27.3,20.6-27.3,20.6L361,285.5z
			 M369,298.5c0,0,32.8,0.6,32.5-10.7c-0.3-11.8-19-4.3-28.1-0.4c-19.4,8.2-22.2,11.7-16.8,11.5L369,298.5z M356.6,316.5
			c0,0,25,5.2,26.4-3.5c1.5-9-13.9-6-21.4-4.4c-16,3.5-18.7,5.7-14.5,6.4L356.6,316.5z M344.9,335c0,0,25,5.2,26.4-3.5
			c1.5-9-13.9-6-21.4-4.4c-16,3.5-18.7,5.7-14.5,6.4L344.9,335z M351.5,279.4c0,0-8.6-31.6-19.4-28.2c-11.2,3.6,1.3,19.5,7.5,27.1
			c13.3,16.3,17.5,18,15.8,12.9L351.5,279.4z M342,293.8c0,0-14.8-29.3-24.6-23.8c-10.2,5.8,5.1,18.8,12.7,25.1
			c16.3,13.3,20.7,14.2,18.1,9.5L342,293.8z M333.6,311.4c0,0-13.1-24.5-21.4-19.5c-8.5,5.1,4.8,15.8,11.3,20.9
			c14.1,10.9,17.9,11.5,15.5,7.6L333.6,311.4z M325.4,324.7c0,0-10.5-25.7-19.2-21.7c-9,4.2,3,16.2,9.1,22
			c12.8,12.3,16.5,13.4,14.6,9.2L325.4,324.7z M369.4,260.3c0,0,19-33.8,5-39.1c-14.6-5.6-15.9,17.6-16.2,29
			c-0.8,24.2,2,29,4.8,23.3L369.4,260.3z"/>
		<path class="st3" d="M315.4,354.8c-0.2,0-0.3-0.1-0.4-0.2c-0.2-0.2-0.2-0.6,0-0.9c13.7-14.2,28.3-35.5,38-55.6
			c8.4-17.3,14.9-63.5,15-64c0.1-0.3,0.4-0.6,0.7-0.5c0.3,0.1,0.6,0.4,0.5,0.7c-0.1,0.5-6.6,46.9-15.1,64.3
			c-9.8,20.2-24.5,41.6-38.3,55.9C315.8,354.7,315.6,354.8,315.4,354.8z"/>
		<path class="st3" d="M358.3,286.6c-0.2,0-0.4-0.1-0.5-0.3c-0.2-0.3-0.1-0.7,0.1-0.9l28.3-20.5c0.2-0.2,0.6-0.3,0.9,0
			s0.3,0.6,0,0.9c0,0-0.1,0.1-0.2,0.1l-28.3,20.5C358.5,286.5,358.4,286.6,358.3,286.6z"/>
		<path class="st3" d="M353.6,299c-0.3,0-0.6-0.3-0.6-0.7c0-0.3,0.2-0.5,0.4-0.6L385,289c0.3-0.1,0.7,0.1,0.8,0.4
			c0.1,0.3-0.1,0.7-0.4,0.8l-31.6,8.8C353.7,299,353.6,299,353.6,299z"/>
		<path class="st3" d="M355.3,294.5c-0.2,0-0.4-0.1-0.5-0.3l-16.6-27.4c-0.2-0.3-0.1-0.7,0.2-0.9c0,0,0,0,0,0
			c0.3-0.2,0.7-0.1,0.9,0.2l16.6,27.4c0.2,0.3,0.1,0.7-0.2,0.9C355.5,294.4,355.4,294.5,355.3,294.5z"/>
		<path class="st3" d="M345.4,314.6c-0.3,0-0.6-0.4-0.5-0.7c0-0.3,0.3-0.5,0.5-0.5l28-0.7c0.3,0,0.6,0.3,0.6,0.6
			c0,0.3-0.3,0.6-0.6,0.6L345.4,314.6L345.4,314.6z"/>
		<path class="st3" d="M348.8,308c-0.2,0-0.3-0.1-0.5-0.2l-15.9-17.5c-0.2-0.2-0.2-0.6,0-0.9c0.3-0.2,0.7-0.2,0.9,0c0,0,0,0,0,0
			l15.9,17.5c0.2,0.3,0.1,0.7-0.1,0.9C349,307.9,348.9,307.9,348.8,308L348.8,308z"/>
		<path class="st3" d="M339.2,323c-0.2,0-0.3-0.1-0.4-0.2l-12.9-12.9c-0.2-0.3-0.2-0.7,0-0.9c0.2-0.2,0.6-0.2,0.8,0l12.9,12.9
			c0.2,0.2,0.2,0.6,0,0.9C339.6,322.9,339.4,323,339.2,323z"/>
		<path class="st3" d="M333.7,333.2c-0.3,0-0.6-0.3-0.6-0.7c0-0.3,0.2-0.5,0.5-0.6l16.1-1.7c0.3,0,0.6,0.3,0.6,0.6
			c0,0.3-0.2,0.6-0.5,0.6L333.7,333.2L333.7,333.2z"/>
		<path class="st3" d="M330.7,337c-0.2,0-0.4-0.1-0.5-0.2l-13.7-16.3c-0.2-0.3-0.2-0.7,0.1-0.9c0.3-0.2,0.7-0.2,0.9,0.1c0,0,0,0,0,0
			l13.7,16.3c0.2,0.3,0.2,0.7-0.1,0.9C330.9,336.9,330.8,337,330.7,337z"/>
		<path class="st1" d="M119.6,245.9c2.8,6.9,5.7,1.4,5.2-27.7c-0.2-13.6-1.2-41.4-16.2-35.3c-14.4,5.9,4.6,47,4.6,47L119.6,245.9z
			 M99,250c0,0-31.4-32.7-19.6-43c12.3-10.7,22.2,15.3,26.8,28.1c9.9,27.3,8.9,33.5,4,27.9L99,250z M92.3,279.3
			c0,0-28.7-20.5-21.2-30c7.8-9.9,19.2,8.5,24.6,17.6c11.5,19.5,11.7,24.3,7.1,20.7L92.3,279.3z M84.6,308.6c0,0-28.7-20.5-21.2-30
			c7.8-9.9,19.2,8.5,24.6,17.6c11.5,19.5,11.7,24.3,7.1,20.7L84.6,308.6z M134.7,249.8c0,0,40.2-20.9,46.7-6.8
			c6.8,14.8-20.9,17-34.5,17.8c-29,1.8-34.7-0.8-27.9-4L134.7,249.8z M129.1,272.8c0,0,43.6-12.5,47.1,2.7
			c3.7,15.8-23.9,12.5-37.4,10.6c-28.8-4-33.8-7.7-26.5-9.4L129.1,272.8z M119.1,297.9c0,0,37.1-9.6,39.8,3.4
			c2.8,13.5-20.5,10-31.8,8.1c-24.2-4-28.4-7.3-22.2-8.6L119.1,297.9z M113.3,318.6c0,0,35.9-13.4,40-0.8
			c4.2,13.1-19.3,12.1-30.8,11.4c-24.5-1.5-29-4.2-23-6.2L113.3,318.6z M137.3,213.6c0,0,16.4-50.9,35-41.7
			c19.4,9.6-3,32.6-14.2,43.6c-23.9,23.5-31.3,25.1-28.1,16.9L137.3,213.6z"/>
		<path class="st2" d="M119.6,245.9c2.8,6.9,5.7,1.4,5.2-27.7c-0.2-13.6-1.2-41.4-16.2-35.3c-14.4,5.9,4.6,47,4.6,47L119.6,245.9z
			 M99,250c0,0-31.4-32.7-19.6-43c12.3-10.7,22.2,15.3,26.8,28.1c9.9,27.3,8.9,33.5,4,27.9L99,250z M92.3,279.3
			c0,0-28.7-20.5-21.2-30c7.8-9.9,19.2,8.5,24.6,17.6c11.5,19.5,11.7,24.3,7.1,20.7L92.3,279.3z M84.6,308.6c0,0-28.7-20.5-21.2-30
			c7.8-9.9,19.2,8.5,24.6,17.6c11.5,19.5,11.7,24.3,7.1,20.7L84.6,308.6z M134.7,249.8c0,0,40.2-20.9,46.7-6.8
			c6.8,14.8-20.9,17-34.5,17.8c-29,1.8-34.7-0.8-27.9-4L134.7,249.8z M129.1,272.8c0,0,43.6-12.5,47.1,2.7
			c3.7,15.8-23.9,12.5-37.4,10.6c-28.8-4-33.8-7.7-26.5-9.4L129.1,272.8z M119.1,297.9c0,0,37.1-9.6,39.8,3.4
			c2.8,13.5-20.5,10-31.8,8.1c-24.2-4-28.4-7.3-22.2-8.6L119.1,297.9z M113.3,318.6c0,0,35.9-13.4,40-0.8
			c4.2,13.1-19.3,12.1-30.8,11.4c-24.5-1.5-29-4.2-23-6.2L113.3,318.6z M137.3,213.6c0,0,16.4-50.9,35-41.7
			c19.4,9.6-3,32.6-14.2,43.6c-23.9,23.5-31.3,25.1-28.1,16.9L137.3,213.6z"/>
		<path class="st3" d="M93,354.4L93,354.4c-0.3,0-0.6-0.3-0.6-0.7c1.5-26.7,9-59,20.6-88.5c9.8-24.9,50.7-75,51.1-75.5
			c0.2-0.3,0.6-0.3,0.9-0.1c0,0,0,0,0,0c0.3,0.2,0.3,0.6,0.1,0.9c-0.4,0.5-41.2,50.4-50.9,75.2c-11.5,29.4-19,61.5-20.5,88.1
			C93.6,354.1,93.3,354.4,93,354.4z"/>
		<path class="st3" d="M121.7,249.7c-0.3,0-0.6-0.2-0.6-0.5l-5.7-47.9c0-0.3,0.2-0.7,0.5-0.7c0.3,0,0.7,0.2,0.7,0.5l5.7,47.9
			C122.4,249.3,122.1,249.6,121.7,249.7L121.7,249.7z"/>
		<path class="st3" d="M113.5,266.1c-0.2,0-0.4-0.1-0.6-0.3l-20.7-40.2c-0.2-0.3,0-0.7,0.3-0.8c0,0,0,0,0,0c0.3-0.1,0.7,0,0.9,0.3
			l20.7,40.2c0.2,0.3,0,0.7-0.3,0.8c0,0,0,0,0,0C113.7,266,113.6,266,113.5,266.1z"/>
		<path class="st3" d="M116.6,260.1c-0.3,0-0.6-0.2-0.6-0.5c-0.1-0.3,0.2-0.7,0.5-0.7l43.4-8.8c0.3-0.1,0.7,0.1,0.8,0.4
			s-0.1,0.7-0.4,0.8c0,0-0.1,0-0.1,0l-43.4,8.8L116.6,260.1z"/>
		<path class="st3" d="M105.4,288.9c-0.2,0-0.3-0.1-0.5-0.2l-25.5-29c-0.2-0.3-0.2-0.7,0.1-0.9s0.7-0.2,0.9,0.1l0,0l25.5,29
			c0.2,0.3,0.1,0.7-0.1,0.9C105.6,288.8,105.5,288.8,105.4,288.9L105.4,288.9z"/>
		<path class="st3" d="M109,279.3c-0.3,0-0.6-0.3-0.6-0.6c0,0,0,0,0,0c0-0.3,0.3-0.6,0.6-0.6l32.7-0.3l0,0c0.3,0,0.6,0.3,0.6,0.6
			c0,0,0,0,0,0c0,0.3-0.3,0.6-0.6,0.6L109,279.3z"/>
		<path class="st3" d="M127.7,304.1L127.7,304.1l-25.1-1c-0.3-0.1-0.6-0.4-0.5-0.7c0-0.3,0.3-0.5,0.6-0.5l25.1,1
			c0.3,0,0.6,0.3,0.6,0.6C128.4,303.8,128.1,304.1,127.7,304.1z"/>
		<path class="st3" d="M97.5,318.2c-0.2,0-0.4-0.1-0.5-0.3l-13.4-17.9c-0.2-0.3-0.2-0.7,0.1-0.9c0,0,0,0,0,0
			c0.3-0.2,0.7-0.1,0.9,0.1L98,317.2c0.2,0.3,0.1,0.7-0.1,0.9C97.8,318.2,97.6,318.2,97.5,318.2z"/>
		<path class="st3" d="M96.5,324.9c-0.3,0-0.6-0.3-0.6-0.6c0-0.3,0.2-0.6,0.6-0.6c0,0,0,0,0,0l29.4-1.5c0.3,0,0.6,0.2,0.7,0.6
			c0,0,0,0,0,0c0,0.3-0.3,0.6-0.6,0.7c0,0,0,0,0,0L96.5,324.9L96.5,324.9z"/>
		<path class="st1" d="M40.5,285.5c5.1,1.9,3.5-2.4-12.2-16.4c-7.3-6.6-22.6-19.7-26.7-8.7c-4,10.6,27.3,20.6,27.3,20.6L40.5,285.5z
			 M32.5,298.5c0,0-32.8,0.6-32.5-10.7c0.3-11.8,19-4.3,28.1-0.4c19.4,8.2,22.2,11.7,16.8,11.5L32.5,298.5z M44.9,316.5
			c0,0-25,5.2-26.4-3.5c-1.4-9,13.9-6,21.4-4.4c16,3.5,18.7,5.7,14.5,6.4L44.9,316.5z M56.6,335c0,0-25,5.2-26.4-3.5
			c-1.4-9,13.9-6,21.4-4.4c16,3.5,18.7,5.7,14.5,6.4L56.6,335z M50,279.4c0,0,8.6-31.7,19.4-28.2c11.2,3.6-1.3,19.5-7.5,27.1
			c-13.3,16.3-17.5,18-15.8,12.9L50,279.4z M59.5,293.8c0,0,14.7-29.3,24.6-23.8c10.3,5.8-5.1,18.8-12.7,25.1
			c-16.3,13.3-20.7,14.2-18.1,9.5L59.5,293.8z M67.9,311.4c0,0,13.1-24.5,21.4-19.5c8.5,5.1-4.8,15.8-11.3,20.9
			c-14.1,10.9-17.8,11.5-15.5,7.6L67.9,311.4z M76.1,324.7c0,0,10.5-25.7,19.2-21.7c9,4.2-3.1,16.2-9.1,22
			c-12.8,12.3-16.5,13.4-14.6,9.2L76.1,324.7z M32.1,260.3c0,0-19-33.8-5-39.1c14.6-5.6,15.9,17.6,16.2,29c0.7,24.2-2,29-4.8,23.3
			L32.1,260.3z"/>
		<path class="st4" d="M40.5,285.5c5.1,1.9,3.5-2.4-12.2-16.4c-7.3-6.6-22.6-19.7-26.7-8.7c-4,10.6,27.3,20.6,27.3,20.6L40.5,285.5z
			 M32.5,298.5c0,0-32.8,0.6-32.5-10.7c0.3-11.8,19-4.3,28.1-0.4c19.4,8.2,22.2,11.7,16.8,11.5L32.5,298.5z M44.9,316.5
			c0,0-25,5.2-26.4-3.5c-1.4-9,13.9-6,21.4-4.4c16,3.5,18.7,5.7,14.5,6.4L44.9,316.5z M56.6,335c0,0-25,5.2-26.4-3.5
			c-1.4-9,13.9-6,21.4-4.4c16,3.5,18.7,5.7,14.5,6.4L56.6,335z M50,279.4c0,0,8.6-31.7,19.4-28.2c11.2,3.6-1.3,19.5-7.5,27.1
			c-13.3,16.3-17.5,18-15.8,12.9L50,279.4z M59.5,293.8c0,0,14.7-29.3,24.6-23.8c10.3,5.8-5.1,18.8-12.7,25.1
			c-16.3,13.3-20.7,14.2-18.1,9.5L59.5,293.8z M67.9,311.4c0,0,13.1-24.5,21.4-19.5c8.5,5.1-4.8,15.8-11.3,20.9
			c-14.1,10.9-17.8,11.5-15.5,7.6L67.9,311.4z M76.1,324.7c0,0,10.5-25.7,19.2-21.7c9,4.2-3.1,16.2-9.1,22
			c-12.8,12.3-16.5,13.4-14.6,9.2L76.1,324.7z M32.1,260.3c0,0-19-33.8-5-39.1c14.6-5.6,15.9,17.6,16.2,29c0.7,24.2-2,29-4.8,23.3
			L32.1,260.3z"/>
		<path class="st3" d="M86.1,354.8c-0.2,0-0.3-0.1-0.4-0.2c-13.8-14.3-28.5-35.7-38.3-55.9c-8.5-17.5-15-63.9-15.1-64.3
			c0-0.3,0.2-0.7,0.5-0.7c0.3,0,0.7,0.2,0.7,0.5c0.1,0.5,6.6,46.7,14.9,64c9.7,20.1,24.3,41.4,38,55.6c0.2,0.2,0.2,0.6,0,0.9
			C86.4,354.7,86.2,354.8,86.1,354.8z"/>
		<path class="st3" d="M43.2,286.6c-0.1,0-0.3,0-0.4-0.1L14.6,266c-0.3-0.2-0.4-0.5-0.3-0.8s0.5-0.4,0.8-0.3c0.1,0,0.1,0.1,0.2,0.1
			l28.3,20.5c0.3,0.2,0.3,0.6,0.1,0.9C43.6,286.5,43.4,286.6,43.2,286.6z"/>
		<path class="st3" d="M47.9,299c-0.1,0-0.1,0-0.2,0l-31.6-8.8c-0.3-0.1-0.5-0.4-0.4-0.8c0.1-0.3,0.4-0.5,0.8-0.4l31.6,8.8
			c0.3,0.1,0.5,0.5,0.4,0.8C48.4,298.8,48.2,299,47.9,299z"/>
		<path class="st3" d="M46.2,294.5c-0.1,0-0.2,0-0.3-0.1c-0.3-0.2-0.4-0.6-0.2-0.9l16.6-27.4c0.1-0.3,0.5-0.5,0.8-0.3
			c0.3,0.1,0.5,0.5,0.3,0.8c0,0,0,0.1-0.1,0.1l-16.6,27.4C46.6,294.3,46.4,294.5,46.2,294.5z"/>
		<path class="st3" d="M56,314.6L56,314.6l-28-0.7c-0.3,0-0.6-0.3-0.6-0.6c0-0.3,0.3-0.6,0.7-0.6l28,0.7c0.3,0,0.6,0.3,0.6,0.6
			c0,0,0,0,0,0C56.7,314.3,56.4,314.6,56,314.6C56,314.6,56,314.6,56,314.6z"/>
		<path class="st3" d="M52.7,308c-0.3,0-0.6-0.3-0.6-0.6c0-0.1,0.1-0.3,0.1-0.4l15.9-17.6c0.2-0.3,0.6-0.3,0.9-0.1c0,0,0,0,0,0
			c0.2,0.2,0.2,0.6,0,0.9l-15.9,17.6C53,307.9,52.9,307.9,52.7,308z"/>
		<path class="st3" d="M62.2,323c-0.3,0-0.6-0.3-0.6-0.6c0-0.2,0.1-0.3,0.2-0.4l12.9-12.9c0.3-0.2,0.7-0.2,0.9,0
			c0.2,0.2,0.2,0.6,0,0.8l-12.9,12.8C62.6,322.9,62.4,323,62.2,323z"/>
		<path class="st3" d="M67.8,333.2L67.8,333.2l-16.2-1.7c-0.3-0.1-0.6-0.4-0.5-0.7c0.1-0.3,0.3-0.5,0.6-0.5l16.1,1.7
			c0.3,0.1,0.6,0.4,0.5,0.7C68.3,332.9,68.1,333.2,67.8,333.2z"/>
		<path class="st3" d="M70.8,337c-0.1,0-0.3-0.1-0.4-0.1c-0.3-0.2-0.3-0.6-0.1-0.9L84,319.6c0.2-0.3,0.6-0.3,0.9-0.1c0,0,0,0,0,0
			c0.3,0.2,0.3,0.6,0.1,0.9l-13.7,16.3C71.2,336.9,71,337,70.8,337z"/>
	</g>
	<g id="freepik--Character--inject-369_1_">
		<rect x="133.8" y="242.5" class="st5" width="105.7" height="21.6"/>
		<path class="st0" d="M239.5,264.6H133.8c-0.3,0-0.5-0.2-0.5-0.5v-21.6c0-0.3,0.2-0.5,0.5-0.5h105.7c0.3,0,0.5,0.2,0.5,0.5v21.6
			C240,264.4,239.8,264.6,239.5,264.6z M134.3,263.6H239V243H134.3V263.6z"/>
		<path class="st0" d="M153.4,248.6h-18.6c-0.3,0-0.5-0.2-0.5-0.5s0.2-0.5,0.5-0.5h18.6c0.3,0,0.5,0.2,0.5,0.5
			S153.7,248.6,153.4,248.6z"/>
		<path class="st0" d="M162.1,254.5h-2.5c-0.3,0-0.5-0.2-0.5-0.5s0.2-0.5,0.5-0.5h2.5c0.3,0,0.5,0.2,0.5,0.5
			S162.4,254.5,162.1,254.5z"/>
		<path class="st0" d="M155.4,254.5h-20.8c-0.3,0-0.5-0.2-0.5-0.5c0-0.3,0.2-0.5,0.5-0.5h20.8c0.3,0,0.5,0.2,0.5,0.5
			S155.7,254.5,155.4,254.5z"/>
		<path class="st0" d="M143.6,260.6H135c-0.3,0-0.5-0.2-0.5-0.5s0.2-0.5,0.5-0.5h8.6c0.3,0,0.5,0.2,0.5,0.5
			C144.1,260.4,143.9,260.6,143.6,260.6z"/>
		<path class="st5" d="M217.8,243.2c-1.8,6.7-1.8,13.7,0,20.4h42.6c0,0-4.5-12.9,0-20.4H217.8z"/>
		<path class="st0" d="M260.4,264.1h-42.6c-0.2,0-0.4-0.1-0.5-0.4c-1.8-6.8-1.8-13.9,0-20.7c0.1-0.2,0.3-0.4,0.5-0.4h42.6
			c0.3,0,0.5,0.2,0.5,0.5c0,0.1,0,0.2-0.1,0.2c-4.3,7.2,0,19.9,0,20c0.1,0.3-0.1,0.5-0.3,0.6C260.5,264.1,260.4,264.1,260.4,264.1
			L260.4,264.1z M218.2,263.1h41.5c-0.8-2.7-3.5-12.7-0.2-19.4h-41.4C216.6,250.1,216.6,256.7,218.2,263.1z"/>
		<g>
			<defs>
				<path id="SVGID_1_" d="M217.8,243.2c-1.8,6.7-1.8,13.7,0,20.4h42.6c0,0-4.5-12.9,0-20.4H217.8z"/>
			</defs>
			<defs>
				<path id="SVGID_2_" d="M260.4,264.1h-42.6c-0.2,0-0.4-0.1-0.5-0.4c-1.8-6.8-1.8-13.9,0-20.7c0.1-0.2,0.3-0.4,0.5-0.4h42.6
					c0.3,0,0.5,0.2,0.5,0.5c0,0.1,0,0.2-0.1,0.2c-4.3,7.2,0,19.9,0,20c0.1,0.3-0.1,0.5-0.3,0.6C260.5,264.1,260.4,264.1,260.4,264.1
					L260.4,264.1z M218.2,263.1h41.5c-0.8-2.7-3.5-12.7-0.2-19.4h-41.4C216.6,250.1,216.6,256.7,218.2,263.1z"/>
			</defs>
			<clipPath id="SVGID_3_">
				<use xlink:href="#SVGID_1_"  style="overflow:visible;"/>
			</clipPath>
			<clipPath id="SVGID_4_" class="st6">
				<use xlink:href="#SVGID_2_"  style="overflow:visible;"/>
			</clipPath>
			<g class="st7">
				<g class="st8">
					<path d="M217.8,243.2c-1.8,6.7-1.8,13.7,0,20.4h42.6c0,0-4.5-12.9,0-20.4H217.8z"/>
					<path class="st0" d="M260.4,264.1h-42.6c-0.2,0-0.4-0.1-0.5-0.4c-1.8-6.8-1.8-13.9,0-20.7c0.1-0.2,0.3-0.4,0.5-0.4h42.6
						c0.3,0,0.5,0.2,0.5,0.5c0,0.1,0,0.2-0.1,0.2c-4.3,7.2,0,19.9,0,20c0.1,0.3-0.1,0.5-0.3,0.6
						C260.5,264.1,260.4,264.1,260.4,264.1L260.4,264.1z M218.2,263.1h41.5c-0.8-2.7-3.5-12.7-0.2-19.4h-41.4
						C216.6,250.1,216.6,256.7,218.2,263.1z"/>
				</g>
			</g>
		</g>
		<path class="st0" d="M135,260.1v-14.8c0-0.8,0.6-1.4,1.4-1.4h125.7c0.6,0,1-0.4,1-1l0,0c0-0.6-0.4-1-1-1H133
			c-0.8,0-1.4,0.6-1.4,1.4v18.8c0,1.2,1,2.2,2.2,2.2c0,0,0,0,0,0h128.3c0.6,0,1-0.4,1-1l0,0c0-0.6-0.4-1-1-1H137.3
			C136,262.4,135,261.4,135,260.1C135,260.1,135,260.1,135,260.1z"/>
		<path class="st0" d="M262.1,264.9H133.9c-1.5,0-2.7-1.2-2.7-2.7v-18.9c0-1,0.8-1.9,1.9-1.9h129.1c0.8-0.1,1.6,0.6,1.7,1.4
			c0.1,0.8-0.6,1.6-1.4,1.7c-0.1,0-0.2,0-0.2,0H136.4c-0.5,0-0.9,0.4-0.9,0.9v14.8c0,0.9,0.8,1.7,1.7,1.7h124.9
			c0.8-0.1,1.6,0.6,1.7,1.4c0.1,0.8-0.6,1.6-1.4,1.7C262.3,264.9,262.2,264.9,262.1,264.9z M133.1,242.4c-0.5,0-0.9,0.4-0.9,0.9
			v18.9c0,0.9,0.8,1.7,1.7,1.7h128.2c0.3,0,0.6-0.2,0.6-0.5c0-0.3-0.2-0.6-0.5-0.6c0,0-0.1,0-0.1,0H137.3c-1.5,0-2.7-1.2-2.7-2.7
			c0,0,0,0,0,0v-14.8c0-1,0.8-1.9,1.9-1.9h125.7c0.3,0,0.6-0.2,0.6-0.5c0-0.3-0.2-0.6-0.5-0.6c0,0-0.1,0-0.1,0H133.1z"/>
		<rect x="133.8" y="287.1" class="st5" width="105.7" height="21.6"/>
		<path class="st0" d="M239.5,309.3H133.8c-0.3,0-0.5-0.2-0.5-0.5v-21.6c0-0.3,0.2-0.5,0.5-0.5h105.7c0.3,0,0.5,0.2,0.5,0.5v21.6
			C240,309,239.8,309.3,239.5,309.3z M134.3,308.3H239v-20.6H134.3V308.3z"/>
		<path class="st0" d="M154.1,291.8h-18.6c-0.3,0-0.5-0.2-0.5-0.5s0.2-0.5,0.5-0.5h18.6c0.3,0,0.5,0.2,0.5,0.5
			S154.4,291.8,154.1,291.8z"/>
		<path class="st0" d="M162.8,297.7h-2.5c-0.3,0-0.5-0.2-0.5-0.5c0-0.3,0.2-0.5,0.5-0.5h2.5c0.3,0,0.5,0.2,0.5,0.5
			S163.1,297.7,162.8,297.7z"/>
		<path class="st0" d="M156.1,297.7h-20.8c-0.3,0-0.5-0.2-0.5-0.5s0.2-0.5,0.5-0.5h20.8c0.3,0,0.5,0.2,0.5,0.5
			S156.4,297.7,156.1,297.7z"/>
		<path class="st0" d="M144.3,303.8h-8.6c-0.3,0-0.5-0.2-0.5-0.5s0.2-0.5,0.5-0.5h8.6c0.3,0,0.5,0.2,0.5,0.5
			S144.5,303.8,144.3,303.8z"/>
		<path class="st5" d="M218.5,287.9c-1.8,6.7-1.8,13.7,0,20.4h41.9c0,0-4.5-12.9,0-20.4H218.5z"/>
		<path class="st0" d="M260.4,308.8h-41.9c-0.2,0-0.4-0.2-0.5-0.4c-1.8-6.8-1.8-13.9,0-20.7c0.1-0.2,0.3-0.3,0.5-0.3h41.9
			c0.2,0,0.3,0.1,0.4,0.3c0.1,0.2,0.1,0.4,0,0.5c-4.3,7.2,0,19.8,0,20c0.1,0.2,0,0.3-0.1,0.5C260.7,308.7,260.5,308.8,260.4,308.8z
			 M218.9,307.8h40.9c-0.8-2.7-3.5-12.7-0.2-19.4h-40.7C217.3,294.7,217.3,301.4,218.9,307.8z"/>
		<g>
			<defs>
				<path id="SVGID_5_" d="M218.5,287.9c-1.8,6.7-1.8,13.7,0,20.4h41.9c0,0-4.5-12.9,0-20.4H218.5z"/>
			</defs>
			<defs>
				<path id="SVGID_6_" d="M260.4,308.8h-41.9c-0.2,0-0.4-0.2-0.5-0.4c-1.8-6.8-1.8-13.9,0-20.7c0.1-0.2,0.3-0.3,0.5-0.3h41.9
					c0.2,0,0.3,0.1,0.4,0.3c0.1,0.2,0.1,0.4,0,0.5c-4.3,7.2,0,19.8,0,20c0.1,0.2,0,0.3-0.1,0.5C260.7,308.7,260.5,308.8,260.4,308.8
					z M218.9,307.8h40.9c-0.8-2.7-3.5-12.7-0.2-19.4h-40.7C217.3,294.7,217.3,301.4,218.9,307.8z"/>
			</defs>
			<clipPath id="SVGID_7_">
				<use xlink:href="#SVGID_5_"  style="overflow:visible;"/>
			</clipPath>
			<clipPath id="SVGID_8_" class="st9">
				<use xlink:href="#SVGID_6_"  style="overflow:visible;"/>
			</clipPath>
			<g class="st10">
				<g class="st8">
					<path d="M218.5,287.9c-1.8,6.7-1.8,13.7,0,20.4h41.9c0,0-4.5-12.9,0-20.4H218.5z"/>
					<path class="st0" d="M260.4,308.8h-41.9c-0.2,0-0.4-0.2-0.5-0.4c-1.8-6.8-1.8-13.9,0-20.7c0.1-0.2,0.3-0.3,0.5-0.3h41.9
						c0.2,0,0.3,0.1,0.4,0.3c0.1,0.2,0.1,0.4,0,0.5c-4.3,7.2,0,19.8,0,20c0.1,0.2,0,0.3-0.1,0.5
						C260.7,308.7,260.5,308.8,260.4,308.8z M218.9,307.8h40.9c-0.8-2.7-3.5-12.7-0.2-19.4h-40.7
						C217.3,294.7,217.3,301.4,218.9,307.8z"/>
				</g>
			</g>
		</g>
		<path class="st0" d="M135,304.8V290c0-0.8,0.6-1.4,1.4-1.4h125.7c0.6,0,1-0.4,1-1l0,0c0-0.6-0.4-1-1-1H133c-0.8,0-1.4,0.6-1.4,1.4
			v18.9c0,1.2,1,2.2,2.2,2.2h128.3c0.6,0,1-0.4,1-1l0,0c0-0.6-0.4-1-1-1H137.3c-1.2,0-2.2-1-2.2-2.2C135,304.9,135,304.8,135,304.8z
			"/>
		<path class="st0" d="M262.1,309.5H133.9c-1.5,0-2.7-1.2-2.7-2.7v-18.9c0-1,0.8-1.9,1.9-1.9h129.1c0.8-0.1,1.6,0.6,1.7,1.4
			c0.1,0.8-0.6,1.6-1.4,1.7c-0.1,0-0.2,0-0.2,0H136.4c-0.5,0-0.9,0.4-0.9,0.9v14.8c0,0.9,0.8,1.7,1.7,1.7h124.9
			c0.8-0.1,1.6,0.6,1.7,1.4c0.1,0.8-0.6,1.6-1.4,1.7C262.3,309.5,262.2,309.5,262.1,309.5z M133.1,287c-0.5,0-0.9,0.4-0.9,0.9v18.9
			c0,0.9,0.8,1.7,1.7,1.7h128.2c0.3,0,0.6-0.2,0.6-0.5c0-0.3-0.2-0.6-0.5-0.6c0,0-0.1,0-0.1,0H137.3c-1.5,0-2.7-1.2-2.7-2.7V290
			c0-1,0.8-1.9,1.9-1.9h125.7c0.3,0,0.6-0.2,0.6-0.5c0-0.3-0.2-0.6-0.5-0.6c0,0-0.1,0-0.1,0H133.1z"/>
		<path class="st5" d="M135.1,329.4c0.7-2.5,3.5-12.8,0.1-19.3h121.7v19.3H135.1z"/>
		<path class="st0" d="M256.9,329.9H135.1c-0.2,0-0.3-0.1-0.4-0.2c-0.1-0.1-0.1-0.3-0.1-0.5c0.6-2,3.4-12.5,0.1-19
			c-0.1-0.2-0.1-0.3,0-0.5c0.1-0.1,0.3-0.2,0.4-0.2h121.7c0.3,0,0.5,0.2,0.5,0.5v19.3C257.4,329.6,257.2,329.9,256.9,329.9
			C256.9,329.9,256.9,329.9,256.9,329.9z M135.8,328.9h120.6v-18.3H136C138.7,316.8,136.8,325.5,135.8,328.9z"/>
		<path class="st0" d="M207.8,314.8h-18.6c-0.3,0-0.5-0.2-0.5-0.5s0.2-0.5,0.5-0.5h18.6c0.3,0,0.5,0.2,0.5,0.5
			S208,314.8,207.8,314.8z"/>
		<path class="st0" d="M183,320.8h-2.5c-0.3,0-0.5-0.2-0.5-0.5s0.2-0.5,0.5-0.5h2.5c0.3,0,0.5,0.2,0.5,0.5S183.3,320.8,183,320.8z"
			/>
		<path class="st0" d="M208.1,320.8h-20.8c-0.3,0-0.5-0.2-0.5-0.5s0.2-0.5,0.5-0.5h20.8c0.3,0,0.5,0.2,0.5,0.5
			C208.6,320.5,208.3,320.8,208.1,320.8z"/>
		<path class="st0" d="M207.6,326.8h-8.6c-0.3,0-0.5-0.2-0.5-0.5s0.2-0.5,0.5-0.5h8.6c0.3,0,0.5,0.2,0.5,0.5
			S207.9,326.8,207.6,326.8z"/>
		<path class="st0" d="M208.5,327.4v-14.8c0-0.8-0.6-1.4-1.4-1.4h-74.4c-0.6,0-1-0.4-1-1l0,0c0-0.6,0.4-1,1-1h129.1
			c0.8,0,1.4,0.6,1.4,1.4v18.9c0,1.2-1,2.2-2.2,2.2H132.7c-0.6,0-1-0.4-1-1l0,0c0-0.6,0.4-1,1-1h73.6c1.2,0,2.2-1,2.2-2.2
			C208.5,327.5,208.5,327.5,208.5,327.4z"/>
		<path class="st0" d="M260.9,332.2H132.7c-0.8,0.1-1.6-0.6-1.7-1.4c-0.1-0.8,0.6-1.6,1.4-1.7c0.1,0,0.2,0,0.2,0h73.6
			c0.9,0,1.7-0.8,1.7-1.7v-14.8c0-0.5-0.4-0.9-0.8-0.9h-74.5c-0.8,0.1-1.6-0.6-1.7-1.4c-0.1-0.8,0.6-1.6,1.4-1.7c0.1,0,0.2,0,0.2,0
			h129.1c1,0,1.9,0.8,1.9,1.9v18.9C263.6,331,262.4,332.2,260.9,332.2L260.9,332.2z M132.7,330.1c-0.3,0-0.6,0.2-0.6,0.5
			c0,0.3,0.2,0.6,0.5,0.6c0,0,0.1,0,0.1,0h128.3c0.9,0,1.7-0.8,1.7-1.7v-18.9c0-0.5-0.4-0.9-0.9-0.9H132.7c-0.3,0-0.6,0.2-0.6,0.5
			c0,0.3,0.2,0.6,0.5,0.6c0,0,0.1,0,0.1,0h74.5c1,0,1.9,0.8,1.9,1.9v14.8c0,1.5-1.2,2.7-2.7,2.7H132.7z"/>
		<path class="st5" d="M135.1,352c0.7-2.5,3.5-12.8,0.1-19.3h121.7V352H135.1z"/>
		<path class="st0" d="M256.9,352.5H135.1c-0.2,0-0.3-0.1-0.4-0.2c-0.1-0.1-0.1-0.3-0.1-0.4c0.6-2,3.4-12.5,0.1-19
			c-0.1-0.2-0.1-0.3,0-0.5c0.1-0.1,0.3-0.2,0.4-0.2h121.7c0.3,0,0.5,0.2,0.5,0.5V352C257.4,352.3,257.2,352.5,256.9,352.5
			C256.9,352.5,256.9,352.5,256.9,352.5z M135.8,351.5h120.6v-18.3H136C138.7,339.4,136.8,348.1,135.8,351.5z"/>
		<path class="st0" d="M207.7,337.6h-18.6c-0.3,0-0.5-0.2-0.5-0.5s0.2-0.5,0.5-0.5h18.6c0.3,0,0.5,0.2,0.5,0.5
			C208.2,337.4,208,337.6,207.7,337.6z"/>
		<path class="st0" d="M183,343.5h-2.5c-0.3,0-0.5-0.2-0.5-0.5s0.2-0.5,0.5-0.5h2.5c0.3,0,0.5,0.2,0.5,0.5S183.2,343.5,183,343.5z"
			/>
		<path class="st0" d="M208,343.5h-20.8c-0.3,0-0.5-0.2-0.5-0.5s0.2-0.5,0.5-0.5H208c0.3,0,0.5,0.2,0.5,0.5S208.3,343.5,208,343.5
			L208,343.5z"/>
		<path class="st0" d="M207.6,349.7H199c-0.3,0-0.5-0.2-0.5-0.5s0.2-0.5,0.5-0.5h8.6c0.3,0,0.5,0.2,0.5,0.5S207.8,349.7,207.6,349.7
			z"/>
		<path class="st1" d="M208.5,350.1v-14.8c0-0.8-0.6-1.4-1.4-1.4h-74.4c-0.6,0-1-0.4-1-1l0,0c0-0.6,0.4-1,1-1h129.1
			c0.8,0,1.4,0.6,1.4,1.4v18.8c0,1.2-1,2.2-2.2,2.2c0,0,0,0,0,0H132.7c-0.6,0-1-0.4-1-1l0,0c0-0.6,0.4-1,1-1h73.6
			C207.5,352.4,208.5,351.4,208.5,350.1C208.5,350.1,208.5,350.1,208.5,350.1z"/>
		<path class="st0" d="M260.9,354.9H132.7c-0.8,0.1-1.6-0.6-1.7-1.4c-0.1-0.8,0.6-1.6,1.4-1.7c0.1,0,0.2,0,0.2,0h73.6
			c0.9,0,1.7-0.8,1.7-1.7v-14.8c0-0.5-0.4-0.9-0.9-0.9h-74.4c-0.8,0.1-1.6-0.6-1.7-1.4c-0.1-0.8,0.6-1.6,1.4-1.7c0.1,0,0.2,0,0.2,0
			h129.1c1,0,1.9,0.8,1.9,1.9v18.9C263.6,353.7,262.4,354.9,260.9,354.9z M132.7,352.8c-0.3,0-0.6,0.2-0.6,0.5
			c0,0.3,0.2,0.6,0.5,0.6c0,0,0.1,0,0.1,0h128.3c0.9,0,1.7-0.8,1.7-1.7v-18.9c0-0.5-0.4-0.9-0.9-0.9H132.7c-0.3,0-0.6,0.2-0.6,0.5
			c0,0.3,0.2,0.6,0.5,0.6c0,0,0.1,0,0.1,0h74.5c1,0,1.9,0.8,1.9,1.9v14.8c0,1.5-1.2,2.7-2.7,2.7H132.7z"/>
		<path class="st5" d="M135.1,284c0.7-2.5,3.5-12.8,0.1-19.3h121.7V284H135.1z"/>
		<path class="st0" d="M256.9,284.5H135.1c-0.2,0-0.3-0.1-0.4-0.2c-0.1-0.1-0.1-0.3-0.1-0.4c0.6-2,3.4-12.5,0.1-19
			c-0.1-0.2-0.1-0.3,0-0.5c0.1-0.1,0.3-0.2,0.4-0.2h121.7c0.3,0,0.5,0.2,0.5,0.5V284C257.4,284.3,257.2,284.5,256.9,284.5
			C256.9,284.5,256.9,284.5,256.9,284.5z M135.8,283.5h120.6v-18.3H136C138.7,271.4,136.8,280.1,135.8,283.5z"/>
		<path class="st0" d="M208,269.5h-18.6c-0.3,0-0.5-0.2-0.5-0.5s0.2-0.5,0.5-0.5H208c0.3,0,0.5,0.2,0.5,0.5S208.3,269.5,208,269.5z"
			/>
		<path class="st0" d="M183.3,275.4h-2.5c-0.3,0-0.5-0.2-0.5-0.5c0-0.3,0.2-0.5,0.5-0.5h2.5c0.3,0,0.5,0.2,0.5,0.5
			S183.6,275.4,183.3,275.4z"/>
		<path class="st0" d="M208.3,275.4h-20.8c-0.3,0-0.5-0.2-0.5-0.5c0-0.3,0.2-0.5,0.5-0.5h20.8c0.3,0,0.5,0.2,0.5,0.5
			S208.6,275.4,208.3,275.4z"/>
		<path class="st0" d="M207.9,281.6h-8.6c-0.3,0-0.5-0.2-0.5-0.5c0-0.3,0.2-0.5,0.5-0.5h8.6c0.3,0,0.5,0.2,0.5,0.5
			C208.4,281.3,208.2,281.6,207.9,281.6z"/>
		<path class="st1" d="M208.5,282.1v-14.8c0-0.8-0.6-1.4-1.4-1.4h-74.4c-0.6,0-1-0.4-1-1l0,0c0-0.6,0.4-1,1-1h129.1
			c0.8,0,1.4,0.6,1.4,1.4v18.8c0,1.2-1,2.2-2.2,2.2c0,0,0,0,0,0H132.7c-0.6,0-1-0.4-1-1l0,0c0-0.6,0.4-1,1-1h73.6
			C207.5,284.4,208.5,283.4,208.5,282.1C208.5,282.1,208.5,282.1,208.5,282.1z"/>
		<path class="st0" d="M260.9,286.9H132.7c-0.8,0.1-1.6-0.6-1.7-1.4c-0.1-0.8,0.6-1.6,1.4-1.7c0.1,0,0.2,0,0.2,0h73.6
			c0.9,0,1.7-0.8,1.7-1.7v-14.8c0-0.5-0.4-0.9-0.9-0.9h-74.4c-0.8,0.1-1.6-0.6-1.7-1.4c-0.1-0.8,0.6-1.6,1.4-1.7c0.1,0,0.2,0,0.2,0
			h129.1c1,0,1.9,0.8,1.9,1.9v18.9C263.6,285.7,262.4,286.9,260.9,286.9z M132.7,284.8c-0.3,0-0.6,0.2-0.6,0.5
			c0,0.3,0.2,0.6,0.5,0.6c0,0,0.1,0,0.1,0h128.3c0.9,0,1.7-0.8,1.7-1.7v-18.9c0-0.5-0.4-0.9-0.9-0.9H132.7c-0.3,0-0.6,0.2-0.6,0.5
			c0,0.3,0.2,0.6,0.5,0.6c0,0,0.1,0,0.1,0h74.5c1,0,1.9,0.8,1.9,1.9v14.8c0,1.5-1.2,2.7-2.7,2.7H132.7z"/>
		<path class="st0" d="M179.8,194c0,0-10.3,0.3-25.3-3.3s-27.3-1-29.7,13.3s36,29,62.7,34.3s53.3,7.7,66.3,2s12.7-26,7.7-35.3
			s-21.7-10.7-30.3-9.3S179.8,194,179.8,194z"/>
		<path class="st0" d="M232.2,244.2c-15.3,0-33.1-3-44.8-5.3c-26.9-5.4-65.5-20.2-63.1-34.9c0.9-5.5,3.3-9.6,7.2-12.1
			c5.2-3.5,13.2-4,23.1-1.6c14.8,3.6,25.1,3.3,25.2,3.3l0,0c0.4,0,42.7,3,51.2,1.7c7.8-1.2,25.5-0.4,30.9,9.6
			c3.1,5.8,4.7,16.3,1.7,25c-1.8,5.3-5.1,9.1-9.6,11C248.5,243.3,240.7,244.2,232.2,244.2z M143.5,189.8c-4.6,0-8.5,1-11.4,2.9
			c-3.6,2.4-5.9,6.3-6.7,11.5c-2.2,13.5,34.8,28.3,62.3,33.8c18.1,3.6,50.8,8.7,66,2c4.2-1.8,7.3-5.4,9-10.4
			c2.9-8.4,1.4-18.7-1.6-24.2c-5.1-9.5-22.3-10.2-29.8-9.1c-8.6,1.3-49.4-1.5-51.4-1.7c-0.6,0-10.9,0.2-25.4-3.3
			C150.8,190.3,147.1,189.8,143.5,189.8z"/>
		<path class="st0" d="M247.1,131.4c-1.4-9.6-2.9-19.2-4.3-28.8c-1.3-8.9-1.9-18.5-4.2-27.2c-3-13-7.5-20-21-22.5
			s-28.5,12-28.5,18.5s4.6,21.2-2.5,44.3c-2.4,7.9,7,9,18.4,5.5L247.1,131.4z"/>
		<path class="st0" d="M247.1,131.9H247l-42-10.2c-8.5,2.6-15.2,2.5-18-0.3c-1.4-1.4-1.7-3.4-0.9-5.9c5.5-17.9,3.9-30.8,3-38.5
			c-0.3-1.8-0.4-3.7-0.5-5.6c0-3.1,3.3-8,8.1-12c3.2-2.7,11.7-8.7,21-7c14.1,2.6,18.5,10.4,21.4,22.9c1.5,6.2,2.5,12.4,3.1,18.8
			c0.3,2.8,0.7,5.7,1.1,8.5c0.8,5.2,1.5,10.4,2.3,15.6l2,13.2c0,0.2,0,0.3-0.1,0.4C247.4,131.8,247.3,131.9,247.1,131.9z
			 M205.1,120.6h0.1l41.4,10.1l-1.9-12.5c-0.8-5.2-1.6-10.4-2.3-15.6c-0.4-2.8-0.8-5.7-1.1-8.5c-0.6-6.3-1.6-12.5-3.1-18.6
			c-2.9-12.4-7-19.6-20.6-22.1c-6.2-1.1-13.7,1.4-20.2,6.8c-4.6,3.8-7.7,8.4-7.7,11.2c0.1,1.8,0.2,3.6,0.5,5.4
			c1,7.8,2.6,20.9-3,38.9c-0.7,2.1-0.4,3.8,0.7,4.9c2.4,2.5,9,2.4,17.1,0C205,120.7,205,120.7,205.1,120.6L205.1,120.6z"/>
		<path class="st1" d="M210.9,111.4c0,0-16.5,2.3-24.3,4.3s-10.5,4.8-13.3,10.1s-6.9,24.9-10.9,33.2s-11.3,10.4-12.5,19.2
			s5.8,11.8,11,12.8c3.9,0.7,7.8,1.1,11.8,1.3c0,0,8.5,20,25,21.5s28.8-10,36.3-14.3s8-14,8.3-25.3s6.9-36.6,5.1-43.6
			s-4.4-8.1-15.7-14C226.7,114.1,217.9,110.9,210.9,111.4z"/>
		<path class="st0" d="M200.6,214.3c-1,0-2,0-3-0.1c-15.5-1.4-24.1-19-25.3-21.5c-3.9-0.2-7.7-0.6-11.5-1.2
			c-4.8-0.9-12.8-3.9-11.4-13.3c0.8-5.2,3.6-8.2,6.5-11.3c2.4-2.3,4.5-5.1,6.1-8.1c2.1-4.4,4.3-12.1,6.3-19c1.7-6,3.4-11.7,4.6-14.2
			c2.8-5.2,5.6-8.3,13.6-10.4c7.7-2,24.1-4.2,24.3-4.3l0,0c6.9-0.5,15.6,2.5,20.9,5.3l1,0.5c10.4,5.3,13.2,6.8,15,13.8
			c1,4.1-0.7,13.7-2.4,24c-1.3,7.3-2.6,14.9-2.7,19.7c-0.2,10.4-0.5,21.1-8.5,25.7c-1.5,0.9-3.2,2-5.1,3.3
			C222,207.9,212.5,214.3,200.6,214.3z M210.9,111.9c-0.6,0.1-16.6,2.3-24.2,4.2c-7.7,2-10.3,4.8-13,9.8c-1.3,2.4-2.9,8.1-4.6,14
			c-2,6.9-4.2,14.7-6.4,19.1c-1.6,3.1-3.7,5.9-6.2,8.3c-3,3.1-5.6,5.9-6.2,10.8c-1.2,8.2,5.1,11.1,10.6,12.2
			c3.9,0.7,7.8,1.1,11.7,1.2c0.2,0,0.4,0.1,0.4,0.3c0.1,0.2,8.6,19.7,24.6,21.2c13,1.2,23.3-5.8,30.8-10.9c2-1.3,3.6-2.5,5.2-3.3
			c7-4,7.7-12.8,8-24.8c0.1-4.9,1.4-12.5,2.7-19.9c1.7-9.7,3.4-19.7,2.5-23.6c-1.6-6.6-4.1-7.8-14.5-13.1l-1-0.5
			C226.1,114.4,217.6,111.4,210.9,111.9z"/>
		<path class="st5" d="M159,164.1c-3.8,4.6-8.2,7.4-9.1,14.1c-0.2,1.3-0.2,2.7,0,4c1,1.5,4.2,5.2,10.3,3.4
			c7.6-2.2,6.8-12.8,2.2-19.4C161.6,165,160.4,164.3,159,164.1z"/>
		<path class="st0" d="M157.1,186.5c-3.1,0-5.9-1.6-7.6-4.1c0-0.1-0.1-0.1-0.1-0.2c-0.2-1.4-0.3-2.8-0.1-4.1
			c0.8-5.2,3.6-8.2,6.5-11.3c0.9-1,1.8-1.9,2.7-3c0.1-0.1,0.3-0.2,0.4-0.2c1.5,0.2,2.9,1,3.7,2.3c3.3,4.6,4.5,10.8,3,15
			c-0.8,2.5-2.9,4.5-5.4,5.2C159.3,186.3,158.2,186.5,157.1,186.5z M150.4,181.9c1,1.6,4,4.8,9.6,3.2c2.3-0.6,4.1-2.3,4.8-4.5
			c1.4-4,0.2-9.7-2.9-14.1c-0.6-1-1.6-1.6-2.8-1.9c-0.9,1-1.7,1.9-2.6,2.8c-3,3.1-5.6,5.9-6.2,10.8
			C150.2,179.4,150.2,180.7,150.4,181.9L150.4,181.9z"/>
		<path class="st5" d="M209.7,145.1c7-3.2,10.8-8.7,14-19.2c1.2-3.8,2.1-7.6,2.9-11.5c-4.8-1.8-10.7-3.4-15.7-3c0,0-7.1,1-14.2,2.2
			c-0.6,3.7-2,14.2-0.4,22C198.4,145.1,202.7,148.3,209.7,145.1z"/>
		<path class="st0" d="M205,146.8c-1.1,0-2.2-0.2-3.1-0.7c-2.8-1.4-4.8-4.9-6-10.5c-1.6-7.8-0.3-18.1,0.4-22.1
			c0-0.2,0.2-0.4,0.4-0.4c7-1.2,14.2-2.2,14.2-2.2c5.9-0.4,12.5,1.7,15.9,3c0.2,0.1,0.4,0.3,0.3,0.6c-0.7,3.9-1.7,7.8-2.9,11.6
			c-3.3,10.9-7.3,16.4-14.3,19.5l0,0C208.4,146.4,206.7,146.8,205,146.8z M197.1,114c-0.7,4.2-1.9,14-0.3,21.4
			c1.1,5.2,2.9,8.5,5.4,9.8c2,1,4.3,0.8,7.3-0.5c6.6-3,10.5-8.4,13.7-18.9c1.1-3.6,2-7.3,2.7-11c-3.4-1.3-9.6-3.2-15-2.8
			C210.9,111.9,204,112.8,197.1,114z M209.7,145.1"/>
		<path class="st0" d="M176.6,182.1c-0.1,0-0.1,0-0.2,0c-0.3-0.1-0.4-0.4-0.3-0.6c0,0,0,0,0,0c0.1-0.1,5-12.4,5-15.8
			c0-2.4-1.1-4.8-2.3-7.5c-0.6-1.2-1.1-2.4-1.6-3.8c-1.7-4.5,2.2-11.4,2.7-12.4c0.2-1.8,2.9-21.9,5.5-25.6c0.2-0.2,0.5-0.3,0.7-0.1
			c0,0,0,0,0,0c0.2,0.2,0.3,0.5,0.1,0.7c-2.5,3.6-5.4,25.1-5.4,25.3c0,0.1,0,0.1-0.1,0.2c0,0.1-4.4,7.4-2.7,11.6
			c0.5,1.3,1.1,2.6,1.6,3.8c1.3,2.9,2.4,5.4,2.4,7.9c0,3.6-4.8,15.7-5,16.2C177.1,182.1,176.9,182.2,176.6,182.1z"/>
		<path class="st5" d="M152.9,157.1l3.8-4c2.5,1.3,5.1,2.4,7.8,3.3c10.1,3.4,14.8,5.5,15.3,11.5c0,0,6.8-4.3,13.5-3.5
			s12.8,3.5,14.8,3.8l2,0.3l0.5,3.5l-3.8,19.8l-29.3-3l-20-17.5L152.9,157.1z"/>
		<path class="st0" d="M206.6,192.1L206.6,192.1l-29.3-3c-0.1,0-0.2-0.1-0.3-0.1l-20-17.5c-0.1-0.1-0.1-0.1-0.1-0.2l-4.5-14
			c-0.1-0.2,0-0.4,0.1-0.5l3.8-4c0.2-0.2,0.4-0.2,0.6-0.1c2.4,1.3,5,2.4,7.6,3.2c10,3.3,14.7,5.5,15.5,11.2
			c1.9-1.1,7.5-3.8,13.1-3.2c3.9,0.5,7.8,1.5,11.5,2.8c1.1,0.4,2.2,0.7,3.3,0.9l2,0.3c0.2,0,0.4,0.2,0.4,0.4l0.5,3.5
			c0,0.1,0,0.1,0,0.2l-3.8,19.8C207.1,192,206.9,192.1,206.6,192.1z M177.6,188.1l28.6,2.9l3.6-19.2l-0.4-3l-1.6-0.2
			c-1.2-0.2-2.3-0.6-3.5-1c-3.7-1.3-7.4-2.2-11.3-2.8c-6.5-0.7-13.1,3.4-13.2,3.4c-0.2,0.1-0.3,0.1-0.5,0c-0.2-0.1-0.3-0.2-0.3-0.4
			c-0.5-5.7-4.9-7.7-14.9-11.1c-2.6-0.8-5.1-1.8-7.5-3.1l-3.3,3.5l4.4,13.6L177.6,188.1z"/>
		<polygon class="st0" points="151.6,156.4 175.4,176.6 177.9,172.6 211.9,171.9 209.9,193.9 177.6,192.4 175.4,193.9 157.9,180.9 
					"/>
		<path class="st0" d="M209.9,194.4L209.9,194.4l-32.1-1.5l-2.1,1.4c-0.2,0.1-0.4,0.1-0.6,0l-17.5-13c-0.1-0.1-0.2-0.2-0.2-0.3
			l-6.3-24.5c-0.1-0.2,0-0.4,0.2-0.6c0.2-0.1,0.4-0.1,0.6,0.1l23.3,19.9l2.2-3.5c0.1-0.1,0.2-0.2,0.4-0.2l34-0.8
			c0.1,0,0.3,0.1,0.4,0.2c0.1,0.1,0.1,0.2,0.1,0.4l-2,22C210.3,194.2,210.1,194.4,209.9,194.4z M177.6,191.9L177.6,191.9l31.8,1.5
			l1.9-21l-33.2,0.7l-2.4,3.8c-0.1,0.1-0.2,0.2-0.3,0.2c-0.1,0-0.3,0-0.4-0.1l-22.5-19.2l5.8,22.8l17.1,12.7l1.9-1.3
			C177.4,191.9,177.5,191.9,177.6,191.9z"/>
		<path class="st5" d="M234.4,149.6l-0.5,28.5c0,0-14.8,8.3-23,10.5c-4.5,1.4-9.3,2.1-14,2.3c-0.8,0-4-5.3-5.8-7s-3.2-1.8-6.4-3.4
			c-4.5-2.2-6.4-2.6-6.1-1.6s0.5,2,2.8,3.3s3.8,2.3,3.8,2.3l0.5,1c0,0-5.5-0.8-7.8-1.3s-8-4.5-8-4.5s-2.4-0.1-0.7,2.9
			s3.4,3.1,3.4,3.1c0.3,1.8,1.2,3.5,2.5,4.8c1.1,1,2.3,1.9,3.5,2.8c0,0-4.8-1.3-4.3,0s3.5,1.8,7.3,3.5s12.3,2,17,2.8
			c8.6,1.1,17.3,1.3,26,0.5c10-1,25-7.8,27.8-10s1-27.5,0.3-33.3s-2.3-16.5-3.3-21.5s-5-12-7.5-13.5S234.9,124.9,234.4,149.6z"/>
		<path class="st0" d="M214.1,200.9c-5.2,0-10.4-0.3-15.6-1c-1.4-0.2-3.3-0.4-5.2-0.6c-4.4-0.4-9.3-0.9-12-2.2
			c-1.4-0.6-2.6-1.1-3.7-1.5c-2.1-0.8-3.4-1.3-3.8-2.3c-0.1-0.3-0.1-0.6,0.1-0.9c0.4-0.4,1.4-0.4,2.5-0.3c-0.5-0.4-1.1-0.9-1.7-1.4
			c-1.3-1.3-2.2-2.9-2.6-4.7c-0.7-0.2-2.1-0.9-3.4-3.3c-0.7-1.3-0.9-2.2-0.5-2.9c0.4-0.5,1-0.8,1.6-0.7c0.1,0,0.2,0,0.3,0.1
			c0.1,0,5.7,3.9,7.8,4.4c1.6,0.4,5.1,0.9,6.8,1.1l0,0c-0.4-0.3-1.7-1.1-3.6-2.2c-2.4-1.4-2.7-2.5-3-3.6c-0.1-0.3,0-0.7,0.3-0.9
			c0.3-0.3,1-0.8,6.6,2c1.1,0.6,2,0.9,2.7,1.2c1.4,0.5,2.7,1.2,3.8,2.3c1,1.2,2,2.4,2.9,3.7c0.8,1.2,1.6,2.2,2.6,3.2
			c4.7-0.2,9.3-0.9,13.8-2.3c7.5-2,20.7-9.2,22.6-10.3l0.5-28.2l0,0c0.3-16.1,2.5-26.5,6-28.4c0.7-0.4,1.6-0.4,2.3,0
			c2.7,1.6,6.7,8.9,7.7,13.8s2.5,15.9,3.3,21.5c0.3,2.6,2.9,31-0.4,33.7c-2.9,2.4-18.1,9.1-28,10.1
			C221.1,200.8,217.6,200.9,214.1,200.9z M175,193.1c0.4,0.5,1.6,1,3.1,1.5c1.1,0.4,2.4,0.9,3.8,1.5c2.5,1.2,7.4,1.7,11.6,2.1
			c1.9,0.2,3.8,0.4,5.2,0.6c8.6,1.1,17.3,1.3,25.9,0.5c9.8-1,24.7-7.6,27.5-9.9c2.4-1.9,1-25.4,0.1-32.8c-0.7-5.6-2.2-16.4-3.2-21.5
			s-5-11.8-7.3-13.2c-0.4-0.2-0.9-0.2-1.3,0c-1.2,0.6-5,4.5-5.5,27.6l-0.5,28.5c0,0.2-0.1,0.3-0.3,0.4c-0.1,0.1-14.9,8.3-23.1,10.6
			c-4.6,1.4-9.3,2.1-14.1,2.3c-0.6,0-1.2-0.7-3.3-3.6c-0.9-1.2-1.8-2.4-2.8-3.6c-1-0.9-2.2-1.6-3.4-2c-0.8-0.3-1.7-0.7-2.8-1.3
			c-3.8-1.9-5-2.1-5.4-2.1c0.2,0.9,0.5,1.8,2.5,2.8c2.2,1.3,3.8,2.3,3.8,2.3c0.1,0.1,0.1,0.1,0.2,0.2l0.5,1c0.1,0.2,0.1,0.4,0,0.5
			c-0.1,0.2-0.3,0.2-0.5,0.2c-0.2,0-5.5-0.8-7.8-1.3s-7.1-3.9-8-4.5c-0.2,0-0.5,0.1-0.6,0.3c-0.1,0.1-0.2,0.6,0.5,1.8
			c1.6,2.7,3.1,2.9,3.1,2.9c0.2,0,0.4,0.2,0.4,0.4c0.3,1.7,1.1,3.2,2.3,4.5c1.1,1,2.2,1.9,3.4,2.7c0.2,0.2,0.3,0.5,0.1,0.7
			c-0.1,0.2-0.3,0.3-0.6,0.2C177.4,193.3,176.2,193.1,175,193.1L175,193.1z M233.9,178.1"/>
		<path class="st5" d="M172.6,185.6c0,0,5.9,3.5,10.4,4.5"/>
		<path class="st0" d="M183.1,190.6h-0.1c-4.5-1-10.3-4.4-10.6-4.6c-0.2-0.1-0.3-0.4-0.2-0.7c0.1-0.2,0.4-0.3,0.7-0.2c0,0,0,0,0,0
			c0.1,0,5.9,3.5,10.3,4.5c0.3,0,0.5,0.3,0.4,0.6C183.6,190.5,183.3,190.7,183.1,190.6L183.1,190.6z"/>
		<path class="st5" d="M178.6,193.1c1.9,0.7,3.9,1.1,5.9,1.2"/>
		<path class="st0" d="M184.5,194.9c-2.1-0.1-4.1-0.5-6.1-1.3c-0.3-0.1-0.4-0.4-0.3-0.6c0.1-0.3,0.4-0.4,0.6-0.3c0,0,0,0,0,0
			c1.8,0.7,3.8,1.1,5.7,1.2c0.3,0,0.5,0.2,0.5,0.5S184.8,194.9,184.5,194.9L184.5,194.9z"/>
		<path class="st5" d="M173.4,188.2c3.1,2.2,6.7,3.8,10.4,4.7"/>
		<path class="st0" d="M183.8,193.4h-0.1c-3.8-0.9-7.4-2.6-10.5-4.8c-0.2-0.2-0.3-0.5-0.1-0.7c0.2-0.2,0.5-0.3,0.7-0.1
			c3.1,2.2,6.5,3.7,10.2,4.6c0.3,0.1,0.4,0.3,0.4,0.6c0,0,0,0,0,0C184.3,193.2,184,193.4,183.8,193.4z"/>
		<path class="st1" d="M227.6,199.4c9.8-1.8,22.3-7.5,24.8-9.6c2.8-2.3,1-27.5,0.3-33.3s-2.3-16.5-3.3-21.5s-5-12-7.5-13.5
			s-7,3.3-7.5,28l-0.5,28.5c0,0-5.7,3.2-12,6.2C224.3,186.9,228.4,192.5,227.6,199.4z"/>
		<path class="st0" d="M227.6,199.9c-0.1,0-0.2,0-0.3-0.1c-0.1-0.1-0.2-0.3-0.1-0.4c0.7-6.7-3.2-12.1-5.7-14.8
			c-0.1-0.1-0.1-0.3-0.1-0.4c0-0.2,0.1-0.3,0.3-0.4c5.5-2.6,10.6-5.4,11.8-6l0.5-28.2c0.3-16.1,2.5-26.5,6-28.4
			c0.7-0.4,1.6-0.4,2.3,0c2.7,1.6,6.7,8.9,7.7,13.8s2.5,15.9,3.3,21.5c0.3,2.6,2.9,31-0.4,33.7c-2.7,2.2-15.3,7.9-25,9.7
			L227.6,199.9z M222.6,184.5c2.5,2.8,6,8,5.5,14.4c10-2,21.7-7.5,23.9-9.3c2.4-1.9,1-25.4,0.1-32.8c-0.7-5.6-2.2-16.4-3.2-21.5
			s-5-11.8-7.3-13.2c-0.4-0.2-0.9-0.2-1.3,0c-1.2,0.6-5,4.5-5.5,27.6l-0.5,28.5c0,0.2-0.1,0.3-0.3,0.4
			C234.1,178.6,228.7,181.6,222.6,184.5L222.6,184.5z"/>
		<path class="st5" d="M202,108.4c0,0-2.2,13-2.5,21s5.8,16.1,14.3,5.8S221,108,221,108C215,110.8,208.1,110.9,202,108.4z"/>
		<path class="st0" d="M206.3,140.6c-0.6,0-1.3-0.1-1.9-0.4c-3.2-1.2-5.4-5.8-5.3-10.8c0.2-8,2.4-21,2.5-21.1c0-0.1,0.1-0.3,0.3-0.4
			c0.1-0.1,0.3-0.1,0.4,0c6,2.4,12.7,2.3,18.6-0.4c0.2-0.1,0.5,0,0.7,0.2c0,0.1,0,0.1,0.1,0.2c0.1,0.7,1.3,17.3-7.3,27.6
			C211,139.5,208.3,140.6,206.3,140.6z M202.4,109.1c-0.4,2.7-2.2,13.4-2.4,20.3c-0.1,4.7,1.8,8.8,4.7,9.9c2.6,1,5.6-0.6,8.8-4.4
			c7.3-8.8,7.2-22.8,7.1-26.2C214.8,111.2,208.3,111.3,202.4,109.1L202.4,109.1z"/>
		<path class="st0" d="M202.5,125.2L202.5,125.2c-0.4,0-0.5-0.3-0.5-0.6c0,0,0,0,0,0c0.6-3.7,0.2-10.5,0.2-10.6
			c0-0.3,0.2-0.5,0.4-0.5c0,0,0,0,0,0c0.3,0,0.5,0.2,0.5,0.5c0,0.3,0.5,7-0.2,10.8C202.9,125.1,202.7,125.2,202.5,125.2z"/>
		<path class="st5" d="M152.3,175.5c-0.4,1.1-0.2,2.4,0.4,3.4c1,1.6,6.4,4.8,6.4,3.6s-2.7-3-2.8-3.9c-0.2-0.8-0.5-1.5-0.9-2.2
			C155.4,176.4,153.5,174,152.3,175.5z"/>
		<path class="st0" d="M158.7,183.2c-1.6,0-5.5-2.6-6.4-4.1c-0.7-1.2-0.8-2.6-0.4-3.9c0,0,0-0.1,0.1-0.1c0.3-0.4,0.8-0.7,1.3-0.7
			l0,0c1.2,0,2.4,1.4,2.5,1.6c0.5,0.7,0.8,1.6,1,2.4c0.3,0.5,0.6,0.9,1,1.3c0.9,0.9,1.8,1.8,1.8,2.7c0,0.4-0.2,0.7-0.6,0.8
			C158.9,183.2,158.8,183.2,158.7,183.2z M152.8,175.8c-0.3,1-0.1,2,0.4,2.9c0.8,1.3,4.3,3.4,5.4,3.6c-0.4-0.7-0.8-1.3-1.4-1.8
			c-0.6-0.5-1.1-1.1-1.3-1.8c-0.2-0.7-0.4-1.4-0.8-2c-0.4-0.6-1-1-1.7-1.1C153,175.5,152.9,175.6,152.8,175.8z"/>
		<path class="st5" d="M149.8,168.1c0,0-0.2,3.7,0.4,5.4s7.3,6.4,9,5.5s-3.6-5.5-4.8-6.9C152.9,170.6,151.4,169.3,149.8,168.1z"/>
		<path class="st0" d="M158.6,179.6c-0.6,0-1.2-0.2-1.8-0.4c-2.5-1-6.6-3.9-7.2-5.5c-0.7-1.8-0.4-5.5-0.4-5.6c0-0.2,0.1-0.4,0.3-0.4
			c0.2-0.1,0.4,0,0.5,0.1c1.7,1.3,3.2,2.6,4.7,4.1c0.3,0.3,0.7,0.7,1.2,1.3c2.4,2.4,4.3,4.4,4.1,5.6c0,0.4-0.3,0.7-0.6,0.8
			C159.2,179.5,158.9,179.6,158.6,179.6z M150.2,169.1c-0.1,1.4,0,2.9,0.4,4.3c0.4,1.1,4,3.9,6.6,4.9c1.2,0.5,1.6,0.3,1.7,0.3
			c0.2-0.9-2.4-3.6-3.7-4.8c-0.5-0.5-1-1-1.3-1.3C152.8,171.2,151.6,170.1,150.2,169.1L150.2,169.1z"/>
		<path class="st5" d="M149.8,163.6c0,0-0.5,3.7,0,5.4s6.9,6.9,8.6,6.1s-3.2-5.7-4.3-7.2C152.8,166.3,151.3,164.9,149.8,163.6z"/>
		<path class="st0" d="M158,175.7c-0.7,0-1.3-0.2-1.9-0.5c-2.5-1.2-6.4-4.4-6.8-6c-0.5-1.9,0-5.5,0-5.7c0-0.2,0.1-0.3,0.3-0.4
			c0.2-0.1,0.4,0,0.5,0.1c1.6,1.4,3,2.8,4.4,4.4c0.2,0.3,0.6,0.8,1.1,1.3c2.2,2.6,3.9,4.6,3.6,5.9c-0.1,0.3-0.3,0.6-0.6,0.8
			C158.4,175.6,158.2,175.7,158,175.7z M150.1,164.6c-0.2,1.4-0.2,2.9,0.1,4.3c0.3,1.1,3.7,4.1,6.3,5.4c1.2,0.6,1.6,0.4,1.7,0.4
			c0.3-0.9-2.2-3.7-3.4-5.1c-0.5-0.6-0.9-1.1-1.2-1.4C152.6,166.9,151.4,165.7,150.1,164.6z"/>
		<path class="st5" d="M152.8,159.4c0,0-3.8-2-4.4,0.5s2.3,5.2,4.9,7.4s3.8,1.8,3.8-0.3S152.8,159.4,152.8,159.4z"/>
		<path class="st0" d="M156.1,169.2c-1.2-0.2-2.2-0.7-3.1-1.6c-3.1-2.5-5.8-5.1-5.1-7.9c0.1-0.6,0.6-1.2,1.1-1.4
			c1.5-0.7,3.8,0.5,4,0.6c0.1,0,0.1,0.1,0.2,0.1c0.5,0.6,4.4,5.8,4.4,7.9c0,1.1-0.3,1.8-0.9,2.1
			C156.5,169.1,156.3,169.2,156.1,169.2z M150.1,159.1c-0.2,0-0.5,0-0.7,0.1c-0.3,0.1-0.5,0.4-0.6,0.8c-0.5,2.2,2.1,4.7,4.8,6.9
			c1.9,1.5,2.5,1.4,2.6,1.3s0.3-0.5,0.3-1.2c0-1.5-2.9-5.6-4.1-7.2C151.7,159.4,150.9,159.2,150.1,159.1L150.1,159.1z"/>
		<path class="st5" d="M152.5,238.8c0,0-5,2.7-14.3,3s-17-4.7-12.7-8.7c4.6-4.2,10.8-6.2,17-5.3c6,1,15,3.3,15,3.3L152.5,238.8z"/>
		<path class="st0" d="M137.3,242.2c-6.3,0-12-2.3-13.3-5.5c-0.6-1.5-0.1-3.1,1.1-4.1c4.7-4.3,11.1-6.3,17.4-5.5c6,1,15,3.3,15,3.3
			c0.2,0,0.3,0.2,0.3,0.3c0.1,0.2,0,0.3-0.1,0.5l-5,7.7c0,0.1-0.1,0.1-0.2,0.2c-0.2,0.1-5.2,2.7-14.6,3.1L137.3,242.2z M139.6,228
			c-5.1,0.1-10,2-13.8,5.4c-1,0.7-1.3,1.9-0.9,3c1,2.5,6.4,5.1,13.2,4.8c8.4-0.3,13.2-2.5,14-2.9l4.5-7c-2.2-0.5-9.3-2.3-14.3-3.1
			C141.5,228.1,140.5,228,139.6,228z M152.5,238.8"/>
		<path class="st5" d="M153.8,230.4c0.4,0,0.9,0.1,1.4,0.1c-3.1-0.8-8.6-2.1-12.8-2.8c-6.2-0.8-12.4,1.1-17,5.3
			c-2.2,2-1.3,4.3,1.4,6.1c-0.3-2.9,1.3-5.6,4-6.7C136.5,229.8,148.1,229.8,153.8,230.4z"/>
		<path class="st0" d="M126.8,239.6c-0.1,0-0.2,0-0.3-0.1c-1.7-1.1-2.7-2.4-2.8-3.8c0-1.2,0.5-2.3,1.4-3.1
			c4.7-4.3,11.1-6.3,17.4-5.5c4.1,0.7,9.8,2,12.8,2.8c0.3,0.1,0.4,0.3,0.4,0.6c-0.1,0.2-0.3,0.4-0.5,0.4c-0.5,0-1,0-1.4-0.1l0,0
			c-6-0.7-17.4-0.6-22.7,2c-2.5,1-4,3.5-3.7,6.2c0,0.2-0.1,0.4-0.2,0.5C127,239.6,126.9,239.6,126.8,239.6z M139.6,228
			c-5.1,0.1-10,2-13.8,5.4c-0.7,0.5-1.1,1.4-1.1,2.3c0.2,1,0.7,1.9,1.6,2.4c0.1-2.7,1.7-5.2,4.3-6.2c4.6-2.2,12.7-2.6,18.5-2.4
			c-2.3-0.5-4.7-1-6.7-1.4C141.5,228.1,140.5,228,139.6,228z"/>
		<path class="st0" d="M256.8,211c0,0-10,15-20,21s-55.7,6.7-65,6.7h-19.3v-7c0,0,30.7-4.4,47.7-14s26-20.3,39.3-24.7s25,3,24.7,21"
			/>
		<path class="st0" d="M171.8,239.2h-19.3c-0.3,0-0.5-0.2-0.5-0.5v-7c0-0.2,0.2-0.5,0.4-0.5c0.3,0,30.8-4.4,47.5-13.9
			c6.3-3.7,12.3-7.7,18.1-12.1c7.3-5.4,13.5-10,21.4-12.6c6.7-2.2,13-1.5,17.6,2c5.1,3.8,7.9,10.7,7.7,19.5c0,0.3-0.2,0.5-0.5,0.5
			c0,0,0,0,0,0c-0.3,0-0.5-0.2-0.5-0.5c0,0,0,0,0,0c0.2-8.4-2.4-15.1-7.3-18.7c-4.4-3.3-10.3-3.9-16.7-1.8
			c-7.6,2.5-13.9,7.1-21.1,12.4c-5.8,4.4-11.9,8.5-18.2,12.2c-15.8,9-43.6,13.4-47.4,14v6.1h18.8c0.5,0,53.9-0.1,64.7-6.6
			c9.8-5.9,19.7-20.7,19.8-20.8c0.2-0.2,0.5-0.3,0.7-0.1c0.2,0.1,0.3,0.4,0.1,0.7c0,0,0,0,0,0c-0.1,0.1-10.2,15.2-20.2,21.1
			C226,239.1,172.4,239.2,171.8,239.2z"/>
		<path class="st5" d="M220.9,237.4c-0.3,0-0.5-0.2-0.5-0.5c0-0.3,0.2-0.5,0.5-0.5c10.8-1.9,20.9-6.8,28.9-14.3
			c0.2-0.2,0.5-0.2,0.7,0c0,0,0,0,0,0c0.2,0.2,0.2,0.5,0,0.7c0,0,0,0,0,0c-8.2,7.6-18.4,12.7-29.4,14.5L220.9,237.4z"/>
		<path class="st5" d="M253.8,219c-0.1,0-0.2,0-0.3-0.1c-0.2-0.2-0.3-0.5-0.1-0.7c1-1.2,2-2.6,2.8-4c0.1-0.2,0.4-0.3,0.7-0.2
			c0.2,0.1,0.4,0.4,0.2,0.7c0,0,0,0,0,0c-0.8,1.5-1.8,2.9-2.9,4.2C254.1,218.9,254,219,253.8,219z"/>
		<path class="st5" d="M190.1,222.4c-0.3,0-0.5-0.2-0.5-0.5s0.2-0.5,0.5-0.5c5.7-0.4,11.2-2.4,15.7-5.9c0.2-0.2,0.5-0.2,0.7,0
			c0,0,0,0,0,0c0.2,0.2,0.1,0.5-0.1,0.7C201.8,219.9,196.1,222,190.1,222.4z"/>
		<path class="st0" d="M146.6,196.8l-1.1-0.1"/>
		<path class="st0" d="M146.6,197.3L146.6,197.3l-1.1-0.1c-0.3,0-0.5-0.3-0.5-0.5c0-0.3,0.3-0.5,0.5-0.5l1.1,0.1
			c0.3,0,0.5,0.3,0.5,0.5S146.8,197.3,146.6,197.3L146.6,197.3z"/>
		<path class="st5" d="M240.5,240c5-1.8,10.1-3.1,15.3-4c7-1,12.7,0,14.7,4.3s0.7,9.7-6.3,11s-19.7-1.3-21-1.3
			c-1.2-0.1-2.3-0.5-3.3-1L240.5,240z"/>
		<path class="st0" d="M259.4,252.3c-4.7-0.1-9.3-0.6-13.9-1.4c-1.2-0.2-2.1-0.3-2.4-0.3c-1.2-0.1-2.4-0.5-3.6-1
			c-0.2-0.1-0.3-0.3-0.3-0.5l0.7-9c0-0.2,0.1-0.4,0.3-0.4c5-1.8,10.2-3.1,15.4-4c8-1.1,13.3,0.5,15.2,4.6c1.1,2.3,1.2,5,0.1,7.3
			c-0.8,1.6-2.6,3.6-6.8,4.4C262.6,252.2,261,252.3,259.4,252.3z M240.3,248.8c0.9,0.4,1.8,0.7,2.8,0.8c0.8,0.1,1.7,0.2,2.5,0.3
			c4.2,0.7,13.1,2,18.4,1c3-0.6,5.1-1.9,6.1-3.9c0.9-2,0.9-4.4-0.1-6.4c-2.2-4.7-8.9-4.8-14.1-4c-5.1,0.9-10.1,2.2-14.9,3.9
			L240.3,248.8z"/>
		<path class="st5" d="M262.4,235.8c2.1,0.8,6.1,3.1,5.4,8.3c-1,7-9.3,7-15,7c-0.4,0-0.8,0.1-1.2,0.2c4.2,0.5,9.1,0.8,12.6,0.2
			c7-1.3,8.3-6.7,6.3-11C269.1,237.5,266.2,236.1,262.4,235.8z"/>
		<path class="st0" d="M259.4,252.3c-2.6,0-5.3-0.2-7.9-0.5c-0.2,0-0.4-0.2-0.4-0.5c0-0.2,0.1-0.5,0.4-0.5c0.4-0.1,0.9-0.2,1.4-0.2
			c5.7,0,13.6,0,14.5-6.6c0.7-4.8-2.9-6.9-5.1-7.7c-0.2-0.1-0.4-0.3-0.3-0.6c0.1-0.2,0.3-0.4,0.5-0.4c4.3,0.4,7.2,2,8.5,4.9
			c1.1,2.3,1.2,5,0.1,7.3c-0.8,1.6-2.6,3.6-6.8,4.4C262.6,252.1,261,252.3,259.4,252.3z M259.3,251.3c1.6,0,3.2-0.1,4.8-0.4
			c3-0.6,5.1-1.9,6.1-3.9c0.9-2,0.9-4.4-0.1-6.4c-0.9-1.9-2.7-3.3-4.7-3.8c2.3,1.6,3.5,4.5,3,7.3C267.6,249,263.6,250.7,259.3,251.3
			z"/>
		<path class="st0" d="M142.8,189.4c0,0-11.3-2-18.7,3.7c-7.3,5.7-6.3,11.7,0.7,20.3c7,8.7,25,24,64,31s51,4.7,51,4.7l0.7-9
			c-16.7,0.1-33.1-5.2-46.7-15c-21.8-16-31.6-26.5-47.2-28.2"/>
		<path class="st0" d="M233,249.9c-7.2,0-20.9-0.9-44.3-5.1c-41.3-7.4-58.7-24.3-64.3-31.2c-4.4-5.5-6.2-9.5-5.8-13.2
			c0.3-2.8,2-5.4,5.2-7.8c7.4-5.7,18.6-3.9,19.1-3.8c0.3,0,0.4,0.3,0.4,0.5c0,0,0,0,0,0c0,0.3-0.3,0.5-0.6,0.4c0,0,0,0,0,0
			c-0.1,0-11.2-1.9-18.3,3.6c-2.9,2.3-4.5,4.6-4.8,7.1c-0.4,3.3,1.4,7.3,5.6,12.5c5.5,6.8,22.7,23.5,63.7,30.8
			c34.8,6.2,48.1,5,50.4,4.7l0.6-8c-16.7-0.1-32.9-5.4-46.4-15.1c-4.9-3.6-9.3-7-13.2-10c-13.1-10.1-21.8-16.9-33.8-18.2
			c-0.3,0-0.5-0.3-0.4-0.6c0-0.3,0.3-0.5,0.6-0.4c12.3,1.3,21,8.1,34.3,18.4c3.9,3,8.2,6.4,13.2,10c13.5,9.7,29.7,14.9,46.3,14.9
			c0.1,0,0.3,0,0.4,0.1c0.1,0.1,0.1,0.2,0.1,0.4l-0.7,9c0,0.2-0.2,0.4-0.4,0.5C237.6,249.9,235.3,250,233,249.9z"/>
		<path class="st5" d="M138.6,197.9c-0.2,0-0.5-0.2-0.5-0.4c-0.1-0.3,0.1-0.5,0.4-0.6c0,0,0,0,0,0c1.2-0.2,2.4-0.4,3.6-0.4
			c0.3,0,0.5,0.2,0.5,0.5c0,0.3-0.2,0.5-0.5,0.5c0,0,0,0,0,0C141.1,197.5,139.9,197.7,138.6,197.9L138.6,197.9z"/>
		<path class="st5" d="M235.6,240.4L235.6,240.4c-0.2,0-23.5-0.7-49.3-20.6c-18-13.8-28.9-20.1-37.7-21.9c-0.3-0.1-0.5-0.3-0.4-0.6
			s0.3-0.5,0.6-0.4c9,1.7,20.1,8.1,38.2,22c25.6,19.7,48.5,20.4,48.7,20.4c0.3,0,0.5,0.2,0.5,0.5c0,0,0,0,0,0
			C236.2,240.2,235.9,240.4,235.6,240.4z"/>
		<path class="st5" d="M235.4,94.5c-6.1,3.2-7-3.3-7-7.2c0.1,0,0.1-0.1,0.1-0.2c0.4-1.8,0-10.8-5.2-14.4c-4.6-3.2-10.6-5.9-16.2-5.9
			c-4,0-7.5,2.5-9.6,5.8c-2.5,3.8-2.3,8.3-2.5,12.7s-0.6,9.3,0.3,13.7c1.2,5.9,6.7,18.3,13.4,18.3c6.1,0,16.9-9.1,20.5-14.4
			c0.8-0.3,1.6-0.7,2.3-1.3C232.9,100.4,235.6,98.5,235.4,94.5z"/>
		<path class="st0" d="M208.7,117.8c-7.2,0-12.8-13.2-13.9-18.7c-0.8-3.9-0.6-8.1-0.4-12.1l0.1-1.8l0.1-1.8
			c0.1-3.8,0.3-7.8,2.6-11.2c2.5-3.7,6.2-6,10-6l0,0c5,0,11,2.2,16.5,6s5.9,13,5.4,14.9c0,0.1-0.1,0.2-0.1,0.2c0,2.2,0.3,5.9,2.2,7
			c1,0.6,2.3,0.4,4-0.5c0.1-0.1,0.3-0.1,0.5,0c0.1,0.1,0.2,0.2,0.3,0.4c0.2,3.9-2.3,6-3.8,7.2l-0.3,0.3c-0.7,0.6-1.4,1.1-2.3,1.4
			C226,108.4,215.2,117.8,208.7,117.8z M207.1,67.4c-3.5,0-6.9,2.1-9.2,5.5c-2.1,3.2-2.2,6.8-2.4,10.7l-0.1,1.8l-0.1,1.8
			c-0.2,4-0.4,8,0.3,11.8c1.3,6.2,6.8,17.9,12.9,17.9c5.7,0,16.3-8.6,20.1-14.2c0.1-0.1,0.2-0.2,0.3-0.2c0.8-0.3,1.5-0.7,2.1-1.2
			l0.3-0.3c1.3-1.1,3.3-2.7,3.4-5.6c-1.3,0.7-2.9,0.8-4.3,0.1c-2.2-1.4-2.7-5.1-2.7-8.1c0-0.1,0.1-0.3,0.2-0.4
			c0.4-1.7-0.1-10.4-5-13.8C217.8,69.5,212,67.4,207.1,67.4L207.1,67.4z"/>
		<path class="st0" d="M207.1,101c-0.4,0-0.8-0.1-1.1-0.2c-0.2-0.1-0.4-0.4-0.4-0.6c-0.2-1,1.9-7.7,2.6-9.7c0.1-0.3,0.4-0.4,0.6-0.3
			c0.3,0.1,0.4,0.4,0.3,0.6c0,0,0,0,0,0c-1.3,4-2.6,8.6-2.5,9.2c1,0.1,2-0.1,2.9-0.4c0.3-0.1,0.5,0.1,0.6,0.3c0,0,0,0,0,0
			c0.1,0.3-0.1,0.5-0.3,0.6C208.9,100.8,208,100.9,207.1,101z"/>
		<path class="st0" d="M209.3,104.9c-1.2,0-2.4-0.3-3.5-1c-0.2-0.2-0.3-0.5-0.1-0.7c0.2-0.2,0.5-0.3,0.7-0.1l0,0
			c0.1,0.1,3.4,2.4,8.9-1.6c0.2-0.2,0.5-0.1,0.7,0.1v0c0.2,0.2,0.1,0.5-0.1,0.7C214,103.9,211.7,104.8,209.3,104.9z"/>
		<path class="st0" d="M219.7,96.5c-2.1,0.1-4.1-1-5.2-2.8c-0.1-0.2,0-0.5,0.2-0.7c0,0,0,0,0,0c0.2-0.1,0.5,0,0.7,0.2c0,0,0,0,0,0
			c0.1,0.2,1.9,3.7,7.6,1.5c0.3-0.1,0.5,0,0.6,0.3c0.1,0.3,0,0.5-0.3,0.6c0,0,0,0,0,0C222.2,96.2,221,96.5,219.7,96.5z"/>
		<path class="st0" d="M201.9,92c-4.3,0-5.3-3.2-5.3-3.3c-0.1-0.3,0.1-0.5,0.4-0.6c0.3-0.1,0.5,0.1,0.6,0.3c0,0.2,1.2,3.6,6.9,2.2
			c0.3-0.1,0.6,0.1,0.6,0.4s-0.1,0.6-0.4,0.6C203.8,91.9,202.8,92,201.9,92z"/>
		<path class="st0" d="M208.2,86c-0.2,0-0.4-0.2-0.5-0.4c0,0-1-3.3-3.5-4.4c-1.5-0.6-3.3-0.4-5.3,0.8c-0.2,0.1-0.5,0-0.7-0.2
			c-0.1-0.2,0-0.5,0.2-0.7c2.3-1.3,4.4-1.6,6.2-0.8c3,1.3,4,4.9,4.1,5.1c0.1,0.3-0.1,0.5-0.4,0.6L208.2,86z"/>
		<path class="st0" d="M218.3,102.5c-4.6,0-8.4-3.7-8.4-8.4s3.7-8.4,8.4-8.4c4.6,0,8.4,3.7,8.4,8.4c0,0,0,0,0,0
			C226.7,98.7,222.9,102.5,218.3,102.5z M218.3,86.8c-4.1,0-7.4,3.3-7.4,7.4s3.3,7.4,7.4,7.4c4.1,0,7.4-3.3,7.4-7.4c0,0,0,0,0,0
			C225.7,90.1,222.4,86.8,218.3,86.8L218.3,86.8z"/>
		<path class="st0" d="M200.2,99c-4.6,0-8.4-3.7-8.4-8.4c0-4.6,3.7-8.4,8.4-8.4c4.6,0,8.4,3.7,8.4,8.4c0,0,0,0,0,0
			C208.6,95.2,204.8,98.9,200.2,99z M200.2,83.2c-4.1,0-7.4,3.3-7.4,7.4c0,4.1,3.3,7.4,7.4,7.4c4.1,0,7.4-3.3,7.4-7.4c0,0,0,0,0,0
			C207.6,86.5,204.3,83.2,200.2,83.2z"/>
		<path class="st0" d="M225.8,96.2c-0.2,0-0.4-0.2-0.5-0.4c0-0.3,0.1-0.5,0.4-0.6l6.5-1.2c0.3,0,0.5,0.1,0.6,0.4
			c0,0.3-0.1,0.5-0.4,0.6L225.8,96.2L225.8,96.2z"/>
		<path class="st0" d="M192.5,89.1c-0.2,0-0.3-0.1-0.4-0.2c-0.2-0.2-0.1-0.5,0.1-0.7l2.4-1.8c0.2-0.2,0.5-0.1,0.7,0.1
			c0.2,0.2,0.1,0.5-0.1,0.7l-2.4,1.8C192.8,89.1,192.7,89.1,192.5,89.1z"/>
		<path class="st0" d="M200.3,69.9c0,0,7-4.3,9.4-0.2s13.6,30.9,25.7,24.9s-0.1-25.8-11.8-32.1S202.1,61.6,200.3,69.9z"/>
		<path class="st0" d="M231.8,95.9c-9.2,0-17.3-15.8-21-23.1c-0.7-1.3-1.2-2.3-1.5-2.9c-0.4-0.7-1.1-1.2-1.9-1.4
			c-2.8-0.7-6.8,1.8-6.8,1.8c-0.2,0.1-0.5,0.1-0.7-0.2c-0.1-0.1-0.1-0.2-0.1-0.4c0.9-4.1,3.6-7.5,7.4-9.2c4.9-2.2,10.8-1.7,16.6,1.4
			c8.1,4.4,17.1,15.8,17,24.6c0.1,3.6-2,6.9-5.3,8.4C234.5,95.6,233.2,95.9,231.8,95.9z M206.3,67.4c0.4,0,0.9,0,1.3,0.1
			c1.1,0.2,2,0.9,2.5,1.8c0.4,0.6,0.9,1.6,1.6,3c4.1,8,13.6,26.7,23.5,21.7c2.9-1.3,4.8-4.3,4.7-7.5c0.1-8.4-8.6-19.4-16.5-23.7
			c-5.6-3-11.2-3.5-15.8-1.4c-3.1,1.4-5.5,4.1-6.6,7.4C202.7,68,204.5,67.5,206.3,67.4z"/>
		<path class="st5" d="M198.7,69L198.7,69c-0.3,0-0.5-0.2-0.5-0.5c0.2-1.6,1.1-3.1,2.5-3.9c2.6-1.7,6.6,1.7,6.8,1.8
			c0.2,0.2,0.2,0.5,0.1,0.7c-0.2,0.2-0.5,0.2-0.7,0.1c-1-0.9-4-2.8-5.6-1.8c-1.1,0.6-1.9,1.7-2.1,3C199.2,68.8,199,69,198.7,69
			C198.7,69,198.7,69,198.7,69z"/>
		<path class="st5" d="M238.8,89.3h-0.1c-1.1-0.3-2.1-0.8-3-1.4c-0.2-0.1-0.3-0.4-0.2-0.7c0.1-0.2,0.4-0.3,0.7-0.2c0,0,0,0,0,0
			c0.9,0.5,1.8,1,2.8,1.2c0.3,0,0.5,0.3,0.4,0.6S239.1,89.3,238.8,89.3L238.8,89.3z"/>
		<path class="st5" d="M231.7,83.9c-0.2,0-0.3-0.1-0.4-0.2c-2.1-3.1-4-6.3-5.5-9.7c-1.8-3.8-3.9-7.4-6.1-11c-2.6-4-5.3-6.2-8.1-6.4
			c-2.1-0.1-4.1,0.7-5.6,2.2c-0.2,0.2-0.5,0.2-0.7,0c0,0,0,0,0,0c-0.2-0.2-0.2-0.5,0-0.7c0,0,0,0,0,0c1.7-1.7,4-2.7,6.4-2.6
			c3.1,0.3,6.1,2.6,8.9,6.8c2.2,3.6,4.3,7.2,6.2,11c1.6,3.3,3.4,6.5,5.5,9.5c0.2,0.2,0.1,0.5-0.1,0.7
			C232,83.8,231.8,83.9,231.7,83.9z"/>
		<path class="st5" d="M227,86.4c-0.1,0-0.2-0.1-0.3-0.1c-2.6-2.5-6.4-3.1-9.6-1.5c-0.2,0.1-0.5,0-0.7-0.2c-0.1-0.2,0-0.5,0.2-0.7
			c0,0,0,0,0,0c3.6-1.8,7.9-1.1,10.8,1.7c0.2,0.2,0.2,0.5,0,0.7C227.3,86.4,227.2,86.4,227,86.4z"/>
		<path class="st0" d="M226.5,170.8c-12.5,0-20.3-9.5-20.4-9.6c-0.1-0.2-0.1-0.6,0.2-0.7c0.2-0.1,0.4-0.1,0.6,0.1
			c0.1,0.1,7.5,9.2,19.6,9.2c0.3,0,0.5,0.2,0.5,0.5S226.8,170.8,226.5,170.8z"/>
	</g>
	<g id="freepik--Floor--inject-369_1_">
		<path class="st0" d="M371.8,354.9H26.7c-0.3,0-0.5-0.2-0.5-0.5s0.2-0.5,0.5-0.5h345.1c0.3,0,0.5,0.2,0.5,0.5
			S372.1,354.9,371.8,354.9z"/>
	</g>
</g>
</svg>
