<?xml version="1.0" encoding="utf-8"?>
<!-- Generator: Adobe Illustrator 22.1.0, SVG Export Plug-In . SVG Version: 6.00 Build 0)  -->
<svg version="1.1" id="Layer_1" xmlns="http://www.w3.org/2000/svg" xmlns:xlink="http://www.w3.org/1999/xlink" x="0px" y="0px"
	 viewBox="0 0 416.1 425" style="enable-background:new 0 0 416.1 425;" xml:space="preserve">
<style type="text/css">
	.st0{fill:#F9F9F9;}
	.st1{fill:none;stroke:#263238;stroke-linecap:round;stroke-linejoin:round;}
	.st2{fill:#263238;}
	.st3{fill:#FFFFFF;}
	.st4{clip-path:url(#SVGID_2_);}
	.st5{opacity:0.2;enable-background:new    ;}
	.st6{fill:#263238;stroke:#263238;stroke-linecap:round;stroke-linejoin:round;}
	.st7{fill:#BABABA;stroke:#263238;stroke-linecap:round;stroke-linejoin:round;}
	.st8{clip-path:url(#SVGID_4_);}
	.st9{fill:#FFFFFF;stroke:#263238;stroke-linecap:round;stroke-linejoin:round;}
	.st10{clip-path:url(#SVGID_6_);}
	.st11{fill:none;stroke:#808080;stroke-linecap:round;stroke-linejoin:round;}
	.st12{clip-path:url(#SVGID_8_);}
	.st13{fill:#F9F9F9;stroke:#263238;stroke-linecap:round;stroke-linejoin:round;}
	.st14{clip-path:url(#SVGID_10_);}
	.st15{clip-path:url(#SVGID_12_);}
</style>
<g>
	<g id="freepik--Gears--inject-1053">
		<path class="st0" d="M298.2,238.5v-21.2l-22.1-2.5c-0.7-4.3-1.7-8.5-3.1-12.5l18.4-13.4l-10.7-18.3l-20.4,8.7
			c-2.7-3.4-5.7-6.5-9-9.3l9.1-20.7l-18.6-10.6l-13.2,17.6c-4.1-1.6-8.3-2.8-12.5-3.7l-2.6-22.4h-21.5l-2.5,21.8
			c-4.3,0.6-8.6,1.6-12.7,3L163,136.7l-18.6,10.6l8.8,20.1c-3.4,2.7-6.6,5.7-9.5,8.9l-21-9L112,185.7l17.8,13
			c-1.6,4-2.8,8.1-3.7,12.4l-22.8,2.6v21.2l22.1,2.5c0.7,4.3,1.7,8.4,3.1,12.5l-18.3,13.4l10.7,18.4l20.4-8.7c2.7,3.4,5.7,6.5,9,9.3
			l-9.1,20.7l18.6,10.6l13.2-17.6c4.1,1.6,8.3,2.8,12.5,3.7l2.6,22.4h21.5l2.6-21.7c4.3-0.6,8.6-1.6,12.7-3l13.6,18.1l18.6-10.6
			l-8.8-20.2c3.4-2.7,6.6-5.6,9.5-8.9l21,9l10.7-18.3l-17.8-13.1c1.6-4,2.8-8.1,3.7-12.4L298.2,238.5z M200.8,276.5
			c-28.2,0-51.1-22.5-51.1-50.4s22.9-50.4,51.1-50.4s51.1,22.6,51.1,50.4S229,276.4,200.8,276.5L200.8,276.5z"/>
		<path class="st0" d="M393.3,132.7V119l-14.3-1.6c-0.4-2.7-1.1-5.5-2-8.1l11.9-8.7L382,88.7l-13.2,5.6c-1.8-2.2-3.7-4.2-5.8-6
			l5.9-13.4l-12-6.8l-8.6,11.4c-2.6-1-5.3-1.8-8.1-2.4l-1.7-14.5h-13.9l-1.7,14.1c-2.8,0.4-5.5,1.1-8.2,2L305.9,67l-12,6.8l5.7,13
			c-2.2,1.7-4.2,3.7-6.1,5.7l-13.6-5.9L273,98.6l11.5,8.4c-1,2.6-1.8,5.3-2.4,8l-14.7,1.7v13.7l14.3,1.6c0.4,2.8,1.1,5.5,2,8.1
			l-11.9,8.7l6.9,11.9l13.2-5.6c1.8,2.2,3.7,4.2,5.8,6l-5.9,13.4l12,6.8l8.6-11.4c2.6,1,5.3,1.8,8.1,2.4l1.7,14.5h13.9l1.6-14
			c2.8-0.4,5.5-1.1,8.2-2l8.8,11.7l12-6.8l-5.7-13c2.2-1.7,4.2-3.6,6.1-5.7l13.6,5.8l6.9-11.9l-11.5-8.4c1-2.6,1.8-5.3,2.4-8
			L393.3,132.7z M330.4,157.3c-18-0.2-32.3-15-32.1-33s15-32.3,33-32.1c17.8,0.2,32.1,14.8,32.1,32.6
			C363.2,142.8,348.5,157.4,330.4,157.3z"/>
	</g>
	<g id="freepik--Clouds--inject-1053">
		<path class="st1" d="M226.2,34.9c-5.7-3.1-8.3-0.5-10.4-3.1s5.7-9.4-9.9-16.2c0,0-1-14.6-22.4-15.1s-15.6,14.6-21.4,18.2
			s-7.3-2.1-13,1.6s-3.1,10.9-7.8,12c-4.7,1.1-10.9-4.7-16.7-1s-5.7,6.8-8.3,6.8s-7.8-2.1-11,0s-6.8,4.7-6.8,4.7h131.9
			C230.4,42.7,231.9,38,226.2,34.9z"/>
		<path class="st1" d="M148.2,32.7c-0.7,0.4-1.5,0.8-2.3,1.1"/>
		<path class="st1" d="M176.4,8.4c-2.6,1.2-4.5,3.5-5.1,6.4c-0.9,4.8-3.2,8-5.7,8.3s-12.1-0.6-13.7,2.9c-0.4,1-0.7,2.1-0.9,3.2"/>
		<path class="st1" d="M265.9,65.3c-3.2-1.7-4.6-0.3-5.8-1.7s3.2-5.2-5.5-8.9c0,0-0.6-8.1-12.4-8.3s-8.6,8.1-11.8,10.1
			s-4-1.2-7.2,0.9s-1.7,6-4.3,6.6s-6-2.6-9.2-0.6s-3.2,3.7-4.6,3.7s-4.3-1.2-6,0s-3.7,2.6-3.7,2.6h72.8
			C268.2,69.6,269.1,67,265.9,65.3z"/>
		<path class="st1" d="M222.9,64.1c-0.4,0.2-0.8,0.4-1.3,0.6"/>
		<path class="st1" d="M238.4,50.7c-1.4,0.6-2.5,2-2.8,3.5c-0.5,2.6-1.8,4.4-3.2,4.6s-6.7-0.3-7.5,1.6c-0.2,0.6-0.4,1.2-0.5,1.8"/>
		<path class="st1" d="M98.6,135.2c-4-2.2-5.9-0.4-7.3-2.2s4-6.6-7-11.3c0,0-0.7-10.3-15.7-10.6s-11,10.3-15,12.8s-5.1-1.5-9.1,1.1
			s-2.2,7.7-5.5,8.4s-7.7-3.3-11.7-0.7s-4,4.8-5.8,4.8s-5.5-1.5-7.7,0s-4.7,3.3-4.7,3.3h92.6C101.5,140.7,102.6,137.4,98.6,135.2z"
			/>
		<path class="st1" d="M43.8,133.7c-0.5,0.3-1.1,0.5-1.6,0.8"/>
		<path class="st1" d="M63.6,116.6c-1.8,0.8-3.2,2.5-3.6,4.5c-0.7,3.4-2.2,5.6-4,5.8s-8.5-0.4-9.6,2c-0.3,0.7-0.5,1.5-0.6,2.3"/>
		<path class="st1" d="M394.3,266.2c-4-2.2-5.9-0.4-7.3-2.2s4-6.6-7-11.3c0,0-0.7-10.3-15.7-10.6s-11,10.3-15,12.8s-5.1-1.5-9.1,1.1
			s-2.2,7.7-5.5,8.4s-7.7-3.3-11.7-0.7s-4,4.8-5.9,4.8s-5.5-1.5-7.7,0s-4.8,3.3-4.8,3.3h92.6C397.2,271.7,398.3,268.4,394.3,266.2z"
			/>
		<path class="st1" d="M339.5,264.7c-0.5,0.3-1.1,0.6-1.6,0.8"/>
		<path class="st1" d="M359.3,247.6c-1.8,0.8-3.2,2.5-3.6,4.5c-0.7,3.4-2.2,5.6-4,5.8s-8.5-0.4-9.6,2c-0.3,0.7-0.5,1.5-0.6,2.3"/>
	</g>
	<g id="freepik--Graphic--inject-1053">
		<path class="st2" d="M415.9,193.7c-0.1-1.7-1.4-3-3.1-2.9c-0.5,0-0.9,0.1-1.3,0.4L369,216c-1.4,0.9-1.9,2.7-1,4.1
			c0.2,0.4,0.6,0.7,1,1l15.5,8.8l-54.7,91.7L276,305.2c-3.1-0.9-6.3,0.3-8,3.1l-60,99.4l-64.8-48.4c-1.8-1.4-4.2-1.8-6.4-1l-132,43
			c-3.7,1.2-5.7,5.1-4.5,8.8c1.2,3.7,5.1,5.7,8.8,4.5c0,0,0.1,0,0.1,0l128.5-41.8l68.1,50.8c1.2,0.9,2.7,1.4,4.2,1.4
			c0.4,0,0.9,0,1.3-0.1c1.9-0.4,3.6-1.6,4.6-3.3l61.2-101.3l53.8,16.4c3.1,0.9,6.4-0.3,8-3.1l57.7-96.7l15,8.6
			c1.5,0.8,3.3,0.2,4.1-1.2c0.2-0.4,0.3-0.9,0.4-1.3L415.9,193.7z"/>
	</g>
	<g id="freepik--Character--inject-1053">
		<path class="st3" d="M129.1,273c0,0-8.7,18.1-10.6,30.9S106,339.4,106,339.4s-9.4,3.7-9.7,6.9S93.5,359,93.5,359l1.6,0.9l4.1-9.7
			c0,0,1.9,6.9,2.5,9.7c0.2,1.3,0.6,2.6,1.3,3.7c0,0,8.1,4,10,4.7s4.7,0.3,3.4-2.2s-5.9-7.8-5.9-7.8l2.8-16.5
			c0,0,39.6-66.7,40.8-69.5s-8.1-10.9-8.1-10.9L129.1,273z"/>
		<g>
			<defs>
				<path id="SVGID_1_" d="M129.1,273c0,0-8.7,18.1-10.6,30.9S106,339.4,106,339.4s-9.4,3.7-9.7,6.9S93.5,359,93.5,359l1.6,0.9
					l4.1-9.7c0,0,1.9,6.9,2.5,9.7c0.2,1.3,0.6,2.6,1.3,3.7c0,0,8.1,4,10,4.7s4.7,0.3,3.4-2.2s-5.9-7.8-5.9-7.8l2.8-16.5
					c0,0,39.6-66.7,40.8-69.5s-8.1-10.9-8.1-10.9L129.1,273z"/>
			</defs>
			<clipPath id="SVGID_2_">
				<use xlink:href="#SVGID_1_"  style="overflow:visible;"/>
			</clipPath>
			<g class="st4">
				<path class="st5" d="M106.9,347.7c0,0,35.5-67.1,35-74c-0.2-2.5-1.8-4.9-3.7-7l-9.1,6.2c0,0-8.7,18.1-10.6,30.9
					S106,339.3,106,339.3s-9.4,3.7-9.7,6.9S93.5,359,93.5,359l1.6,0.9l4.1-9.7c0,0,1.9,6.9,2.5,9.7c0.2,1.3,0.6,2.6,1.3,3.7
					c0,0,2,1,4.2,2.1C106.6,358.6,106.9,347.7,106.9,347.7z"/>
			</g>
		</g>
		<path class="st1" d="M129.1,273c0,0-8.7,18.1-10.6,30.9S106,339.4,106,339.4s-9.4,3.7-9.7,6.9S93.5,359,93.5,359l1.6,0.9l4.1-9.7
			c0,0,1.9,6.9,2.5,9.7c0.2,1.3,0.6,2.6,1.3,3.7c0,0,8.1,4,10,4.7s4.7,0.3,3.4-2.2s-5.9-7.8-5.9-7.8l2.8-16.5
			c0,0,39.6-66.7,40.8-69.5s-8.1-10.9-8.1-10.9L129.1,273z"/>
		<path class="st6" d="M111.3,359.5c-3.5,1.6-5-0.6-6.5-5.1c-1.2-3.6-3.7-9.5-4.8-11.9c-1.9,1.2-3.5,2.5-3.6,3.8
			c-0.3,3.1-2.8,12.8-2.8,12.8l1.6,0.9l4.1-9.7c0,0,1.9,6.9,2.5,9.7c0.2,1.3,0.6,2.6,1.3,3.7c0,0,8.1,4,10,4.7s4.7,0.3,3.4-2.2
			C114.8,363.8,113.2,361.5,111.3,359.5z"/>
		<path class="st7" d="M57.4,160.7l-8.3,9.1c-1.7,1.9-1.7,4.8,0,6.7l12.3,13.7l8.7-17.9L57.4,160.7z"/>
		<path class="st0" d="M82.2,135.9L52.7,161l15,13l16.2-34.2C83.9,139.9,84.5,136.4,82.2,135.9z"/>
		<g>
			<defs>
				<path id="SVGID_3_" d="M82.2,135.9L52.7,161l15,13l16.2-34.2C83.9,139.9,84.5,136.4,82.2,135.9z"/>
			</defs>
			<clipPath id="SVGID_4_">
				<use xlink:href="#SVGID_3_"  style="overflow:visible;"/>
			</clipPath>
			<g class="st8">
				<path class="st5" d="M82.2,135.9L52.7,161l15,13l16.2-34.2C83.9,139.9,84.5,136.4,82.2,135.9z"/>
			</g>
		</g>
		<path class="st1" d="M82.2,135.9L52.7,161l15,13l16.2-34.2C83.9,139.9,84.5,136.4,82.2,135.9z"/>
		<path class="st9" d="M121.3,66.7c0,0,5.8,4.3,6.4,5.5s2.3,6.1,3.2,6.7s6.1-0.3,6.1,2s-2.3,5.8-2.3,5.8s2,6.4,2,9.5s0.9,9-2.9,10.1
			s-13,2.9-13,2.9l-8.7,26.3L97,124l1.7-13c0,0-4-4.3-7.8-15.6s-1.2-22,5.8-25.8S121.3,66.7,121.3,66.7z"/>
		<path class="st2" d="M127.6,80.2c0.5,1,0.4,2-0.1,2.3s-1.3-0.4-1.8-1.4s-0.4-2,0.1-2.3S127.1,79.1,127.6,80.2z"/>
		<path class="st1" d="M122.2,78.5c0,0,2.9-3.5,5.2-2.3"/>
		<path class="st5" d="M113.5,100c0,0,22.6,5.1,19.7,5.1s-14.4,3.1-14.4,3.1l-10.1,23.7l-9.6-9.3l0.6-11.6L113.5,100z"/>
		<path class="st6" d="M122.4,65.2c0,0-7.2,37.3-12.4,44s-14.5,5.2-22.9,1.2s-10.7-3.5-10.7-7.8s11.6-33,13.9-34.7
			S118.7,59.2,122.4,65.2z"/>
		<path class="st6" d="M80.5,93.3c0,0-6.4-5.5-11.9-3.5s-6.4,11.3-5.5,14.2s8.7,6.7,12.1,6.7s6.9-4.6,7.2-8.4
			C82.7,99.2,82,96,80.5,93.3z"/>
		<path class="st3" d="M65.1,290.7c0,0-33.3,53.5-35,55.9s-6.4,4.3-8.7,5.5S7,363.9,7,363.9l1.2,0.9l9.5-4.9c0.7,2.8,0.7,5.6,0,8.4
			c-1.2,4.3-1.2,6.9,0,8.7s8.7,8.4,10.4,6.9s-0.6-9.5-0.6-9.5s6.7-15.3,7.2-17.1s2.3-6.4,2.3-6.4s46-43.7,50.6-49.5
			c4.7-5.8,4.9-7,5.8-11c0.6-3.1,0.9-6.2,0.9-9.3L65.1,290.7z"/>
		<g>
			<defs>
				<path id="SVGID_5_" d="M65.1,290.7c0,0-33.3,53.5-35,55.9s-6.4,4.3-8.7,5.5S7,363.9,7,363.9l1.2,0.9l9.5-4.9
					c0.7,2.8,0.7,5.6,0,8.4c-1.2,4.3-1.2,6.9,0,8.7s8.7,8.4,10.4,6.9s-0.6-9.5-0.6-9.5s6.7-15.3,7.2-17.1s2.3-6.4,2.3-6.4
					s46-43.7,50.6-49.5c4.7-5.8,4.9-7,5.8-11c0.6-3.1,0.9-6.2,0.9-9.3L65.1,290.7z"/>
			</defs>
			<clipPath id="SVGID_6_">
				<use xlink:href="#SVGID_5_"  style="overflow:visible;"/>
			</clipPath>
			<g class="st10">
				<path class="st5" d="M79.4,286l-14.2,4.7c0,0-33.3,53.5-35,55.9s-6.4,4.3-8.7,5.5S7,363.9,7,363.9l1.2,0.9l9.5-4.9
					c0.7,2.8,0.7,5.6,0,8.4c-1.2,4.3-1.2,6.9,0,8.7c1.7,2,3.6,3.7,5.8,5.2c-0.6-2.4-0.8-4.9-0.6-7.4c1-6,5.5-20,5.5-20l51-68V286z"
					/>
			</g>
		</g>
		<path class="st1" d="M65.1,290.7c0,0-33.3,53.5-35,55.9s-6.4,4.3-8.7,5.5S7,363.9,7,363.9l1.2,0.9l9.5-4.9c0.7,2.8,0.7,5.6,0,8.4
			c-1.2,4.3-1.2,6.9,0,8.7s8.7,8.4,10.4,6.9s-0.6-9.5-0.6-9.5s6.7-15.3,7.2-17.1s2.3-6.4,2.3-6.4s46-43.7,50.6-49.5
			c4.7-5.8,4.9-7,5.8-11c0.6-3.1,0.9-6.2,0.9-9.3L65.1,290.7z"/>
		<path class="st6" d="M21.4,371.7c-1.2-1.9,0.8-15.7,1.5-20.4l-1.5,0.7C19.1,353.2,7,363.9,7,363.9l1.2,0.9l9.5-4.9
			c0.7,2.8,0.7,5.6,0,8.4c-1.2,4.3-1.2,6.9,0,8.7s8.7,8.4,10.4,6.9s-0.6-9.5-0.6-9.5S22.9,374,21.4,371.7z"/>
		<path class="st6" d="M61.4,190.3c0,0-11,18.5-11.6,26.1c-0.6,7.5,6.9,28.7,6.9,28.7l7.2,47.2c0,0,42-9.6,56.7-15
			s27.8-15.9,27.8-15.9L106.2,216l-1.7-13L61.4,190.3z"/>
		<line class="st11" x1="82.4" y1="219.7" x2="102.3" y2="257.7"/>
		<path class="st11" d="M68.9,209.4c0,0,5.8,0.6,12.2,6.4"/>
		<path class="st0" d="M91.8,124.3c0,0-10.4,9.3-12.4,14.8s-22,47.2-22.6,49.2s7.8,12.2,13.3,13.6s34.2,6.1,37.3,3.5
			s11-25.2,11.3-29.8s-5.8-35.6-5.8-35.6L91.8,124.3z"/>
		<g>
			<defs>
				<path id="SVGID_7_" d="M91.8,124.3c0,0-10.4,9.3-12.4,14.8s-22,47.2-22.6,49.2s7.8,12.2,13.3,13.6s34.2,6.1,37.3,3.5
					s11-25.2,11.3-29.8s-5.8-35.6-5.8-35.6L91.8,124.3z"/>
			</defs>
			<clipPath id="SVGID_8_">
				<use xlink:href="#SVGID_7_"  style="overflow:visible;"/>
			</clipPath>
			<g class="st12">
				<path class="st5" d="M87.9,151.6c0,0,11.5,32.1,11.8,34.4s-8.7,9-15.5,11.6s-9.3-3.1-12.7-4c-2.9-0.7-10-0.4-12.1-0.3
					c2.8,3.5,7.3,7.7,10.6,8.6c4.6,1.2,25,4.6,33.7,4.2c4.8-6.5,8.3-13.8,10.3-21.5C117.8,171,87.9,151.6,87.9,151.6z"/>
			</g>
		</g>
		<path class="st1" d="M91.8,124.3c0,0-10.4,9.3-12.4,14.8s-22,47.2-22.6,49.2s7.8,12.2,13.3,13.6s34.2,6.1,37.3,3.5
			s11-25.2,11.3-29.8s-5.8-35.6-5.8-35.6L91.8,124.3z"/>
		<polygon class="st13" points="94.7,116.7 118.1,135.6 114.1,146 90.3,124 		"/>
		<path class="st3" d="M132.9,173.7l0.9-0.4l40.3-14.6c0,0,2.6-8.4,3.5-11c0.5-1.6,1.8-2.9,3.5-3.2c1.3-0.2,2.7-0.3,4.1-0.3h2.6
			c0,0,4.9-1.4,6.1,0.3s0,6.4,0,6.4s0,6.9-1.2,8.7s-4.9,3.2-7,4.1c-1.6,0.6-3.2,1.1-4.9,1.4c0,0-44.4,27.8-47.6,29.2
			s-3.8,2.6-6.4,0.6c-2-1.7-3.8-3.5-5.5-5.5l6.7-17.4L132.9,173.7z"/>
		<g>
			<defs>
				<path id="SVGID_9_" d="M132.9,173.7l0.9-0.4l40.3-14.6c0,0,2.6-8.4,3.5-11c0.5-1.6,1.8-2.9,3.5-3.2c1.3-0.2,2.7-0.3,4.1-0.3h2.6
					c0,0,4.9-1.4,6.1,0.3s0,6.4,0,6.4s0,6.9-1.2,8.7s-4.9,3.2-7,4.1c-1.6,0.6-3.2,1.1-4.9,1.4c0,0-44.4,27.8-47.6,29.2
					s-3.8,2.6-6.4,0.6c-2-1.7-3.8-3.5-5.5-5.5l6.7-17.4L132.9,173.7z"/>
			</defs>
			<clipPath id="SVGID_10_">
				<use xlink:href="#SVGID_9_"  style="overflow:visible;"/>
			</clipPath>
			<g class="st14">
				<path class="st5" d="M180.1,161.4c-2.8,0.9-49.9,18.3-49.9,18.3l-5.1-0.3l-3.8,9.9c1.7,2,3.5,3.8,5.5,5.5c2.6,2,3.2,0.9,6.4-0.6
					s47.6-29.2,47.6-29.2c1.7-0.3,3.3-0.8,4.9-1.4c2-0.9,5.8-2.3,7-4.1s1.2-8.7,1.2-8.7c-0.5,1.8-1.4,3.5-2.7,4.9
					C189.1,157.8,182.9,160.6,180.1,161.4z"/>
			</g>
		</g>
		<path class="st1" d="M132.9,173.7l0.9-0.4l40.3-14.6c0,0,2.6-8.4,3.5-11c0.5-1.6,1.8-2.9,3.5-3.2c1.3-0.2,2.7-0.3,4.1-0.3h2.6
			c0,0,4.9-1.4,6.1,0.3s0,6.4,0,6.4s0,6.9-1.2,8.7s-4.9,3.2-7,4.1c-1.6,0.6-3.2,1.1-4.9,1.4c0,0-44.4,27.8-47.6,29.2
			s-3.8,2.6-6.4,0.6c-2-1.7-3.8-3.5-5.5-5.5l6.7-17.4L132.9,173.7z"/>
		<path class="st0" d="M135.2,172.3c0,0-32.8-30.5-37.4-31.7s-9.8,3.5-10.1,9.8s32.8,49.3,32.8,49.3L135.2,172.3z"/>
		<g>
			<defs>
				<path id="SVGID_11_" d="M135.2,172.3c0,0-32.8-30.5-37.4-31.7s-9.8,3.5-10.1,9.8s32.8,49.3,32.8,49.3L135.2,172.3z"/>
			</defs>
			<clipPath id="SVGID_12_">
				<use xlink:href="#SVGID_11_"  style="overflow:visible;"/>
			</clipPath>
			<g class="st15">
				<path class="st5" d="M125.2,190.9l-3.2-3.5l8.7-19.2L120,185.4l-29.9-40.6l-0.9,0.3c-0.9,1.6-1.5,3.5-1.6,5.4
					c-0.3,6.4,32.8,49.3,32.8,49.3L125.2,190.9z"/>
			</g>
		</g>
		<path class="st1" d="M135.2,172.3c0,0-32.8-30.5-37.4-31.7s-9.8,3.5-10.1,9.8s32.8,49.3,32.8,49.3L135.2,172.3z"/>
	</g>
</g>
</svg>
