<svg id="Layer_1" data-name="Layer 1" xmlns="http://www.w3.org/2000/svg" viewBox="0 0 71.34 17.95"><defs><style>.cls-1{fill:#f9f9fa;}</style></defs><title>LandingPage</title><path class="cls-1" d="M11.38,14.09H4.22L2.93,17.76H0L6.24,1.08H9.38L15.6,17.76H12.67ZM10.61,12,7.8,4.06,5,12ZM25.22,4.37a5.84,5.84,0,0,1,3.07.81,5.56,5.56,0,0,1,2.13,2.36,7.83,7.83,0,0,1,.77,3.6,7.89,7.89,0,0,1-.77,3.62,5.53,5.53,0,0,1-2.13,2.35,5.76,5.76,0,0,1-3.07.82A5.28,5.28,0,0,1,22.14,17a4.66,4.66,0,0,1-1.77-2.35v3.07H17.63V0h2.74V7.61a4.61,4.61,0,0,1,1.77-2.35A5.21,5.21,0,0,1,25.22,4.37Zm-.84,2.4a3.91,3.91,0,0,0-2.07.55,3.64,3.64,0,0,0-1.44,1.54,4.74,4.74,0,0,0-.53,2.28,4.82,4.82,0,0,0,.53,2.3A3.89,3.89,0,0,0,22.31,15a4.08,4.08,0,0,0,2.07.52,3.84,3.84,0,0,0,2.92-1.15,4.47,4.47,0,0,0,1.11-3.21,4.48,4.48,0,0,0-1.11-3.2A3.82,3.82,0,0,0,24.38,6.77Zm15.49-2.4a7.3,7.3,0,0,1,3.46.81,5.93,5.93,0,0,1,2.4,2.36,7.16,7.16,0,0,1,.86,3.6,7.21,7.21,0,0,1-.86,3.62,5.9,5.9,0,0,1-2.4,2.35,7.69,7.69,0,0,1-6.91,0A6,6,0,0,1,34,14.76a7.32,7.32,0,0,1-.87-3.62A7.16,7.16,0,0,1,34,7.54a6.05,6.05,0,0,1,2.4-2.36A7.26,7.26,0,0,1,39.87,4.37Zm0,2.37a4,4,0,0,0-1.94.48,3.64,3.64,0,0,0-1.44,1.49A5.13,5.13,0,0,0,36,11.14a5.12,5.12,0,0,0,.53,2.44,3.64,3.64,0,0,0,1.44,1.47,4.18,4.18,0,0,0,3.89,0,3.46,3.46,0,0,0,1.41-1.47,4.89,4.89,0,0,0,.56-2.44,4.91,4.91,0,0,0-.56-2.43,3.46,3.46,0,0,0-1.41-1.49A4,4,0,0,0,39.87,6.74Zm21.55-2.2V17.76H58.66V14.88a4.32,4.32,0,0,1-1.75,2.28A5.31,5.31,0,0,1,54,18a4.78,4.78,0,0,1-3.69-1.49,6,6,0,0,1-1.4-4.24V4.54h2.74v7.39a3.91,3.91,0,0,0,.91,2.78,3.28,3.28,0,0,0,2.5,1,3.39,3.39,0,0,0,2.61-1.05,4.35,4.35,0,0,0,1-3.08v-7Zm9.92,10.84v2.38H69.66a4.59,4.59,0,0,1-3.21-1,4.56,4.56,0,0,1-1.08-3.41V6.86h-1.9V4.54h1.9V1.25h2.76V4.54h3.19V6.86H68.13v6.53a2.3,2.3,0,0,0,.4,1.56,2.07,2.07,0,0,0,1.49.43Z"/></svg>