<svg id="Layer_1" data-name="Layer 1" xmlns="http://www.w3.org/2000/svg" viewBox="0 0 16 12"><title>icon</title><path d="M10.5,6.5a2.5,2.5,0,0,1-5,0,2.5,2.5,0,1,1,5,0Z"/><path d="M15.42,2.59A2,2,0,0,0,14,2H12.83a2,2,0,0,1-1.41-.58L10.59.59A2,2,0,0,0,9.17,0H6.83A2,2,0,0,0,5.42.59l-.83.83A2,2,0,0,1,3.17,2H2a2,2,0,0,0-1.41.59A2,2,0,0,0,0,4v6a2,2,0,0,0,2,2H14a2,2,0,0,0,2-2V4A2,2,0,0,0,15.42,2.59ZM2.86,3.86A.52.52,0,0,1,2.5,4a.5.5,0,0,1-.35-.14A.53.53,0,0,1,2,3.5.51.51,0,0,1,2.5,3a.53.53,0,0,1,.36.15A.5.5,0,0,1,3,3.5.52.52,0,0,1,2.86,3.86ZM10.48,9a3.51,3.51,0,0,1-6-2.48A3.52,3.52,0,0,1,8,3a3.51,3.51,0,0,1,2.48,6Z"/></svg>