<svg id="Layer_1" data-name="Layer 1" xmlns="http://www.w3.org/2000/svg" viewBox="0 0 20 20"><title>icon</title><path d="M10,0A10,10,0,1,0,20,10,10,10,0,0,0,10,0Zm0,14.1a2.8,2.8,0,0,1-1,.64,2.94,2.94,0,0,1-2.23,0A3,3,0,0,1,5,12,2.92,2.92,0,0,1,5.86,10L7.09,8.74a2.93,2.93,0,0,1,4.13,0l.41.42-.82.82-.42-.41a1.79,1.79,0,0,0-2.47,0L6.68,10.8a1.75,1.75,0,0,0,1.24,3,1.72,1.72,0,0,0,1.23-.51l.42-.41.82.82ZM14.11,10l-1.24,1.24a2.93,2.93,0,0,1-4.13,0l-.41-.42L9.15,10l.42.41a1.79,1.79,0,0,0,2.47,0l1.24-1.23a1.75,1.75,0,0,0-1.24-3,1.72,1.72,0,0,0-1.23.51l-.42.41-.82-.82L10,5.86a2.92,2.92,0,0,1,5,2.06A3,3,0,0,1,14.11,10Z"/></svg>