<svg id="Layer_1" data-name="Layer 1" xmlns="http://www.w3.org/2000/svg" viewBox="0 0 11 11"><title>icon</title><path d="M8,4a1,1,0,0,0,.71-.3A1,1,0,0,0,9,3,1,1,0,0,0,8,2a1,1,0,0,0-.7.29A1,1,0,0,0,7,3,1,1,0,0,0,8,4Zm0,.46a1,1,0,0,0-.7.29,1,1,0,0,0-.3.71,1,1,0,0,0,1,1,1,1,0,0,0,.71-.3A1,1,0,0,0,9,5.49a1,1,0,0,0-1-1ZM8,7a1,1,0,0,0-.7.29A1,1,0,0,0,7,8,1,1,0,0,0,8,9a1,1,0,0,0,.71-.3A1,1,0,0,0,9,8,1,1,0,0,0,8,7ZM3,2A1,1,0,0,0,2,3a1,1,0,0,0,.29.7A1,1,0,0,0,3,4,1,1,0,0,0,4,3a1,1,0,0,0-.3-.71A1,1,0,0,0,3,2ZM3,4.49a1,1,0,0,0-1,1,1,1,0,0,0,.29.7,1,1,0,0,0,.71.3,1,1,0,0,0,1-1,1,1,0,0,0-.3-.71A1,1,0,0,0,3,4.49ZM3,7A1,1,0,0,0,2,8a1,1,0,0,0,.29.7A1,1,0,0,0,3,9,1,1,0,0,0,4,8a1,1,0,0,0-.3-.71A1,1,0,0,0,3,7ZM10.56.44A1.5,1.5,0,0,0,9.5,0h-8A1.5,1.5,0,0,0,0,1.5v8A1.5,1.5,0,0,0,1.5,11h8A1.5,1.5,0,0,0,11,9.5v-8A1.5,1.5,0,0,0,10.56.44ZM10,9.5a.51.51,0,0,1-.5.5h-8a.47.47,0,0,1-.35-.15A.47.47,0,0,1,1,9.5v-8a.47.47,0,0,1,.15-.35A.47.47,0,0,1,1.5,1h8a.47.47,0,0,1,.35.15A.47.47,0,0,1,10,1.5ZM8,2a1,1,0,0,0-.7.29A1,1,0,0,0,7,3,1,1,0,0,0,8,4a1,1,0,0,0,.71-.3A1,1,0,0,0,9,3,1,1,0,0,0,8,2ZM8,4.49a1,1,0,0,0-.7.29,1,1,0,0,0-.3.71,1,1,0,0,0,1,1,1,1,0,0,0,.71-.3A1,1,0,0,0,9,5.49a1,1,0,0,0-1-1ZM8,7a1,1,0,0,0-.7.29A1,1,0,0,0,7,8,1,1,0,0,0,8,9a1,1,0,0,0,.71-.3A1,1,0,0,0,9,8,1,1,0,0,0,8,7ZM3,2A1,1,0,0,0,2,3a1,1,0,0,0,.29.7A1,1,0,0,0,3,4,1,1,0,0,0,4,3a1,1,0,0,0-.3-.71A1,1,0,0,0,3,2ZM3,4.49a1,1,0,0,0-1,1,1,1,0,0,0,.29.7,1,1,0,0,0,.71.3,1,1,0,0,0,1-1,1,1,0,0,0-.3-.71A1,1,0,0,0,3,4.49ZM3,7A1,1,0,0,0,2,8a1,1,0,0,0,.29.7A1,1,0,0,0,3,9,1,1,0,0,0,4,8a1,1,0,0,0-.3-.71A1,1,0,0,0,3,7Z"/></svg>