<svg id="Layer_1" data-name="Layer 1" xmlns="http://www.w3.org/2000/svg" viewBox="0 0 20 20"><title>icon</title><path d="M10,0A10,10,0,1,0,20,10,10,10,0,0,0,10,0Zm4.07,8.19v.26a5.56,5.56,0,0,1-5.6,5.6,5.66,5.66,0,0,1-3-.88l.47,0a4,4,0,0,0,2.45-.84A2,2,0,0,1,6.53,11a1.92,1.92,0,0,0,.89,0A2,2,0,0,1,5.84,9V9a1.88,1.88,0,0,0,.89.25A2,2,0,0,1,5.9,8a2,2,0,0,1,.22-1.43A5.58,5.58,0,0,0,7.93,8.07a5.71,5.71,0,0,0,2.25.6,1.94,1.94,0,0,1,.12-1.26,2,2,0,0,1,3.23-.54,3.87,3.87,0,0,0,1.25-.48,1.91,1.91,0,0,1-.86,1.09,3.72,3.72,0,0,0,1.13-.31A4,4,0,0,1,14.07,8.19Z"/></svg>