<svg id="Layer_1" data-name="Layer 1" xmlns="http://www.w3.org/2000/svg" viewBox="0 0 10 12"><title>icon</title><path d="M8.89,7V4.8A4.17,4.17,0,0,0,6,.75,1.08,1.08,0,0,0,4,.75,4.17,4.17,0,0,0,1.11,4.8V7L.16,8A.62.62,0,0,0,0,8.17.59.59,0,0,0,0,8.4V9.6A.63.63,0,0,0,.16,10a.53.53,0,0,0,.4.18H9.44a.53.53,0,0,0,.4-.18A.63.63,0,0,0,10,9.6V8.4a.59.59,0,0,0,0-.23A.62.62,0,0,0,9.84,8ZM8.89,9H1.11V8.65l1-1a.62.62,0,0,0,.12-.19.59.59,0,0,0,0-.23V4.8A2.9,2.9,0,0,1,5,1.8a2.9,2.9,0,0,1,2.78,3V7.2a.63.63,0,0,0,.16.42l1,1ZM5,12a1.55,1.55,0,0,0,1-.33,1.82,1.82,0,0,0,.61-.87H3.43a1.82,1.82,0,0,0,.61.87A1.55,1.55,0,0,0,5,12Z"/></svg>