<svg id="Layer_1" data-name="Layer 1" xmlns="http://www.w3.org/2000/svg" viewBox="0 0 11 11"><title>icon</title><path d="M10.88,3.74A.12.12,0,0,0,11,3.62v-.9a.12.12,0,0,0-.12-.12H8.43V.12A.12.12,0,0,0,8.31,0h-1a.12.12,0,0,0-.12.12V2.6H3.83V.12A.12.12,0,0,0,3.71,0h-1a.12.12,0,0,0-.12.12V2.6H.12A.12.12,0,0,0,0,2.72v.9a.12.12,0,0,0,.12.12H2.63V7.26H.12A.12.12,0,0,0,0,7.38v.9a.12.12,0,0,0,.12.12H2.63v2.48a.12.12,0,0,0,.12.12h1a.12.12,0,0,0,.12-.12V8.4h3.4v2.48a.12.12,0,0,0,.12.12h1a.12.12,0,0,0,.12-.12V8.4h2.45A.12.12,0,0,0,11,8.28v-.9a.12.12,0,0,0-.12-.12H8.43V3.74ZM7.23,7.26H3.83V3.74h3.4Z"/></svg>