<svg id="Layer_1" data-name="Layer 1" xmlns="http://www.w3.org/2000/svg" viewBox="0 0 14 13"><title>icon</title><path d="M3,1.11,2.1.19C0,2.32,0,3.86,0,5.85H.64l.63,0C1.27,3.91,1.27,2.86,3,1.11ZM11.9.19,11,1.11c1.72,1.75,1.72,2.8,1.72,4.74l1.27,0A6.59,6.59,0,0,0,11.9.19ZM7,13a1.83,1.83,0,0,0,1.1-.36,1.92,1.92,0,0,0,.69-.94H5.21a1.92,1.92,0,0,0,.69.94A1.83,1.83,0,0,0,7,13Zm4.46-4.82v-3A4.55,4.55,0,0,0,8.18.82a1.26,1.26,0,0,0-2.36,0A4.54,4.54,0,0,0,2.54,5.2v3L1.46,9.29a.6.6,0,0,0-.14.21.7.7,0,0,0-.05.25v.65a.66.66,0,0,0,.19.46.64.64,0,0,0,.45.19H12.09a.64.64,0,0,0,.45-.19.66.66,0,0,0,.19-.46V9.75a.7.7,0,0,0-.05-.25.6.6,0,0,0-.14-.21Z"/></svg>