<svg id="Layer_1" data-name="Layer 1" xmlns="http://www.w3.org/2000/svg" viewBox="0 0 26 26"><defs><style>.cls-1{fill:#f9f9fa;}</style></defs><title>LandingPage</title><path class="cls-1" d="M13,2.34c3.47,0,3.88,0,5.26.08a7.1,7.1,0,0,1,2.41.45,3.88,3.88,0,0,1,1.5,1,4.17,4.17,0,0,1,1,1.49,7.11,7.11,0,0,1,.45,2.42c.06,1.37.07,1.78.07,5.25s0,3.89-.07,5.26a7.1,7.1,0,0,1-.45,2.41,4.26,4.26,0,0,1-2.47,2.47,7.1,7.1,0,0,1-2.41.45c-1.38.06-1.79.07-5.26.07s-3.88,0-5.25-.07a7.11,7.11,0,0,1-2.42-.45,4.17,4.17,0,0,1-1.49-1,3.88,3.88,0,0,1-1-1.5,7.1,7.1,0,0,1-.45-2.41c-.06-1.37-.08-1.79-.08-5.26s0-3.88.08-5.25a7.11,7.11,0,0,1,.45-2.42,3.88,3.88,0,0,1,1-1.49,3.88,3.88,0,0,1,1.49-1,7.11,7.11,0,0,1,2.42-.45c1.37-.06,1.78-.08,5.25-.08ZM13,0C9.47,0,9,0,7.64.08a9.41,9.41,0,0,0-3.15.6A6.62,6.62,0,0,0,.68,4.49a9.41,9.41,0,0,0-.6,3.15C0,9,0,9.47,0,13s0,4,.08,5.36a9.47,9.47,0,0,0,.6,3.16,6.41,6.41,0,0,0,1.5,2.3,6.32,6.32,0,0,0,2.31,1.5,9.68,9.68,0,0,0,3.15.61C9,26,9.47,26,13,26s4,0,5.36-.07a9.74,9.74,0,0,0,3.16-.61,6.28,6.28,0,0,0,2.3-1.5,6.41,6.41,0,0,0,1.5-2.3,9.74,9.74,0,0,0,.61-3.16C26,17,26,16.53,26,13s0-4-.07-5.36a9.68,9.68,0,0,0-.61-3.15,6.45,6.45,0,0,0-1.5-2.31,6.41,6.41,0,0,0-2.3-1.5,9.47,9.47,0,0,0-3.16-.6C17,0,16.53,0,13,0Z"/><path class="cls-1" d="M13,6.33A6.64,6.64,0,0,0,9.29,7.46a6.69,6.69,0,0,0-2.84,6.86,6.78,6.78,0,0,0,1.83,3.42A6.68,6.68,0,0,0,19.68,13a6.69,6.69,0,0,0-1.95-4.72A6.63,6.63,0,0,0,13,6.33Zm0,11a4.3,4.3,0,0,1-2.41-.73,4.35,4.35,0,0,1-1.6-2,4.41,4.41,0,0,1-.25-2.51,4.39,4.39,0,0,1,3.42-3.41A4.4,4.4,0,0,1,14.67,9,4.36,4.36,0,0,1,17,14.66a4.06,4.06,0,0,1-.94,1.41,4.2,4.2,0,0,1-1.41.94,4.28,4.28,0,0,1-1.66.33"/><path class="cls-1" d="M21.5,6.06a1.58,1.58,0,0,1-.26.87,1.63,1.63,0,0,1-.7.57,1.56,1.56,0,0,1-2-2,1.63,1.63,0,0,1,.57-.7,1.58,1.58,0,0,1,.87-.26A1.57,1.57,0,0,1,21.5,6.06"/></svg>