<svg id="Layer_1" data-name="Layer 1" xmlns="http://www.w3.org/2000/svg" viewBox="0 0 24 24"><defs><style>.cls-1{fill:#fff;}</style></defs><title>LandingPage</title><path class="cls-1" d="M5.43,8h-5V24h5Z"/><path class="cls-1" d="M2.93,5.87a3.11,3.11,0,0,0,1.12-.23A3,3,0,0,0,5,5a3,3,0,0,0,.85-2.09,2.92,2.92,0,0,0-.5-1.62A2.89,2.89,0,0,0,4,.22,2.87,2.87,0,0,0,2.34.06,2.92,2.92,0,0,0,.85.87,2.92,2.92,0,0,0,.22,4.06,3,3,0,0,0,1.3,5.37a3,3,0,0,0,1.63.5Z"/><path class="cls-1" d="M13.34,15.59c0-2.26,1-3.61,3-3.61,1.83,0,2.7,1.3,2.7,3.61V24H24V13.89c0-4.29-2.43-6.38-5.82-6.38a5.61,5.61,0,0,0-4.83,2.65V8H8.6V24h4.74Z"/></svg>