<svg id="Layer_1" data-name="Layer 1" xmlns="http://www.w3.org/2000/svg" viewBox="0 0 299.57 136.79"><defs><style>.cls-1{fill:#f9f9fa;}</style></defs><title>LandingPage</title><path class="cls-1" d="M41.42,6.91v6.15H33.93V34.67H26.25V13.06H18.84V6.91Z"/><path class="cls-1" d="M68.78,6.91V34.67H61.1V23.46H51.69V34.67H44V6.91h7.72V17.3H61.1V6.91Z"/><path class="cls-1" d="M80.78,13.06v4.59h9v5.84h-9v5H90.93v6.16H73.06V6.91H90.93v6.15Z"/><path class="cls-1" d="M41,55.35a13.24,13.24,0,0,1,5.1,5.08,15.3,15.3,0,0,1,0,14.66A13.45,13.45,0,0,1,41,80.16a14.8,14.8,0,0,1-14.26,0,13.36,13.36,0,0,1-5.13-5.07,15.23,15.23,0,0,1,0-14.66,13.32,13.32,0,0,1,5.13-5.08,14.86,14.86,0,0,1,14.29,0ZM29.26,62.56a7.57,7.57,0,0,0-1.68,5.19,7.52,7.52,0,0,0,1.68,5.14,5.85,5.85,0,0,0,4.63,1.92,5.81,5.81,0,0,0,4.59-1.92,7.52,7.52,0,0,0,1.68-5.14,7.61,7.61,0,0,0-1.66-5.19,5.82,5.82,0,0,0-4.61-1.9A5.87,5.87,0,0,0,29.26,62.56Z"/><path class="cls-1" d="M59.17,72.42v9.29H51.45V54H63c3.34,0,5.9.84,7.66,2.53a8.92,8.92,0,0,1,2.65,6.76A9.3,9.3,0,0,1,72.11,68a8.11,8.11,0,0,1-3.5,3.27A12.22,12.22,0,0,1,63,72.42Zm6.32-9.17c0-2-1.13-3.06-3.37-3.06H59.17v6.15h2.95C64.36,66.34,65.49,65.31,65.49,63.25Z"/><path class="cls-1" d="M84,72.42v9.29H76.31V54H87.83c3.35,0,5.9.84,7.67,2.53a8.92,8.92,0,0,1,2.64,6.76A9.3,9.3,0,0,1,97,68a8.11,8.11,0,0,1-3.5,3.27,12.19,12.19,0,0,1-5.63,1.2Zm6.31-9.17c0-2-1.13-3.06-3.37-3.06H84v6.15H87C89.21,66.34,90.34,65.31,90.34,63.25Z"/><path class="cls-1" d="M121.68,55.35a13.24,13.24,0,0,1,5.1,5.08,15.3,15.3,0,0,1,0,14.66,13.4,13.4,0,0,1-5.12,5.07A14.16,14.16,0,0,1,114.53,82a14.32,14.32,0,0,1-7.14-1.83,13.36,13.36,0,0,1-5.13-5.07,15.23,15.23,0,0,1,0-14.66,13.32,13.32,0,0,1,5.13-5.08,14.86,14.86,0,0,1,14.29,0ZM109.9,62.56a7.57,7.57,0,0,0-1.68,5.19,7.52,7.52,0,0,0,1.68,5.14,6.49,6.49,0,0,0,9.22,0,7.52,7.52,0,0,0,1.68-5.14,7.61,7.61,0,0,0-1.66-5.19,6.57,6.57,0,0,0-9.24,0Z"/><path class="cls-1" d="M146.2,81.71l-5.6-10.23h-.79V81.71h-7.72V54h12.19A12.71,12.71,0,0,1,150,55.11a8.1,8.1,0,0,1,3.51,3.2,9,9,0,0,1,1.17,4.58,8.13,8.13,0,0,1-1.6,5,8.48,8.48,0,0,1-4.63,3l6.31,10.78Zm-6.39-15.4h3.81q3.21,0,3.21-2.9a2.89,2.89,0,0,0-.8-2.16,3.35,3.35,0,0,0-2.41-.79h-3.81Z"/><path class="cls-1" d="M178.59,54v6.15H171.1v21.6h-7.68V60.11H156V54Z"/><path class="cls-1" d="M188.66,54V69.79a5.63,5.63,0,0,0,1,3.63,3.82,3.82,0,0,0,3.16,1.27,3.92,3.92,0,0,0,3.19-1.29,5.46,5.46,0,0,0,1.08-3.61V54h7.68V69.79a13.09,13.09,0,0,1-1.58,6.67,10.28,10.28,0,0,1-4.34,4.13A13.43,13.43,0,0,1,192.7,82a13,13,0,0,1-6.1-1.38,9.69,9.69,0,0,1-4.13-4.11A13.84,13.84,0,0,1,181,69.79V54Z"/><path class="cls-1" d="M234.53,81.71h-7.72l-10.2-15.48V81.71h-7.72V54h7.72l10.2,15.69V54h7.72Z"/><path class="cls-1" d="M246.53,54V81.71H238.8V54Z"/><path class="cls-1" d="M271.69,54v6.15h-7.48v21.6h-7.69V60.11h-7.41V54Z"/><path class="cls-1" d="M299.57,54l-9.8,18.93v8.82h-7.69V72.89L272.28,54h8.82L286,64.54,290.87,54Z"/><path class="cls-1" d="M28.24,119.46v9.29H20.52V101H32.05c3.34,0,5.9.84,7.66,2.53a8.92,8.92,0,0,1,2.65,6.76,9.3,9.3,0,0,1-1.18,4.7,8.16,8.16,0,0,1-3.51,3.28,12.28,12.28,0,0,1-5.62,1.19Zm6.32-9.17c0-2-1.13-3.06-3.37-3.06h-3v6.16h3C33.43,113.39,34.56,112.35,34.56,110.29Z"/><path class="cls-1" d="M59.49,128.75l-5.61-10.23H53.1v10.23H45.38V101H57.57a12.5,12.5,0,0,1,5.66,1.16,7.92,7.92,0,0,1,3.51,3.19,9.07,9.07,0,0,1,1.18,4.59,8.13,8.13,0,0,1-1.61,5,8.41,8.41,0,0,1-4.63,3L68,128.75Zm-6.39-15.4h3.8c2.14,0,3.22-1,3.22-2.9a2.86,2.86,0,0,0-.81-2.16,3.33,3.33,0,0,0-2.41-.78H53.1Z"/><path class="cls-1" d="M91.5,102.39a13.24,13.24,0,0,1,5.1,5.08,15.3,15.3,0,0,1,0,14.66,13.5,13.5,0,0,1-5.12,5.08,14.86,14.86,0,0,1-14.25,0,13.39,13.39,0,0,1-5.13-5.08,15.16,15.16,0,0,1,0-14.66,13.32,13.32,0,0,1,5.13-5.08,14.94,14.94,0,0,1,14.29,0ZM79.72,109.6a8.74,8.74,0,0,0,0,10.33,6.48,6.48,0,0,0,9.21,0,7.47,7.47,0,0,0,1.69-5.13A7.63,7.63,0,0,0,89,109.6a5.81,5.81,0,0,0-4.6-1.9A5.88,5.88,0,0,0,79.72,109.6Z"/><path class="cls-1" d="M120.14,101v18.42c0,3.14-.83,5.52-2.47,7.16a9.45,9.45,0,0,1-6.94,2.45,10.61,10.61,0,0,1-7.63-2.67c-1.86-1.78-2.8-4.36-2.8-7.76h7.61c0,2.33.82,3.49,2.47,3.49q2.07,0,2.07-2.67V101Z"/><path class="cls-1" d="M132,107.15v4.59h9v5.84h-9v5h10.15v6.15H124.25V101h17.88v6.15Z"/><path class="cls-1" d="M164.85,102a11.55,11.55,0,0,1,4.56,3.72,13.88,13.88,0,0,1,2.4,5.59h-8.12a5.3,5.3,0,0,0-2.08-2.57,5.83,5.83,0,0,0-3.25-.92,5.08,5.08,0,0,0-4.12,1.9,9,9,0,0,0,0,10.17,5.07,5.07,0,0,0,4.12,1.92,5.69,5.69,0,0,0,3.25-.94,5.4,5.4,0,0,0,2.08-2.59h8.12a12.8,12.8,0,0,1-4.45,7.75,13.54,13.54,0,0,1-8.88,2.88,14.09,14.09,0,0,1-7.2-1.79,12,12,0,0,1-4.74-5,16.92,16.92,0,0,1,0-14.66,12,12,0,0,1,4.74-5,14.09,14.09,0,0,1,7.2-1.79A14.81,14.81,0,0,1,164.85,102Z"/><path class="cls-1" d="M196.15,101v6.15h-7.49v21.6H181v-21.6h-7.41V101Z"/><path class="cls-1" d="M6.89,0V136.79H0V0Z"/></svg>