<svg id="Layer_1" data-name="Layer 1" xmlns="http://www.w3.org/2000/svg" viewBox="0 0 10.18 11"><title>icon</title><path d="M6.55,4.05A2,2,0,1,0,7.16,5.5,2,2,0,0,0,6.55,4.05ZM5.82,6.23A1,1,0,1,1,4.37,4.78,1,1,0,1,1,5.82,6.23ZM9.27,6a.25.25,0,0,1-.06-.2,4.69,4.69,0,0,0,0-.53A.25.25,0,0,1,9.27,5l.56-.56a1.13,1.13,0,0,0,.25-1.3,5.27,5.27,0,0,0-.48-.83,1.16,1.16,0,0,0-1.25-.44l-.76.21a.27.27,0,0,1-.21-.05,3.42,3.42,0,0,0-.46-.26.25.25,0,0,1-.14-.16L6.58.89a1.14,1.14,0,0,0-1-.86c-.16,0-.32,0-.49,0a3.87,3.87,0,0,0-.48,0,1.14,1.14,0,0,0-1,.86l-.2.76a.25.25,0,0,1-.14.16,3.42,3.42,0,0,0-.46.26.27.27,0,0,1-.21.05l-.76-.21a1.16,1.16,0,0,0-1.25.44,5.27,5.27,0,0,0-.48.83,1.13,1.13,0,0,0,.25,1.3L.92,5a.29.29,0,0,1,.06.2,4.69,4.69,0,0,0,0,.53A.29.29,0,0,1,.92,6l-.56.56a1.13,1.13,0,0,0-.25,1.3,6.18,6.18,0,0,0,.48.83,1.16,1.16,0,0,0,1.25.44l.76-.21a.27.27,0,0,1,.21,0,3.42,3.42,0,0,0,.46.26.25.25,0,0,1,.14.16l.2.76a1.14,1.14,0,0,0,1,.86,5.24,5.24,0,0,0,1,0,1.14,1.14,0,0,0,1-.86l.2-.76a.25.25,0,0,1,.14-.16,3.42,3.42,0,0,0,.46-.26.27.27,0,0,1,.21,0l.76.21A1.16,1.16,0,0,0,9.6,8.66a5.27,5.27,0,0,0,.48-.83,1.13,1.13,0,0,0-.25-1.3Zm-.72.74.56.55c.05.06.05.11,0,.13a4.18,4.18,0,0,1-.4.68.12.12,0,0,1-.13,0l-.76-.21a1.32,1.32,0,0,0-1.05.19,3.79,3.79,0,0,1-.34.2,1.27,1.27,0,0,0-.69.82l-.2.76a.15.15,0,0,1-.09.1,5.21,5.21,0,0,1-.79,0,.15.15,0,0,1-.09-.1l-.2-.76a1.27,1.27,0,0,0-.69-.82,3.79,3.79,0,0,1-.34-.2,1.32,1.32,0,0,0-1-.19l-.76.21c-.08,0-.12,0-.13,0A3.57,3.57,0,0,1,1,7.39s0-.07,0-.13l.56-.55a1.27,1.27,0,0,0,.37-1A2.81,2.81,0,0,1,2,5.3a1.27,1.27,0,0,0-.37-1l-.56-.55C1,3.69,1,3.64,1,3.62a3.57,3.57,0,0,1,.4-.68s.05,0,.13,0l.76.21a1.32,1.32,0,0,0,1-.19,3.79,3.79,0,0,1,.34-.2,1.27,1.27,0,0,0,.69-.82l.2-.76a.15.15,0,0,1,.09-.1,5.21,5.21,0,0,1,.79,0,.15.15,0,0,1,.09.1l.2.76a1.27,1.27,0,0,0,.69.82,3.79,3.79,0,0,1,.34.2,1.32,1.32,0,0,0,1.05.19l.76-.21c.08,0,.12,0,.13,0a4.18,4.18,0,0,1,.4.68s0,.07,0,.13l-.56.55a1.27,1.27,0,0,0-.37,1,2.81,2.81,0,0,1,0,.41A1.27,1.27,0,0,0,8.55,6.71ZM5.09,3.44A2.06,2.06,0,0,0,3.64,7,2.06,2.06,0,1,0,5.09,3.44Zm.73,2.79A1,1,0,1,1,4.37,4.78,1,1,0,1,1,5.82,6.23Zm.73-2.18A2,2,0,1,0,7.16,5.5,2,2,0,0,0,6.55,4.05ZM5.82,6.23A1,1,0,1,1,4.37,4.78,1,1,0,1,1,5.82,6.23Z"/></svg>