<svg id="Layer_1" data-name="Layer 1" xmlns="http://www.w3.org/2000/svg" viewBox="0 0 9.45 13"><title>icon</title><path d="M4.73,3.06a1.68,1.68,0,0,0-1,.3,1.71,1.71,0,0,0-.64.79,1.82,1.82,0,0,0-.1,1,1.75,1.75,0,0,0,.48.91,1.7,1.7,0,0,0,1.89.39A1.8,1.8,0,0,0,6,3.58a1.7,1.7,0,0,0-1.23-.52Zm0,2.66a.87.87,0,0,1-.81-.55,1,1,0,0,1,0-.51.94.94,0,0,1,.24-.45A.88.88,0,0,1,4.56,4a1,1,0,0,1,.5,0,.91.91,0,0,1,.54.82.9.9,0,0,1-.26.63.83.83,0,0,1-.61.26Z"/><path d="M8.07,1.41A4.69,4.69,0,0,0,5,0,4.64,4.64,0,0,0,1.75,1.08a4.82,4.82,0,0,0-1.69,3A4.92,4.92,0,0,0,.77,7.47l3.28,5.16a.93.93,0,0,0,.29.27.76.76,0,0,0,.39.1.75.75,0,0,0,.38-.1.75.75,0,0,0,.29-.27L8.69,7.47a5,5,0,0,0,.74-3.14A4.88,4.88,0,0,0,8.07,1.41ZM8,7,4.73,12.06,1.49,7A4,4,0,0,1,2,2a4,4,0,0,1,1.25-.85A3.77,3.77,0,0,1,4.73.89a3.72,3.72,0,0,1,1.47.3A3.85,3.85,0,0,1,7.45,2,4,4,0,0,1,8,7Z"/></svg>