<svg id="Layer_1" data-name="Layer 1" xmlns="http://www.w3.org/2000/svg" viewBox="0 0 24.03 24"><defs><style>.cls-1{fill:#171918;}</style></defs><title>icon_black</title><path class="cls-1" d="M23.48,11.11l-22-11A.88.88,0,0,0,.93,0,1,1,0,0,0,.4.23,1,1,0,0,0,.1.68a1,1,0,0,0,0,.55L3,12,0,22.74a1,1,0,0,0,0,.46,1,1,0,0,0,.2.42.9.9,0,0,0,.36.28A1,1,0,0,0,1,24a1.11,1.11,0,0,0,.45-.11l22-11a1,1,0,0,0,.4-.37,1,1,0,0,0,0-1A.93.93,0,0,0,23.48,11.11Zm-20.9,10L4.79,13H14V11H4.79L2.58,2.89,20.79,12Z"/></svg>