<svg id="Layer_1" data-name="Layer 1" xmlns="http://www.w3.org/2000/svg" viewBox="0 0 16.14 8.7"><title>FAVICON</title><path d="M6.46.56A4,4,0,0,1,8,2.11a4.38,4.38,0,0,1,.57,2.23A4.45,4.45,0,0,1,8,6.59,4.12,4.12,0,0,1,6.45,8.14a4.3,4.3,0,0,1-2.17.56,4.29,4.29,0,0,1-2.16-.56A4.12,4.12,0,0,1,.57,6.59,4.45,4.45,0,0,1,0,4.34,4.38,4.38,0,0,1,.57,2.11,4.12,4.12,0,0,1,2.12.56,4.29,4.29,0,0,1,4.28,0,4.34,4.34,0,0,1,6.46.56Zm-3.78,2a2.58,2.58,0,0,0-.59,1.78,2.58,2.58,0,0,0,.59,1.78,2.05,2.05,0,0,0,1.6.66,2.05,2.05,0,0,0,1.6-.66,2.54,2.54,0,0,0,.6-1.78,2.57,2.57,0,0,0-.59-1.77,2.06,2.06,0,0,0-1.61-.66A2.08,2.08,0,0,0,2.68,2.56Z" fill="#f9f9fa"/><path d="M11.77,5.64v3h-2V.13H13a3.24,3.24,0,0,1,2.31.75,2.65,2.65,0,0,1,.79,2,2.83,2.83,0,0,1-.35,1.41,2.49,2.49,0,0,1-1,1,3.82,3.82,0,0,1-1.7.35ZM14.05,2.9q0-1.11-1.23-1.11H11.77V4h1.05C13.64,4,14.05,3.63,14.05,2.9Z" fill="#f9f9fa"/></svg>